<?xml version="1.0" encoding="utf-8"?>
<!-- Generator: Adobe Illustrator 18.0.0, SVG Export Plug-In . SVG Version: 6.00 Build 0)  -->
<!DOCTYPE svg PUBLIC "-//W3C//DTD SVG 1.1//EN" "http://www.w3.org/Graphics/SVG/1.1/DTD/svg11.dtd">
<svg version="1.1" id="Layer_1" xmlns="http://www.w3.org/2000/svg" xmlns:xlink="http://www.w3.org/1999/xlink" x="0px" y="0px"
	 viewBox="0 0 1400 980" enable-background="new 0 0 1400 980" xml:space="preserve">
<g>
	<rect fill="#172031" width="1400" height="980"/>
	<g>
		<g>
			<path fill="#E49C46" d="M708.9,366.8c-1-23.1-16.8-23.1-17.8,0c0,0.5,0,1,0,1.5c0.1,3.4,1.4,6.7,3.4,9.5
				c6.4,8.9-2.1,12.3-2.1,12.3v17.2v68.2h15.1v-68.2v-17.2c0,0-8.5-3.3-2.1-12.3c2-2.8,3.3-6.1,3.4-9.5
				C708.9,367.8,708.9,367.3,708.9,366.8z"/>
			<path fill="#E49C46" d="M791.8,408.5c15.7-17,4.5-28.2-12.6-12.6c-0.4,0.3-0.7,0.7-1.1,1c-2.4,2.5-3.7,5.8-4.3,9.2
				c-1.8,10.8-10.2,7.2-10.2,7.2l-12.2,12.2l-48.2,48.2l10.7,10.7l48.2-48.2l12.2-12.2c0,0-3.6-8.4,7.2-10.2
				c3.4-0.6,6.6-1.9,9.2-4.3C791.1,409.2,791.4,408.9,791.8,408.5z"/>
			<path fill="#E49C46" d="M820.9,496.6c23.1-1,23.1-16.8,0-17.8c-0.5,0-1,0-1.5,0c-3.4,0.1-6.7,1.4-9.5,3.4
				c-8.9,6.4-12.3-2.1-12.3-2.1h-17.2h-68.2v15.1h68.2h17.2c0,0,3.3-8.5,12.3-2.1c2.8,2,6.1,3.3,9.5,3.4
				C819.9,496.6,820.4,496.6,820.9,496.6z"/>
			<path fill="#E49C46" d="M779.2,579.5c17,15.7,28.2,4.5,12.6-12.6c-0.3-0.4-0.7-0.7-1-1.1c-2.5-2.4-5.8-3.7-9.2-4.3
				c-10.8-1.8-7.2-10.2-7.2-10.2l-12.2-12.2L714,491l-10.7,10.7l48.2,48.2l12.2,12.2c0,0,8.4-3.6,10.2,7.2c0.6,3.4,1.9,6.6,4.3,9.2
				C778.5,578.8,778.8,579.1,779.2,579.5z"/>
			<path fill="#E49C46" d="M691.1,608.6c1,23.1,16.8,23.1,17.8,0c0-0.5,0-1,0-1.5c-0.1-3.4-1.4-6.7-3.4-9.5
				c-6.4-8.9,2.1-12.3,2.1-12.3v-17.2v-68.2h-15.1v68.2v17.2c0,0,8.5,3.3,2.1,12.3c-2,2.8-3.3,6.1-3.4,9.5
				C691.1,607.6,691.1,608.1,691.1,608.6z"/>
			<path fill="#E49C46" d="M608.2,566.9c-15.7,17-4.5,28.2,12.6,12.6c0.4-0.3,0.7-0.7,1.1-1c2.4-2.5,3.7-5.8,4.3-9.2
				c1.8-10.8,10.2-7.2,10.2-7.2l12.2-12.2l48.2-48.2L686,491l-48.2,48.2l-12.2,12.2c0,0,3.6,8.4-7.2,10.2c-3.4,0.6-6.6,1.9-9.2,4.3
				C608.9,566.2,608.6,566.5,608.2,566.9z"/>
			<path fill="#E49C46" d="M579.1,478.8c-23.1,1-23.1,16.8,0,17.8c0.5,0,1,0,1.5,0c3.4-0.1,6.7-1.4,9.5-3.4
				c8.9-6.4,12.3,2.1,12.3,2.1h17.2h68.2v-15.1h-68.2h-17.2c0,0-3.3,8.5-12.3,2.1c-2.8-2-6.1-3.3-9.5-3.4
				C580.1,478.8,579.6,478.8,579.1,478.8z"/>
			<path fill="#E49C46" d="M620.8,396c-17-15.7-28.2-4.5-12.6,12.6c0.3,0.4,0.7,0.7,1,1.1c2.5,2.4,5.8,3.7,9.2,4.3
				c10.8,1.8,7.2,10.2,7.2,10.2l12.2,12.2l48.2,48.2l10.7-10.7l-48.2-48.2l-12.2-12.2c0,0-8.4,3.6-10.2-7.2
				c-0.6-3.4-1.9-6.6-4.3-9.2C621.5,396.6,621.2,396.3,620.8,396z"/>
			<path fill="#854D21" d="M708.9,368.3c0-0.5,0-1,0-1.5c-0.5-11.6-4.7-17.3-8.9-17.3v126h7.6v-68.2v-17.2c0,0-8.5-3.3-2.1-12.3
				C707.4,375,708.8,371.8,708.9,368.3z"/>
			<path fill="#854D21" d="M790.7,409.6c0.4-0.3,0.7-0.7,1-1.1c7.8-8.5,8.9-15.6,6-18.5l-89.1,89.1l5.4,5.4l48.2-48.2l12.2-12.2
				c0,0-3.6-8.4,7.2-10.2C785,413.3,788.2,411.9,790.7,409.6z"/>
			<path fill="#854D21" d="M819.4,496.6c0.5,0,1,0,1.5,0c11.6-0.5,17.3-4.7,17.3-8.9h-126v7.6h68.2h17.2c0,0,3.3-8.5,12.3-2.1
				C812.7,495.2,816,496.5,819.4,496.6z"/>
			<path fill="#854D21" d="M778.1,578.4c0.3,0.4,0.7,0.7,1.1,1c8.5,7.8,15.6,8.9,18.5,6l-89.1-89.1l-5.4,5.4l48.2,48.2l12.2,12.2
				c0,0,8.4-3.6,10.2,7.2C774.4,572.7,775.8,575.9,778.1,578.4z"/>
			<path fill="#854D21" d="M691.1,607.1c0,0.5,0,1,0,1.5c0.5,11.6,4.7,17.3,8.9,17.3v-126h-7.6v68.2v17.2c0,0,8.5,3.3,2.1,12.3
				C692.6,600.4,691.2,603.7,691.1,607.1z"/>
			<path fill="#854D21" d="M609.3,565.9c-0.4,0.3-0.7,0.7-1,1.1c-7.8,8.5-8.9,15.6-6,18.5l89.1-89.1L686,491l-48.2,48.2l-12.2,12.2
				c0,0,3.6,8.4-7.2,10.2C615,562.1,611.8,563.5,609.3,565.9z"/>
			<path fill="#854D21" d="M580.6,478.8c-0.5,0-1,0-1.5,0c-11.6,0.5-17.3,4.7-17.3,8.9h126v-7.6h-68.2h-17.2c0,0-3.3,8.5-12.3,2.1
				C587.3,480.3,584,478.9,580.6,478.8z"/>
			<path fill="#854D21" d="M621.9,397c-0.3-0.4-0.7-0.7-1.1-1c-8.5-7.8-15.6-8.9-18.5-6l89.1,89.1l5.4-5.4l-48.2-48.2l-12.2-12.2
				c0,0-8.4,3.6-10.2-7.2C625.6,402.8,624.2,399.5,621.9,397z"/>
			<path fill="#854D21" d="M700,584.8c-53.5,0-97.1-43.6-97.1-97.1s43.6-97.1,97.1-97.1s97.1,43.6,97.1,97.1S753.5,584.8,700,584.8z
				 M700,407.7c-44.1,0-80,35.9-80,80s35.9,80,80,80c44.1,0,80-35.9,80-80S744.1,407.7,700,407.7z"/>
			<path fill="#E49C46" d="M700,392.6c-52.5,0-95.1,42.6-95.1,95.1s42.6,95.1,95.1,95.1s95.1-42.6,95.1-95.1S752.5,392.6,700,392.6z
				 M700,569.7c-45.3,0-82-36.7-82-82s36.7-82,82-82s82,36.7,82,82S745.3,569.7,700,569.7z"/>
			<path fill="#854D21" d="M700,513.2c-0.7,0-1.4,0-2.1-0.1c-12.4-1-22.4-11-23.4-23.4c-0.6-7.2,1.8-14.1,6.7-19.4
				c4.8-5.2,11.7-8.2,18.7-8.2c0.7,0,1.4,0,2.1,0.1c12.4,1,22.4,11,23.4,23.4c0.6,7.2-1.8,14.1-6.7,19.4
				C713.9,510.2,707.1,513.2,700,513.2C700,513.2,700,513.2,700,513.2z M700,477.8c-0.4,0-0.9,0-1.3,0.1c-4.4,0.6-8,4.2-8.6,8.6
				c-0.4,2.9,0.5,5.7,2.4,7.9c1.9,2.1,4.6,3.4,7.5,3.4c0.4,0,0.9,0,1.3-0.1c4.4-0.6,8-4.2,8.6-8.6c0.4-2.9-0.5-5.7-2.4-7.9
				C705.6,479,702.9,477.8,700,477.8z"/>
			<path fill="#E49C46" d="M701.9,464.3c-14.5-1.1-26.5,10.9-25.4,25.4c0.9,11.4,10.1,20.6,21.5,21.5c14.5,1.1,26.5-10.9,25.4-25.4
				C722.5,474.4,713.3,465.2,701.9,464.3z M701.6,499.6c-7.8,1-14.4-5.6-13.4-13.4c0.7-5.3,5-9.6,10.3-10.3
				c7.8-1,14.4,5.6,13.4,13.4C711.2,494.6,706.9,498.9,701.6,499.6z"/>
			<circle fill="#854D21" cx="700" cy="470.1" r="4.1"/>
			<circle fill="#854D21" cx="712.4" cy="475.3" r="4.1"/>
			<circle fill="#854D21" cx="717.6" cy="487.7" r="4.1"/>
			<circle fill="#854D21" cx="712.4" cy="500.2" r="4.1"/>
			<circle fill="#854D21" cx="700" cy="505.3" r="4.1"/>
			<circle fill="#854D21" cx="687.6" cy="500.2" r="4.1"/>
			<circle fill="#854D21" cx="682.4" cy="487.7" r="4.1"/>
			<circle fill="#854D21" cx="687.6" cy="475.3" r="4.1"/>
		</g>
		<g>
			<path fill="#E49C46" d="M709.8,715.6v-4.7c0-1.3-1-2.3-2.2-2.4v-3.3V682c0,0-8.5-3.3-2.1-12.3c2-2.8,3.3-6.1,3.4-9.5
				c0-0.5,0-1,0-1.5c-0.6-15.1-17.1-15.1-17.8,0c0,0.5,0,1,0,1.5c0.1,3.4,1.4,6.7,3.4,9.5c6.4,8.9-2.1,12.3-2.1,12.3v23.2v3.3
				c-1.2,0.1-2.2,1.1-2.2,2.4v4.7c0,1.3,1,2.3,2.2,2.4v2.1c-1.2,0.1-2.2,1.1-2.2,2.4v4.7c0,1.3,1,2.3,2.2,2.4v1.9
				c-1.3,0.5-2.2,1.7-2.2,3.2v16.9c0,1.5,0.9,2.7,2.2,3.2v18.4h15.1v-18.4c1.3-0.5,2.2-1.7,2.2-3.2v-16.9c0-1.5-0.9-2.7-2.2-3.2
				v-1.9c1.2-0.1,2.2-1.1,2.2-2.4v-4.7c0-1.3-1-2.3-2.2-2.4V718C708.8,717.9,709.8,716.9,709.8,715.6z"/>
			<path fill="#E49C46" d="M756.4,743l3.3-3.3c0.9-0.9,0.9-2.3,0.1-3.3l2.4-2.4l16.4-16.4c0,0-3.6-8.4,7.2-10.2
				c3.4-0.6,6.6-1.9,9.2-4.3c0.4-0.3,0.7-0.7,1-1.1c10.3-11.2-1.4-22.8-12.6-12.6c-0.4,0.3-0.7,0.7-1.1,1c-2.4,2.5-3.7,5.8-4.3,9.2
				c-1.8,10.8-10.2,7.2-10.2,7.2l-16.4,16.4l-2.4,2.4c-1-0.8-2.4-0.8-3.3,0.1l-3.3,3.3c-0.9,0.9-0.9,2.3-0.1,3.3l-1.5,1.5
				c-1-0.8-2.4-0.8-3.3,0.1l-3.3,3.3c-0.9,0.9-0.9,2.3-0.1,3.3l-1.3,1.3c-1.3-0.6-2.8-0.3-3.8,0.7l-12,12c-1,1-1.3,2.6-0.7,3.8
				l-13,13l10.7,10.7l13-13c1.3,0.6,2.8,0.3,3.8-0.7l12-12c1-1,1.3-2.6,0.7-3.8l1.3-1.3c1,0.8,2.4,0.8,3.3-0.1l3.3-3.3
				c0.9-0.9,0.9-2.3,0.1-3.3l1.5-1.5C754.1,744,755.5,743.9,756.4,743z"/>
			<path fill="#E49C46" d="M770,795.4h4.7c1.3,0,2.3-1,2.4-2.2h3.3h23.2c0,0,3.3-8.5,12.3-2.1c2.8,2,6.1,3.3,9.5,3.4
				c0.5,0,1,0,1.5,0c15.1-0.6,15.1-17.1,0-17.8c-0.5,0-1,0-1.5,0c-3.4,0.1-6.7,1.4-9.5,3.4c-8.9,6.4-12.3-2.1-12.3-2.1h-23.2h-3.3
				c-0.1-1.2-1.1-2.2-2.4-2.2H770c-1.3,0-2.3,1-2.4,2.2h-2.1c-0.1-1.2-1.1-2.2-2.4-2.2h-4.7c-1.3,0-2.3,1-2.4,2.2H754
				c-0.5-1.3-1.7-2.2-3.2-2.2h-16.9c-1.5,0-2.7,0.9-3.2,2.2h-18.4v15.1h18.4c0.5,1.3,1.7,2.2,3.2,2.2h16.9c1.5,0,2.7-0.9,3.2-2.2
				h1.9c0.1,1.2,1.1,2.2,2.4,2.2h4.7c1.3,0,2.3-1,2.4-2.2h2.1C767.7,794.4,768.7,795.4,770,795.4z"/>
			<path fill="#E49C46" d="M742.5,842l3.3,3.3c0.9,0.9,2.3,0.9,3.3,0.1l2.4,2.4l16.4,16.4c0,0,8.4-3.6,10.2,7.2
				c0.6,3.4,1.9,6.6,4.3,9.2c0.3,0.4,0.7,0.7,1.1,1c11.2,10.3,22.8-1.4,12.6-12.6c-0.3-0.4-0.7-0.7-1-1.1c-2.5-2.4-5.8-3.7-9.2-4.3
				c-10.8-1.8-7.2-10.2-7.2-10.2l-16.4-16.4l-2.4-2.4c0.8-1,0.8-2.4-0.1-3.3l-3.3-3.3c-0.9-0.9-2.3-0.9-3.3-0.1l-1.5-1.5
				c0.8-1,0.8-2.4-0.1-3.3l-3.3-3.3c-0.9-0.9-2.3-0.9-3.3-0.1l-1.3-1.3c0.6-1.3,0.3-2.8-0.7-3.8l-12-12c-1-1-2.6-1.3-3.8-0.7l-13-13
				l-10.7,10.7l13,13c-0.6,1.3-0.3,2.8,0.7,3.8l12,12c1,1,2.6,1.3,3.8,0.7l1.3,1.3c-0.8,1-0.8,2.4,0.1,3.3l3.3,3.3
				c0.9,0.9,2.3,0.9,3.3,0.1l1.5,1.5C741.6,839.7,741.7,841.1,742.5,842z"/>
			<path fill="#E49C46" d="M690.2,855.5v4.7c0,1.3,1,2.3,2.2,2.4v3.3v23.2c0,0,8.5,3.3,2.1,12.3c-2,2.8-3.3,6.1-3.4,9.5
				c0,0.5,0,1,0,1.5c0.6,15.1,17.1,15.1,17.8,0c0-0.5,0-1,0-1.5c-0.1-3.4-1.4-6.7-3.4-9.5c-6.4-8.9,2.1-12.3,2.1-12.3V866v-3.3
				c1.2-0.1,2.2-1.1,2.2-2.4v-4.7c0-1.3-1-2.3-2.2-2.4V851c1.2-0.1,2.2-1.1,2.2-2.4v-4.7c0-1.3-1-2.3-2.2-2.4v-1.9
				c1.3-0.5,2.2-1.7,2.2-3.2v-16.9c0-1.5-0.9-2.7-2.2-3.2v-18.4h-15.1v18.4c-1.3,0.5-2.2,1.7-2.2,3.2v16.9c0,1.5,0.9,2.7,2.2,3.2
				v1.9c-1.2,0.1-2.2,1.1-2.2,2.4v4.7c0,1.3,1,2.3,2.2,2.4v2.1C691.2,853.2,690.2,854.3,690.2,855.5z"/>
			<path fill="#E49C46" d="M643.6,828.1l-3.3,3.3c-0.9,0.9-0.9,2.3-0.1,3.3l-2.4,2.4l-16.4,16.4c0,0,3.6,8.4-7.2,10.2
				c-3.4,0.6-6.6,1.9-9.2,4.3c-0.4,0.3-0.7,0.7-1,1.1c-10.3,11.2,1.4,22.8,12.6,12.6c0.4-0.3,0.7-0.7,1.1-1c2.4-2.5,3.7-5.8,4.3-9.2
				c1.8-10.8,10.2-7.2,10.2-7.2l16.4-16.4l2.4-2.4c1,0.8,2.4,0.8,3.3-0.1l3.3-3.3c0.9-0.9,0.9-2.3,0.1-3.3l1.5-1.5
				c1,0.8,2.4,0.8,3.3-0.1l3.3-3.3c0.9-0.9,0.9-2.3,0.1-3.3l1.3-1.3c1.3,0.6,2.8,0.3,3.8-0.7l12-12c1-1,1.3-2.6,0.7-3.8l13-13
				L686,788.9l-13,13c-1.3-0.6-2.8-0.3-3.8,0.7l-12,12c-1,1-1.3,2.6-0.7,3.8l-1.3,1.3c-1-0.8-2.4-0.8-3.3,0.1l-3.3,3.3
				c-0.9,0.9-0.9,2.3-0.1,3.3l-1.5,1.5C645.9,827.2,644.5,827.2,643.6,828.1z"/>
			<path fill="#E49C46" d="M630,775.8h-4.7c-1.3,0-2.3,1-2.4,2.2h-3.3h-23.2c0,0-3.3,8.5-12.3,2.1c-2.8-2-6.1-3.3-9.5-3.4
				c-0.5,0-1,0-1.5,0c-15.1,0.6-15.1,17.1,0,17.8c0.5,0,1,0,1.5,0c3.4-0.1,6.7-1.4,9.5-3.4c8.9-6.4,12.3,2.1,12.3,2.1h23.2h3.3
				c0.1,1.2,1.1,2.2,2.4,2.2h4.7c1.3,0,2.3-1,2.4-2.2h2.1c0.1,1.2,1.1,2.2,2.4,2.2h4.7c1.3,0,2.3-1,2.4-2.2h1.9
				c0.5,1.3,1.7,2.2,3.2,2.2h16.9c1.5,0,2.7-0.9,3.2-2.2h18.4V778h-18.4c-0.5-1.3-1.7-2.2-3.2-2.2h-16.9c-1.5,0-2.7,0.9-3.2,2.2
				h-1.9c-0.1-1.2-1.1-2.2-2.4-2.2H637c-1.3,0-2.3,1-2.4,2.2h-2.1C632.3,776.8,631.3,775.8,630,775.8z"/>
			<path fill="#E49C46" d="M657.5,729.2l-3.3-3.3c-0.9-0.9-2.3-0.9-3.3-0.1l-2.4-2.4L632.1,707c0,0-8.4,3.6-10.2-7.2
				c-0.6-3.4-1.9-6.6-4.3-9.2c-0.3-0.4-0.7-0.7-1.1-1c-11.2-10.3-22.8,1.4-12.6,12.6c0.3,0.4,0.7,0.7,1,1.1c2.5,2.4,5.8,3.7,9.2,4.3
				c10.8,1.8,7.2,10.2,7.2,10.2l16.4,16.4l2.4,2.4c-0.8,1-0.8,2.4,0.1,3.3l3.3,3.3c0.9,0.9,2.3,0.9,3.3,0.1l1.5,1.5
				c-0.8,1-0.8,2.4,0.1,3.3l3.3,3.3c0.9,0.9,2.3,0.9,3.3,0.1l1.3,1.3c-0.6,1.3-0.3,2.8,0.7,3.8l12,12c1,1,2.6,1.3,3.8,0.7l13,13
				l10.7-10.7l-13-13c0.6-1.3,0.3-2.8-0.7-3.8l-12-12c-1-1-2.6-1.3-3.8-0.7l-1.3-1.3c0.8-1,0.8-2.4-0.1-3.3l-3.3-3.3
				c-0.9-0.9-2.3-0.9-3.3-0.1l-1.5-1.5C658.4,731.5,658.3,730.1,657.5,729.2z"/>
			<path fill="#854D21" d="M707.6,754.9c1.3-0.5,2.2-1.7,2.2-3.2v-16.9c0-1.5-0.9-2.7-2.2-3.2v-1.9c1.2-0.1,2.2-1.1,2.2-2.4v-4.7
				c0-1.3-1-2.3-2.2-2.4V718c1.2-0.1,2.2-1.1,2.2-2.4v-4.7c0-1.3-1-2.3-2.2-2.4v-3.3V682c0,0-8.5-3.3-2.1-12.3
				c2-2.8,3.3-6.1,3.4-9.5c0-0.5,0-1,0-1.5c-0.3-7.6-4.6-11.4-8.9-11.4v126h7.6V754.9z"/>
			<path fill="#854D21" d="M727,769.3c1.3,0.6,2.8,0.3,3.8-0.7l12-12c1-1,1.3-2.6,0.7-3.8l1.3-1.3c1,0.8,2.4,0.8,3.3-0.1l3.3-3.3
				c0.9-0.9,0.9-2.3,0.1-3.3l1.5-1.5c1,0.8,2.4,0.8,3.3-0.1l3.3-3.3c0.9-0.9,0.9-2.3,0.1-3.3l2.4-2.4l16.4-16.4
				c0,0-3.6-8.4,7.2-10.2c3.4-0.6,6.6-1.9,9.2-4.3c0.4-0.3,0.7-0.7,1-1.1c5.1-5.6,4.8-11.3,1.7-14.3L708.6,777l5.4,5.4L727,769.3z"
				/>
			<path fill="#854D21" d="M730.6,793.1c0.5,1.3,1.7,2.2,3.2,2.2h16.9c1.5,0,2.7-0.9,3.2-2.2h1.9c0.1,1.2,1.1,2.2,2.4,2.2h4.7
				c1.3,0,2.3-1,2.4-2.2h2.1c0.1,1.2,1.1,2.2,2.4,2.2h4.7c1.3,0,2.3-1,2.4-2.2h3.3h23.2c0,0,3.3-8.5,12.3-2.1c2.8,2,6.1,3.3,9.5,3.4
				c0.5,0,1,0,1.5,0c7.6-0.3,11.4-4.6,11.4-8.9h-126v7.6H730.6z"/>
			<path fill="#854D21" d="M716.3,812.6c-0.6,1.3-0.3,2.8,0.7,3.8l12,12c1,1,2.6,1.3,3.8,0.7l1.3,1.3c-0.8,1-0.8,2.4,0.1,3.3
				l3.3,3.3c0.9,0.9,2.3,0.9,3.3,0.1l1.5,1.5c-0.8,1-0.8,2.4,0.1,3.3l3.3,3.3c0.9,0.9,2.3,0.9,3.3,0.1l2.4,2.4l16.4,16.4
				c0,0,8.4-3.6,10.2,7.2c0.6,3.4,1.9,6.6,4.3,9.2c0.3,0.4,0.7,0.7,1.1,1c5.6,5.1,11.3,4.8,14.3,1.7l-89.1-89.1l-5.4,5.4
				L716.3,812.6z"/>
			<path fill="#854D21" d="M692.4,816.2c-1.3,0.5-2.2,1.7-2.2,3.2v16.9c0,1.5,0.9,2.7,2.2,3.2v1.9c-1.2,0.1-2.2,1.1-2.2,2.4v4.7
				c0,1.3,1,2.3,2.2,2.4v2.1c-1.2,0.1-2.2,1.1-2.2,2.4v4.7c0,1.3,1,2.3,2.2,2.4v3.3v23.2c0,0,8.5,3.3,2.1,12.3
				c-2,2.8-3.3,6.1-3.4,9.5c0,0.5,0,1,0,1.5c0.3,7.6,4.6,11.4,8.9,11.4v-126h-7.6V816.2z"/>
			<path fill="#854D21" d="M673,801.9c-1.3-0.6-2.8-0.3-3.8,0.7l-12,12c-1,1-1.3,2.6-0.7,3.8l-1.3,1.3c-1-0.8-2.4-0.8-3.3,0.1
				l-3.3,3.3c-0.9,0.9-0.9,2.3-0.1,3.3l-1.5,1.5c-1-0.8-2.4-0.8-3.3,0.1l-3.3,3.3c-0.9,0.9-0.9,2.3-0.1,3.3l-2.4,2.4l-16.4,16.4
				c0,0,3.6,8.4-7.2,10.2c-3.4,0.6-6.6,1.9-9.2,4.3c-0.4,0.3-0.7,0.7-1,1.1c-5.1,5.6-4.8,11.3-1.7,14.3l89.1-89.1l-5.4-5.4
				L673,801.9z"/>
			<path fill="#854D21" d="M669.4,778c-0.5-1.3-1.7-2.2-3.2-2.2h-16.9c-1.5,0-2.7,0.9-3.2,2.2h-1.9c-0.1-1.2-1.1-2.2-2.4-2.2H637
				c-1.3,0-2.3,1-2.4,2.2h-2.1c-0.1-1.2-1.1-2.2-2.4-2.2h-4.7c-1.3,0-2.3,1-2.4,2.2h-3.3h-23.2c0,0-3.3,8.5-12.3,2.1
				c-2.8-2-6.1-3.3-9.5-3.4c-0.5,0-1,0-1.5,0c-7.6,0.3-11.4,4.6-11.4,8.9h126V778H669.4z"/>
			<path fill="#854D21" d="M683.7,758.6c0.6-1.3,0.3-2.8-0.7-3.8l-12-12c-1-1-2.6-1.3-3.8-0.7l-1.3-1.3c0.8-1,0.8-2.4-0.1-3.3
				l-3.3-3.3c-0.9-0.9-2.3-0.9-3.3-0.1l-1.5-1.5c0.8-1,0.8-2.4-0.1-3.3l-3.3-3.3c-0.9-0.9-2.3-0.9-3.3-0.1l-2.4-2.4L632.1,707
				c0,0-8.4,3.6-10.2-7.2c-0.6-3.4-1.9-6.6-4.3-9.2c-0.3-0.4-0.7-0.7-1.1-1c-5.6-5.1-11.3-4.8-14.3-1.7l89.1,89.1l5.4-5.4
				L683.7,758.6z"/>
			<path fill="#854D21" d="M700,882.7c-53.5,0-97.1-43.6-97.1-97.1c0-53.5,43.6-97.1,97.1-97.1s97.1,43.6,97.1,97.1
				C797.1,839.1,753.5,882.7,700,882.7z M700,705.6c-44.1,0-80,35.9-80,80c0,44.1,35.9,80,80,80c44.1,0,80-35.9,80-80
				C780,741.5,744.1,705.6,700,705.6z"/>
			<path fill="#E49C46" d="M700,690.5c-52.5,0-95.1,42.6-95.1,95.1s42.6,95.1,95.1,95.1s95.1-42.6,95.1-95.1S752.5,690.5,700,690.5z
				 M700,867.6c-45.3,0-82-36.7-82-82s36.7-82,82-82s82,36.7,82,82S745.3,867.6,700,867.6z"/>
			<polygon fill="#854D21" points="757.7,724.2 759.1,719.2 764.1,717.9 767.7,721.5 766.4,726.5 761.4,727.8 			"/>
			<polygon fill="#854D21" points="784.2,783 788.7,780.4 793.2,783 793.2,788.2 788.7,790.7 784.2,788.2 			"/>
			<polygon fill="#854D21" points="761.4,843.3 766.4,844.6 767.7,849.6 764.1,853.3 759.1,852 757.7,847 			"/>
			<polygon fill="#854D21" points="702.6,869.8 705.2,874.3 702.6,878.8 697.4,878.8 694.8,874.3 697.4,869.8 			"/>
			<polygon fill="#854D21" points="642.3,847 640.9,852 635.9,853.3 632.3,849.6 633.6,844.6 638.6,843.3 			"/>
			<polygon fill="#854D21" points="615.8,788.2 611.3,790.7 606.8,788.2 606.8,783 611.3,780.4 615.8,783 			"/>
			<polygon fill="#854D21" points="638.6,727.8 633.6,726.5 632.3,721.5 635.9,717.9 640.9,719.2 642.3,724.2 			"/>
			<path fill="#854D21" d="M700,810.8c-0.7,0-1.4,0-2-0.1c-12.2-1-22.1-10.9-23.1-23.1c-0.6-7.1,1.8-13.9,6.6-19.2
				c4.8-5.1,11.5-8.1,18.5-8.1c0.7,0,1.4,0,2,0.1c12.2,1,22.1,10.9,23.1,23.1c0.6,7.1-1.8,13.9-6.6,19.2
				C713.8,807.8,707,810.8,700,810.8C700,810.8,700,810.8,700,810.8z M700,775.8c-0.4,0-0.9,0-1.3,0.1c-4.3,0.5-7.9,4.1-8.4,8.4
				c-0.4,2.9,0.5,5.6,2.4,7.8c1.9,2.1,4.5,3.3,7.3,3.3c0.4,0,0.9,0,1.3-0.1c4.3-0.5,7.9-4.1,8.4-8.4c0.4-2.9-0.5-5.6-2.4-7.8
				C705.5,777,702.8,775.8,700,775.8z"/>
			<path fill="#E49C46" d="M701.9,762.4c-14.3-1.1-26.2,10.7-25,25c0.9,11.3,10,20.4,21.3,21.3c14.3,1.1,26.2-10.7,25-25
				C722.3,772.4,713.1,763.3,701.9,762.4z M701.5,797.3c-7.7,1-14.2-5.5-13.2-13.2c0.7-5.3,4.9-9.5,10.2-10.2
				c7.7-1,14.2,5.5,13.2,13.2C711,792.4,706.8,796.6,701.5,797.3z"/>
			<polygon fill="#854D21" points="698.1,771.5 696.2,768.3 698.1,765 701.9,765 703.8,768.3 701.9,771.5 			"/>
			<polygon fill="#854D21" points="708.6,774.3 709.6,770.7 713.2,769.7 715.9,772.3 714.9,776 711.3,777 			"/>
			<polygon fill="#854D21" points="714.1,783.7 717.3,781.8 720.6,783.7 720.6,787.5 717.3,789.4 714.1,787.5 			"/>
			<polygon fill="#854D21" points="711.3,794.2 714.9,795.2 715.9,798.8 713.2,801.5 709.6,800.5 708.6,796.9 			"/>
			<polygon fill="#854D21" points="701.9,799.6 703.8,802.9 701.9,806.2 698.1,806.2 696.2,802.9 698.1,799.6 			"/>
			<polygon fill="#854D21" points="691.4,796.9 690.4,800.5 686.8,801.5 684.1,798.8 685.1,795.2 688.7,794.2 			"/>
			<polygon fill="#854D21" points="685.9,787.5 682.7,789.4 679.4,787.5 679.4,783.7 682.7,781.8 685.9,783.7 			"/>
			<polygon fill="#854D21" points="688.7,777 685.1,776 684.1,772.3 686.8,769.7 690.4,770.7 691.4,774.3 			"/>
		</g>
		<g>
			<g>
				<path fill="#E49C46" d="M325.2,426.4c-5.5-12.1,3-16.6,3-16.6v-19.7c0,0-10.1-11.1,0-20.7c0,0,1.5-4.1,1.3-8.6
					c-0.5-11.2-17.3-11.2-17.8,0c-0.2,4.5,1.3,8.6,1.3,8.6c10.1,9.6,0,20.7,0,20.7v19.7c0,0,8.6,4.5,3,16.6
					c-5.1,11.1-4.1,24.4,0.6,35.8c0.7,1.7-0.2,3.6-1.9,4.2l0,0c-1.3,0.5-2.1,1.7-2.1,3v6.1c0,1.8,1.5,3.3,3.3,3.3h4.7h4.7
					c1.8,0,3.3-1.5,3.3-3.3v-6.1c0-1.3-0.8-2.6-2.1-3l0,0c-1.7-0.6-2.5-2.6-1.9-4.2C329.3,450.8,330.3,437.5,325.2,426.4z"/>
				<path fill="#E49C46" d="M367.2,447.6c4.6-12.5,13.9-9.6,13.9-9.6L395,424c0,0,0.7-15,14.6-14.6c0,0,4-1.8,7-5.1
					c7.6-8.2-4.4-20.1-12.6-12.6c-3.3,3-5.1,7-5.1,7c0.4,13.9-14.6,14.6-14.6,14.6l-13.9,13.9c0,0,2.9,9.3-9.6,13.9
					c-11.5,4.3-20.1,14.4-24.9,25.7c-0.7,1.7-2.7,2.4-4.3,1.7l0,0c-1.2-0.5-2.7-0.3-3.6,0.7l-4.3,4.3c-1.3,1.3-1.3,3.3,0,4.6
					l3.3,3.3l3.3,3.3c1.3,1.3,3.3,1.3,4.6,0l4.3-4.3c1-1,1.2-2.4,0.7-3.6l0,0c-0.7-1.7,0-3.6,1.7-4.3
					C352.9,467.7,363,459.1,367.2,447.6z"/>
				<path fill="#E49C46" d="M382,492.3c12.1-5.5,16.6,3,16.6,3h19.7c0,0,11.1-10.1,20.7,0c0,0,4.1,1.5,8.6,1.3
					c11.2-0.5,11.2-17.3,0-17.8c-4.5-0.2-8.6,1.3-8.6,1.3c-9.6,10.1-20.7,0-20.7,0h-19.7c0,0-4.5,8.6-16.6,3
					c-11.1-5.1-24.4-4.1-35.8,0.6c-1.7,0.7-3.6-0.2-4.2-1.9l0,0c-0.5-1.3-1.7-2.1-3-2.1h-6.1c-1.8,0-3.3,1.5-3.3,3.3v4.7v4.7
					c0,1.8,1.5,3.3,3.3,3.3h6.1c1.3,0,2.6-0.8,3-2.1l0,0c0.6-1.7,2.6-2.5,4.2-1.9C357.6,496.3,370.8,497.4,382,492.3z"/>
				<path fill="#E49C46" d="M360.8,534.3c12.5,4.6,9.6,13.9,9.6,13.9l13.9,13.9c0,0,15,0.7,14.6,14.6c0,0,1.8,4,5.1,7
					c8.2,7.6,20.1-4.4,12.6-12.6c-3-3.3-7-5.1-7-5.1c-13.9,0.4-14.6-14.6-14.6-14.6l-13.9-13.9c0,0-9.3,2.9-13.9-9.6
					c-4.3-11.5-14.4-20.1-25.7-24.9c-1.7-0.7-2.4-2.7-1.7-4.3l0,0c0.5-1.2,0.3-2.7-0.7-3.6l-4.3-4.3c-1.3-1.3-3.3-1.3-4.6,0
					l-3.3,3.3l-3.3,3.3c-1.3,1.3-1.3,3.3,0,4.6l4.3,4.3c1,1,2.4,1.2,3.6,0.7l0,0c1.7-0.7,3.6,0,4.3,1.7
					C340.7,519.9,349.3,530,360.8,534.3z"/>
				<path fill="#E49C46" d="M316.1,549c5.5,12.1-3,16.6-3,16.6v19.7c0,0,10.1,11.1,0,20.7c0,0-1.5,4.1-1.3,8.6
					c0.5,11.2,17.3,11.2,17.8,0c0.2-4.5-1.3-8.6-1.3-8.6c-10.1-9.6,0-20.7,0-20.7v-19.7c0,0-8.6-4.5-3-16.6
					c5.1-11.1,4.1-24.4-0.6-35.8c-0.7-1.7,0.2-3.6,1.9-4.2l0,0c1.3-0.5,2.1-1.7,2.1-3v-6.1c0-1.8-1.5-3.3-3.3-3.3h-4.7H316
					c-1.8,0-3.3,1.5-3.3,3.3v6.1c0,1.3,0.8,2.6,2.1,3h0c1.7,0.6,2.5,2.6,1.9,4.2C312.1,524.6,311,537.9,316.1,549z"/>
				<path fill="#E49C46" d="M274.1,527.8c-4.6,12.5-13.9,9.6-13.9,9.6l-13.9,13.9c0,0-0.7,15-14.6,14.6c0,0-4,1.8-7,5.1
					c-7.6,8.2,4.4,20.1,12.6,12.6c3.3-3,5.1-7,5.1-7c-0.4-13.9,14.6-14.6,14.6-14.6l13.9-13.9c0,0-2.9-9.3,9.6-13.9
					c11.5-4.3,20.1-14.4,24.9-25.7c0.7-1.7,2.7-2.4,4.3-1.7h0c1.2,0.5,2.7,0.3,3.6-0.7l4.3-4.3c1.3-1.3,1.3-3.3,0-4.6l-3.3-3.3
					l-3.3-3.3c-1.3-1.3-3.3-1.3-4.6,0l-4.3,4.3c-1,1-1.2,2.4-0.7,3.6l0,0c0.7,1.7,0,3.6-1.7,4.3
					C288.5,507.8,278.4,516.4,274.1,527.8z"/>
				<path fill="#E49C46" d="M259.4,483.2c-12.1,5.5-16.6-3-16.6-3h-19.7c0,0-11.1,10.1-20.7,0c0,0-4.1-1.5-8.6-1.3
					c-11.2,0.5-11.2,17.3,0,17.8c4.5,0.2,8.6-1.3,8.6-1.3c9.6-10.1,20.7,0,20.7,0h19.7c0,0,4.5-8.6,16.6-3
					c11.1,5.1,24.4,4.1,35.8-0.6c1.7-0.7,3.6,0.2,4.2,1.9l0,0c0.5,1.3,1.7,2.1,3,2.1h6.1c1.8,0,3.3-1.5,3.3-3.3v-4.7V483
					c0-1.8-1.5-3.3-3.3-3.3h-6.1c-1.3,0-2.6,0.8-3,2.1l0,0c-0.6,1.7-2.6,2.5-4.2,1.9C283.7,479.1,270.5,478.1,259.4,483.2z"/>
				<path fill="#E49C46" d="M280.5,441.2c-12.5-4.6-9.6-13.9-9.6-13.9L257,413.3c0,0-15-0.7-14.6-14.6c0,0-1.8-4-5.1-7
					c-8.2-7.6-20.1,4.4-12.6,12.6c3,3.3,7,5.1,7,5.1c13.9-0.4,14.6,14.6,14.6,14.6l13.9,13.9c0,0,9.3-2.9,13.9,9.6
					c4.3,11.5,14.4,20.1,25.7,24.9c1.7,0.7,2.4,2.7,1.7,4.3h0c-0.5,1.2-0.3,2.7,0.7,3.6l4.3,4.3c1.3,1.3,3.3,1.3,4.6,0l3.3-3.3
					l3.3-3.3c1.3-1.3,1.3-3.3,0-4.6l-4.3-4.3c-1-1-2.4-1.2-3.6-0.7h0c-1.7,0.7-3.6,0-4.3-1.7C300.6,455.5,292,445.4,280.5,441.2z"/>
				<path fill="#854D21" d="M320.7,515.7c-0.7,0-1.5,0-2.3-0.1c-13.6-1.1-24.6-12.1-25.7-25.7c-0.6-7.9,2-15.5,7.3-21.3
					c5.3-5.7,12.8-9,20.6-9c0.7,0,1.5,0,2.3,0.1c13.6,1.1,24.6,12.1,25.7,25.7c0.6,7.9-2,15.5-7.3,21.3
					C336,512.5,328.5,515.7,320.7,515.7C320.7,515.7,320.7,515.7,320.7,515.7z M320.7,479.5c-0.4,0-0.7,0-1.1,0.1
					c-3.6,0.5-6.6,3.4-7,7c-0.3,2.4,0.4,4.7,2,6.5c1.6,1.8,3.8,2.8,6.2,2.8c0.4,0,0.7,0,1.1-0.1c3.6-0.5,6.6-3.4,7-7
					c0.3-2.4-0.4-4.7-2-6.5C325.3,480.5,323,479.5,320.7,479.5z"/>
				<path fill="#E49C46" d="M322.6,463.8c-14.8-1.2-27.1,11.1-25.9,25.9c0.9,11.6,10.4,21.1,22,22c14.8,1.2,27.1-11.1,25.9-25.9
					C343.7,474.1,334.3,464.7,322.6,463.8z M322.3,499.8c-8,1-14.7-5.7-13.7-13.7c0.7-5.4,5.1-9.8,10.5-10.5c8-1,14.7,5.7,13.7,13.7
					C332.1,494.7,327.7,499.1,322.3,499.8z"/>
				<path fill="#854D21" d="M320.7,586.8c-54.6,0-99.1-44.4-99.1-99.1s44.4-99.1,99.1-99.1c54.6,0,99.1,44.4,99.1,99.1
					S375.3,586.8,320.7,586.8z M320.7,409.7c-43,0-78,35-78,78s35,78,78,78c43,0,78-35,78-78S363.7,409.7,320.7,409.7z"/>
				<path fill="#E49C46" d="M320.7,392.6c-52.5,0-95.1,42.6-95.1,95.1s42.6,95.1,95.1,95.1s95.1-42.6,95.1-95.1
					S373.2,392.6,320.7,392.6z M320.7,569.7c-45.3,0-82-36.7-82-82s36.7-82,82-82s82,36.7,82,82S365.9,569.7,320.7,569.7z"/>
			</g>
			<g>
				<path fill="#E49C46" d="M325.2,133.1c-5.5-12.1,3-16.6,3-16.6V96.8c0,0-10.1-11.1,0-20.7c0,0,1.5-4.1,1.3-8.6
					c-0.5-11.2-17.3-11.2-17.8,0c-0.2,4.5,1.3,8.6,1.3,8.6c10.1,9.6,0,20.7,0,20.7v19.7c0,0,8.6,4.5,3,16.6
					c-5.1,11.1-4.1,24.4,0.6,35.8c0.7,1.7-0.2,3.6-1.9,4.2l0,0c-1.3,0.5-2.1,1.7-2.1,3v6.1c0,1.8,1.5,3.3,3.3,3.3h4.7h4.7
					c1.8,0,3.3-1.5,3.3-3.3v-6.1c0-1.3-0.8-2.6-2.1-3l0,0c-1.7-0.6-2.5-2.6-1.9-4.2C329.3,157.5,330.3,144.2,325.2,133.1z"/>
				<path fill="#E49C46" d="M367.2,154.3c4.6-12.5,13.9-9.6,13.9-9.6l13.9-13.9c0,0,0.7-15,14.6-14.6c0,0,4-1.8,7-5.1
					c7.6-8.2-4.4-20.1-12.6-12.6c-3.3,3-5.1,7-5.1,7c0.4,13.9-14.6,14.6-14.6,14.6L370.4,134c0,0,2.9,9.3-9.6,13.9
					c-11.5,4.3-20.1,14.4-24.9,25.7c-0.7,1.7-2.7,2.4-4.3,1.7l0,0c-1.2-0.5-2.7-0.3-3.6,0.7l-4.3,4.3c-1.3,1.3-1.3,3.3,0,4.6
					l3.3,3.3l3.3,3.3c1.3,1.3,3.3,1.3,4.6,0l4.3-4.3c1-1,1.2-2.4,0.7-3.6l0,0c-0.7-1.7,0-3.6,1.7-4.3
					C352.9,174.4,363,165.7,367.2,154.3z"/>
				<path fill="#E49C46" d="M382,199c12.1-5.5,16.6,3,16.6,3h19.7c0,0,11.1-10.1,20.7,0c0,0,4.1,1.5,8.6,1.3
					c11.2-0.5,11.2-17.3,0-17.8c-4.5-0.2-8.6,1.3-8.6,1.3c-9.6,10.1-20.7,0-20.7,0h-19.7c0,0-4.5,8.6-16.6,3
					c-11.1-5.1-24.4-4.1-35.8,0.6c-1.7,0.7-3.6-0.2-4.2-1.9l0,0c-0.5-1.3-1.7-2.1-3-2.1h-6.1c-1.8,0-3.3,1.5-3.3,3.3v4.7v4.7
					c0,1.8,1.5,3.3,3.3,3.3h6.1c1.3,0,2.6-0.8,3-2.1v0c0.6-1.7,2.6-2.5,4.2-1.9C357.6,203,370.8,204,382,199z"/>
				<path fill="#E49C46" d="M360.8,241c12.5,4.6,9.6,13.9,9.6,13.9l13.9,13.9c0,0,15,0.7,14.6,14.6c0,0,1.8,4,5.1,7
					c8.2,7.6,20.1-4.4,12.6-12.6c-3-3.3-7-5.1-7-5.1c-13.9,0.4-14.6-14.6-14.6-14.6l-13.9-13.9c0,0-9.3,2.9-13.9-9.6
					c-4.3-11.5-14.4-20.1-25.7-24.9c-1.7-0.7-2.4-2.7-1.7-4.3v0c0.5-1.2,0.3-2.7-0.7-3.6l-4.3-4.3c-1.3-1.3-3.3-1.3-4.6,0l-3.3,3.3
					l-3.3,3.3c-1.3,1.3-1.3,3.3,0,4.6l4.3,4.3c1,1,2.4,1.2,3.6,0.7v0c1.7-0.7,3.6,0,4.3,1.7C340.7,226.6,349.3,236.7,360.8,241z"/>
				<path fill="#E49C46" d="M316.1,255.7c5.5,12.1-3,16.6-3,16.6V292c0,0,10.1,11.1,0,20.7c0,0-1.5,4.1-1.3,8.6
					c0.5,11.2,17.3,11.2,17.8,0c0.2-4.5-1.3-8.6-1.3-8.6c-10.1-9.6,0-20.7,0-20.7v-19.7c0,0-8.6-4.5-3-16.6
					c5.1-11.1,4.1-24.4-0.6-35.8c-0.7-1.7,0.2-3.6,1.9-4.2l0,0c1.3-0.5,2.1-1.7,2.1-3v-6.1c0-1.8-1.5-3.3-3.3-3.3h-4.7H316
					c-1.8,0-3.3,1.5-3.3,3.3v6.1c0,1.3,0.8,2.6,2.1,3h0c1.7,0.6,2.5,2.6,1.9,4.2C312.1,231.3,311,244.6,316.1,255.7z"/>
				<path fill="#E49C46" d="M274.1,234.5c-4.6,12.5-13.9,9.6-13.9,9.6l-13.9,13.9c0,0-0.7,15-14.6,14.6c0,0-4,1.8-7,5.1
					c-7.6,8.2,4.4,20.1,12.6,12.6c3.3-3,5.1-7,5.1-7c-0.4-13.9,14.6-14.6,14.6-14.6l13.9-13.9c0,0-2.9-9.3,9.6-13.9
					c11.5-4.3,20.1-14.4,24.9-25.7c0.7-1.7,2.7-2.4,4.3-1.7h0c1.2,0.5,2.7,0.3,3.6-0.7l4.3-4.3c1.3-1.3,1.3-3.3,0-4.6l-3.3-3.3
					l-3.3-3.3c-1.3-1.3-3.3-1.3-4.6,0l-4.3,4.3c-1,1-1.2,2.4-0.7,3.6l0,0c0.7,1.7,0,3.6-1.7,4.3
					C288.5,214.4,278.4,223.1,274.1,234.5z"/>
				<path fill="#E49C46" d="M259.4,189.9c-12.1,5.5-16.6-3-16.6-3h-19.7c0,0-11.1,10.1-20.7,0c0,0-4.1-1.5-8.6-1.3
					c-11.2,0.5-11.2,17.3,0,17.8c4.5,0.2,8.6-1.3,8.6-1.3c9.6-10.1,20.7,0,20.7,0h19.7c0,0,4.5-8.6,16.6-3
					c11.1,5.1,24.4,4.1,35.8-0.6c1.7-0.7,3.6,0.2,4.2,1.9l0,0c0.5,1.3,1.7,2.1,3,2.1h6.1c1.8,0,3.3-1.5,3.3-3.3v-4.7v-4.7
					c0-1.8-1.5-3.3-3.3-3.3h-6.1c-1.3,0-2.6,0.8-3,2.1l0,0c-0.6,1.7-2.6,2.5-4.2,1.9C283.7,185.8,270.5,184.8,259.4,189.9z"/>
				<path fill="#E49C46" d="M280.5,147.9c-12.5-4.6-9.6-13.9-9.6-13.9L257,120c0,0-15-0.7-14.6-14.6c0,0-1.8-4-5.1-7
					c-8.2-7.6-20.1,4.4-12.6,12.6c3,3.3,7,5.1,7,5.1c13.9-0.4,14.6,14.6,14.6,14.6l13.9,13.9c0,0,9.3-2.9,13.9,9.6
					c4.3,11.5,14.4,20.1,25.7,24.9c1.7,0.7,2.4,2.7,1.7,4.3h0c-0.5,1.2-0.3,2.7,0.7,3.6l4.3,4.3c1.3,1.3,3.3,1.3,4.6,0l3.3-3.3
					l3.3-3.3c1.3-1.3,1.3-3.3,0-4.6l-4.3-4.3c-1-1-2.4-1.2-3.6-0.7h0c-1.7,0.7-3.6,0-4.3-1.7C300.6,162.2,292,152.1,280.5,147.9z"/>
				<path fill="#854D21" d="M322,178.1c-10.1-0.8-18.5,7.6-17.7,17.7c0.6,7.9,7.1,14.4,15,15c10.1,0.8,18.5-7.6,17.7-17.7
					C336.4,185.1,329.9,178.7,322,178.1z M321.8,202.7c-5.4,0.7-10-3.9-9.3-9.3c0.5-3.7,3.5-6.7,7.2-7.2c5.4-0.7,10,3.9,9.3,9.3
					C328.5,199.2,325.5,202.2,321.8,202.7z"/>
				<path fill="#854D21" d="M320.7,291.5c-53.5,0-97.1-43.6-97.1-97.1s43.6-97.1,97.1-97.1s97.1,43.6,97.1,97.1
					S374.2,291.5,320.7,291.5z M320.7,114.4c-44.1,0-80,35.9-80,80s35.9,80,80,80c44.1,0,80-35.9,80-80S364.8,114.4,320.7,114.4z"/>
				<path fill="#E49C46" d="M320.7,99.3c-52.5,0-95.1,42.6-95.1,95.1s42.6,95.1,95.1,95.1s95.1-42.6,95.1-95.1
					S373.2,99.3,320.7,99.3z M320.7,276.4c-45.3,0-82-36.7-82-82s36.7-82,82-82s82,36.7,82,82S365.9,276.4,320.7,276.4z"/>
				<path fill="#854D21" d="M320.7,246.1c-28.5,0-51.7-23.2-51.7-51.7s23.2-51.7,51.7-51.7s51.7,23.2,51.7,51.7
					S349.2,246.1,320.7,246.1z M320.7,156.1c-21.1,0-38.3,17.2-38.3,38.3s17.2,38.3,38.3,38.3c21.1,0,38.3-17.2,38.3-38.3
					S341.8,156.1,320.7,156.1z"/>
				<path fill="#E49C46" d="M320.7,244.1c-27.4,0-49.7-22.3-49.7-49.7s22.3-49.7,49.7-49.7c27.4,0,49.7,22.3,49.7,49.7
					S348.1,244.1,320.7,244.1z M320.7,154.1c-22.2,0-40.3,18.1-40.3,40.3s18.1,40.3,40.3,40.3c22.2,0,40.3-18.1,40.3-40.3
					S342.9,154.1,320.7,154.1z"/>
			</g>
			<g>
				<path fill="#E49C46" d="M325.2,724.3c-5.5-12.1,3-16.6,3-16.6V688c0,0-10.1-11.1,0-20.7c0,0,1.5-4.1,1.3-8.6
					c-0.5-11.2-17.3-11.2-17.8,0c-0.2,4.5,1.3,8.6,1.3,8.6c10.1,9.6,0,20.7,0,20.7v19.7c0,0,8.6,4.5,3,16.6
					c-5.1,11.1-4.1,24.4,0.6,35.8c0.7,1.7-0.2,3.6-1.9,4.2l0,0c-1.3,0.5-2.1,1.7-2.1,3v6.1c0,1.8,1.5,3.3,3.3,3.3h4.7h4.7
					c1.8,0,3.3-1.5,3.3-3.3v-6.1c0-1.3-0.8-2.6-2.1-3l0,0c-1.7-0.6-2.5-2.6-1.9-4.2C329.3,748.7,330.3,735.4,325.2,724.3z"/>
				<path fill="#E49C46" d="M382,790.1c12.1-5.5,16.6,3,16.6,3h19.7c0,0,11.1-10.1,20.7,0c0,0,4.1,1.5,8.6,1.3
					c11.2-0.5,11.2-17.3,0-17.8c-4.5-0.2-8.6,1.3-8.6,1.3c-9.6,10.1-20.7,0-20.7,0h-19.7c0,0-4.5,8.6-16.6,3
					c-11.1-5.1-24.4-4.1-35.8,0.6c-1.7,0.7-3.6-0.2-4.2-1.9l0,0c-0.5-1.3-1.7-2.1-3-2.1h-6.1c-1.8,0-3.3,1.5-3.3,3.3v4.7v4.7
					c0,1.8,1.5,3.3,3.3,3.3h6.1c1.3,0,2.6-0.8,3-2.1l0,0c0.6-1.7,2.6-2.5,4.2-1.9C357.6,794.2,370.8,795.2,382,790.1z"/>
				<path fill="#E49C46" d="M316.1,846.9c5.5,12.1-3,16.6-3,16.6v19.7c0,0,10.1,11.1,0,20.7c0,0-1.5,4.1-1.3,8.6
					c0.5,11.2,17.3,11.2,17.8,0c0.2-4.5-1.3-8.6-1.3-8.6c-10.1-9.6,0-20.7,0-20.7v-19.7c0,0-8.6-4.5-3-16.6
					c5.1-11.1,4.1-24.4-0.6-35.8c-0.7-1.7,0.2-3.6,1.9-4.2l0,0c1.3-0.5,2.1-1.7,2.1-3v-6.1c0-1.8-1.5-3.3-3.3-3.3h-4.7H316
					c-1.8,0-3.3,1.5-3.3,3.3v6.1c0,1.3,0.8,2.6,2.1,3l0,0c1.7,0.6,2.5,2.6,1.9,4.2C312.1,822.5,311,835.8,316.1,846.9z"/>
				<path fill="#E49C46" d="M259.4,781c-12.1,5.5-16.6-3-16.6-3h-19.7c0,0-11.1,10.1-20.7,0c0,0-4.1-1.5-8.6-1.3
					c-11.2,0.5-11.2,17.3,0,17.8c4.5,0.2,8.6-1.3,8.6-1.3c9.6-10.1,20.7,0,20.7,0h19.7c0,0,4.5-8.6,16.6-3
					c11.1,5.1,24.4,4.1,35.8-0.6c1.7-0.7,3.6,0.2,4.2,1.9h0c0.5,1.3,1.7,2.1,3,2.1h6.1c1.8,0,3.3-1.5,3.3-3.3v-4.7v-4.7
					c0-1.8-1.5-3.3-3.3-3.3h-6.1c-1.3,0-2.6,0.8-3,2.1h0c-0.6,1.7-2.6,2.5-4.2,1.9C283.7,777,270.5,776,259.4,781z"/>
				<path fill="#E49C46" d="M355.2,734.7c1.2-13.3,10.9-12.9,10.9-12.9l9.8-17c0,0-3.2-14.7,10.3-17.9c0,0,3.4-2.8,5.4-6.8
					c5.2-9.9-9.4-18.3-15.4-8.9c-2.4,3.8-3.1,8.1-3.1,8.1c4,13.3-10.3,17.9-10.3,17.9l-9.8,17c0,0,5.2,8.2-5.7,15.9
					c-10,7.1-15.7,19.1-17.4,31.3c-0.3,1.8-1.9,3-3.7,2.7l0,0c-1.3-0.2-2.7,0.4-3.3,1.6l-3.1,5.3c-0.9,1.6-0.4,3.5,1.2,4.4l4.1,2.3
					l4.1,2.3c1.6,0.9,3.5,0.4,4.4-1.2l3.1-5.3c0.7-1.2,0.6-2.6-0.3-3.7l0,0c-1.1-1.4-0.9-3.5,0.5-4.6
					C346.6,757.9,354.1,746.9,355.2,734.7z"/>
				<path fill="#E49C46" d="M371.5,820.1c13.3,1.2,12.9,10.9,12.9,10.9l17,9.8c0,0,14.7-3.2,17.9,10.3c0,0,2.8,3.4,6.8,5.4
					c9.9,5.2,18.3-9.4,8.9-15.4c-3.8-2.4-8.1-3.1-8.1-3.1c-13.3,4-17.9-10.3-17.9-10.3l-17-9.8c0,0-8.2,5.2-15.9-5.7
					c-7.1-10-19.1-15.7-31.3-17.4c-1.8-0.3-3-1.9-2.7-3.7l0,0c0.2-1.3-0.4-2.7-1.6-3.3l-5.3-3.1c-1.6-0.9-3.5-0.4-4.4,1.2l-2.3,4.1
					L326,794c-0.9,1.6-0.4,3.5,1.2,4.4l5.3,3.1c1.2,0.7,2.6,0.6,3.7-0.3l0,0c1.4-1.1,3.5-0.9,4.6,0.5
					C348.4,811.5,359.3,819,371.5,820.1z"/>
				<path fill="#E49C46" d="M286.1,836.4c-1.2,13.3-10.9,12.9-10.9,12.9l-9.8,17c0,0,3.2,14.7-10.3,17.9c0,0-3.4,2.8-5.4,6.8
					c-5.2,9.9,9.4,18.3,15.4,8.9c2.4-3.8,3.1-8.1,3.1-8.1c-4-13.3,10.3-17.9,10.3-17.9l9.8-17c0,0-5.2-8.2,5.7-15.9
					c10-7.1,15.7-19.1,17.4-31.3c0.3-1.8,1.9-3,3.7-2.7l0,0c1.3,0.2,2.7-0.4,3.3-1.6l3.1-5.3c0.9-1.6,0.4-3.5-1.2-4.4l-4.1-2.3
					l-4.1-2.3c-1.6-0.9-3.5-0.4-4.4,1.2l-3.1,5.3c-0.7,1.2-0.6,2.6,0.3,3.7l0,0c1.1,1.4,0.9,3.5-0.5,4.6
					C294.8,813.3,287.3,824.2,286.1,836.4z"/>
				<path fill="#E49C46" d="M269.8,751.1c-13.3-1.2-12.9-10.9-12.9-10.9l-17-9.8c0,0-14.7,3.2-17.9-10.3c0,0-2.8-3.4-6.8-5.4
					c-9.9-5.2-18.3,9.4-8.9,15.4c3.8,2.4,8.1,3.1,8.1,3.1c13.3-4,17.9,10.3,17.9,10.3l17,9.8c0,0,8.2-5.2,15.9,5.7
					c7.1,10,19.1,15.7,31.3,17.4c1.8,0.3,3,1.9,2.7,3.7l0,0c-0.2,1.3,0.4,2.7,1.6,3.3l5.3,3.1c1.6,0.9,3.5,0.4,4.4-1.2l2.3-4.1
					l2.3-4.1c0.9-1.6,0.4-3.5-1.2-4.4l-5.3-3.1c-1.2-0.7-2.6-0.6-3.7,0.3l0,0c-1.4,1.1-3.5,0.9-4.6-0.5
					C293,759.7,282,752.2,269.8,751.1z"/>
				<path fill="#E49C46" d="M376,758.8c7.7-10.9,15.9-5.7,15.9-5.7l17-9.9c0,0,4.5-14.3,17.9-10.4c0,0,4.3-0.8,8.1-3.2
					c9.4-6,1-20.6-8.9-15.4c-4,2.1-6.8,5.4-6.8,5.4c-3.2,13.5-17.9,10.4-17.9,10.4l-17,9.9c0,0,0.4,9.7-12.9,11
					c-12.2,1.2-23.1,8.7-30.7,18.4c-1.1,1.4-3.2,1.7-4.6,0.5h0c-1-0.8-2.5-1-3.7-0.3l-5.3,3.1c-1.6,0.9-2.1,2.9-1.2,4.4l2.3,4l2.3,4
					c0.9,1.6,2.9,2.1,4.4,1.2l5.3-3.1c1.2-0.7,1.8-2,1.6-3.3l0,0c-0.3-1.8,0.9-3.5,2.7-3.7C356.9,774.5,368.9,768.8,376,758.8z"/>
				<path fill="#E49C46" d="M347.5,840.9c10.9,7.7,5.7,15.9,5.7,15.9l9.9,17c0,0,14.3,4.5,10.4,17.9c0,0,0.8,4.3,3.2,8.1
					c6,9.4,20.6,1,15.4-8.9c-2.1-4-5.4-6.8-5.4-6.8c-13.5-3.2-10.4-17.9-10.4-17.9l-9.9-17c0,0-9.7,0.4-11-12.9
					c-1.2-12.2-8.7-23.1-18.4-30.7c-1.4-1.1-1.7-3.2-0.5-4.6l0,0c0.8-1,1-2.5,0.3-3.7l-3.1-5.3c-0.9-1.6-2.9-2.1-4.4-1.2l-4,2.3
					l-4,2.3c-1.6,0.9-2.1,2.9-1.2,4.4l3.1,5.3c0.7,1.2,2,1.8,3.3,1.6l0,0c1.8-0.3,3.5,0.9,3.7,2.7
					C331.7,821.9,337.5,833.8,347.5,840.9z"/>
				<path fill="#E49C46" d="M265.4,812.4c-7.7,10.9-15.9,5.7-15.9,5.7l-17,9.9c0,0-4.5,14.3-17.9,10.4c0,0-4.3,0.8-8.1,3.2
					c-9.4,6-1,20.6,8.9,15.4c4-2.1,6.8-5.4,6.8-5.4c3.2-13.5,17.9-10.4,17.9-10.4l17-9.9c0,0-0.4-9.7,12.9-11
					c12.2-1.2,23.1-8.7,30.7-18.4c1.1-1.4,3.2-1.7,4.6-0.5l0,0c1,0.8,2.5,1,3.7,0.3l5.3-3.1c1.6-0.9,2.1-2.9,1.2-4.4l-2.3-4l-2.3-4
					c-0.9-1.6-2.9-2.1-4.4-1.2l-5.3,3.1c-1.2,0.7-1.8,2-1.6,3.3l0,0c0.3,1.8-0.9,3.5-2.7,3.7C284.4,796.7,272.4,802.4,265.4,812.4z"
					/>
				<path fill="#E49C46" d="M293.9,730.3c-10.9-7.7-5.7-15.9-5.7-15.9l-9.9-17c0,0-14.3-4.5-10.4-17.9c0,0-0.8-4.3-3.2-8.1
					c-6-9.4-20.6-1-15.4,8.9c2.1,4,5.4,6.8,5.4,6.8c13.5,3.2,10.4,17.9,10.4,17.9l9.9,17c0,0,9.7-0.4,11,12.9
					c1.2,12.2,8.7,23.1,18.4,30.7c1.4,1.1,1.7,3.2,0.5,4.6l0,0c-0.8,1-1,2.5-0.3,3.7l3.1,5.3c0.9,1.6,2.9,2.1,4.4,1.2l4-2.3l4-2.3
					c1.6-0.9,2.1-2.9,1.2-4.4l-3.1-5.3c-0.7-1.2-2-1.8-3.3-1.6h0c-1.8,0.3-3.5-0.9-3.7-2.7C309.6,749.3,303.9,737.3,293.9,730.3z"/>
				<path fill="#854D21" d="M322,769.2c-10.1-0.8-18.5,7.6-17.7,17.7c0.6,7.9,7.1,14.4,15,15c10.1,0.8,18.5-7.6,17.7-17.7
					C336.4,776.3,329.9,769.9,322,769.2z M321.8,793.8c-5.4,0.7-10-3.9-9.3-9.3c0.5-3.7,3.5-6.7,7.2-7.2c5.4-0.7,10,3.9,9.3,9.3
					C328.5,790.4,325.5,793.4,321.8,793.8z"/>
				<path fill="#854D21" d="M320.7,688.5c-53.5,0-97.1,43.6-97.1,97.1c0,53.5,43.6,97.1,97.1,97.1s97.1-43.6,97.1-97.1
					C417.8,732.1,374.2,688.5,320.7,688.5z M320.7,865.6c-44.1,0-80-35.9-80-80c0-44.1,35.9-80,80-80c44.1,0,80,35.9,80,80
					C400.6,829.7,364.8,865.6,320.7,865.6z"/>
				<path fill="#E49C46" d="M320.7,880.7c-52.4,0-95.1-42.7-95.1-95.1s42.7-95.1,95.1-95.1s95.1,42.7,95.1,95.1
					S373.1,880.7,320.7,880.7z M320.7,703.6c-45.2,0-82,36.8-82,82c0,45.2,36.8,82,82,82c45.2,0,82-36.8,82-82
					C402.6,740.4,365.9,703.6,320.7,703.6z"/>
			</g>
			<g>
				<path fill="#E49C46" d="M1085.1,93.1h-0.9c0.4-7.1,1.2-22.2,1.1-25.5c-0.5-11.2-17.3-11.2-17.8,0c-0.1,3.4,0.7,18.5,1.1,25.5
					h-0.9c-1.8,0-3.2,1.4-3.2,3.2c0,1.8,1.4,3.2,3.2,3.2h1.1v17c0,0,8.6,4.5,3,16.6c-5.1,11.1-4.1,24.4,0.6,35.8
					c0.7,1.7-0.2,3.6-1.9,4.2c-1.3,0.5-2.1,1.7-2.1,3v6.1c0,1.8,1.5,3.3,3.3,3.3h4.7h4.7c1.8,0,3.3-1.5,3.3-3.3v-6.1
					c0-1.3-0.8-2.6-2.1-3l0,0c-1.7-0.6-2.5-2.6-1.9-4.2c4.6-11.5,5.6-24.7,0.6-35.8c-5.5-12.1,3-16.6,3-16.6v-17h1.1
					c1.8,0,3.2-1.4,3.2-3.2C1088.2,94.5,1086.8,93.1,1085.1,93.1z"/>
				<path fill="#E49C46" d="M1154.2,128.9l-0.6-0.6c5.3-4.7,16.5-14.8,18.8-17.3c7.6-8.2-4.4-20.1-12.6-12.6
					c-2.5,2.3-12.6,13.5-17.3,18.8l-0.6-0.6c-1.2-1.2-3.2-1.2-4.5,0c-1.2,1.2-1.2,3.2,0,4.5l0.8,0.8l-12.1,12.1
					c0,0,2.9,9.3-9.6,13.9c-11.5,4.3-20.1,14.4-24.9,25.7c-0.7,1.7-2.7,2.4-4.3,1.7c-1.2-0.5-2.7-0.3-3.6,0.7l-4.3,4.3
					c-1.3,1.3-1.3,3.3,0,4.6l3.3,3.3l3.3,3.3c1.3,1.3,3.3,1.3,4.6,0l4.3-4.3c1-1,1.2-2.4,0.7-3.6l0,0c-0.7-1.7,0-3.6,1.7-4.3
					c11.4-4.8,21.5-13.5,25.7-24.9c4.6-12.5,13.9-9.6,13.9-9.6l12.1-12.1l0.8,0.8c1.2,1.2,3.2,1.2,4.5,0
					C1155.4,132.2,1155.4,130.2,1154.2,128.9z"/>
				<path fill="#E49C46" d="M1177.7,203.1v-0.9c7.1,0.4,22.2,1.2,25.5,1.1c11.2-0.5,11.2-17.3,0-17.8c-3.4-0.1-18.5,0.7-25.5,1.1
					v-0.9c0-1.8-1.4-3.2-3.2-3.2c-1.8,0-3.2,1.4-3.2,3.2v1.1h-17c0,0-4.5,8.6-16.6,3c-11.1-5.1-24.4-4.1-35.8,0.6
					c-1.7,0.7-3.6-0.2-4.2-1.9c-0.5-1.3-1.7-2.1-3-2.1h-6.1c-1.8,0-3.3,1.5-3.3,3.3v4.7v4.7c0,1.8,1.5,3.3,3.3,3.3h6.1
					c1.3,0,2.6-0.8,3-2.1l0,0c0.6-1.7,2.6-2.5,4.2-1.9c11.5,4.6,24.7,5.6,35.8,0.6c12.1-5.5,16.6,3,16.6,3h17v1.1
					c0,1.8,1.4,3.2,3.2,3.2C1176.3,206.3,1177.7,204.9,1177.7,203.1z"/>
				<path fill="#E49C46" d="M1141.8,272.2l0.6-0.6c4.7,5.3,14.8,16.5,17.3,18.8c8.2,7.6,20.1-4.4,12.6-12.6
					c-2.3-2.5-13.5-12.6-18.8-17.3l0.6-0.6c1.2-1.2,1.2-3.2,0-4.5c-1.2-1.2-3.2-1.2-4.5,0l-0.8,0.8l-12.1-12.1c0,0-9.3,2.9-13.9-9.6
					c-4.3-11.5-14.4-20.1-25.7-24.9c-1.7-0.7-2.4-2.7-1.7-4.3c0.5-1.2,0.3-2.7-0.7-3.6l-4.3-4.3c-1.3-1.3-3.3-1.3-4.6,0l-3.3,3.3
					l-3.3,3.3c-1.3,1.3-1.3,3.3,0,4.6l4.3,4.3c1,1,2.4,1.2,3.6,0.7l0,0c1.7-0.7,3.6,0,4.3,1.7c4.8,11.4,13.5,21.5,24.9,25.7
					c12.5,4.6,9.6,13.9,9.6,13.9l12.1,12.1l-0.8,0.8c-1.2,1.2-1.2,3.2,0,4.5C1138.6,273.5,1140.6,273.5,1141.8,272.2z"/>
				<path fill="#E49C46" d="M1067.6,295.7h0.9c-0.4,7.1-1.2,22.2-1.1,25.5c0.5,11.2,17.3,11.2,17.8,0c0.1-3.4-0.7-18.5-1.1-25.5h0.9
					c1.8,0,3.2-1.4,3.2-3.2c0-1.8-1.4-3.2-3.2-3.2h-1.1v-17c0,0-8.6-4.5-3-16.6c5.1-11.1,4.1-24.4-0.6-35.8
					c-0.7-1.7,0.2-3.6,1.9-4.2c1.3-0.5,2.1-1.7,2.1-3v-6.1c0-1.8-1.5-3.3-3.3-3.3h-4.7h-4.7c-1.8,0-3.3,1.5-3.3,3.3v6.1
					c0,1.3,0.8,2.6,2.1,3l0,0c1.7,0.6,2.5,2.6,1.9,4.2c-4.6,11.5-5.6,24.7-0.6,35.8c5.5,12.1-3,16.6-3,16.6v17h-1.1
					c-1.8,0-3.2,1.4-3.2,3.2C1064.5,294.3,1065.9,295.7,1067.6,295.7z"/>
				<path fill="#E49C46" d="M998.5,259.9l0.6,0.6c-5.3,4.7-16.5,14.8-18.8,17.3c-7.6,8.2,4.4,20.1,12.6,12.6
					c2.5-2.3,12.6-13.5,17.3-18.8l0.6,0.6c1.2,1.2,3.2,1.2,4.5,0c1.2-1.2,1.2-3.2,0-4.5l-0.8-0.8l12.1-12.1c0,0-2.9-9.3,9.6-13.9
					c11.5-4.3,20.1-14.4,24.9-25.7c0.7-1.7,2.7-2.4,4.3-1.7c1.2,0.5,2.7,0.3,3.6-0.7l4.3-4.3c1.3-1.3,1.3-3.3,0-4.6l-3.3-3.3
					l-3.3-3.3c-1.3-1.3-3.3-1.3-4.6,0l-4.3,4.3c-1,1-1.2,2.4-0.7,3.6l0,0c0.7,1.7,0,3.6-1.7,4.3c-11.4,4.8-21.5,13.5-25.7,24.9
					c-4.6,12.5-13.9,9.6-13.9,9.6l-12.1,12.1l-0.8-0.8c-1.2-1.2-3.2-1.2-4.5,0C997.3,256.7,997.3,258.7,998.5,259.9z"/>
				<path fill="#E49C46" d="M975,185.7v0.9c-7.1-0.4-22.2-1.2-25.5-1.1c-11.2,0.5-11.2,17.3,0,17.8c3.4,0.1,18.5-0.7,25.5-1.1v0.9
					c0,1.8,1.4,3.2,3.2,3.2c1.8,0,3.2-1.4,3.2-3.2V202h17c0,0,4.5-8.6,16.6-3c11.1,5.1,24.4,4.1,35.8-0.6c1.7-0.7,3.6,0.2,4.2,1.9
					c0.5,1.3,1.7,2.1,3,2.1h6.1c1.8,0,3.3-1.5,3.3-3.3v-4.7v-4.7c0-1.8-1.5-3.3-3.3-3.3h-6.1c-1.3,0-2.6,0.8-3,2.1l0,0
					c-0.6,1.7-2.6,2.5-4.2,1.9c-11.5-4.6-24.7-5.6-35.8-0.6c-12.1,5.5-16.6-3-16.6-3h-17v-1.1c0-1.8-1.4-3.2-3.2-3.2
					C976.4,182.5,975,184,975,185.7z"/>
				<path fill="#E49C46" d="M1010.9,116.6l-0.6,0.6c-4.7-5.3-14.8-16.5-17.3-18.8c-8.2-7.6-20.1,4.4-12.6,12.6
					c2.3,2.5,13.5,12.6,18.8,17.3l-0.6,0.6c-1.2,1.2-1.2,3.2,0,4.5c1.2,1.2,3.2,1.2,4.5,0l0.8-0.8l12.1,12.1c0,0,9.3-2.9,13.9,9.6
					c4.3,11.5,14.4,20.1,25.7,24.9c1.7,0.7,2.4,2.7,1.7,4.3c-0.5,1.2-0.3,2.7,0.7,3.6l4.3,4.3c1.3,1.3,3.3,1.3,4.6,0l3.3-3.3
					l3.3-3.3c1.3-1.3,1.3-3.3,0-4.6l-4.3-4.3c-1-1-2.4-1.2-3.6-0.7l0,0c-1.7,0.7-3.6,0-4.3-1.7c-4.8-11.4-13.5-21.5-24.9-25.7
					c-12.5-4.6-9.6-13.9-9.6-13.9l-12.1-12.1l0.8-0.8c1.2-1.2,1.2-3.2,0-4.5C1014.1,115.4,1012.1,115.4,1010.9,116.6z"/>
				<path fill="#854D21" d="M1076.3,288.6c-51.9,0-94.2-42.3-94.2-94.2s42.3-94.2,94.2-94.2c51.9,0,94.2,42.3,94.2,94.2
					S1128.3,288.6,1076.3,288.6z M1076.3,116.9c-42.7,0-77.5,34.8-77.5,77.5c0,42.7,34.8,77.5,77.5,77.5c42.7,0,77.5-34.8,77.5-77.5
					C1153.8,151.7,1119.1,116.9,1076.3,116.9z"/>
				<path fill="#E49C46" d="M1076.3,102.2c-50.9,0-92.2,41.3-92.2,92.2s41.3,92.2,92.2,92.2s92.2-41.3,92.2-92.2
					S1127.3,102.2,1076.3,102.2z M1076.3,273.9c-43.9,0-79.5-35.6-79.5-79.5s35.6-79.5,79.5-79.5s79.5,35.6,79.5,79.5
					S1120.2,273.9,1076.3,273.9z"/>
				<path fill="#854D21" d="M1076.3,212.8c-0.5,0-1,0-1.5-0.1c-8.9-0.7-16.1-7.9-16.8-16.8c-0.4-5.2,1.3-10.2,4.8-14
					c3.5-3.8,8.4-5.9,13.5-5.9c0.5,0,1,0,1.5,0.1c8.9,0.7,16.1,7.9,16.8,16.8c0.4,5.2-1.3,10.2-4.8,14
					C1086.4,210.7,1081.5,212.8,1076.3,212.8L1076.3,212.8z M1076.3,188.1c-0.3,0-0.6,0-0.8,0.1c-2.8,0.4-5.1,2.6-5.4,5.4
					c-0.2,1.9,0.3,3.6,1.5,5c1.2,1.4,2.9,2.1,4.7,2.1c0.3,0,0.6,0,0.8-0.1c2.8-0.4,5.1-2.6,5.4-5.4c0.2-1.9-0.3-3.6-1.5-5
					C1079.9,188.9,1078.2,188.1,1076.3,188.1z"/>
				<path fill="#E49C46" d="M1077.7,178.1c-10.1-0.8-18.5,7.6-17.7,17.7c0.6,7.9,7.1,14.4,15,15c10.1,0.8,18.5-7.6,17.7-17.7
					C1092.1,185.1,1085.6,178.7,1077.7,178.1z M1077.4,202.7c-5.4,0.7-10-3.9-9.3-9.3c0.5-3.7,3.5-6.7,7.2-7.2
					c5.4-0.7,10,3.9,9.3,9.3C1084.1,199.2,1081.1,202.2,1077.4,202.7z"/>
				<circle fill="#854D21" cx="1076.3" cy="108.5" r="4.2"/>
				<circle fill="#854D21" cx="1137.1" cy="133.6" r="4.2"/>
				<circle fill="#854D21" cx="1162.3" cy="194.4" r="4.2"/>
				<circle fill="#854D21" cx="1137.1" cy="255.2" r="4.2"/>
				<circle fill="#854D21" cx="1076.3" cy="280.4" r="4.2"/>
				<circle fill="#854D21" cx="1015.6" cy="255.2" r="4.2"/>
				<circle fill="#854D21" cx="990.4" cy="194.4" r="4.2"/>
				<circle fill="#854D21" cx="1015.6" cy="133.6" r="4.2"/>
			</g>
			<g>
				<path fill="#854D21" d="M1076.8,585.5c-53.9,0-97.8-43.9-97.8-97.8s43.9-97.8,97.8-97.8c53.9,0,97.8,43.9,97.8,97.8
					S1130.7,585.5,1076.8,585.5z M1076.8,408.4c-43.7,0-79.3,35.6-79.3,79.3s35.6,79.3,79.3,79.3c43.7,0,79.3-35.6,79.3-79.3
					S1120.5,408.4,1076.8,408.4z"/>
				<path fill="#E49C46" d="M1197.2,478.8c-0.5,0-1,0-1.5,0c-3.4,0.1-6.7,1.4-9.5,3.4c-8.9,6.4-12.3-2.1-12.3-2.1h-2.8
					c-1.6-20.6-9.8-39.3-22.4-54.1l2-2c0,0-3.6-8.4,7.2-10.2c3.4-0.6,6.6-1.9,9.2-4.3c0.4-0.3,0.7-0.7,1-1.1
					c15.7-17,4.5-28.2-12.6-12.6c-0.4,0.3-0.7,0.7-1.1,1c-2.4,2.5-3.7,5.8-4.3,9.2c-1.8,10.8-10.2,7.2-10.2,7.2l-2,2
					c-14.8-12.6-33.5-20.8-54.1-22.4v-2.8c0,0-8.5-3.3-2.1-12.3c2-2.8,3.3-6.1,3.4-9.5c0-0.5,0-1,0-1.5c-1-23.1-16.8-23.1-17.8,0
					c0,0.5,0,1,0,1.5c0.1,3.4,1.4,6.7,3.4,9.5c6.4,8.9-2.1,12.3-2.1,12.3v2.8c-20.6,1.6-39.3,9.8-54.1,22.4l-2-2
					c0,0-8.4,3.6-10.2-7.2c-0.6-3.4-1.9-6.6-4.3-9.2c-0.3-0.4-0.7-0.7-1.1-1c-17-15.7-28.2-4.5-12.6,12.6c0.3,0.4,0.7,0.7,1,1.1
					c2.5,2.4,5.8,3.7,9.2,4.3c10.8,1.8,7.2,10.2,7.2,10.2l2,2c-12.6,14.8-20.8,33.5-22.4,54.1h-2.8c0,0-3.3,8.5-12.3,2.1
					c-2.8-2-6.1-3.3-9.5-3.4c-0.5,0-1,0-1.5,0c-23.1,1-23.1,16.8,0,17.8c0.5,0,1,0,1.5,0c3.4-0.1,6.7-1.4,9.5-3.4
					c8.9-6.4,12.3,2.1,12.3,2.1h2.8c1.6,20.6,9.8,39.3,22.4,54.1l-2,2c0,0,3.6,8.4-7.2,10.2c-3.4,0.6-6.6,1.9-9.2,4.3
					c-0.4,0.3-0.7,0.7-1,1.1c-15.7,17-4.5,28.2,12.6,12.6c0.4-0.3,0.7-0.7,1.1-1c2.4-2.5,3.7-5.8,4.3-9.2
					c1.8-10.8,10.2-7.2,10.2-7.2l2-2c14.8,12.6,33.5,20.8,54.1,22.4v2.8c0,0,8.5,3.3,2.1,12.3c-2,2.8-3.3,6.1-3.4,9.5
					c0,0.5,0,1,0,1.5c1,23.1,16.8,23.1,17.8,0c0-0.5,0-1,0-1.5c-0.1-3.4-1.4-6.7-3.4-9.5c-6.4-8.9,2.1-12.3,2.1-12.3v-2.8
					c20.6-1.6,39.3-9.8,54.1-22.4l2,2c0,0,8.4-3.6,10.2,7.2c0.6,3.4,1.9,6.6,4.3,9.2c0.3,0.4,0.7,0.7,1.1,1
					c17,15.7,28.2,4.5,12.6-12.6c-0.3-0.4-0.7-0.7-1-1.1c-2.5-2.4-5.8-3.7-9.2-4.3c-10.8-1.8-7.2-10.2-7.2-10.2l-2-2
					c12.6-14.8,20.8-33.5,22.4-54.1h2.8c0,0,3.3-8.5,12.3-2.1c2.8,2,6.1,3.3,9.5,3.4c0.5,0,1,0,1.5,0
					C1220.3,495.6,1220.3,479.8,1197.2,478.8z M1083.9,444.1c2.5-0.5,4.5-2.7,4.5-5.4v-15.4c0-2.7-1.9-4.9-4.5-5.4v-10.5v-1.2
					c17,1.6,32.4,8.3,44.8,18.6l-0.8,0.8l-7.4,7.4c-2.2-1.4-5.1-1.2-7,0.7l-10.9,10.9c-1.9,1.9-2.1,4.8-0.7,7l-15.1,15.1
					c-0.9-0.5-1.9-0.8-2.8-1.2V444.1z M1121.1,451.5c-2.3,2.3-6.1,2.3-8.5,0s-2.3-6.1,0-8.5c2.3-2.3,6.1-2.3,8.5,0
					C1123.4,445.3,1123.4,449.1,1121.1,451.5z M1076.3,424.5c3.3,0,6,2.7,6,6s-2.7,6-6,6c-3.3,0-6-2.7-6-6S1073,424.5,1076.3,424.5z
					 M1068.8,406.1v1.2v10.5c-2.5,0.5-4.5,2.7-4.5,5.4v15.4c0,2.7,1.9,4.9,4.5,5.4v21.3c-1,0.3-1.9,0.7-2.8,1.2l-15.1-15.1
					c1.4-2.2,1.2-5.1-0.7-7l-10.9-10.9c-1.9-1.9-4.8-2.1-7-0.7l-7.4-7.4l-0.8-0.8C1036.4,414.4,1051.8,407.6,1068.8,406.1z
					 M1040.1,451.5c-2.3,2.3-6.1,2.3-8.5,0c-2.3-2.3-2.3-6.1,0-8.5c2.3-2.3,6.1-2.3,8.5,0C1042.4,445.3,1042.4,449.1,1040.1,451.5z
					 M1013.3,435.4l0.8,0.8l7.4,7.4c-1.4,2.2-1.2,5.1,0.7,7l10.9,10.9c1.9,1.9,4.8,2.1,7,0.7l15.1,15.1c-0.5,0.9-0.8,1.9-1.2,2.8
					h-21.3c-0.5-2.5-2.7-4.5-5.4-4.5h-15.4c-2.7,0-4.9,1.9-5.4,4.5h-10.5h-1.2C996.3,463.2,1003,447.7,1013.3,435.4z M1025.1,487.7
					c0,3.3-2.7,6-6,6c-3.3,0-6-2.7-6-6s2.7-6,6-6C1022.4,481.7,1025.1,484.4,1025.1,487.7z M1021.5,531.8l-7.4,7.4l-0.8,0.8
					c-10.3-12.4-17-27.8-18.6-44.8h1.2h10.5c0.5,2.5,2.7,4.5,5.4,4.5h15.4c2.7,0,4.9-1.9,5.4-4.5h21.3c0.3,1,0.7,1.9,1.2,2.8
					l-15.1,15.1c-2.2-1.4-5.1-1.2-7,0.7l-10.9,10.9C1020.3,526.7,1020.1,529.7,1021.5,531.8z M1040.1,532.4c-2.3,2.3-6.1,2.3-8.5,0
					c-2.3-2.3-2.3-6.1,0-8.5c2.3-2.3,6.1-2.3,8.5,0S1042.4,530.1,1040.1,532.4z M1068.8,531.3c-2.5,0.5-4.5,2.7-4.5,5.4v15.4
					c0,2.7,1.9,4.9,4.5,5.4v10.5v1.2c-17-1.6-32.4-8.3-44.8-18.6l0.8-0.8l7.4-7.4c2.2,1.4,5.1,1.2,7-0.7l10.9-10.9
					c1.9-1.9,2.1-4.8,0.7-7l15.1-15.1c0.9,0.5,1.9,0.8,2.8,1.2V531.3z M1076.3,551c-3.3,0-6-2.7-6-6s2.7-6,6-6c3.3,0,6,2.7,6,6
					S1079.7,551,1076.3,551z M1077.9,499.6c-7.8,1-14.4-5.6-13.4-13.4c0.7-5.3,5-9.6,10.3-10.3c7.8-1,14.4,5.6,13.4,13.4
					C1087.5,494.6,1083.2,498.9,1077.9,499.6z M1083.9,569.3v-1.2v-10.5c2.5-0.5,4.5-2.7,4.5-5.4v-15.4c0-2.7-1.9-4.9-4.5-5.4V510
					c1-0.3,1.9-0.7,2.8-1.2l15.1,15.1c-1.4,2.2-1.2,5.1,0.7,7l10.9,10.9c1.9,1.9,4.8,2.1,7,0.7l7.4,7.4l0.8,0.8
					C1116.3,561.1,1100.9,567.8,1083.9,569.3z M1112.6,524c2.3-2.3,6.1-2.3,8.5,0s2.3,6.1,0,8.5c-2.3,2.3-6.1,2.3-8.5,0
					C1110.3,530.1,1110.3,526.3,1112.6,524z M1139.4,540.1l-0.8-0.8l-7.4-7.4c1.4-2.2,1.2-5.1-0.7-7l-10.9-10.9
					c-1.9-1.9-4.8-2.1-7-0.7l-15.1-15.1c0.5-0.9,0.8-1.9,1.2-2.8h21.3c0.5,2.5,2.7,4.5,5.4,4.5h15.4c2.7,0,4.9-1.9,5.4-4.5h10.5h1.2
					C1156.4,512.2,1149.7,527.7,1139.4,540.1z M1127.6,487.7c0-3.3,2.7-6,6-6c3.3,0,6,2.7,6,6s-2.7,6-6,6
					C1130.3,493.7,1127.6,491,1127.6,487.7z M1156.8,480.2h-10.5c-0.5-2.5-2.7-4.5-5.4-4.5h-15.4c-2.7,0-4.9,1.9-5.4,4.5h-21.3
					c-0.3-1-0.7-1.9-1.2-2.8l15.1-15.1c2.2,1.4,5.1,1.2,7-0.7l10.9-10.9c1.9-1.9,2.1-4.8,0.7-7l7.4-7.4l0.8-0.8
					c10.3,12.4,17,27.8,18.6,44.8H1156.8z"/>
				<path fill="#854D21" d="M1076.3,459.4c-15.6,0-28.3,12.7-28.3,28.3c0,15.6,12.7,28.3,28.3,28.3c15.6,0,28.3-12.7,28.3-28.3
					C1104.7,472.1,1092,459.4,1076.3,459.4z M1076.3,497.7c-5.5,0-10-4.5-10-10c0-5.5,4.5-10,10-10c5.5,0,10,4.5,10,10
					C1086.4,493.2,1081.9,497.7,1076.3,497.7z"/>
				<path fill="#E49C46" d="M1076.3,514.1c-14.5,0-26.3-11.8-26.3-26.3s11.8-26.3,26.3-26.3s26.3,11.8,26.3,26.3
					S1090.9,514.1,1076.3,514.1z M1076.3,475.7c-6.6,0-12,5.4-12,12s5.4,12,12,12s12-5.4,12-12S1083,475.7,1076.3,475.7z"/>
			</g>
			<g>
				<g>
					<path fill="#E49C46" d="M1071.7,774.8c-0.7,0-1.3-0.6-1.3-1.3v-6.1c0-0.5,0.3-1,0.8-1.2c1.3-0.5,2.4-1.5,2.9-2.8
						c0.6-1.3,0.6-2.7,0.1-4c-4.8-12-5.1-24.5-0.6-34.2c5-10.9-0.4-16.6-2.8-18.5v-17.9c3.8-4.6,8-14.3-0.3-22.5
						c-0.3-1.1-1.2-4.2-1.1-7.4c0.2-4.5,3.6-6.5,6.9-6.5c3.3,0,6.7,2,6.9,6.5c0.1,3.2-0.7,6.3-1.1,7.4c-8.2,8.2-4,17.9-0.3,22.5
						v17.9c-2.4,1.9-7.8,7.6-2.8,18.5c4.5,9.7,4.2,22.2-0.6,34.2c-0.5,1.3-0.5,2.7,0.1,4c0.6,1.3,1.6,2.3,2.9,2.8
						c0.5,0.2,0.8,0.7,0.8,1.2v6.1c0,0.7-0.6,1.3-1.3,1.3H1071.7z"/>
					<path fill="#E49C46" d="M1202.4,792.5c-3,0-5.7-0.8-6.7-1.1c-3.1-3.1-6.7-4.7-10.7-4.7c-5.6,0-10.2,3.2-11.8,4.5h-17.9
						c-1.3-1.7-4.5-4.9-10.1-4.9c-2.6,0-5.4,0.7-8.4,2.1c-4.6,2.1-9.8,3.2-15.5,3.2c0,0,0,0,0,0c-6.1,0-12.6-1.3-18.8-3.8
						c-0.6-0.3-1.3-0.4-1.9-0.4c-2.2,0-4.1,1.4-4.9,3.4c-0.2,0.5-0.7,0.8-1.2,0.8h-6.1c-0.7,0-1.3-0.6-1.3-1.3v-9.4
						c0-0.7,0.6-1.3,1.3-1.3h6.1c0.5,0,1,0.3,1.2,0.8c0.8,2,2.7,3.4,4.9,3.4c0.7,0,1.3-0.1,1.9-0.4c6.2-2.5,12.7-3.8,18.8-3.8
						c5.6,0,10.8,1.1,15.5,3.2c3,1.4,5.8,2.1,8.4,2.1c0,0,0,0,0,0c5.7,0,8.8-3.2,10.1-4.9h17.9c1.6,1.3,6.2,4.5,11.8,4.5
						c4,0,7.6-1.6,10.7-4.7c1-0.3,3.7-1.1,6.7-1.1c0.2,0,0.5,0,0.7,0c4.5,0.2,6.5,3.6,6.5,6.9c0,3.3-2,6.7-6.5,6.9
						C1202.9,792.5,1202.7,792.5,1202.4,792.5z"/>
					<path fill="#E49C46" d="M1076.3,918.8c-3.3,0-6.7-2-6.9-6.5c-0.1-3.3,0.7-6.3,1.1-7.4c8.2-8.2,4-17.9,0.3-22.5v-17.9
						c2.4-1.9,7.8-7.6,2.8-18.5c-4.5-9.7-4.2-22.2,0.6-34.2c0.5-1.3,0.5-2.7-0.1-4c-0.6-1.3-1.6-2.3-2.9-2.8
						c-0.5-0.2-0.8-0.7-0.8-1.2v-6.1c0-0.7,0.6-1.3,1.3-1.3h9.4c0.7,0,1.3,0.6,1.3,1.3v6.1c0,0.5-0.3,1-0.8,1.2
						c-1.3,0.5-2.4,1.5-2.9,2.8c-0.6,1.3-0.6,2.7-0.1,4c4.8,12,5.1,24.5,0.6,34.2c-5,10.9,0.4,16.6,2.8,18.5v17.9
						c-3.8,4.6-8,14.3,0.3,22.5c0.3,1.1,1.2,4.2,1.1,7.4C1083.1,916.8,1079.6,918.8,1076.3,918.8z"/>
					<path fill="#E49C46" d="M950.3,792.5c-0.2,0-0.5,0-0.7,0c-4.5-0.2-6.5-3.6-6.5-6.9c0-3.3,2-6.7,6.5-6.9c0.2,0,0.5,0,0.7,0
						c3,0,5.7,0.8,6.7,1.1c3.1,3.1,6.7,4.7,10.7,4.7c5.6,0,10.2-3.2,11.8-4.5h17.9c1.3,1.7,4.5,4.9,10.1,4.9c0,0,0,0,0,0
						c2.6,0,5.4-0.7,8.4-2.1c4.6-2.1,9.8-3.2,15.5-3.2c6.1,0,12.6,1.3,18.8,3.8c0.6,0.3,1.3,0.4,1.9,0.4c2.2,0,4.1-1.4,4.9-3.4
						c0.2-0.5,0.7-0.8,1.2-0.8h6.1c0.7,0,1.3,0.6,1.3,1.3v9.4c0,0.7-0.6,1.3-1.3,1.3h-6.1c-0.5,0-1-0.3-1.2-0.8
						c-0.8-2-2.7-3.4-4.9-3.4c-0.7,0-1.3,0.1-1.9,0.4c-6.2,2.5-12.7,3.8-18.8,3.8c-5.6,0-10.8-1.1-15.5-3.2c-3-1.4-5.8-2.1-8.4-2.1
						c-5.7,0-8.8,3.2-10.1,4.9h-17.9c-1.6-1.3-6.2-4.5-11.8-4.5c-4,0-7.6,1.6-10.7,4.7C956,791.7,953.2,792.5,950.3,792.5z"/>
					<path fill="#E49C46" d="M1086.4,778.7c-0.2,0-0.4-0.1-0.6-0.2l-8.1-4.7c-0.3-0.2-0.5-0.4-0.6-0.8c-0.1-0.3,0-0.7,0.1-1l3.1-5.3
						c0.2-0.4,0.6-0.6,1.1-0.6c0.1,0,0.1,0,0.2,0c0.3,0,0.5,0.1,0.8,0.1c2.6,0,4.8-1.9,5.2-4.5c1.8-12.8,7.9-23.8,16.6-30
						c9.8-7,7.9-14.6,6.8-17.5l8.9-15.5c5.6-2.1,14-8.4,11-19.6c0.2-1.1,1-4.2,2.8-6.9c1.7-2.6,3.9-3.2,5.5-3.2
						c2.5,0,5.1,1.5,6.5,3.6c0.8,1.4,1.5,3.6,0,6.4c-1.5,2.9-3.8,5.1-4.6,5.9c-11.2,3-12.5,13.5-11.5,19.4l-8.9,15.5
						c-4.3,0.5-10.7,4-11.7,14.7c-1,10.7-7.4,21.4-17.6,29.4c-1.1,0.9-1.8,2.1-2,3.5c-0.2,1.4,0.2,2.8,1.1,3.9
						c0.3,0.4,0.4,1,0.1,1.4l-3.1,5.3C1087.3,778.5,1086.9,778.7,1086.4,778.7z"/>
					<path fill="#E49C46" d="M1186,855.7c-1.1,0-2.2-0.3-3.3-0.9c-2.9-1.5-5.1-3.8-5.9-4.6c-2-7.4-7.8-11.7-16.1-11.7
						c-1.4,0-2.6,0.1-3.3,0.2l-15.5-8.9c-0.4-3.1-2.7-10.6-14.6-11.7c-10.7-1-21.4-7.4-29.4-17.6c-1-1.3-2.5-2-4.1-2
						c-1.2,0-2.4,0.4-3.3,1.2c-0.2,0.2-0.5,0.3-0.8,0.3c-0.2,0-0.4-0.1-0.6-0.2l-5.3-3.1c-0.3-0.2-0.5-0.4-0.6-0.8
						c-0.1-0.3,0-0.7,0.1-1l4.7-8.1c0.2-0.4,0.6-0.6,1.1-0.6c0.2,0,0.4,0.1,0.6,0.2l5.3,3.1c0.4,0.3,0.7,0.8,0.6,1.3
						c-0.2,1.4,0.1,2.8,1,3.9c0.8,1.1,2.1,1.9,3.5,2.1c12.8,1.8,23.8,7.9,30,16.6c4.6,6.4,9.4,7.8,12.7,7.8c2.1,0,3.7-0.5,4.8-1
						l15.5,8.9c1.1,2.7,5.3,11.6,15.1,11.6c1.5,0,3-0.2,4.6-0.6c1.1,0.2,4.2,1,6.9,2.8c3.9,2.4,3.3,6,2.9,7.5
						C1191.8,852.9,1189.4,855.7,1186,855.7z"/>
					<path fill="#E49C46" d="M1013.6,902.1c-2.5,0-5.1-1.5-6.5-3.6c-0.8-1.4-1.5-3.6,0-6.4c1.5-2.9,3.8-5.1,4.6-5.9
						c11.2-3,12.5-13.5,11.5-19.4l8.9-15.5c4.3-0.5,10.7-4,11.7-14.7c1-10.7,7.4-21.4,17.6-29.4c1.1-0.9,1.8-2.1,2-3.5
						c0.2-1.4-0.2-2.8-1.1-3.9c-0.3-0.4-0.4-1-0.1-1.4l3.1-5.3c0.2-0.4,0.6-0.6,1.1-0.6c0.2,0,0.4,0.1,0.6,0.2l8.1,4.7
						c0.3,0.2,0.5,0.4,0.6,0.8c0.1,0.3,0,0.7-0.1,1l-3.1,5.3c-0.2,0.4-0.6,0.6-1.1,0.6c-0.1,0-0.1,0-0.2,0c-0.3,0-0.5-0.1-0.8-0.1
						c-2.6,0-4.8,1.9-5.2,4.5c-1.8,12.8-7.9,23.8-16.6,30c-9.8,7-7.9,14.6-6.8,17.5l-8.9,15.5c-5.6,2.1-14,8.4-11,19.6
						c-0.2,1.1-1,4.2-2.8,6.9C1017.3,901.5,1015.1,902.1,1013.6,902.1z"/>
					<path fill="#E49C46" d="M1063.5,784.9c-0.2,0-0.4-0.1-0.6-0.2l-5.3-3.1c-0.4-0.3-0.7-0.8-0.6-1.3c0.2-1.4-0.1-2.8-1-3.9
						c-0.8-1.1-2.1-1.9-3.5-2.1c-12.8-1.8-23.8-7.9-30-16.6c-4.6-6.4-9.4-7.8-12.7-7.8c-2.1,0-3.7,0.5-4.8,1l-15.5-8.9
						c-1.1-2.7-5.3-11.6-15.1-11.6c-1.5,0-3,0.2-4.6,0.6c-1.1-0.2-4.2-1-6.9-2.8c-3.9-2.4-3.3-6-2.9-7.4c0.7-2.6,3.1-5.4,6.5-5.4
						c1.1,0,2.2,0.3,3.3,0.9c2.9,1.5,5.1,3.8,5.9,4.6c2,7.4,7.8,11.7,16.1,11.7c1.4,0,2.6-0.1,3.3-0.2l15.5,8.9
						c0.4,3.1,2.7,10.6,14.6,11.7c10.7,1,21.4,7.4,29.4,17.6c1,1.3,2.5,2,4.1,2c1.2,0,2.4-0.4,3.3-1.2c0.2-0.2,0.5-0.3,0.8-0.3
						c0.2,0,0.4,0.1,0.6,0.2l5.3,3.1c0.3,0.2,0.5,0.4,0.6,0.8c0.1,0.3,0,0.7-0.1,1l-4.7,8.1C1064.4,784.6,1064,784.9,1063.5,784.9z"
						/>
					<path fill="#E49C46" d="M1089.1,784.8c-0.4,0-0.9-0.2-1.1-0.6l-4.7-8.1c-0.2-0.3-0.2-0.6-0.1-1c0.1-0.3,0.3-0.6,0.6-0.8
						l5.3-3.1c0.2-0.1,0.4-0.2,0.6-0.2c0.3,0,0.6,0.1,0.8,0.3c0.9,0.8,2.1,1.2,3.3,1.2c1.6,0,3.1-0.7,4.1-2
						c8-10.2,18.7-16.7,29.3-17.7c11.9-1.1,14.2-8.7,14.6-11.7l15.5-9c0.7,0.1,1.9,0.2,3.2,0.2c8.3,0,14.1-4.3,16.1-11.7
						c0.8-0.8,3-3.1,5.9-4.6c1.1-0.6,2.2-0.9,3.3-0.9c3.4,0,5.8,2.8,6.5,5.4c0.4,1.4,1,5-2.9,7.4c-2.7,1.8-5.8,2.5-6.9,2.8
						c-1.6-0.4-3.1-0.6-4.5-0.6c-9.8,0-14,9-15.1,11.7l-15.5,9c-1-0.4-2.7-0.9-4.8-0.9c-3.3,0-8.2,1.4-12.7,7.8
						c-6.2,8.7-17.1,14.8-29.9,16.7c-1.4,0.2-2.6,0.9-3.5,2.1c-0.8,1.1-1.2,2.5-1,3.9c0.1,0.5-0.2,1-0.6,1.3l-5.3,3.1
						C1089.6,784.8,1089.4,784.8,1089.1,784.8L1089.1,784.8z"/>
					<path fill="#E49C46" d="M1139.4,901.9c-1.6,0-3.8-0.6-5.4-3.2c-1.7-2.7-2.5-5.8-2.8-6.9c3-11.2-5.5-17.5-11.1-19.6l-9-15.5
						c1.2-2.9,3-10.5-6.8-17.5c-8.7-6.2-14.8-17.1-16.7-29.9c-0.4-2.6-2.6-4.5-5.2-4.5c-0.3,0-0.6,0-0.8,0.1c-0.1,0-0.1,0-0.2,0
						c-0.4,0-0.9-0.2-1.1-0.6l-3.1-5.3c-0.3-0.6-0.1-1.4,0.5-1.7l8.1-4.7c0.2-0.1,0.4-0.2,0.6-0.2c0.4,0,0.9,0.2,1.1,0.6l3.1,5.3
						c0.3,0.4,0.2,1-0.1,1.4c-0.9,1.1-1.3,2.5-1.1,3.9c0.2,1.4,0.9,2.7,2,3.5c10.2,8,16.7,18.7,17.7,29.3
						c1.2,12.1,8.8,14.2,11.8,14.6l9,15.5c-1,5.9,0.3,16.4,11.5,19.4c0.8,0.8,3.1,3,4.6,5.9c1.5,2.8,0.8,5.1,0,6.4
						C1144.5,900.4,1141.9,901.9,1139.4,901.9C1139.4,901.9,1139.4,901.9,1139.4,901.9z"/>
					<path fill="#E49C46" d="M966.8,856c-3.4,0-5.8-2.8-6.5-5.4c-0.4-1.4-1-5,2.9-7.4c2.7-1.7,5.8-2.5,6.9-2.8
						c1.6,0.4,3.1,0.6,4.5,0.6c0,0,0,0,0,0c9.8,0,14-9,15.1-11.7l15.5-9c1,0.4,2.7,0.9,4.8,0.9c3.3,0,8.2-1.4,12.7-7.8
						c6.2-8.7,17.1-14.8,29.9-16.7c1.4-0.2,2.6-0.9,3.5-2.1c0.8-1.1,1.2-2.5,1-3.9c-0.1-0.5,0.2-1,0.6-1.3l5.3-3.1
						c0.2-0.1,0.4-0.2,0.6-0.2c0.4,0,0.9,0.2,1.1,0.6l4.7,8.1c0.3,0.6,0.1,1.4-0.5,1.7l-5.3,3.1c-0.2,0.1-0.4,0.2-0.6,0.2
						c-0.3,0-0.6-0.1-0.8-0.3c-0.9-0.8-2.1-1.2-3.3-1.2c-1.6,0-3.1,0.7-4.1,2c-8,10.2-18.7,16.7-29.3,17.7
						c-11.9,1.1-14.2,8.7-14.6,11.7l-15.5,9c-0.7-0.1-1.9-0.2-3.2-0.2c-8.3,0-14.1,4.3-16.1,11.7c-0.8,0.8-3,3.1-5.9,4.6
						C969,855.7,967.9,856,966.8,856z"/>
					<path fill="#E49C46" d="M1066.2,778.7c-0.4,0-0.9-0.2-1.1-0.6l-3.1-5.3c-0.3-0.4-0.2-1,0.1-1.4c0.9-1.1,1.3-2.5,1.1-3.9
						c-0.2-1.4-0.9-2.7-2-3.5c-10.2-8-16.7-18.7-17.7-29.3c-1.2-12.1-8.8-14.2-11.8-14.6l-9-15.5c1-5.9-0.3-16.4-11.5-19.4
						c-0.8-0.8-3.1-3-4.6-5.9c-1.5-2.8-0.8-5.1,0-6.4c1.3-2.2,3.9-3.7,6.5-3.7c1.6,0,3.8,0.6,5.4,3.2c1.8,2.7,2.5,5.8,2.8,6.9
						c-3,11.2,5.5,17.5,11.1,19.6l9,15.5c-1.2,2.9-3,10.5,6.8,17.5c8.7,6.2,14.8,17.1,16.7,29.9c0.4,2.6,2.6,4.5,5.2,4.5
						c0.3,0,0.6,0,0.8-0.1c0.1,0,0.1,0,0.2,0c0.4,0,0.9,0.2,1.1,0.6l3.1,5.3c0.2,0.3,0.2,0.6,0.1,1c-0.1,0.3-0.3,0.6-0.6,0.8
						l-8.1,4.7C1066.7,778.7,1066.5,778.7,1066.2,778.7z"/>
					<path fill="#854D21" d="M1077.7,769.2c-10.1-0.8-18.5,7.6-17.7,17.7c0.6,7.9,7.1,14.4,15,15c10.1,0.8,18.5-7.6,17.7-17.7
						C1092.1,776.3,1085.6,769.9,1077.7,769.2z M1077.4,793.8c-5.4,0.7-10-3.9-9.3-9.3c0.5-3.7,3.5-6.7,7.2-7.2
						c5.4-0.7,10,3.9,9.3,9.3C1084.1,790.4,1081.1,793.4,1077.4,793.8z"/>
					<path fill="#854D21" d="M1076.3,702.2c-46,0-83.3,37.4-83.3,83.3s37.4,83.3,83.3,83.3c46,0,83.3-37.4,83.3-83.3
						S1122.3,702.2,1076.3,702.2z M1076.3,849.1c-35,0-63.5-28.5-63.5-63.5c0-35,28.5-63.5,63.5-63.5c35,0,63.5,28.5,63.5,63.5
						C1139.8,820.6,1111.3,849.1,1076.3,849.1z"/>
					<path fill="#E49C46" d="M1076.3,866.9c-44.9,0-81.3-36.5-81.3-81.3c0-44.9,36.5-81.3,81.3-81.3c44.9,0,81.3,36.5,81.3,81.3
						C1157.7,830.4,1121.2,866.9,1076.3,866.9z M1076.3,720.1c-36.1,0-65.5,29.4-65.5,65.5c0,36.1,29.4,65.5,65.5,65.5
						s65.5-29.4,65.5-65.5C1141.8,749.5,1112.4,720.1,1076.3,720.1z"/>
					<path fill="#854D21" d="M1076.3,881.6c-52.9,0-96-43.1-96-96c0-52.9,43.1-96,96-96c52.9,0,96,43.1,96,96
						C1172.3,838.5,1129.3,881.6,1076.3,881.6z M1076.3,700.2c-47.1,0-85.4,38.3-85.4,85.4c0,47.1,38.3,85.4,85.4,85.4
						s85.4-38.3,85.4-85.4C1161.7,738.5,1123.4,700.2,1076.3,700.2z"/>
					<path fill="#E49C46" d="M1076.3,691.6c-51.8,0-94,42.2-94,94c0,51.8,42.2,94,94,94c51.8,0,94-42.2,94-94
						C1170.3,733.8,1128.2,691.6,1076.3,691.6z M1076.3,873c-48.2,0-87.4-39.2-87.4-87.4c0-48.2,39.2-87.4,87.4-87.4
						c48.2,0,87.4,39.2,87.4,87.4C1163.7,833.8,1124.5,873,1076.3,873z"/>
				</g>
				<circle fill="#854D21" cx="1076.3" cy="712.2" r="4.8"/>
				<circle fill="#854D21" cx="1149.8" cy="785.6" r="4.8"/>
				<circle fill="#854D21" cx="1076.3" cy="859" r="4.8"/>
				<circle fill="#854D21" cx="1002.9" cy="785.6" r="4.8"/>
				<circle fill="#854D21" cx="1113.5" cy="722.3" r="4.8"/>
				<circle fill="#854D21" cx="1139.7" cy="822.7" r="4.8"/>
				<circle fill="#854D21" cx="1039.2" cy="848.9" r="4.8"/>
				<circle fill="#854D21" cx="1013" cy="748.4" r="4.8"/>
				<circle fill="#854D21" cx="1140.4" cy="749.8" r="4.8"/>
				<circle fill="#854D21" cx="1112.1" cy="849.7" r="4.8"/>
				<circle fill="#854D21" cx="1012.3" cy="821.4" r="4.8"/>
				<circle fill="#854D21" cx="1040.6" cy="721.5" r="4.8"/>
			</g>
		</g>
		<g>
			<g>
				<path fill="#E49C46" d="M779.2,102.6c-0.4,0.3-0.7,0.7-1.1,1c-2.4,2.5-3.7,5.8-4.3,9.2c-1.8,10.8-10.2,7.2-10.2,7.2l-12.2,12.2
					l-7.4,7.4c-1,3.7-5,9.4-10.5,15c-5.6,5.6-11.3,9.5-15,10.5l-15.4,15.4l10.7,10.7l15.6-15.6c1.2-3.7,5-9.2,10.4-14.6
					c5.4-5.4,10.9-9.3,14.6-10.4l7.6-7.6l12.2-12.2c0,0-3.6-8.4,7.2-10.2c3.4-0.6,6.6-1.9,9.2-4.3c0.4-0.3,0.7-0.7,1-1.1
					C807.4,98.2,796.2,87,779.2,102.6z"/>
				<path fill="#E49C46" d="M820.9,185.5c-0.5,0-1,0-1.5,0c-3.4,0.1-6.7,1.4-9.5,3.4c-8.9,6.4-12.3-2.1-12.3-2.1h-17.2H770
					c-3.3,1.9-10.2,3.1-18,3.1c-7.9,0-14.7-1.3-18-3.1h-21.8V202h22.1c3.4-1.8,10.1-3,17.7-3c7.6,0,14.3,1.2,17.7,3h10.7h17.2
					c0,0,3.3-8.5,12.3-2.1c2.8,2,6.1,3.3,9.5,3.4c0.5,0,1,0,1.5,0C844,202.3,844,186.5,820.9,185.5z"/>
				<path fill="#E49C46" d="M791.8,273.6c-0.3-0.4-0.7-0.7-1-1.1c-2.5-2.4-5.8-3.7-9.2-4.3c-10.8-1.8-7.2-10.2-7.2-10.2l-12.2-12.2
					l-7.4-7.4c-3.7-1-9.4-5-15-10.5c-5.6-5.6-9.5-11.3-10.5-15L714,197.7l-10.7,10.7l15.6,15.6c3.7,1.2,9.2,5,14.6,10.4
					c5.4,5.4,9.3,10.9,10.4,14.6l7.6,7.6l12.2,12.2c0,0,8.4-3.6,10.2,7.2c0.6,3.4,1.9,6.6,4.3,9.2c0.3,0.4,0.7,0.7,1.1,1
					C796.2,301.8,807.4,290.6,791.8,273.6z"/>
				<path fill="#E49C46" d="M707.6,292v-17.2v-10.4c-1.9-3.3-3.1-10.2-3.1-18c0-7.9,1.3-14.7,3.1-18v-21.8h-15.1v22.1
					c1.8,3.4,3,10.1,3,17.7c0,7.6-1.2,14.3-3,17.7v10.7V292c0,0,8.5,3.3,2.1,12.3c-2,2.8-3.3,6.1-3.4,9.5c0,0.5,0,1,0,1.5
					c1,23.1,16.8,23.1,17.8,0c0-0.5,0-1,0-1.5c-0.1-3.4-1.4-6.7-3.4-9.5C699.1,295.4,707.6,292,707.6,292z"/>
				<path fill="#E49C46" d="M666.4,234.3c5.6-5.6,11.3-9.5,15-10.5l15.4-15.4L686,197.7l-15.6,15.6c-1.2,3.7-5,9.2-10.4,14.6
					c-5.4,5.4-10.9,9.3-14.6,10.4l-7.6,7.6l-12.2,12.2c0,0,3.6,8.4-7.2,10.2c-3.4,0.6-6.6,1.9-9.2,4.3c-0.4,0.3-0.7,0.7-1,1.1
					c-15.7,17-4.5,28.2,12.6,12.6c0.4-0.3,0.7-0.7,1.1-1c2.4-2.5,3.7-5.8,4.3-9.2c1.8-10.8,10.2-7.2,10.2-7.2l12.2-12.2l7.4-7.4
					C656.9,245.6,660.8,239.9,666.4,234.3z"/>
				<path fill="#E49C46" d="M665.7,186.8c-3.4,1.8-10.1,3-17.7,3c-7.6,0-14.3-1.2-17.7-3h-10.7h-17.2c0,0-3.3,8.5-12.3,2.1
					c-2.8-2-6.1-3.3-9.5-3.4c-0.5,0-1,0-1.5,0c-23.1,1-23.1,16.8,0,17.8c0.5,0,1,0,1.5,0c3.4-0.1,6.7-1.4,9.5-3.4
					c8.9-6.4,12.3,2.1,12.3,2.1h17.2H630c3.3-1.9,10.2-3.1,18-3.1c7.9,0,14.7,1.3,18,3.1h21.8v-15.1H665.7z"/>
				<path fill="#E49C46" d="M681.1,164.8c-3.7-1.2-9.2-5-14.6-10.4c-5.4-5.4-9.3-10.9-10.4-14.6l-7.6-7.6L636.3,120
					c0,0-8.4,3.6-10.2-7.2c-0.6-3.4-1.9-6.6-4.3-9.2c-0.3-0.4-0.7-0.7-1.1-1c-17-15.7-28.2-4.5-12.6,12.6c0.3,0.4,0.7,0.7,1,1.1
					c2.5,2.4,5.8,3.7,9.2,4.3c10.8,1.8,7.2,10.2,7.2,10.2l12.2,12.2l7.4,7.4c3.7,1,9.4,5,15,10.5c5.6,5.6,9.5,11.3,10.5,15
					l15.4,15.4l10.7-10.7L681.1,164.8z"/>
				<path fill="#E49C46" d="M704.6,142.4c0-7.6,1.2-14.3,3-17.7V114V96.8c0,0-8.5-3.3-2.1-12.3c2-2.8,3.3-6.1,3.4-9.5
					c0-0.5,0-1,0-1.5c-1-23.1-16.8-23.1-17.8,0c0,0.5,0,1,0,1.5c0.1,3.4,1.4,6.7,3.4,9.5c6.4,8.9-2.1,12.3-2.1,12.3V114v10.4
					c1.9,3.3,3.1,10.2,3.1,18s-1.3,14.7-3.1,18v21.8h15.1v-22.1C705.8,156.7,704.6,150,704.6,142.4z"/>
				<path fill="#854D21" d="M708.9,75c0-0.5,0-1,0-1.5c-0.5-11.6-4.7-17.3-8.9-17.3v126h7.6v-22.1c-1.8-3.4-3-10.1-3-17.7
					s1.2-14.3,3-17.7V114V96.8c0,0-8.5-3.3-2.1-12.3C707.4,81.7,708.8,78.5,708.9,75z"/>
				<path fill="#854D21" d="M790.7,116.3c0.4-0.3,0.7-0.7,1-1.1c7.8-8.5,8.9-15.6,6-18.5l-89.1,89.1l5.4,5.4l15.6-15.6
					c1.2-3.7,5-9.2,10.4-14.6c5.4-5.4,10.9-9.3,14.6-10.4l7.6-7.6l12.2-12.2c0,0-3.6-8.4,7.2-10.2C785,120,788.2,118.6,790.7,116.3z
					"/>
				<path fill="#854D21" d="M819.4,203.3c0.5,0,1,0,1.5,0c11.6-0.5,17.3-4.7,17.3-8.9h-126v7.6h22.1c3.4-1.8,10.1-3,17.7-3
					s14.3,1.2,17.7,3h10.7h17.2c0,0,3.3-8.5,12.3-2.1C812.7,201.9,816,203.2,819.4,203.3z"/>
				<path fill="#854D21" d="M778.1,285.1c0.3,0.4,0.7,0.7,1.1,1c8.5,7.8,15.6,8.9,18.5,6L708.6,203l-5.4,5.4l15.6,15.6
					c3.7,1.2,9.2,5,14.6,10.4c5.4,5.4,9.3,10.9,10.4,14.6l7.6,7.6l12.2,12.2c0,0,8.4-3.6,10.2,7.2
					C774.4,279.4,775.8,282.6,778.1,285.1z"/>
				<path fill="#854D21" d="M691.1,313.8c0,0.5,0,1,0,1.5c0.5,11.6,4.7,17.3,8.9,17.3v-126h-7.6v22.1c1.8,3.4,3,10.1,3,17.7
					s-1.2,14.3-3,17.7v10.7V292c0,0,8.5,3.3,2.1,12.3C692.6,307.1,691.2,310.4,691.1,313.8z"/>
				<path fill="#854D21" d="M609.3,272.5c-0.4,0.3-0.7,0.7-1,1.1c-7.8,8.5-8.9,15.6-6,18.5l89.1-89.1l-5.4-5.4l-15.6,15.6
					c-1.2,3.7-5,9.2-10.4,14.6c-5.4,5.4-10.9,9.3-14.6,10.4l-7.6,7.6l-12.2,12.2c0,0,3.6,8.4-7.2,10.2
					C615,268.8,611.8,270.2,609.3,272.5z"/>
				<path fill="#854D21" d="M580.6,185.5c-0.5,0-1,0-1.5,0c-11.6,0.5-17.3,4.7-17.3,8.9h126v-7.6h-22.1c-3.4,1.8-10.1,3-17.7,3
					s-14.3-1.2-17.7-3h-10.7h-17.2c0,0-3.3,8.5-12.3,2.1C587.3,187,584,185.6,580.6,185.5z"/>
				<path fill="#854D21" d="M621.9,103.7c-0.3-0.4-0.7-0.7-1.1-1c-8.5-7.8-15.6-8.9-18.5-6l89.1,89.1l5.4-5.4l-15.6-15.6
					c-3.7-1.2-9.2-5-14.6-10.4c-5.4-5.4-9.3-10.9-10.4-14.6l-7.6-7.6L636.3,120c0,0-8.4,3.6-10.2-7.2
					C625.6,109.5,624.2,106.2,621.9,103.7z"/>
				<path fill="#854D21" d="M700,291.5c-53.5,0-97.1-43.6-97.1-97.1s43.6-97.1,97.1-97.1c53.5,0,97.1,43.6,97.1,97.1
					S753.5,291.5,700,291.5z M700,114.4c-44.1,0-80,35.9-80,80s35.9,80,80,80c44.1,0,80-35.9,80-80S744.1,114.4,700,114.4z"/>
				<path fill="#E49C46" d="M700,99.3c-52.5,0-95.1,42.6-95.1,95.1s42.6,95.1,95.1,95.1c52.5,0,95.1-42.6,95.1-95.1
					S752.5,99.3,700,99.3z M700,276.4c-45.3,0-82-36.7-82-82s36.7-82,82-82c45.3,0,82,36.7,82,82S745.3,276.4,700,276.4z"/>
				<path fill="#854D21" d="M703.6,89.1h-7.2c-1,0-1.8,0.8-1.8,1.8c0,1,0.8,1.8,1.8,1.8h7.2c1,0,1.8-0.8,1.8-1.8
					C705.4,89.9,704.6,89.1,703.6,89.1z"/>
				<path fill="#854D21" d="M777,122.5l-5.1-5.1c-0.7-0.7-1.8-0.7-2.5,0c-0.7,0.7-0.7,1.8,0,2.5l5.1,5.1c0.7,0.7,1.8,0.7,2.5,0
					S777.7,123.2,777,122.5z"/>
				<path fill="#854D21" d="M771.9,271.4l5.1-5.1c0.7-0.7,0.7-1.8,0-2.5c-0.7-0.7-1.8-0.7-2.5,0l-5.1,5.1c-0.7,0.7-0.7,1.8,0,2.5
					C770.1,272.1,771.2,272.1,771.9,271.4z"/>
				<path fill="#854D21" d="M696.4,299.7h7.2c1,0,1.8-0.8,1.8-1.8c0-1-0.8-1.8-1.8-1.8h-7.2c-1,0-1.8,0.8-1.8,1.8
					C694.6,298.9,695.4,299.7,696.4,299.7z"/>
				<path fill="#854D21" d="M623,266.3l5.1,5.1c0.7,0.7,1.8,0.7,2.5,0s0.7-1.8,0-2.5l-5.1-5.1c-0.7-0.7-1.8-0.7-2.5,0
					C622.3,264.5,622.3,265.7,623,266.3z"/>
				<path fill="#854D21" d="M628.1,117.4l-5.1,5.1c-0.7,0.7-0.7,1.8,0,2.5c0.7,0.7,1.8,0.7,2.5,0l5.1-5.1c0.7-0.7,0.7-1.8,0-2.5
					C629.9,116.7,628.8,116.7,628.1,117.4z"/>
				<path fill="#E49C46" d="M700,219.9c-0.7,0-1.4,0-2.1-0.1c-12.4-1-22.4-11-23.4-23.4c-0.6-7.2,1.8-14.1,6.7-19.4
					c4.8-5.2,11.7-8.2,18.7-8.2c0.7,0,1.4,0,2.1,0.1c12.4,1,22.4,11,23.4,23.4c0.6,7.2-1.8,14.1-6.7,19.4
					C713.9,216.9,707.1,219.9,700,219.9L700,219.9z M700,184.5c-0.4,0-0.9,0-1.3,0.1c-4.4,0.6-8,4.2-8.6,8.6
					c-0.4,2.9,0.5,5.7,2.4,7.9c1.9,2.1,4.6,3.4,7.5,3.4c0.4,0,0.9,0,1.3-0.1c4.4-0.6,8-4.2,8.6-8.6c0.4-2.9-0.5-5.7-2.4-7.9
					C705.6,185.7,702.9,184.5,700,184.5z"/>
				<path fill="#854D21" d="M701.9,171c-14.5-1.1-26.5,10.9-25.4,25.4c0.9,11.4,10.1,20.6,21.5,21.5c14.5,1.1,26.5-10.9,25.4-25.4
					C722.5,181.1,713.3,171.9,701.9,171z M701.6,206.3c-7.8,1-14.4-5.6-13.4-13.4c0.7-5.3,5-9.6,10.3-10.3c7.8-1,14.4,5.6,13.4,13.4
					C711.2,201.3,706.9,205.6,701.6,206.3z"/>
			</g>
			<path fill="#854D21" d="M598.5,198v-7.2c0-1-0.8-1.8-1.8-1.8s-1.8,0.8-1.8,1.8v7.2c0,1,0.8,1.8,1.8,1.8S598.5,199,598.5,198z"/>
			<path fill="#854D21" d="M805.6,198v-7.2c0-1-0.8-1.8-1.8-1.8s-1.8,0.8-1.8,1.8v7.2c0,1,0.8,1.8,1.8,1.8S805.6,199,805.6,198z"/>
		</g>
	</g>
</g>
</svg>
