<?xml version="1.0" encoding="UTF-8" standalone="no"?>
<!DOCTYPE svg PUBLIC "-//W3C//DTD SVG 1.1//EN" "http://www.w3.org/Graphics/SVG/1.1/DTD/svg11.dtd">
<!-- Created with Vectornator (http://vectornator.io/) -->
<svg height="100%" stroke-miterlimit="10" style="fill-rule:nonzero;clip-rule:evenodd;stroke-linecap:round;stroke-linejoin:round;" version="1.1" viewBox="0 0 3300 2200" width="100%" xml:space="preserve" xmlns="http://www.w3.org/2000/svg" xmlns:xlink="http://www.w3.org/1999/xlink">
<defs>
<clipPath id="TextBounds">
<rect height="14" transform="matrix(1 -0 -0 1 -263 -309)" width="139.824" x="263" y="309"/>
</clipPath>
<clipPath id="TextBounds_2">
<rect height="14" transform="matrix(1 -0 -0 1 -534.063 -309)" width="54.2954" x="534.063" y="309"/>
</clipPath>
<clipPath id="TextBounds_3">
<rect height="14" transform="matrix(1 -0 -0 1 -843.777 -309)" width="28.2891" x="843.777" y="309"/>
</clipPath>
<clipPath id="TextBounds_4">
<rect height="14" transform="matrix(1 -0 -0 1 -1139.04 -309)" width="31.1899" x="1139.04" y="309"/>
</clipPath>
<clipPath id="TextBounds_5">
<rect height="14" transform="matrix(1 -0 -0 1 -1427.08 -309)" width="48.5254" x="1427.08" y="309"/>
</clipPath>
<clipPath id="TextBounds_6">
<rect height="14" transform="matrix(1 -0 -0 1 -1723.44 -309)" width="49.2363" x="1723.44" y="309"/>
</clipPath>
<clipPath id="TextBounds_7">
<rect height="14" transform="matrix(1 -0 -0 1 -2016.17 -309)" width="57.1963" x="2016.17" y="309"/>
</clipPath>
<clipPath id="TextBounds_8">
<rect height="14" transform="matrix(1 -0 -0 1 -2326.97 -309)" width="29.019" x="2326.97" y="309"/>
</clipPath>
<clipPath id="TextBounds_9">
<rect height="14" transform="matrix(1 -0 -0 1 -2618.27 -309)" width="39.8481" x="2618.27" y="309"/>
</clipPath>
<clipPath id="TextBounds_10">
<rect height="14" transform="matrix(1 -0 -0 1 -2917.51 -309)" width="34.7891" x="2917.51" y="309"/>
</clipPath>
<clipPath id="TextBounds_11">
<rect height="14" transform="matrix(1 -0 -0 1 -263 -1940)" width="103.928" x="263" y="1940"/>
</clipPath>
<clipPath id="TextBounds_12">
<rect height="14" transform="matrix(1 -0 -0 1 -263 -1958)" width="361.433" x="263" y="1958"/>
</clipPath>
<clipPath id="TextBounds_13">
<rect height="14" transform="matrix(1 -0 -0 1 -263 -1976)" width="356.317" x="263" y="1976"/>
</clipPath>
<clipPath id="TextBounds_14">
<rect height="14" transform="matrix(1 -0 -0 1 -263 -1994)" width="180.03" x="263" y="1994"/>
</clipPath>
<clipPath id="TextBounds_15">
<rect height="14" transform="matrix(1 -0 -0 1 -776 -1940)" width="49.2363" x="776" y="1940"/>
</clipPath>
<clipPath id="TextBounds_16">
<rect height="14" transform="matrix(1 -0 -0 1 -776 -1958)" width="399.741" x="776" y="1958"/>
</clipPath>
<clipPath id="TextBounds_17">
<rect height="14" transform="matrix(1 -0 -0 1 -776 -1976)" width="397.57" x="776" y="1976"/>
</clipPath>
<clipPath id="TextBounds_18">
<rect height="14" transform="matrix(1 -0 -0 1 -776 -1994)" width="339.013" x="776" y="1994"/>
</clipPath>
<clipPath id="TextBounds_19">
<rect height="14" transform="matrix(1 -0 -0 1 -776 -2012)" width="116.452" x="776" y="2012"/>
</clipPath>
<clipPath id="TextBounds_20">
<rect height="14" transform="matrix(1 -0 -0 1 -1289 -1940)" width="57.9199" x="1289" y="1940"/>
</clipPath>
<clipPath id="TextBounds_21">
<rect height="14" transform="matrix(1 -0 -0 1 -1289 -1958)" width="333.269" x="1289" y="1958"/>
</clipPath>
<clipPath id="TextBounds_22">
<rect height="14" transform="matrix(1 -0 -0 1 -1289 -1976)" width="271.817" x="1289" y="1976"/>
</clipPath>
<clipPath id="TextBounds_23">
<rect height="14" transform="matrix(1 -0 -0 1 -2952.41 -1920)" width="86.5859" x="2952.41" y="1920"/>
</clipPath>
<clipPath id="TextBounds_24">
<rect height="14" transform="matrix(1 -0 -0 1 -2865.46 -1938)" width="173.542" x="2865.46" y="1938"/>
</clipPath>
<clipPath id="TextBounds_25">
<rect height="14" transform="matrix(1 -0 -0 1 -2774.45 -1956)" width="264.549" x="2774.45" y="1956"/>
</clipPath>
<clipPath id="TextBounds_26">
<rect height="14" transform="matrix(1 -0 -0 1 -2912.41 -1974)" width="126.589" x="2912.41" y="1974"/>
</clipPath>
<clipPath id="TextBounds_27">
<rect height="14" transform="matrix(1 -0 -0 1 -263 -713)" width="35.5064" x="263" y="713"/>
</clipPath>
<clipPath id="TextBounds_28">
<rect height="14" transform="matrix(1 -0 -0 1 -263 -1143)" width="49.2363" x="263" y="1143"/>
</clipPath>
<clipPath id="TextBounds_29">
<rect height="14" transform="matrix(1 -0 -0 1 -263 -1573)" width="36.249" x="263" y="1573"/>
</clipPath>
</defs>
<clipPath id="ArtboardFrame">
<rect height="2200" width="3300" x="0" y="0"/>
</clipPath>
<g clip-path="url(#ArtboardFrame)" id="Notes">
<path d="M-198.284-23.4594L3101.72-23.4594L3101.72-23.4594L3101.72 2176.54L3101.72 2176.54L-198.284 2176.54L-198.284 2176.54L-198.284-23.4594L-198.284-23.4594Z" fill="#ffffff" fill-rule="nonzero" opacity="1" stroke="none"/>
<path d="M263 292L3036 292" fill="none" opacity="1" stroke="#000000" stroke-linecap="butt" stroke-linejoin="miter" stroke-width="0.5"/>
<text clip-path="url(#TextBounds)" fill="#000000" font-family="sans-serif" font-size="13" opacity="1" stroke="none" text-anchor="start" transform="matrix(1 0 0 1 263 309)" x="0" y="0">
<tspan textLength="136.824" x="0" y="13">Weight/Scale Variations</tspan>
</text>
<text clip-path="url(#TextBounds_2)" fill="#000000" font-family="sans-serif" font-size="13" opacity="1" stroke="none" text-anchor="middle" transform="matrix(1 0 0 1 534.063 309)" x="0" y="0">
<tspan textLength="51.2954" x="27.1477" y="13">Ultralight</tspan>
</text>
<text clip-path="url(#TextBounds_3)" fill="#000000" font-family="sans-serif" font-size="13" opacity="1" stroke="none" text-anchor="middle" transform="matrix(1 0 0 1 843.777 309)" x="0" y="0">
<tspan textLength="25.2891" x="14.1445" y="13">Thin</tspan>
</text>
<text clip-path="url(#TextBounds_4)" fill="#000000" font-family="sans-serif" font-size="13" opacity="1" stroke="none" text-anchor="middle" transform="matrix(1 0 0 1 1139.04 309)" x="0" y="0">
<tspan textLength="28.1899" x="15.595" y="13">Light</tspan>
</text>
<text clip-path="url(#TextBounds_5)" fill="#000000" font-family="sans-serif" font-size="13" opacity="1" stroke="none" text-anchor="middle" transform="matrix(1 0 0 1 1427.08 309)" x="0" y="0">
<tspan textLength="45.5254" x="24.2627" y="13">Regular</tspan>
</text>
<text clip-path="url(#TextBounds_6)" fill="#000000" font-family="sans-serif" font-size="13" opacity="1" stroke="none" text-anchor="middle" transform="matrix(1 0 0 1 1723.44 309)" x="0" y="0">
<tspan textLength="46.2363" x="24.6182" y="13">Medium</tspan>
</text>
<text clip-path="url(#TextBounds_7)" fill="#000000" font-family="sans-serif" font-size="13" opacity="1" stroke="none" text-anchor="middle" transform="matrix(1 0 0 1 2016.17 309)" x="0" y="0">
<tspan textLength="54.1963" x="28.5981" y="13">Semibold</tspan>
</text>
<text clip-path="url(#TextBounds_8)" fill="#000000" font-family="sans-serif" font-size="13" opacity="1" stroke="none" text-anchor="middle" transform="matrix(1 0 0 1 2326.97 309)" x="0" y="0">
<tspan textLength="26.019" x="14.5095" y="13">Bold</tspan>
</text>
<text clip-path="url(#TextBounds_9)" fill="#000000" font-family="sans-serif" font-size="13" opacity="1" stroke="none" text-anchor="middle" transform="matrix(1 0 0 1 2618.27 309)" x="0" y="0">
<tspan textLength="36.8481" x="19.9241" y="13">Heavy</tspan>
</text>
<text clip-path="url(#TextBounds_10)" fill="#000000" font-family="sans-serif" font-size="13" opacity="1" stroke="none" text-anchor="middle" transform="matrix(1 0 0 1 2917.51 309)" x="0" y="0">
<tspan textLength="31.7891" x="17.3945" y="13">Black</tspan>
</text>
<path d="M263 1903L3036 1903" fill="none" opacity="1" stroke="#000000" stroke-linecap="butt" stroke-linejoin="miter" stroke-width="0.5"/>
<path d="M272.248 1933.83C273.329 1933.83 274.344 1933.63 275.295 1933.21C276.245 1932.8 277.084 1932.24 277.81 1931.51C278.535 1930.78 279.105 1929.94 279.519 1928.99C279.932 1928.04 280.139 1927.02 280.139 1925.95C280.139 1924.87 279.932 1923.86 279.519 1922.91C279.105 1921.96 278.534 1921.12 277.805 1920.39C277.076 1919.66 276.236 1919.09 275.285 1918.68C274.335 1918.27 273.319 1918.07 272.238 1918.07C271.164 1918.07 270.152 1918.27 269.201 1918.68C268.251 1919.09 267.414 1919.66 266.691 1920.39C265.969 1921.12 265.401 1921.96 264.987 1922.91C264.574 1923.86 264.367 1924.87 264.367 1925.95C264.367 1927.02 264.574 1928.04 264.987 1928.99C265.401 1929.94 265.97 1930.78 266.696 1931.51C267.422 1932.24 268.26 1932.8 269.211 1933.21C270.161 1933.63 271.174 1933.83 272.248 1933.83ZM272.248 1932.35C271.363 1932.35 270.534 1932.18 269.763 1931.85C268.991 1931.52 268.314 1931.07 267.731 1930.48C267.149 1929.89 266.693 1929.21 266.364 1928.44C266.035 1927.66 265.871 1926.83 265.871 1925.95C265.871 1925.06 266.034 1924.23 266.359 1923.46C266.685 1922.68 267.139 1922 267.722 1921.42C268.304 1920.83 268.981 1920.37 269.753 1920.05C270.524 1919.72 271.353 1919.55 272.238 1919.55C273.13 1919.55 273.962 1919.72 274.733 1920.05C275.505 1920.37 276.184 1920.83 276.769 1921.42C277.355 1922 277.814 1922.68 278.146 1923.46C278.478 1924.23 278.644 1925.06 278.644 1925.95C278.644 1926.83 278.48 1927.66 278.151 1928.44C277.823 1929.21 277.367 1929.89 276.784 1930.48C276.202 1931.07 275.523 1931.52 274.748 1931.85C273.973 1932.18 273.14 1932.35 272.248 1932.35ZM268.654 1925.95C268.654 1926.16 268.723 1926.34 268.859 1926.47C268.996 1926.61 269.178 1926.67 269.406 1926.67L271.516 1926.67L271.516 1928.79C271.516 1929.01 271.581 1929.18 271.711 1929.32C271.841 1929.46 272.017 1929.53 272.238 1929.53C272.453 1929.53 272.631 1929.46 272.771 1929.32C272.91 1929.18 272.98 1929.01 272.98 1928.79L272.98 1926.67L275.09 1926.67C275.311 1926.67 275.49 1926.61 275.627 1926.47C275.764 1926.34 275.832 1926.16 275.832 1925.95C275.832 1925.73 275.764 1925.55 275.627 1925.41C275.49 1925.28 275.311 1925.21 275.09 1925.21L272.98 1925.21L272.98 1923.1C272.98 1922.88 272.91 1922.7 272.771 1922.56C272.631 1922.42 272.453 1922.35 272.238 1922.35C272.017 1922.35 271.841 1922.42 271.711 1922.56C271.581 1922.7 271.516 1922.88 271.516 1923.1L271.516 1925.21L269.406 1925.21C269.178 1925.21 268.996 1925.28 268.859 1925.41C268.723 1925.55 268.654 1925.73 268.654 1925.95Z" fill="#000000" fill-rule="nonzero" opacity="1" stroke="none"/>
<path d="M293.576 1935.91C294.937 1935.91 296.218 1935.65 297.419 1935.13C298.62 1934.61 299.68 1933.89 300.598 1932.97C301.515 1932.05 302.235 1930.99 302.756 1929.79C303.277 1928.59 303.537 1927.31 303.537 1925.95C303.537 1924.59 303.277 1923.31 302.756 1922.11C302.235 1920.91 301.515 1919.85 300.598 1918.93C299.68 1918.01 298.618 1917.29 297.414 1916.77C296.209 1916.25 294.927 1915.99 293.566 1915.99C292.206 1915.99 290.925 1916.25 289.723 1916.77C288.522 1917.29 287.464 1918.01 286.55 1918.93C285.635 1919.85 284.917 1920.91 284.396 1922.11C283.875 1923.31 283.615 1924.59 283.615 1925.95C283.615 1927.31 283.875 1928.59 284.396 1929.79C284.917 1930.99 285.637 1932.05 286.555 1932.97C287.472 1933.89 288.532 1934.61 289.733 1935.13C290.934 1935.65 292.215 1935.91 293.576 1935.91ZM293.576 1934.25C292.424 1934.25 291.346 1934.04 290.344 1933.61C289.341 1933.18 288.46 1932.58 287.702 1931.82C286.944 1931.06 286.351 1930.18 285.925 1929.18C285.498 1928.18 285.285 1927.1 285.285 1925.95C285.285 1924.8 285.498 1923.72 285.925 1922.72C286.351 1921.71 286.942 1920.83 287.697 1920.07C288.452 1919.31 289.331 1918.71 290.334 1918.29C291.336 1917.86 292.414 1917.65 293.566 1917.65C294.719 1917.65 295.796 1917.86 296.799 1918.29C297.801 1918.71 298.683 1919.31 299.445 1920.07C300.207 1920.83 300.803 1921.71 301.232 1922.72C301.662 1923.72 301.877 1924.8 301.877 1925.95C301.877 1927.1 301.664 1928.18 301.237 1929.18C300.811 1930.18 300.218 1931.06 299.46 1931.82C298.701 1932.58 297.819 1933.18 296.813 1933.61C295.807 1934.04 294.728 1934.25 293.576 1934.25ZM289.045 1925.95C289.045 1926.18 289.123 1926.38 289.279 1926.53C289.435 1926.68 289.637 1926.75 289.885 1926.75L292.756 1926.75L292.756 1929.63C292.756 1929.88 292.831 1930.08 292.98 1930.23C293.13 1930.38 293.322 1930.46 293.557 1930.46C293.804 1930.46 294.004 1930.38 294.157 1930.23C294.31 1930.08 294.387 1929.88 294.387 1929.63L294.387 1926.75L297.267 1926.75C297.515 1926.75 297.715 1926.68 297.868 1926.53C298.021 1926.38 298.098 1926.18 298.098 1925.95C298.098 1925.7 298.021 1925.5 297.868 1925.35C297.715 1925.2 297.515 1925.12 297.267 1925.12L294.387 1925.12L294.387 1922.25C294.387 1921.99 294.31 1921.79 294.157 1921.64C294.004 1921.48 293.804 1921.41 293.557 1921.41C293.322 1921.41 293.13 1921.49 292.98 1921.64C292.831 1921.8 292.756 1922 292.756 1922.25L292.756 1925.12L289.885 1925.12C289.631 1925.12 289.427 1925.2 289.274 1925.35C289.121 1925.5 289.045 1925.7 289.045 1925.95Z" fill="#000000" fill-rule="nonzero" opacity="1" stroke="none"/>
<path d="M320.617 1938.66C322.01 1938.66 323.34 1938.45 324.606 1938.01C325.872 1937.58 327.036 1936.97 328.097 1936.19C329.158 1935.41 330.081 1934.49 330.866 1933.43C331.65 1932.37 332.259 1931.2 332.692 1929.93C333.125 1928.66 333.341 1927.34 333.341 1925.95C333.341 1924.56 333.125 1923.23 332.692 1921.96C332.259 1920.69 331.65 1919.53 330.866 1918.47C330.081 1917.41 329.158 1916.48 328.097 1915.7C327.036 1914.92 325.871 1914.31 324.601 1913.87C323.332 1913.44 322 1913.22 320.607 1913.22C319.214 1913.22 317.884 1913.44 316.618 1913.87C315.351 1914.31 314.189 1914.92 313.131 1915.7C312.073 1916.48 311.152 1917.41 310.368 1918.47C309.583 1919.53 308.976 1920.69 308.546 1921.96C308.117 1923.23 307.902 1924.56 307.902 1925.95C307.902 1927.34 308.118 1928.66 308.551 1929.93C308.984 1931.2 309.591 1932.37 310.373 1933.43C311.154 1934.49 312.075 1935.41 313.136 1936.19C314.197 1936.97 315.361 1937.58 316.627 1938.01C317.894 1938.45 319.223 1938.66 320.617 1938.66ZM320.617 1936.85C319.412 1936.85 318.265 1936.66 317.174 1936.3C316.084 1935.93 315.086 1935.41 314.181 1934.75C313.276 1934.08 312.49 1933.3 311.823 1932.39C311.155 1931.48 310.639 1930.48 310.275 1929.39C309.91 1928.3 309.728 1927.15 309.728 1925.95C309.728 1924.74 309.91 1923.59 310.275 1922.5C310.639 1921.41 311.154 1920.41 311.818 1919.5C312.482 1918.59 313.266 1917.8 314.171 1917.14C315.076 1916.48 316.074 1915.96 317.165 1915.6C318.255 1915.23 319.402 1915.05 320.607 1915.05C321.818 1915.05 322.969 1915.23 324.059 1915.6C325.15 1915.96 326.149 1916.48 327.057 1917.14C327.965 1917.8 328.751 1918.59 329.415 1919.5C330.08 1920.41 330.596 1921.41 330.963 1922.5C331.331 1923.59 331.515 1924.74 331.515 1925.95C331.522 1927.15 331.343 1928.3 330.978 1929.39C330.613 1930.48 330.098 1931.48 329.43 1932.39C328.763 1933.3 327.975 1934.08 327.067 1934.75C326.159 1935.41 325.159 1935.93 324.069 1936.3C322.978 1936.66 321.828 1936.85 320.617 1936.85ZM314.845 1925.95C314.845 1926.2 314.931 1926.41 315.104 1926.58C315.277 1926.75 315.496 1926.83 315.763 1926.83L319.708 1926.83L319.708 1930.78C319.708 1931.05 319.791 1931.27 319.957 1931.44C320.123 1931.61 320.337 1931.7 320.597 1931.7C320.864 1931.7 321.084 1931.62 321.256 1931.45C321.429 1931.28 321.515 1931.06 321.515 1930.78L321.515 1926.83L325.47 1926.83C325.737 1926.83 325.955 1926.75 326.124 1926.58C326.294 1926.41 326.378 1926.2 326.378 1925.95C326.378 1925.68 326.294 1925.45 326.124 1925.29C325.955 1925.12 325.737 1925.03 325.47 1925.03L321.515 1925.03L321.515 1921.09C321.515 1920.81 321.429 1920.59 321.256 1920.42C321.084 1920.24 320.864 1920.16 320.597 1920.16C320.337 1920.16 320.123 1920.24 319.957 1920.42C319.791 1920.59 319.708 1920.81 319.708 1921.09L319.708 1925.03L315.763 1925.03C315.49 1925.03 315.268 1925.12 315.099 1925.29C314.93 1925.45 314.845 1925.68 314.845 1925.95Z" fill="#000000" fill-rule="nonzero" opacity="1" stroke="none"/>
<text clip-path="url(#TextBounds_11)" fill="#000000" font-family="sans-serif" font-size="13" opacity="1" stroke="none" text-anchor="start" transform="matrix(1 0 0 1 263 1940)" x="0" y="0">
<tspan textLength="100.928" x="0" y="13">Design Variations</tspan>
</text>
<text clip-path="url(#TextBounds_12)" fill="#000000" font-family="sans-serif" font-size="13" opacity="1" stroke="none" text-anchor="start" transform="matrix(1 0 0 1 263 1958)" x="0" y="0">
<tspan textLength="358.433" x="0" y="13">Symbols are supported in up to nine weights and three scales.</tspan>
</text>
<text clip-path="url(#TextBounds_13)" fill="#000000" font-family="sans-serif" font-size="13" opacity="1" stroke="none" text-anchor="start" transform="matrix(1 0 0 1 263 1976)" x="0" y="0">
<tspan textLength="353.317" x="0" y="13">For optimal layout with text and other symbols, vertically align</tspan>
</text>
<text clip-path="url(#TextBounds_14)" fill="#000000" font-family="sans-serif" font-size="13" opacity="1" stroke="none" text-anchor="start" transform="matrix(1 0 0 1 263 1994)" x="0" y="0">
<tspan textLength="177.03" x="0" y="13">symbols with the adjacent text.</tspan>
</text>
<path d="M776 1919L776 1933" fill="none" opacity="1" stroke="#00aeef" stroke-linecap="butt" stroke-linejoin="miter" stroke-width="0.5"/>
<path d="M779.311 1933.16C779.571 1933.16 779.773 1933.1 779.916 1932.99C780.059 1932.88 780.176 1932.69 780.268 1932.41L781.527 1928.97L787.289 1928.97L788.549 1932.41C788.64 1932.69 788.757 1932.88 788.9 1932.99C789.044 1933.1 789.242 1933.16 789.496 1933.16C789.756 1933.16 789.963 1933.08 790.116 1932.94C790.269 1932.8 790.346 1932.6 790.346 1932.36C790.346 1932.21 790.31 1932.03 790.238 1931.83L785.658 1919.63C785.541 1919.33 785.382 1919.11 785.18 1918.96C784.978 1918.81 784.721 1918.73 784.408 1918.73C783.803 1918.73 783.393 1919.03 783.178 1919.62L778.598 1931.84C778.526 1932.04 778.49 1932.22 778.49 1932.37C778.49 1932.61 778.563 1932.81 778.71 1932.95C778.856 1933.09 779.057 1933.16 779.311 1933.16ZM782.006 1927.48L784.379 1920.91L784.428 1920.91L786.801 1927.48L782.006 1927.48Z" fill="#000000" fill-rule="nonzero" opacity="1" stroke="none"/>
<path d="M793.197 1919L793.197 1933" fill="none" opacity="1" stroke="#00aeef" stroke-linecap="butt" stroke-linejoin="miter" stroke-width="0.5"/>
<text clip-path="url(#TextBounds_15)" fill="#000000" font-family="sans-serif" font-size="13" opacity="1" stroke="none" text-anchor="start" transform="matrix(1 0 0 1 776 1940)" x="0" y="0">
<tspan textLength="46.2363" x="0" y="13">Margins</tspan>
</text>
<text clip-path="url(#TextBounds_16)" fill="#000000" font-family="sans-serif" font-size="13" opacity="1" stroke="none" text-anchor="start" transform="matrix(1 0 0 1 776 1958)" x="0" y="0">
<tspan textLength="396.741" x="0" y="13">Leading and trailing margins on the left and right side of each symbol</tspan>
</text>
<text clip-path="url(#TextBounds_17)" fill="#000000" font-family="sans-serif" font-size="13" opacity="1" stroke="none" text-anchor="start" transform="matrix(1 0 0 1 776 1976)" x="0" y="0">
<tspan textLength="394.57" x="0" y="13">can be adjusted by modifying the x-location of the margin guidelines.</tspan>
</text>
<text clip-path="url(#TextBounds_18)" fill="#000000" font-family="sans-serif" font-size="13" opacity="1" stroke="none" text-anchor="start" transform="matrix(1 0 0 1 776 1994)" x="0" y="0">
<tspan textLength="336.013" x="0" y="13">Modifications are automatically applied proportionally to all</tspan>
</text>
<text clip-path="url(#TextBounds_19)" fill="#000000" font-family="sans-serif" font-size="13" opacity="1" stroke="none" text-anchor="start" transform="matrix(1 0 0 1 776 2012)" x="0" y="0">
<tspan textLength="113.452" x="0" y="13">scales and weights.</tspan>
</text>
<path d="M1291.84 1934.87L1293.54 1936.57C1293.97 1937.01 1294.42 1937.21 1294.9 1937.18C1295.38 1937.15 1295.85 1936.87 1296.31 1936.36L1307.01 1924.57L1306.04 1923.6L1295.43 1935.28C1295.25 1935.48 1295.07 1935.59 1294.89 1935.62C1294.71 1935.64 1294.51 1935.54 1294.27 1935.3L1293.1 1934.14C1292.87 1933.91 1292.76 1933.7 1292.79 1933.52C1292.82 1933.34 1292.94 1933.16 1293.14 1932.98L1304.62 1922.18L1303.64 1921.21L1292.05 1932.1C1291.55 1932.56 1291.29 1933.02 1291.25 1933.5C1291.22 1933.97 1291.41 1934.43 1291.84 1934.87ZM1298.26 1916.67C1298.05 1916.87 1297.93 1917.1 1297.91 1917.37C1297.88 1917.63 1297.93 1917.85 1298.04 1918.05C1298.16 1918.23 1298.33 1918.37 1298.56 1918.46C1298.78 1918.55 1299.06 1918.56 1299.38 1918.48C1300.11 1918.31 1300.85 1918.24 1301.6 1918.27C1302.35 1918.3 1303.08 1918.55 1303.79 1919.02L1303.21 1920.47C1303.04 1920.89 1302.99 1921.25 1303.07 1921.56C1303.14 1921.87 1303.31 1922.16 1303.58 1922.43L1305.88 1924.75C1306.12 1925 1306.35 1925.14 1306.58 1925.18C1306.81 1925.22 1307.06 1925.21 1307.34 1925.16L1308.4 1924.96L1309.07 1925.64L1309.03 1926.19C1309.01 1926.44 1309.04 1926.67 1309.12 1926.88C1309.2 1927.09 1309.36 1927.31 1309.61 1927.55L1310.37 1928.29C1310.61 1928.53 1310.87 1928.66 1311.15 1928.67C1311.44 1928.68 1311.7 1928.57 1311.93 1928.33L1314.84 1925.41C1315.07 1925.18 1315.19 1924.92 1315.18 1924.65C1315.18 1924.37 1315.05 1924.11 1314.81 1923.87L1314.04 1923.11C1313.8 1922.87 1313.58 1922.7 1313.38 1922.61C1313.17 1922.53 1312.95 1922.49 1312.71 1922.51L1312.13 1922.56L1311.49 1921.93L1311.73 1920.8C1311.8 1920.52 1311.79 1920.26 1311.7 1920.02C1311.6 1919.77 1311.41 1919.5 1311.12 1919.21L1308.92 1917.02C1308.09 1916.2 1307.2 1915.58 1306.26 1915.16C1305.32 1914.75 1304.37 1914.53 1303.42 1914.52C1302.47 1914.5 1301.55 1914.68 1300.66 1915.04C1299.78 1915.41 1298.98 1915.95 1298.26 1916.67ZM1299.75 1917.04C1300.36 1916.6 1301.01 1916.28 1301.7 1916.1C1302.39 1915.91 1303.1 1915.85 1303.8 1915.92C1304.51 1915.98 1305.2 1916.17 1305.87 1916.49C1306.54 1916.8 1307.15 1917.24 1307.7 1917.79L1310.13 1920.21C1310.25 1920.32 1310.32 1920.44 1310.35 1920.55C1310.38 1920.66 1310.38 1920.8 1310.34 1920.97L1310.02 1922.45L1311.52 1923.94L1312.51 1923.88C1312.63 1923.87 1312.72 1923.88 1312.79 1923.9C1312.85 1923.93 1312.94 1923.99 1313.03 1924.08L1313.61 1924.66L1311.17 1927.1L1310.59 1926.53C1310.49 1926.43 1310.43 1926.35 1310.41 1926.28C1310.38 1926.22 1310.37 1926.12 1310.38 1925.99L1310.45 1925.01L1308.95 1923.53L1307.43 1923.78C1307.26 1923.81 1307.14 1923.82 1307.04 1923.8C1306.95 1923.77 1306.84 1923.7 1306.71 1923.59L1304.71 1921.58C1304.58 1921.47 1304.51 1921.35 1304.49 1921.25C1304.48 1921.14 1304.51 1920.99 1304.59 1920.81L1305.46 1918.72C1304.68 1917.99 1303.8 1917.49 1302.83 1917.21C1301.85 1916.93 1300.86 1916.94 1299.84 1917.24C1299.76 1917.26 1299.71 1917.24 1299.69 1917.19C1299.67 1917.15 1299.69 1917.1 1299.75 1917.04Z" fill="#000000" fill-rule="nonzero" opacity="1" stroke="none"/>
<text clip-path="url(#TextBounds_20)" fill="#000000" font-family="sans-serif" font-size="13" opacity="1" stroke="none" text-anchor="start" transform="matrix(1 0 0 1 1289 1940)" x="0" y="0">
<tspan textLength="54.9199" x="0" y="13">Exporting</tspan>
</text>
<text clip-path="url(#TextBounds_21)" fill="#000000" font-family="sans-serif" font-size="13" opacity="1" stroke="none" text-anchor="start" transform="matrix(1 0 0 1 1289 1958)" x="0" y="0">
<tspan textLength="330.269" x="0" y="13">Symbols should be outlined when exporting to ensure the</tspan>
</text>
<text clip-path="url(#TextBounds_22)" fill="#000000" font-family="sans-serif" font-size="13" opacity="1" stroke="none" text-anchor="start" transform="matrix(1 0 0 1 1289 1976)" x="0" y="0">
<tspan textLength="268.817" x="0" y="13">design is preserved when submitting to Xcode.</tspan>
</text>
<text clip-path="url(#TextBounds_23)" fill="#000000" font-family="sans-serif" font-size="13" opacity="1" stroke="none" text-anchor="end" transform="matrix(1 0 0 1 2952.41 1920)" x="0" y="0">
<tspan textLength="83.5859" x="86.5859" y="13">Template v.3.0</tspan>
</text>
<text clip-path="url(#TextBounds_24)" fill="#000000" font-family="sans-serif" font-size="13" opacity="1" stroke="none" text-anchor="end" transform="matrix(1 0 0 1 2865.46 1938)" x="0" y="0">
<tspan textLength="170.542" x="173.542" y="13">Requires Xcode 13 or greater</tspan>
</text>
<text clip-path="url(#TextBounds_25)" fill="#000000" font-family="sans-serif" font-size="13" opacity="1" stroke="none" text-anchor="end" transform="matrix(1 0 0 1 2774.45 1956)" x="0" y="0">
<tspan textLength="261.549" x="264.549" y="13">Generated from arrow.forward.to.line.circle.fill</tspan>
</text>
<text clip-path="url(#TextBounds_26)" fill="#000000" font-family="sans-serif" font-size="13" opacity="1" stroke="none" text-anchor="end" transform="matrix(1 0 0 1 2912.41 1974)" x="0" y="0">
<tspan textLength="123.589" x="126.589" y="13">Typeset at 100 points</tspan>
</text>
<text clip-path="url(#TextBounds_27)" fill="#000000" font-family="sans-serif" font-size="13" opacity="1" stroke="none" text-anchor="start" transform="matrix(1 0 0 1 263 713)" x="0" y="0">
<tspan textLength="32.5064" x="0" y="13">Small</tspan>
</text>
<text clip-path="url(#TextBounds_28)" fill="#000000" font-family="sans-serif" font-size="13" opacity="1" stroke="none" text-anchor="start" transform="matrix(1 0 0 1 263 1143)" x="0" y="0">
<tspan textLength="46.2363" x="0" y="13">Medium</tspan>
</text>
<text clip-path="url(#TextBounds_29)" fill="#000000" font-family="sans-serif" font-size="13" opacity="1" stroke="none" text-anchor="start" transform="matrix(1 0 0 1 263 1573)" x="0" y="0">
<tspan textLength="33.249" x="0" y="13">Large</tspan>
</text>
</g>
<g id="Guides">
<path d="M339.993 696L342.638 696L368.328 628.867L369.03 628.867L369.03 625.541L367.123 625.541L339.993 696ZM350.688 671.52L385.982 671.52L385.231 669.271L351.438 669.271L350.688 671.52ZM394.119 696L396.764 696L369.638 625.541L368.433 625.541L368.433 628.867L394.119 696Z" fill="#27aae1" fill-rule="nonzero" opacity="1" stroke="none"/>
<path d="M263 696L3036 696" fill="none" opacity="1" stroke="#27aae1" stroke-linecap="butt" stroke-linejoin="miter" stroke-width="0.5"/>
<path d="M263 625.541L3036 625.541" fill="none" opacity="1" stroke="#27aae1" stroke-linecap="butt" stroke-linejoin="miter" stroke-width="0.5"/>
<path d="M339.993 1126L342.638 1126L368.328 1058.87L369.03 1058.87L369.03 1055.54L367.123 1055.54L339.993 1126ZM350.688 1101.52L385.982 1101.52L385.231 1099.27L351.438 1099.27L350.688 1101.52ZM394.119 1126L396.764 1126L369.638 1055.54L368.433 1055.54L368.433 1058.87L394.119 1126Z" fill="#27aae1" fill-rule="nonzero" opacity="1" stroke="none"/>
<path d="M263 1126L3036 1126" fill="none" opacity="1" stroke="#27aae1" stroke-linecap="butt" stroke-linejoin="miter" stroke-width="0.5"/>
<path d="M263 1055.54L3036 1055.54" fill="none" opacity="1" stroke="#27aae1" stroke-linecap="butt" stroke-linejoin="miter" stroke-width="0.5"/>
<path d="M339.993 1556L342.638 1556L368.328 1488.87L369.03 1488.87L369.03 1485.54L367.123 1485.54L339.993 1556ZM350.688 1531.52L385.982 1531.52L385.231 1529.27L351.438 1529.27L350.688 1531.52ZM394.119 1556L396.764 1556L369.638 1485.54L368.433 1485.54L368.433 1488.87L394.119 1556Z" fill="#27aae1" fill-rule="nonzero" opacity="1" stroke="none"/>
<path d="M263 1556L3036 1556" fill="none" opacity="1" stroke="#27aae1" stroke-linecap="butt" stroke-linejoin="miter" stroke-width="0.5"/>
<path d="M263 1485.54L3036 1485.54" fill="none" opacity="1" stroke="#27aae1" stroke-linecap="butt" stroke-linejoin="miter" stroke-width="0.5"/>
<path d="M515.649 600.785L515.649 720.121" fill="none" opacity="1" stroke="#00aeef" stroke-linecap="butt" stroke-linejoin="miter" stroke-width="0.5"/>
<path d="M603.773 600.785L603.773 720.121" fill="none" opacity="1" stroke="#00aeef" stroke-linecap="butt" stroke-linejoin="miter" stroke-width="0.5"/>
<path d="M1403.58 600.785L1403.58 720.121" fill="none" opacity="1" stroke="#00aeef" stroke-linecap="butt" stroke-linejoin="miter" stroke-width="0.5"/>
<path d="M1496.11 600.785L1496.11 720.121" fill="none" opacity="1" stroke="#00aeef" stroke-linecap="butt" stroke-linejoin="miter" stroke-width="0.5"/>
<path d="M2884.57 600.785L2884.57 720.121" fill="none" opacity="1" stroke="#00aeef" stroke-linecap="butt" stroke-linejoin="miter" stroke-width="0.5"/>
<path d="M2982.23 600.785L2982.23 720.121" fill="none" opacity="1" stroke="#00aeef" stroke-linecap="butt" stroke-linejoin="miter" stroke-width="0.5"/>
</g>
<g id="Symbols">
<g opacity="1">
<path d="M2910.5 698.93L2956.3 698.93C2961.08 698.93 2964.82 697.587 2967.5 694.901C2970.19 692.216 2971.53 688.48 2971.53 683.695L2971.53 637.894C2971.53 633.109 2970.19 629.374 2967.5 626.688C2964.82 624.003 2961.08 622.66 2956.3 622.66L2910.5 622.66C2905.71 622.66 2901.98 624.003 2899.29 626.688C2896.61 629.374 2895.26 633.109 2895.26 637.894L2895.26 683.695C2895.26 688.48 2896.61 692.216 2899.29 694.901C2901.98 697.587 2905.71 698.93 2910.5 698.93Z" fill="#8e8e8e" fill-rule="nonzero" opacity="1" stroke="none"/>
<path d="M2912.16 660.795C2912.16 659.363 2912.63 658.207 2913.57 657.328C2914.52 656.449 2915.76 656.01 2917.28 656.01L2925.78 656.01L2930.27 656.498L2927.69 654.35L2925.05 651.664C2924.59 651.208 2924.21 650.712 2923.9 650.175C2923.59 649.638 2923.44 648.995 2923.44 648.246C2923.44 646.944 2923.88 645.862 2924.76 644.999C2925.63 644.136 2926.77 643.705 2928.17 643.705C2929.44 643.705 2930.53 644.21 2931.45 645.219L2942.58 657.279C2943.49 658.256 2943.95 659.428 2943.95 660.795C2943.95 662.162 2943.49 663.334 2942.58 664.311L2931.45 676.42C2931.02 676.941 2930.51 677.315 2929.91 677.543C2929.3 677.771 2928.73 677.885 2928.17 677.885C2926.77 677.885 2925.63 677.453 2924.76 676.591C2923.88 675.728 2923.44 674.678 2923.44 673.441C2923.44 672.66 2923.6 671.993 2923.93 671.439C2924.25 670.886 2924.63 670.382 2925.05 669.926L2927.69 667.24L2930.27 665.092L2925.78 665.58L2917.28 665.58C2915.76 665.58 2914.52 665.141 2913.57 664.262C2912.63 663.383 2912.16 662.227 2912.16 660.795ZM2950.1 678.422C2948.86 678.422 2947.79 677.974 2946.9 677.079C2946 676.184 2945.56 675.118 2945.56 673.881L2945.56 647.709C2945.56 646.472 2946 645.406 2946.9 644.511C2947.79 643.616 2948.86 643.168 2950.1 643.168C2951.33 643.168 2952.4 643.616 2953.3 644.511C2954.19 645.406 2954.64 646.472 2954.64 647.709L2954.64 673.881C2954.64 675.118 2954.19 676.184 2953.3 677.079C2952.4 677.974 2951.33 678.422 2950.1 678.422Z" fill="#000000" fill-rule="nonzero" opacity="1" stroke="none"/>
</g>
<g opacity="1">
<path d="M1426.72 696.342L1472.96 696.342C1477.13 696.342 1480.25 695.316 1482.32 693.266C1484.38 691.215 1485.42 688.139 1485.42 684.037L1485.42 637.455C1485.42 633.354 1484.38 630.277 1482.32 628.227C1480.25 626.176 1477.13 625.15 1472.96 625.15L1426.72 625.15C1422.59 625.15 1419.48 626.176 1417.4 628.227C1415.31 630.277 1414.27 633.354 1414.27 637.455L1414.27 684.037C1414.27 688.139 1415.31 691.215 1417.4 693.266C1419.48 695.316 1422.59 696.342 1426.72 696.342Z" fill="#8e8e8e" fill-rule="nonzero" opacity="1" stroke="none"/>
<path d="M1427.29 660.795C1427.29 659.949 1427.57 659.241 1428.14 658.671C1428.71 658.101 1429.43 657.816 1430.31 657.816L1447.55 657.816L1454.78 658.305L1446.57 651.225L1444.67 649.369C1444.38 649.076 1444.16 648.743 1444.03 648.368C1443.9 647.994 1443.84 647.595 1443.84 647.172C1443.84 646.358 1444.12 645.691 1444.69 645.17C1445.26 644.649 1445.97 644.389 1446.82 644.389C1447.7 644.389 1448.41 644.682 1448.97 645.268L1462.54 658.549C1463.22 659.265 1463.57 660.014 1463.57 660.795C1463.57 661.674 1463.22 662.423 1462.54 663.041L1448.97 676.225C1448.71 676.518 1448.36 676.745 1447.94 676.908C1447.52 677.071 1447.14 677.152 1446.82 677.152C1445.94 677.152 1445.22 676.884 1444.67 676.347C1444.12 675.81 1443.84 675.118 1443.84 674.271C1443.84 673.816 1443.9 673.409 1444.03 673.051C1444.16 672.693 1444.38 672.383 1444.67 672.123L1446.57 670.463L1454.83 663.285L1447.55 663.871L1430.31 663.871C1429.43 663.871 1428.71 663.586 1428.14 663.017C1427.57 662.447 1427.29 661.706 1427.29 660.795ZM1469.38 678.666C1468.53 678.666 1467.82 678.389 1467.25 677.836C1466.68 677.283 1466.4 676.566 1466.4 675.687L1466.4 645.805C1466.4 644.926 1466.68 644.21 1467.25 643.656C1467.82 643.103 1468.53 642.826 1469.38 642.826C1470.25 642.826 1470.98 643.103 1471.55 643.656C1472.12 644.21 1472.4 644.926 1472.4 645.805L1472.4 675.687C1472.4 676.566 1472.12 677.283 1471.55 677.836C1470.98 678.389 1470.25 678.666 1469.38 678.666Z" fill="#000000" fill-rule="nonzero" opacity="1" stroke="none"/>
</g>
<g opacity="1">
<path d="M536.132 694.34L583.3 694.34C586.588 694.34 589.078 693.477 590.771 691.752C592.464 690.027 593.31 687.553 593.31 684.33L593.31 637.113C593.31 633.891 592.464 631.425 590.771 629.716C589.078 628.007 586.588 627.152 583.3 627.152L536.132 627.152C532.845 627.152 530.354 627.999 528.662 629.691C526.969 631.384 526.123 633.858 526.123 637.113L526.123 684.33C526.123 687.618 526.969 690.108 528.662 691.801C530.354 693.494 532.845 694.34 536.132 694.34Z" fill="#8e8e8e" fill-rule="nonzero" opacity="1" stroke="none"/>
<path d="M540.014 660.746C540.014 660.421 540.112 660.16 540.307 659.965C540.502 659.769 540.763 659.672 541.088 659.672L562.768 659.672L569.946 659.818L562.719 652.592L557.739 647.709C557.576 647.579 557.454 647.432 557.373 647.27C557.291 647.107 557.251 646.928 557.251 646.732C557.251 646.374 557.356 646.098 557.568 645.902C557.78 645.707 558.032 645.609 558.325 645.609C558.683 645.609 558.992 645.756 559.253 646.049L573.022 659.965C573.25 660.16 573.364 660.421 573.364 660.746C573.364 661.072 573.25 661.332 573.022 661.527L559.448 675.248C559.285 675.411 559.114 675.557 558.935 675.688C558.756 675.818 558.536 675.883 558.276 675.883C558.016 675.883 557.78 675.785 557.568 675.59C557.356 675.394 557.251 675.118 557.251 674.76C557.251 674.564 557.291 674.385 557.373 674.223C557.454 674.06 557.576 673.913 557.739 673.783L562.866 668.754L569.946 661.674L562.768 661.82L541.088 661.82C540.763 661.82 540.502 661.723 540.307 661.527C540.112 661.332 540.014 661.072 540.014 660.746ZM578.344 676.029C578.051 676.029 577.807 675.932 577.612 675.736C577.417 675.541 577.319 675.297 577.319 675.004L577.319 646.488C577.319 646.195 577.417 645.951 577.612 645.756C577.807 645.561 578.051 645.463 578.344 645.463C578.67 645.463 578.93 645.561 579.126 645.756C579.321 645.951 579.419 646.195 579.419 646.488L579.419 675.004C579.419 675.297 579.321 675.541 579.126 675.736C578.93 675.932 578.67 676.029 578.344 676.029Z" fill="#000000" fill-rule="nonzero" opacity="1" stroke="none"/>
</g>
</g>
</svg>
