<?xml version="1.0" encoding="utf-8"?>
<!-- Generator: Adobe Illustrator 16.0.0, SVG Export Plug-In . SVG Version: 6.00 Build 0)  -->
<!DOCTYPE svg PUBLIC "-//W3C//DTD SVG 1.1//EN" "http://www.w3.org/Graphics/SVG/1.1/DTD/svg11.dtd">
<svg version="1.1" id="Layer_1" xmlns="http://www.w3.org/2000/svg" xmlns:xlink="http://www.w3.org/1999/xlink" x="0px" y="0px"
	 width="3300px" height="2200px" viewBox="0 0 3300 2200" enable-background="new 0 0 3300 2200" xml:space="preserve">
<g id="Notes">
	<rect id="artboard" x="0" y="0" fill="#FFFFFF" width="3300" height="2200"/>
	<line fill="none" stroke="#000000" stroke-width="0.5" x1="263" y1="292" x2="3036" y2="292"/>
	<text transform="matrix(1 0 0 1 263.0002 322.0002)" font-family="'Arial-BoldMT'" font-size="13">Weight/Scale Variations</text>
	<text transform="matrix(1 0 0 1 534.0637 322.0002)" font-family="'ArialMT'" font-size="13">Ultralight</text>
	<text transform="matrix(1 0 0 1 843.7776 322.0002)" font-family="'ArialMT'" font-size="13">Thin</text>
	<text transform="matrix(1 0 0 1 1139.0354 322.0002)" font-family="'ArialMT'" font-size="13">Light</text>
	<text transform="matrix(1 0 0 1 1427.0774 322.0002)" font-family="'ArialMT'" font-size="13">Regular</text>
	<text transform="matrix(1 0 0 1 1723.4412 322.0002)" font-family="'ArialMT'" font-size="13">Medium</text>
	<text transform="matrix(1 0 0 1 2016.1716 322.0002)" font-family="'ArialMT'" font-size="13">Semibold</text>
	<text transform="matrix(1 0 0 1 2326.9705 322.0002)" font-family="'ArialMT'" font-size="13">Bold</text>
	<text transform="matrix(1 0 0 1 2618.2654 322.0002)" font-family="'ArialMT'" font-size="13">Heavy</text>
	<text transform="matrix(1 0 0 1 2917.5056 322.0002)" font-family="'ArialMT'" font-size="13">Black</text>
	<line fill="none" stroke="#000000" stroke-width="0.5" x1="263" y1="1903" x2="3036" y2="1903"/>
	<g transform="matrix(1 0 0 1 263 1933)">
		<path d="M9.248,0.829c1.081,0,2.097-0.204,3.047-0.614c0.951-0.41,1.789-0.979,2.516-1.709c0.726-0.73,1.295-1.569,1.709-2.521
			s0.62-1.963,0.62-3.037c0-1.073-0.207-2.087-0.62-3.037c-0.413-0.949-0.985-1.79-1.714-2.52c-0.729-0.73-1.569-1.299-2.521-1.709
			s-1.966-0.615-3.047-0.615c-1.074,0-2.086,0.205-3.037,0.615s-1.787,0.979-2.51,1.709c-0.724,0.729-1.291,1.569-1.704,2.52
			c-0.413,0.951-0.62,1.964-0.62,3.037c0,1.074,0.207,2.087,0.62,3.037s0.983,1.79,1.709,2.521C4.422-0.764,5.26-0.195,6.211,0.215
			S8.174,0.829,9.248,0.829z M9.248-0.654c-0.885,0-1.714-0.164-2.484-0.493C5.992-1.476,5.314-1.934,4.731-2.52
			S3.693-3.786,3.364-4.561s-0.493-1.604-0.493-2.49s0.163-1.716,0.488-2.489c0.325-0.774,0.78-1.455,1.362-2.041
			s1.26-1.043,2.03-1.372c0.771-0.329,1.601-0.493,2.485-0.493c0.892,0,1.724,0.164,2.495,0.493c0.771,0.329,1.45,0.786,2.036,1.372
			s1.045,1.267,1.377,2.041c0.332,0.773,0.498,1.604,0.498,2.489s-0.165,1.716-0.493,2.49s-0.785,1.455-1.367,2.041
			s-1.261,1.043-2.036,1.372C10.972-0.819,10.14-0.654,9.248-0.654z M5.654-7.052c0,0.215,0.068,0.39,0.205,0.522
			s0.319,0.2,0.547,0.2h2.109v2.118c0,0.216,0.064,0.394,0.194,0.532c0.13,0.14,0.307,0.21,0.527,0.21
			c0.215,0,0.392-0.069,0.532-0.21c0.14-0.14,0.21-0.316,0.21-0.532v-2.118h2.108c0.222,0,0.4-0.066,0.537-0.2
			c0.138-0.134,0.205-0.309,0.205-0.522c0-0.222-0.067-0.399-0.205-0.537c-0.137-0.137-0.315-0.204-0.537-0.204H9.98v-2.109
			c0-0.223-0.07-0.402-0.21-0.542c-0.141-0.14-0.317-0.21-0.532-0.21c-0.221,0-0.397,0.07-0.527,0.21s-0.194,0.319-0.194,0.542
			v2.109h-2.11c-0.228,0-0.41,0.067-0.547,0.204C5.722-7.451,5.654-7.272,5.654-7.052z"/>
	</g>
	<g transform="matrix(1 0 0 1 281.867 1933)">
		<path d="M11.709,2.909c1.36,0,2.642-0.261,3.843-0.78c1.201-0.521,2.262-1.24,3.18-2.158s1.637-1.979,2.158-3.18
			c0.521-1.2,0.78-2.481,0.78-3.843c0-1.36-0.261-2.642-0.78-3.843c-0.521-1.201-1.24-2.261-2.158-3.179s-1.979-1.638-3.185-2.158
			s-2.486-0.781-3.848-0.781s-2.643,0.261-3.843,0.781c-1.201,0.521-2.26,1.24-3.175,2.158s-1.633,1.978-2.152,3.179
			C2.009-9.692,1.748-8.411,1.748-7.052c0,1.36,0.26,2.643,0.781,3.843c0.521,1.201,1.241,2.262,2.159,3.18s1.978,1.638,3.179,2.158
			C9.068,2.649,10.348,2.909,11.709,2.909z M11.709,1.25c-1.152,0-2.229-0.216-3.231-0.646c-1.004-0.43-1.884-1.022-2.643-1.782
			C5.076-1.936,4.484-2.815,4.058-3.818s-0.64-2.08-0.64-3.232c0-1.151,0.213-2.229,0.64-3.231s1.018-1.886,1.772-2.646
			c0.755-0.762,1.634-1.354,2.637-1.782c1.002-0.427,2.08-0.64,3.232-0.64c1.151,0,2.229,0.213,3.231,0.64
			c1.003,0.428,1.886,1.021,2.646,1.782s1.357,1.645,1.787,2.646s0.646,2.08,0.646,3.231c0,1.152-0.214,2.229-0.641,3.232
			s-1.019,1.883-1.776,2.642c-0.759,0.759-1.642,1.354-2.646,1.782S12.862,1.25,11.709,1.25z M7.178-7.052
			c0,0.234,0.078,0.427,0.234,0.576S7.771-6.25,8.018-6.25h2.871v2.881c0,0.247,0.075,0.446,0.226,0.601
			c0.148,0.153,0.342,0.229,0.576,0.229c0.247,0,0.446-0.076,0.601-0.229c0.153-0.153,0.229-0.354,0.229-0.601V-6.25h2.881
			c0.247,0,0.447-0.075,0.601-0.226c0.154-0.149,0.229-0.342,0.229-0.576c0-0.247-0.076-0.446-0.229-0.601
			c-0.152-0.154-0.354-0.229-0.601-0.229h-2.881v-2.87c0-0.255-0.077-0.457-0.229-0.61c-0.153-0.153-0.354-0.229-0.601-0.229
			c-0.234,0-0.428,0.078-0.576,0.234c-0.15,0.156-0.226,0.357-0.226,0.605v2.87H8.018c-0.254,0-0.457,0.076-0.609,0.229
			C7.254-7.498,7.178-7.299,7.178-7.052z"/>
	</g>
	<g transform="matrix(1 0 0 1 305.646 1933)">
		<path d="M14.971,5.663c1.394,0,2.724-0.217,3.989-0.648c1.266-0.433,2.43-1.04,3.491-1.821c1.061-0.781,1.982-1.702,2.768-2.764
			c0.785-1.063,1.395-2.228,1.826-3.496c0.434-1.271,0.65-2.598,0.65-3.984c0-1.394-0.218-2.723-0.65-3.988
			c-0.433-1.268-1.041-2.431-1.826-3.491c-0.784-1.063-1.707-1.984-2.768-2.77c-1.063-0.784-2.228-1.394-3.496-1.825
			c-1.27-0.433-2.603-0.649-3.995-0.649s-2.723,0.217-3.988,0.649c-1.267,0.433-2.429,1.041-3.486,1.825
			c-1.059,0.784-1.979,1.707-2.765,2.77c-0.784,1.062-1.391,2.225-1.819,3.491c-0.43,1.266-0.646,2.595-0.646,3.987
			c0,1.388,0.216,2.715,0.648,3.984c0.434,1.27,1.041,2.435,1.821,3.496C5.507,1.49,6.428,2.41,7.49,3.193
			c1.061,0.781,2.225,1.39,3.49,1.821C12.248,5.447,13.578,5.663,14.971,5.663z M14.971,3.848c-1.205,0-2.353-0.185-3.442-0.552
			c-1.09-0.368-2.088-0.885-2.992-1.548C7.63,1.084,6.844,0.298,6.176-0.61C5.509-1.519,4.994-2.518,4.629-3.608
			C4.264-4.699,4.083-5.847,4.083-7.052c0-1.211,0.182-2.36,0.547-3.452c0.364-1.091,0.879-2.09,1.543-2.998
			c0.664-0.907,1.448-1.693,2.354-2.357c0.903-0.664,1.901-1.179,2.992-1.543s2.237-0.547,3.441-0.547
			c1.211,0,2.362,0.183,3.452,0.547c1.091,0.364,2.09,0.879,2.998,1.543s1.694,1.45,2.357,2.357c0.664,0.908,1.182,1.907,1.55,2.998
			c0.366,1.092,0.551,2.241,0.551,3.452c0.007,1.204-0.172,2.353-0.537,3.442c-0.364,1.091-0.88,2.09-1.547,2.998
			c-0.668,0.908-1.456,1.693-2.364,2.357s-1.907,1.181-2.997,1.549C17.333,3.663,16.182,3.848,14.971,3.848z M9.2-7.052
			c0,0.254,0.086,0.464,0.258,0.63c0.173,0.166,0.393,0.249,0.66,0.249h3.945v3.955c0,0.268,0.081,0.486,0.247,0.659
			S14.692-1.3,14.952-1.3c0.267,0,0.486-0.085,0.659-0.254c0.172-0.169,0.258-0.391,0.258-0.664v-3.955h3.955
			c0.268,0,0.484-0.083,0.654-0.249s0.254-0.376,0.254-0.63c0-0.272-0.084-0.495-0.254-0.664s-0.388-0.254-0.654-0.254h-3.955
			v-3.944c0-0.273-0.086-0.496-0.258-0.67c-0.173-0.173-0.394-0.259-0.659-0.259c-0.261,0-0.476,0.086-0.642,0.259
			c-0.166,0.174-0.247,0.396-0.247,0.67v3.944h-3.945c-0.273,0-0.495,0.085-0.664,0.254C9.284-7.547,9.2-7.324,9.2-7.052z"/>
	</g>
	<text transform="matrix(1 0 0 1 263.0002 1953.0002)" font-family="'Arial-BoldMT'" font-size="13">Design Variations</text>
	<text transform="matrix(1 0 0 1 263.0002 1971.0002)" font-family="'ArialMT'" font-size="13">Symbols are supported in up to nine weights and three scales.</text>
	<text transform="matrix(1 0 0 1 263.0002 1989.0002)" font-family="'ArialMT'" font-size="13">For optimal layout with text and other symbols, vertically align</text>
	<text transform="matrix(1 0 0 1 263.0002 2007.0002)" font-family="'ArialMT'" font-size="13">symbols with the adjacent text.</text>
	<line fill="none" stroke="#00AEEF" stroke-width="0.5" x1="776" y1="1919" x2="776" y2="1933"/>
	<g transform="matrix(1 0 0 1 776 1933)">
		<path d="M3.311,0.156c0.261,0,0.462-0.056,0.604-0.166C4.059-0.12,4.177-0.313,4.268-0.587l1.26-3.446h5.762l1.261,3.446
			c0.09,0.273,0.207,0.467,0.35,0.576c0.143,0.11,0.342,0.166,0.596,0.166c0.262,0,0.468-0.071,0.62-0.215
			c0.153-0.144,0.229-0.339,0.229-0.586c0-0.149-0.036-0.325-0.107-0.527l-4.58-12.196c-0.117-0.301-0.275-0.524-0.479-0.674
			c-0.203-0.15-0.459-0.226-0.771-0.226c-0.604,0-1.016,0.296-1.229,0.889L2.598-1.162C2.526-0.961,2.49-0.784,2.49-0.635
			c0,0.247,0.073,0.441,0.221,0.581C2.857,0.086,3.057,0.156,3.311,0.156z M6.007-5.518l2.373-6.572h0.049l2.373,6.572H6.007z"/>
	</g>
	<line fill="none" stroke="#00AEEF" stroke-width="0.5" x1="793.197" y1="1919" x2="793.197" y2="1933"/>
	<text transform="matrix(1 0 0 1 776.0002 1953.0002)" font-family="'Arial-BoldMT'" font-size="13">Margins</text>
	<text transform="matrix(1 0 0 1 776.0002 1971.0002)" font-family="'ArialMT'" font-size="13">Leading and trailing margins on the left and right side of each symbol</text>
	<text transform="matrix(1 0 0 1 776.0002 1989.0002)" font-family="'ArialMT'" font-size="13">can be adjusted by modifying the x-location of the margin guidelines.</text>
	<text transform="matrix(1 0 0 1 776.0002 2007.0002)" font-family="'ArialMT'" font-size="13">Modifications are automatically applied proportionally to all</text>
	<text transform="matrix(1 0 0 1 776.0002 2025.0002)" font-family="'ArialMT'" font-size="13">scales and weights.</text>
	<g transform="matrix(1 0 0 1 1289 1933)">
		<path d="M2.843,1.865l1.698,1.709c0.431,0.438,0.885,0.639,1.362,0.605c0.479-0.033,0.949-0.306,1.411-0.82L18.009-8.428
			l-0.968-0.977L6.427,2.275C6.25,2.478,6.072,2.591,5.894,2.616c-0.178,0.026-0.386-0.078-0.62-0.313L4.102,1.143
			c-0.234-0.234-0.337-0.441-0.308-0.62c0.028-0.179,0.144-0.36,0.347-0.543l11.474-10.8l-0.977-0.967L3.048-0.898
			C2.552-0.442,2.287,0.023,2.252,0.498C2.216,0.973,2.412,1.429,2.843,1.865z M9.259-16.328c-0.208,0.201-0.325,0.433-0.353,0.692
			c-0.026,0.261,0.021,0.488,0.137,0.685c0.117,0.183,0.289,0.318,0.514,0.41c0.225,0.091,0.5,0.098,0.825,0.02
			c0.729-0.169,1.468-0.239,2.217-0.21s1.48,0.278,2.197,0.747l-0.587,1.455c-0.168,0.417-0.217,0.779-0.142,1.089
			s0.246,0.601,0.513,0.874l2.295,2.314c0.241,0.246,0.477,0.391,0.703,0.43c0.228,0.039,0.481,0.031,0.763-0.021l1.063-0.194
			l0.664,0.674l-0.039,0.557c-0.02,0.247,0.012,0.477,0.093,0.685s0.242,0.433,0.483,0.674l0.762,0.741
			c0.241,0.241,0.503,0.366,0.786,0.377c0.283,0.01,0.542-0.104,0.776-0.338l2.91-2.92c0.233-0.233,0.349-0.489,0.342-0.767
			s-0.13-0.535-0.371-0.776l-0.771-0.762c-0.233-0.241-0.453-0.405-0.658-0.493s-0.429-0.122-0.67-0.103l-0.575,0.049l-0.646-0.635
			l0.244-1.123c0.065-0.28,0.052-0.542-0.039-0.786s-0.283-0.513-0.576-0.806l-2.196-2.188c-0.833-0.827-1.722-1.447-2.661-1.86
			c-0.94-0.412-1.889-0.628-2.842-0.645c-0.954-0.018-1.872,0.158-2.754,0.521C10.783-17.596,9.98-17.052,9.259-16.328z
			 M10.752-15.957c0.605-0.442,1.256-0.76,1.948-0.947c0.693-0.188,1.396-0.249,2.104-0.182c0.709,0.068,1.397,0.26,2.064,0.571
			c0.667,0.313,1.277,0.749,1.831,1.31l2.433,2.412c0.117,0.116,0.189,0.23,0.22,0.342c0.03,0.11,0.024,0.251-0.015,0.42
			l-0.322,1.483l1.504,1.484l0.986-0.059c0.124-0.008,0.218,0.002,0.282,0.023c0.065,0.022,0.146,0.083,0.244,0.181l0.576,0.576
			L22.168-5.9l-0.576-0.576c-0.099-0.098-0.159-0.179-0.187-0.244c-0.026-0.064-0.036-0.163-0.028-0.293l0.067-0.977L19.95-9.474
			L18.427-9.22c-0.163,0.032-0.291,0.037-0.387,0.016c-0.095-0.022-0.202-0.094-0.326-0.211l-2.002-2.002
			c-0.131-0.116-0.203-0.229-0.221-0.337c-0.017-0.107,0.016-0.252,0.094-0.435l0.879-2.09c-0.781-0.729-1.66-1.233-2.638-1.514
			c-0.977-0.281-1.973-0.271-2.987,0.028c-0.078,0.021-0.129,0.005-0.151-0.044S10.687-15.905,10.752-15.957z"/>
	</g>
	<text transform="matrix(1 0 0 1 1289.0002 1953.0002)" font-family="'Arial-BoldMT'" font-size="13">Exporting</text>
	<text transform="matrix(1 0 0 1 1289.0002 1971.0002)" font-family="'ArialMT'" font-size="13">Symbols should be outlined when exporting to ensure the</text>
	<text transform="matrix(1 0 0 1 1289.0002 1989.0002)" font-family="'ArialMT'" font-size="13">design is preserved when submitting to Xcode.</text>
	<text id="template-version" transform="matrix(1 0 0 1 2952.4197 1933.0002)" font-family="'ArialMT'" font-size="13">Template v.3.0</text>
	<text transform="matrix(1 0 0 1 2865.4568 1951.0002)" font-family="'ArialMT'" font-size="13">Requires Xcode 13 or greater</text>
	<text id="descriptive-name" transform="matrix(1 0 0 1 2762.1677 1969.0002)" font-family="'ArialMT'" font-size="13">Generated from arrow.backward.to.line.circle.fill</text>
	<text transform="matrix(1 0 0 1 2912.4177 1987.0002)" font-family="'ArialMT'" font-size="13">Typeset at 100 points</text>
	<text transform="matrix(1 0 0 1 263.0002 725.9998)" font-family="'ArialMT'" font-size="13">Small</text>
	<text transform="matrix(1 0 0 1 263.0002 1156.0002)" font-family="'ArialMT'" font-size="13">Medium</text>
	<text transform="matrix(1 0 0 1 263.0002 1586.0002)" font-family="'ArialMT'" font-size="13">Large</text>
</g>
<g id="Guides">
	<g id="H-reference" transform="matrix(1 0 0 1 339 696)">
		<path fill="#27AAE1" d="M0.993,0h2.646l25.689-67.134h0.702v-3.326h-1.907L0.993,0z M11.688-24.479h35.293l-0.75-2.249H12.438
			L11.688-24.479z M55.119,0h2.646L30.638-70.46h-1.205v3.326L55.119,0z"/>
	</g>
	<line id="Baseline-S" fill="none" stroke="#27AAE1" stroke-width="0.5" x1="263" y1="696" x2="3036" y2="696"/>
	<line id="Capline-S" fill="none" stroke="#27AAE1" stroke-width="0.5" x1="263" y1="625.541" x2="3036" y2="625.541"/>
	<g id="H-reference_1_" transform="matrix(1 0 0 1 339 1126)">
		<path fill="#27AAE1" d="M0.993,0h2.646l25.689-67.134h0.702v-3.325h-1.907L0.993,0z M11.688-24.479h35.293l-0.75-2.249H12.438
			L11.688-24.479z M55.119,0h2.646L30.638-70.459h-1.205v3.325L55.119,0z"/>
	</g>
	<line id="Baseline-M" fill="none" stroke="#27AAE1" stroke-width="0.5" x1="263" y1="1126" x2="3036" y2="1126"/>
	<line id="Capline-M" fill="none" stroke="#27AAE1" stroke-width="0.5" x1="263" y1="1055.539" x2="3036" y2="1055.539"/>
	<g id="H-reference_2_" transform="matrix(1 0 0 1 339 1556)">
		<path fill="#27AAE1" d="M0.993,0h2.646l25.689-67.134h0.702v-3.325h-1.907L0.993,0z M11.688-24.479h35.293l-0.75-2.249H12.438
			L11.688-24.479z M55.119,0h2.646L30.638-70.459h-1.205v3.325L55.119,0z"/>
	</g>
	<line id="Baseline-L" fill="none" stroke="#27AAE1" stroke-width="0.5" x1="263" y1="1556" x2="3036" y2="1556"/>
	<line id="Capline-L" fill="none" stroke="#27AAE1" stroke-width="0.5" x1="263" y1="1485.539" x2="3036" y2="1485.539"/>
	
		<line id="left-margin-Ultralight-S" fill="none" stroke="#00AEEF" stroke-width="0.5" x1="515.649" y1="600.784" x2="515.649" y2="720.12"/>
	
		<line id="right-margin-Ultralight-S" fill="none" stroke="#00AEEF" stroke-width="0.5" x1="603.773" y1="600.784" x2="603.773" y2="720.12"/>
	
		<line id="left-margin-Regular-S" fill="none" stroke="#00AEEF" stroke-width="0.5" x1="1403.58" y1="600.784" x2="1403.58" y2="720.12"/>
	
		<line id="right-margin-Regular-S" fill="none" stroke="#00AEEF" stroke-width="0.5" x1="1496.11" y1="600.784" x2="1496.11" y2="720.12"/>
	
		<line id="left-margin-Black-S" fill="none" stroke="#00AEEF" stroke-width="0.5" x1="2884.57" y1="600.784" x2="2884.57" y2="720.12"/>
	
		<line id="right-margin-Black-S" fill="none" stroke="#00AEEF" stroke-width="0.5" x1="2982.23" y1="600.784" x2="2982.23" y2="720.12"/>
</g>
<g id="Symbols">
	<g id="Black-S" transform="matrix(1 0 0 1 2884.57 696)">
		<path fill="#8E8E8E" d="M27.256,2.098h45.49c4.752,0,8.463-1.333,11.129-4c2.668-2.667,4.002-6.377,4.002-11.131v-45.489
			c0-4.753-1.334-8.463-4.002-11.13c-2.666-2.667-6.377-4-11.129-4h-45.49c-4.754,0-8.463,1.333-11.131,4
			c-2.666,2.667-4.012,6.377-4.012,11.13v45.489c0,4.753,1.346,8.464,4.012,11.131C18.793,0.765,22.502,2.098,27.256,2.098z"/>
		<path fill="#010101" d="M44.484-55.431L64.891-26.15V-49.4c0-1.979-0.526-3.478-1.531-4.5s-2.482-1.531-4.469-1.531
			C58.891-55.431,46.865-55.431,44.484-55.431z M69.677-15.031l-3.816,2.667l-30.546-43.7l3.816-2.666L69.677-15.031z
			 M37.047-48.963v32.688c0,0.876,0.207,1.563,0.625,2.031c0.417,0.473,1.002,0.688,1.719,0.688c0.547,0,1.071-0.174,1.563-0.563
			c0.488-0.389,1.214-1.12,2.25-2.125l7.594-7.281c0.131-0.129,0.215-0.129,0.344,0l7.563,7.281
			c1.076,1.005,1.846,1.736,2.313,2.125c0.125,0.104,0.275,0.082,0.406,0.156L37.047-48.963z"/>
	</g>
	<g id="Regular-S" transform="matrix(1 0 0 1 1403.58 696)">
		<path fill="#8E8E8E" d="M23.891,0.028h45.928c4.132,0,7.229-1.019,9.286-3.057c2.057-2.035,3.078-5.092,3.078-9.165v-46.267
			c0-4.074-1.021-7.13-3.078-9.167c-2.057-2.034-5.154-3.054-9.286-3.054H23.891c-4.111,0-7.2,1.02-9.269,3.054
			c-2.063,2.038-3.098,5.093-3.098,9.167v46.268c0,4.073,1.033,7.13,3.098,9.165C16.691-0.991,19.78,0.028,23.891,0.028z"/>
		<path fill="#010101" d="M40.963-55.08l20.406,29.281v-23.25c0-1.979-0.526-3.478-1.531-4.5s-2.482-1.531-4.469-1.531
			C55.369-55.08,43.344-55.08,40.963-55.08z M66.155-14.68l-3.816,2.667l-30.546-43.7l3.817-2.666L66.155-14.68z M33.525-48.612
			v32.688c0,0.876,0.207,1.563,0.625,2.031c0.417,0.473,1.002,0.688,1.719,0.688c0.547,0,1.071-0.174,1.563-0.563
			c0.488-0.389,1.214-1.12,2.25-2.125l7.594-7.281c0.131-0.129,0.215-0.129,0.344,0l7.563,7.281
			c1.076,1.005,1.846,1.736,2.313,2.125c0.125,0.104,0.275,0.082,0.406,0.156L33.525-48.612z"/>
	</g>
	<g id="Ultralight-S" transform="matrix(1 0 0 1 515.649 696)">
		<path fill="#8E8E8E" d="M20.402-1.987h46.85c3.268,0,5.737-0.858,7.42-2.57c1.682-1.716,2.522-4.173,2.522-7.372v-46.897
			c0-3.199-0.841-5.648-2.522-7.349c-1.683-1.695-4.152-2.546-7.42-2.546h-46.85c-3.265,0-5.737,0.842-7.417,2.522
			c-1.684,1.683-2.522,4.14-2.522,7.372v46.897c0,3.265,0.839,5.74,2.522,7.42C14.664-2.829,17.137-1.987,20.402-1.987z"/>
		<path fill="#010101" d="M36.769-56.039l20.406,29.281v-23.25c0-1.979-0.526-3.478-1.531-4.5s-2.482-1.531-4.469-1.531
			C51.175-56.039,39.15-56.039,36.769-56.039z M60.973-14.948l-1.746,1.219l-30.545-43.7l1.746-1.219L60.973-14.948z M29.331-49.571
			v32.688c0,0.876,0.207,1.563,0.625,2.031c0.417,0.473,1.002,0.688,1.719,0.688c0.547,0,1.071-0.174,1.563-0.563
			c0.488-0.389,1.214-1.12,2.25-2.125l7.594-7.281c0.131-0.129,0.215-0.129,0.344,0l7.563,7.281
			c1.076,1.005,1.846,1.736,2.313,2.125c0.125,0.104,0.275,0.082,0.406,0.156L29.331-49.571z"/>
	</g>
</g>
</svg>
