<?xml version="1.0" encoding="utf-8"?>
<!-- Generator: Adobe Illustrator 16.0.0, SVG Export Plug-In . SVG Version: 6.00 Build 0)  -->
<!DOCTYPE svg PUBLIC "-//W3C//DTD SVG 1.1//EN" "http://www.w3.org/Graphics/SVG/1.1/DTD/svg11.dtd">
<svg version="1.1" id="Layer_1" xmlns="http://www.w3.org/2000/svg" xmlns:xlink="http://www.w3.org/1999/xlink" x="0px" y="0px"
	 width="3300px" height="2200px" viewBox="0 0 3300 2200" enable-background="new 0 0 3300 2200" xml:space="preserve">
<g id="Notes">
	<rect id="artboard" x="0" y="0" fill="#FFFFFF" width="3300" height="2200"/>
	<line fill="none" stroke="#000000" stroke-width="0.5" x1="263" y1="292" x2="3036" y2="292"/>
	<text id="reftext1" transform="matrix(1 0 0 1 263.0002 322.0002)" font-family="'Arial-BoldMT'" font-size="12">Weight/Scale Variations</text>
	<text id="reftext2" transform="matrix(1 0 0 1 536.0364 322.0002)" font-family="'ArialMT'" font-size="12">Ultralight</text>
	<text transform="matrix(1 0 0 1 844.7502 322.0002)" font-family="'ArialMT'" font-size="12">Thin</text>
	<text transform="matrix(1 0 0 1 1140.1194 322.0002)" font-family="'ArialMT'" font-size="12">Light</text>
	<text transform="matrix(1 0 0 1 1428.8284 322.0002)" font-family="'ArialMT'" font-size="12">Regular</text>
	<text transform="matrix(1 0 0 1 1725.2205 322.0002)" font-family="'ArialMT'" font-size="12">Medium</text>
	<text transform="matrix(1 0 0 1 2018.2566 322.0002)" font-family="'ArialMT'" font-size="12">Semibold</text>
	<text transform="matrix(1 0 0 1 2327.9714 322.0002)" font-family="'ArialMT'" font-size="12">Bold</text>
	<text transform="matrix(1 0 0 1 2619.6833 322.0002)" font-family="'ArialMT'" font-size="12">Heavy</text>
	<text transform="matrix(1 0 0 1 2918.7283 322.0002)" font-family="'ArialMT'" font-size="12">Black</text>
	<line fill="none" stroke="#000000" stroke-width="0.5" x1="263" y1="1903" x2="3036" y2="1903"/>
	<g transform="matrix(1 0 0 1 263 1933)">
		<path d="M9.248,0.83c4.307,0,7.891-3.574,7.891-7.881s-3.594-7.881-7.9-7.881c-4.297,0-7.871,3.574-7.871,7.881
			S4.951,0.83,9.248,0.83z M9.248-0.654c-3.545,0-6.377-2.842-6.377-6.396s2.822-6.396,6.367-6.396c3.555,0,6.396,2.842,6.406,6.396
			S12.802-0.654,9.248-0.654z M6.396-6.318h2.109v2.119c0,0.439,0.293,0.742,0.723,0.742c0.449,0,0.742-0.303,0.742-0.742v-2.119
			h2.129c0.439,0,0.742-0.293,0.742-0.723c0-0.439-0.303-0.742-0.742-0.742H9.97v-2.109c0-0.449-0.293-0.752-0.742-0.752
			c-0.43,0-0.723,0.303-0.723,0.752v2.109H6.396c-0.449,0-0.752,0.303-0.752,0.742C5.644-6.611,5.947-6.318,6.396-6.318z"/>
	</g>
	<g transform="matrix(1 0 0 1 281.506 1933)">
		<path d="M11.709,2.91c5.45,0,9.962-4.521,9.962-9.961c0-5.449-4.521-9.961-9.972-9.961c-5.439,0-9.951,4.512-9.951,9.961
			C1.748-1.611,6.269,2.91,11.709,2.91z M11.709,1.25c-4.609,0-8.291-3.691-8.291-8.301s3.672-8.301,8.281-8.301
			c4.61,0,8.302,3.691,8.312,8.301S16.319,1.25,11.709,1.25z M7.988-6.23h2.891v2.91c0,0.488,0.332,0.82,0.811,0.82
			c0.488,0,0.83-0.332,0.83-0.82v-2.91h2.91c0.488,0,0.821-0.332,0.821-0.811c0-0.488-0.333-0.83-0.821-0.83h-2.91v-2.891
			c0-0.508-0.342-0.84-0.83-0.84c-0.479,0-0.811,0.342-0.811,0.84v2.891H7.988c-0.508,0-0.84,0.342-0.84,0.83
			C7.148-6.562,7.49-6.23,7.988-6.23z"/>
	</g>
	<g transform="matrix(1 0 0 1 304.924 1933)">
		<path d="M14.971,5.664c6.963,0,12.725-5.762,12.725-12.715c0-6.963-5.771-12.725-12.734-12.725
			c-6.953,0-12.705,5.762-12.705,12.725C2.256-0.097,8.018,5.664,14.971,5.664z M14.971,3.848c-6.035,0-10.889-4.863-10.889-10.898
			c0-6.045,4.844-10.898,10.879-10.898c6.045,0,10.898,4.854,10.908,10.898C25.879-1.015,21.016,3.848,14.971,3.848z M10.059-6.142
			h4.004v4.014c0,0.537,0.371,0.908,0.889,0.908c0.537,0,0.908-0.371,0.908-0.908v-4.014h4.023c0.527,0,0.908-0.371,0.908-0.889
			c0-0.537-0.371-0.918-0.908-0.918H15.86v-4.004c0-0.557-0.371-0.928-0.908-0.928c-0.518,0-0.889,0.381-0.889,0.928v4.004h-4.004
			c-0.557,0-0.928,0.381-0.928,0.918C9.131-6.513,9.512-6.142,10.059-6.142z"/>
	</g>
	<text transform="matrix(1 0 0 1 263.0002 1953.0002)" font-family="'Arial-BoldMT'" font-size="12">Design Variations</text>
	<text transform="matrix(1 0 0 1 263.0002 1971.0002)" font-family="'ArialMT'" font-size="12">Symbols are supported in up to nine weights and three scales.</text>
	<text transform="matrix(1 0 0 1 263.0002 1989.0002)" font-family="'ArialMT'" font-size="12">For optimal layout with text and other symbols, vertically align</text>
	<text transform="matrix(1 0 0 1 263.0002 2007.0002)" font-family="'ArialMT'" font-size="12">symbols with the adjacent text.</text>
	<line fill="none" stroke="#00AEEF" stroke-width="0.5" x1="776" y1="1919" x2="776" y2="1933"/>
	<g transform="matrix(1 0 0 1 776 1933)">
		<path d="M3.31,0.127c0.518,0,0.771-0.195,0.957-0.732l1.26-3.457h5.763l1.259,3.457c0.186,0.537,0.439,0.732,0.947,0.732
			c0.518,0,0.85-0.313,0.85-0.801c0-0.166-0.029-0.313-0.107-0.527l-4.58-12.188c-0.225-0.605-0.625-0.898-1.25-0.898
			c-0.605,0-1.016,0.293-1.23,0.889L2.597-1.191C2.519-0.976,2.49-0.83,2.49-0.664C2.49-0.176,2.802,0.127,3.31,0.127z M6.006-5.537
			l2.373-6.572h0.049l2.373,6.572H6.006z"/>
	</g>
	<line fill="none" stroke="#00AEEF" stroke-width="0.5" x1="792.837" y1="1919" x2="792.837" y2="1933"/>
	<text transform="matrix(1 0 0 1 776.0002 1953.0002)" font-family="'Arial-BoldMT'" font-size="12">Margins</text>
	<text transform="matrix(1 0 0 1 776.0002 1971.0002)" font-family="'ArialMT'" font-size="12">Leading and trailing margins on the left and right side of each symbol</text>
	<text transform="matrix(1 0 0 1 776.0002 1989.0002)" font-family="'ArialMT'" font-size="12">can be adjusted by modifying the x-location of the margin guidelines.</text>
	<text transform="matrix(1 0 0 1 776.0002 2007.0002)" font-family="'ArialMT'" font-size="12">Modifications are automatically applied proportionally to all</text>
	<text transform="matrix(1 0 0 1 776.0002 2025.0002)" font-family="'ArialMT'" font-size="12">scales and weights.</text>
	<g transform="matrix(1 0 0 1 1289 1933)">
		<path d="M2.842,1.865l1.699,1.709C5.4,4.444,6.386,4.385,7.314,3.36L17.49-7.851c0.264,0.088,0.537,0.068,0.85,0.01l1.064-0.195
			l0.664,0.674l-0.039,0.557c-0.039,0.498,0.088,0.879,0.576,1.357l0.762,0.742c0.479,0.479,1.094,0.508,1.563,0.039l2.91-2.92
			c0.469-0.469,0.449-1.064-0.029-1.543l-0.771-0.762c-0.479-0.479-0.85-0.635-1.328-0.596l-0.576,0.049l-0.645-0.635l0.244-1.123
			c0.127-0.566-0.029-1.006-0.615-1.592l-2.197-2.188c-3.34-3.32-7.773-3.242-10.664-0.352c-0.42,0.41-0.449,0.986-0.215,1.377
			c0.234,0.361,0.693,0.596,1.338,0.43c1.465-0.342,2.988-0.4,4.414,0.537l-0.586,1.455c-0.195,0.479-0.225,0.879-0.098,1.24
			L3.047-0.898C2.06,0.02,1.982,0.996,2.842,1.865z M10.752-15.957c2.432-1.777,5.723-1.475,7.949,0.752l2.432,2.412
			c0.234,0.234,0.273,0.42,0.205,0.762l-0.322,1.484l1.504,1.484l0.986-0.059c0.254-0.01,0.332,0.01,0.527,0.205l0.576,0.576
			l-2.441,2.441l-0.576-0.576c-0.195-0.195-0.225-0.273-0.215-0.537l0.068-0.977l-1.494-1.484l-1.523,0.254
			c-0.322,0.068-0.469,0.039-0.713-0.195l-2.002-2.002c-0.254-0.234-0.283-0.4-0.127-0.771l0.879-2.09
			c-1.563-1.455-3.594-2.08-5.625-1.484C10.683-15.722,10.625-15.849,10.752-15.957z M5.273,2.305L4.101,1.143
			C3.633,0.684,3.74,0.342,4.14-0.019l10.811-10.176l1.465,1.484L6.426,2.276C6.074,2.676,5.742,2.774,5.273,2.305z"/>
	</g>
	<text transform="matrix(1 0 0 1 1289.0002 1953.0002)" font-family="'Arial-BoldMT'" font-size="12">Exporting</text>
	<text transform="matrix(1 0 0 1 1289.0002 1971.0002)" font-family="'ArialMT'" font-size="12">Symbols should be outlined when exporting to ensure the</text>
	<text transform="matrix(1 0 0 1 1289.0002 1989.0002)" font-family="'ArialMT'" font-size="12">design is preserved when submitting to Xcode.</text>
	<text id="template-version" transform="matrix(1 0 0 1 2958.8494 1933.0002)" font-family="'ArialMT'" font-size="12">Template v.2.0</text>
	<text transform="matrix(1 0 0 1 2878.5759 1951.0002)" font-family="'ArialMT'" font-size="12">Requires Xcode 12 or greater</text>
	<text transform="matrix(1 0 0 1 263.0002 725.9998)" font-family="'ArialMT'" font-size="12">Small</text>
	<text transform="matrix(1 0 0 1 263.0002 1156.0002)" font-family="'ArialMT'" font-size="12">Medium</text>
	<text transform="matrix(1 0 0 1 263.0002 1586.0002)" font-family="'ArialMT'" font-size="12">Large</text>
</g>
<g id="Guides">
	<g id="H-reference" transform="matrix(1 0 0 1 339 696)">
		<path fill="#27AAE1" d="M0.976,0h2.686l9.327-24.464h32.764L55.128,0h2.637L30.615-70.46h-2.49L0.976,0z M29.345-67.139h0.099
			l15.429,40.43H13.868L29.345-67.139z"/>
	</g>
	<line id="Baseline-S" fill="none" stroke="#27AAE1" stroke-width="0.5" x1="263" y1="696" x2="3036" y2="696"/>
	<line id="Capline-S" fill="none" stroke="#27AAE1" stroke-width="0.5" x1="263" y1="625.541" x2="3036" y2="625.541"/>
	<g id="H-reference_1_" transform="matrix(1 0 0 1 339 1126)">
		<path fill="#27AAE1" d="M0.976,0h2.686l9.327-24.463h32.764L55.128,0h2.637L30.615-70.459h-2.49L0.976,0z M29.345-67.138h0.099
			l15.429,40.43H13.868L29.345-67.138z"/>
	</g>
	<line id="Baseline-M" fill="none" stroke="#27AAE1" stroke-width="0.5" x1="263" y1="1126" x2="3036" y2="1126"/>
	<line id="Capline-M" fill="none" stroke="#27AAE1" stroke-width="0.5" x1="263" y1="1055.539" x2="3036" y2="1055.539"/>
	<g id="H-reference_2_" transform="matrix(1 0 0 1 339 1556)">
		<path fill="#27AAE1" d="M0.976,0h2.686l9.327-24.463h32.764L55.128,0h2.637L30.615-70.459h-2.49L0.976,0z M29.345-67.138h0.099
			l15.429,40.43H13.868L29.345-67.138z"/>
	</g>
	<line id="Baseline-L" fill="none" stroke="#27AAE1" stroke-width="0.5" x1="263" y1="1556" x2="3036" y2="1556"/>
	<line id="Capline-L" fill="none" stroke="#27AAE1" stroke-width="0.5" x1="263" y1="1485.539" x2="3036" y2="1485.539"/>
	<line id="left-margin" fill="none" stroke="#00AEEF" stroke-width="0.5" x1="1415.9" y1="1030.789" x2="1415.9" y2="1150.119"/>
	<line id="right-margin" fill="none" stroke="#00AEEF" stroke-width="0.5" x1="1486.36" y1="1030.789" x2="1486.36" y2="1150.119"/>
</g>
<g id="Symbols">
	<g id="Black-L" transform="matrix(1.0,0.0,0.0,1.0,2889.2333251953123,1475.3233447265625)">
		<path fill="#717171" d="M25.202,78.524h42.029c3.788,0,6.62-0.932,8.5-2.796c1.879-1.864,2.818-4.66,2.818-8.389v-42.34
			c0-3.729-0.939-6.524-2.818-8.389c-1.88-1.863-4.712-2.796-8.5-2.796H25.202c-3.757,0-6.582,0.933-8.477,2.796
			c-1.893,1.864-2.84,4.66-2.84,8.389v42.34c0,3.729,0.947,6.524,2.84,8.389C18.619,77.591,21.444,78.524,25.202,78.524z"/>
		<path fill="#010101" d="M40.362,27.098L58.91,53.712V32.579c0-1.799-0.478-3.161-1.392-4.091
			c-0.913-0.929-2.256-1.391-4.061-1.391C53.458,27.098,42.526,27.098,40.362,27.098z M33.602,32.977v29.711
			c0,0.796,0.188,1.42,0.568,1.847c0.379,0.429,0.91,0.625,1.562,0.625c0.498,0,0.974-0.158,1.421-0.512
			c0.443-0.354,1.104-1.018,2.045-1.932l6.902-6.618c0.119-0.117,0.195-0.117,0.313,0l6.873,6.618
			c0.979,0.914,1.679,1.579,2.103,1.932c0.114,0.094,0.251,0.075,0.369,0.143L33.602,32.977z M32.438,26.234l2.617-1.846
			L63.997,65.79l-2.619,1.845L32.438,26.234z"/>
	</g>
	<g id="Heavy-L" transform="matrix(1.0,0.0,0.0,1.0,2592.5233251953123,1475.3233447265625)">
		<path fill="#717171" d="M25.202,78.524h42.029c3.788,0,6.62-0.932,8.5-2.796c1.879-1.864,2.818-4.66,2.818-8.389v-42.34
			c0-3.729-0.939-6.524-2.818-8.389c-1.88-1.863-4.712-2.796-8.5-2.796H25.202c-3.757,0-6.581,0.933-8.477,2.796
			c-1.894,1.864-2.84,4.66-2.84,8.389v42.34c0,3.729,0.946,6.524,2.84,8.389C18.619,77.591,21.444,78.524,25.202,78.524z"/>
		<path fill="#010101" d="M40.362,27.098L58.91,53.712V32.579c0-1.799-0.478-3.161-1.392-4.091
			c-0.913-0.929-2.256-1.391-4.062-1.391C53.457,27.098,42.526,27.098,40.362,27.098z M33.602,32.977v29.711
			c0,0.796,0.188,1.42,0.567,1.847c0.38,0.429,0.912,0.625,1.563,0.625c0.498,0,0.975-0.158,1.421-0.512
			c0.443-0.354,1.104-1.018,2.045-1.932l6.902-6.618c0.119-0.117,0.194-0.117,0.312,0l6.874,6.618
			c0.979,0.914,1.679,1.579,2.103,1.932c0.113,0.094,0.251,0.075,0.369,0.143L33.602,32.977z M32.438,26.234l2.617-1.846
			L63.998,65.79l-2.619,1.845L32.438,26.234z"/>
	</g>
	<g id="Bold-L" transform="matrix(1.0,0.0,0.0,1.0,2295.8133251953122,1475.3233447265625)">
		<path fill="#717171" d="M25.202,78.524h42.029c3.788,0,6.62-0.932,8.5-2.796c1.879-1.864,2.818-4.66,2.818-8.389v-42.34
			c0-3.729-0.939-6.524-2.818-8.389c-1.88-1.863-4.712-2.796-8.5-2.796H25.202c-3.757,0-6.582,0.933-8.477,2.796
			c-1.894,1.864-2.84,4.66-2.84,8.389v42.34c0,3.729,0.946,6.524,2.84,8.389C18.619,77.591,21.444,78.524,25.202,78.524z"/>
		<path fill="#010101" d="M40.362,27.098L58.91,53.712V32.579c0-1.799-0.478-3.161-1.392-4.091
			c-0.913-0.929-2.256-1.391-4.062-1.391C53.457,27.098,42.526,27.098,40.362,27.098z M33.603,32.977v29.711
			c0,0.796,0.188,1.42,0.567,1.847c0.38,0.429,0.911,0.625,1.563,0.625c0.498,0,0.974-0.158,1.421-0.512
			c0.443-0.354,1.104-1.018,2.045-1.932l6.902-6.618c0.119-0.117,0.194-0.117,0.312,0l6.874,6.618
			c0.979,0.914,1.678,1.579,2.102,1.932c0.114,0.094,0.252,0.075,0.369,0.143L33.603,32.977z M32.438,26.234l2.617-1.846
			L63.997,65.79l-2.619,1.845L32.438,26.234z"/>
	</g>
	<g id="Semibold-L" transform="matrix(1.0,0.0,0.0,1.0,1999.1033251953124,1475.3233447265625)">
		<path fill="#717171" d="M25.202,78.524h42.029c3.788,0,6.62-0.932,8.5-2.796c1.879-1.864,2.817-4.66,2.817-8.389v-42.34
			c0-3.729-0.938-6.524-2.817-8.389c-1.88-1.863-4.712-2.796-8.5-2.796H25.202c-3.757,0-6.582,0.933-8.477,2.796
			c-1.894,1.864-2.841,4.66-2.841,8.389v42.34c0,3.729,0.947,6.524,2.841,8.389C18.619,77.591,21.444,78.524,25.202,78.524z"/>
		<path fill="#010101" d="M40.362,27.098L58.91,53.712V32.579c0-1.799-0.478-3.161-1.392-4.091
			c-0.913-0.929-2.257-1.391-4.062-1.391C53.457,27.098,42.526,27.098,40.362,27.098z M33.603,32.977v29.711
			c0,0.796,0.188,1.42,0.567,1.847c0.379,0.429,0.911,0.625,1.563,0.625c0.498,0,0.974-0.158,1.421-0.512
			c0.442-0.354,1.103-1.018,2.045-1.932l6.902-6.618c0.118-0.117,0.194-0.117,0.312,0l6.874,6.618
			c0.979,0.914,1.678,1.579,2.103,1.932c0.113,0.094,0.251,0.075,0.368,0.143L33.603,32.977z M32.438,26.234l2.617-1.846
			L63.997,65.79l-2.619,1.845L32.438,26.234z"/>
	</g>
	<g id="Medium-L" transform="matrix(1.0,0.0,0.0,1.0,1702.3933251953124,1475.3233447265625)">
		<path fill="#717171" d="M25.202,78.524h42.029c3.788,0,6.62-0.932,8.5-2.796c1.879-1.864,2.817-4.66,2.817-8.389v-42.34
			c0-3.729-0.938-6.524-2.817-8.389c-1.88-1.863-4.712-2.796-8.5-2.796H25.202c-3.757,0-6.582,0.933-8.477,2.796
			c-1.894,1.864-2.84,4.66-2.84,8.389v42.34c0,3.729,0.946,6.524,2.84,8.389C18.619,77.591,21.444,78.524,25.202,78.524z"/>
		<path fill="#010101" d="M40.362,27.098L58.91,53.712V32.579c0-1.799-0.478-3.161-1.392-4.091
			c-0.913-0.929-2.256-1.391-4.062-1.391C53.457,27.098,42.526,27.098,40.362,27.098z M33.603,32.977v29.711
			c0,0.796,0.188,1.42,0.567,1.847c0.379,0.429,0.911,0.625,1.563,0.625c0.498,0,0.974-0.158,1.421-0.512
			c0.443-0.354,1.103-1.018,2.045-1.932l6.902-6.618c0.119-0.117,0.194-0.117,0.312,0l6.874,6.618
			c0.979,0.914,1.678,1.579,2.102,1.932c0.114,0.094,0.252,0.075,0.369,0.143L33.603,32.977z M32.438,26.234l2.617-1.846
			L63.997,65.79l-2.619,1.845L32.438,26.234z"/>
	</g>
	<g id="Regular-L" transform="matrix(1.0,0.0,0.0,1.0,1405.6833251953124,1475.3233447265625)">
		<path fill="#717171" d="M25.202,78.524h42.029c3.788,0,6.62-0.932,8.5-2.796c1.879-1.864,2.817-4.66,2.817-8.389v-42.34
			c0-3.729-0.938-6.524-2.817-8.389c-1.88-1.863-4.712-2.796-8.5-2.796H25.202c-3.757,0-6.582,0.933-8.477,2.796
			c-1.894,1.864-2.841,4.66-2.841,8.389v42.34c0,3.729,0.947,6.524,2.841,8.389C18.619,77.591,21.444,78.524,25.202,78.524z"/>
		<path fill="#010101" d="M40.362,27.098L58.91,53.712V32.579c0-1.799-0.478-3.161-1.392-4.091
			c-0.913-0.929-2.257-1.391-4.062-1.391C53.457,27.098,42.526,27.098,40.362,27.098z M33.603,32.977v29.711
			c0,0.796,0.188,1.42,0.567,1.847c0.379,0.429,0.911,0.625,1.563,0.625c0.498,0,0.974-0.158,1.421-0.512
			c0.442-0.354,1.103-1.018,2.045-1.932l6.902-6.618c0.118-0.117,0.194-0.117,0.312,0l6.874,6.618
			c0.979,0.914,1.678,1.579,2.103,1.932c0.113,0.094,0.251,0.075,0.368,0.143L33.603,32.977z M32.438,26.234l2.617-1.846
			L63.997,65.79l-2.619,1.845L32.438,26.234z"/>
	</g>
	<g id="Light-L" transform="matrix(1.0,0.0,0.0,1.0,1108.9733251953126,1475.3233447265625)">
		<path fill="#717171" d="M25.202,78.524h42.029c3.788,0,6.62-0.932,8.5-2.796c1.879-1.864,2.817-4.66,2.817-8.389v-42.34
			c0-3.729-0.938-6.524-2.817-8.389c-1.88-1.863-4.712-2.796-8.5-2.796H25.202c-3.757,0-6.582,0.933-8.477,2.796
			c-1.894,1.864-2.841,4.66-2.841,8.389v42.34c0,3.729,0.947,6.524,2.841,8.389C18.619,77.591,21.444,78.524,25.202,78.524z"/>
		<path fill="#010101" d="M40.362,27.098L58.91,53.712V32.579c0-1.799-0.478-3.161-1.392-4.091
			c-0.913-0.929-2.257-1.391-4.062-1.391C53.457,27.098,42.526,27.098,40.362,27.098z M33.603,32.977v29.711
			c0,0.796,0.188,1.42,0.567,1.847c0.379,0.429,0.911,0.625,1.563,0.625c0.498,0,0.974-0.158,1.421-0.512
			c0.442-0.354,1.103-1.018,2.045-1.932l6.902-6.618c0.118-0.117,0.194-0.117,0.312,0l6.874,6.618
			c0.978,0.914,1.678,1.579,2.102,1.932c0.114,0.094,0.251,0.075,0.369,0.143L33.603,32.977z M32.439,26.234l2.616-1.846
			L63.997,65.79l-2.619,1.845L32.439,26.234z"/>
	</g>
	<g id="Thin-L" transform="matrix(1.0,0.0,0.0,1.0,812.2633251953125,1475.3233447265625)">
		<path fill="#717171" d="M25.202,78.524h42.029c3.788,0,6.62-0.932,8.5-2.796c1.879-1.864,2.817-4.66,2.817-8.389v-42.34
			c0-3.729-0.938-6.524-2.817-8.389c-1.88-1.863-4.712-2.796-8.5-2.796H25.202c-3.757,0-6.582,0.933-8.478,2.796
			c-1.893,1.864-2.84,4.66-2.84,8.389v42.34c0,3.729,0.947,6.524,2.84,8.389C18.619,77.591,21.444,78.524,25.202,78.524z"/>
		<path fill="#010101" d="M40.362,27.098L58.91,53.712V32.579c0-1.799-0.479-3.161-1.392-4.091
			c-0.913-0.929-2.257-1.391-4.062-1.391C53.457,27.098,42.526,27.098,40.362,27.098z M33.603,32.977v29.711
			c0,0.796,0.188,1.42,0.567,1.847c0.379,0.429,0.911,0.625,1.563,0.625c0.498,0,0.974-0.158,1.421-0.512
			c0.442-0.354,1.103-1.018,2.045-1.932l6.901-6.618c0.119-0.117,0.195-0.117,0.313,0l6.874,6.618
			c0.978,0.914,1.678,1.579,2.102,1.932c0.114,0.094,0.251,0.075,0.369,0.143L33.603,32.977z M32.439,26.234l2.616-1.846
			L63.997,65.79l-2.619,1.845L32.439,26.234z"/>
	</g>
	<g id="Ultralight-L" transform="matrix(1.0,0.0,0.0,1.0,515.5533251953125,1475.3233447265625)">
		<path fill="#717171" d="M25.202,78.524h42.029c3.788,0,6.62-0.932,8.5-2.796c1.879-1.864,2.817-4.66,2.817-8.389v-42.34
			c0-3.729-0.938-6.524-2.817-8.389c-1.88-1.863-4.712-2.796-8.5-2.796H25.202c-3.757,0-6.582,0.933-8.477,2.796
			c-1.894,1.864-2.841,4.66-2.841,8.389v42.34c0,3.729,0.947,6.524,2.841,8.389C18.619,77.591,21.444,78.524,25.202,78.524z"/>
		<path fill="#010101" d="M40.362,27.098L58.91,53.712V32.579c0-1.799-0.478-3.161-1.392-4.091
			c-0.913-0.929-2.257-1.391-4.062-1.391C53.457,27.098,42.526,27.098,40.362,27.098z M33.603,32.977v29.711
			c0,0.796,0.188,1.42,0.567,1.847c0.379,0.429,0.911,0.625,1.563,0.625c0.498,0,0.974-0.158,1.421-0.512
			c0.442-0.354,1.103-1.018,2.045-1.932l6.902-6.618c0.118-0.117,0.194-0.117,0.312,0l6.874,6.618
			c0.978,0.914,1.678,1.579,2.102,1.932c0.114,0.094,0.251,0.075,0.369,0.143L33.603,32.977z M32.439,26.234l2.616-1.846
			L63.997,65.79l-2.619,1.845L32.439,26.234z"/>
	</g>
	<g id="Black-M" transform="matrix(1.0,0.0,0.0,1.0,2899.45001953125,1055.5400390625)">
		<path fill="#717171" d="M19.537,60.87h32.58c2.937,0,5.132-0.722,6.589-2.167c1.457-1.444,2.186-3.612,2.186-6.503V19.379
			c0-2.891-0.729-5.058-2.186-6.502c-1.457-1.446-3.652-2.169-6.589-2.169h-32.58c-2.913,0-5.103,0.723-6.571,2.169
			c-1.468,1.444-2.201,3.611-2.201,6.502V52.2c0,2.891,0.733,5.059,2.201,6.503S16.624,60.87,19.537,60.87z"/>
		<path fill="#010101" d="M31.289,21.006l14.378,20.631V25.256c0-1.396-0.371-2.451-1.079-3.171
			c-0.708-0.721-1.749-1.079-3.148-1.079C41.439,21.006,32.966,21.006,31.289,21.006z M26.048,25.564v23.031
			c0,0.618,0.146,1.101,0.441,1.432c0.293,0.332,0.705,0.484,1.211,0.484c0.385,0,0.755-0.123,1.102-0.396
			c0.343-0.273,0.854-0.79,1.584-1.498l5.351-5.13c0.093-0.091,0.151-0.091,0.243,0l5.328,5.13c0.758,0.708,1.3,1.225,1.63,1.498
			c0.088,0.073,0.194,0.059,0.286,0.11L26.048,25.564z M25.146,20.338l2.028-1.432L49.61,50.999l-2.03,1.431L25.146,20.338z"/>
	</g>
	<g id="Heavy-M" transform="matrix(1.0,0.0,0.0,1.0,2602.74001953125,1055.5400390625)">
		<path fill="#717171" d="M19.537,60.87h32.58c2.936,0,5.132-0.722,6.589-2.167c1.457-1.444,2.186-3.612,2.186-6.503V19.379
			c0-2.891-0.729-5.058-2.186-6.502c-1.457-1.446-3.653-2.169-6.589-2.169h-32.58c-2.913,0-5.103,0.723-6.572,2.169
			c-1.467,1.444-2.201,3.611-2.201,6.502V52.2c0,2.891,0.734,5.059,2.201,6.503C14.434,60.148,16.624,60.87,19.537,60.87z"/>
		<path fill="#010101" d="M31.289,21.006l14.378,20.631V25.256c0-1.396-0.371-2.451-1.079-3.171
			c-0.708-0.721-1.748-1.079-3.148-1.079C41.439,21.006,32.967,21.006,31.289,21.006z M26.049,25.564v23.031
			c0,0.618,0.146,1.101,0.44,1.432c0.293,0.332,0.705,0.484,1.211,0.484c0.385,0,0.755-0.123,1.101-0.396
			c0.344-0.273,0.855-0.79,1.586-1.498l5.35-5.13c0.093-0.091,0.152-0.091,0.243,0l5.327,5.13c0.759,0.708,1.301,1.225,1.631,1.498
			c0.088,0.073,0.193,0.059,0.285,0.11L26.049,25.564z M25.146,20.338l2.027-1.432L49.61,50.999l-2.03,1.431L25.146,20.338z"/>
	</g>
	<g id="Bold-M" transform="matrix(1.0,0.0,0.0,1.0,2306.0300195312498,1055.5400390625)">
		<path fill="#717171" d="M19.537,60.87h32.58c2.937,0,5.132-0.722,6.589-2.167c1.457-1.444,2.186-3.612,2.186-6.503V19.379
			c0-2.891-0.729-5.058-2.186-6.502c-1.457-1.446-3.652-2.169-6.589-2.169h-32.58c-2.913,0-5.103,0.723-6.571,2.169
			c-1.468,1.444-2.201,3.611-2.201,6.502V52.2c0,2.891,0.733,5.059,2.201,6.503S16.624,60.87,19.537,60.87z"/>
		<path fill="#010101" d="M31.289,21.006l14.378,20.631V25.256c0-1.396-0.371-2.451-1.079-3.171
			c-0.708-0.721-1.749-1.079-3.148-1.079C41.439,21.006,32.966,21.006,31.289,21.006z M26.048,25.564v23.031
			c0,0.618,0.146,1.101,0.441,1.432c0.293,0.332,0.705,0.484,1.211,0.484c0.385,0,0.755-0.123,1.102-0.396
			c0.343-0.273,0.854-0.79,1.584-1.498l5.351-5.13c0.093-0.091,0.151-0.091,0.243,0l5.328,5.13c0.758,0.708,1.3,1.225,1.63,1.498
			c0.088,0.073,0.194,0.059,0.286,0.11L26.048,25.564z M25.146,20.338l2.028-1.432L49.61,50.999l-2.03,1.431L25.146,20.338z"/>
	</g>
	<g id="Semibold-M" transform="matrix(1.0,0.0,0.0,1.0,2009.32001953125,1055.5400390625)">
		<path fill="#717171" d="M19.537,60.87h32.58c2.936,0,5.132-0.722,6.589-2.167c1.457-1.444,2.186-3.612,2.186-6.503V19.379
			c0-2.891-0.729-5.058-2.186-6.502c-1.457-1.446-3.653-2.169-6.589-2.169h-32.58c-2.913,0-5.103,0.723-6.572,2.169
			c-1.467,1.444-2.2,3.611-2.2,6.502V52.2c0,2.891,0.733,5.059,2.2,6.503C14.434,60.148,16.624,60.87,19.537,60.87z"/>
		<path fill="#010101" d="M31.289,21.006l14.378,20.631V25.256c0-1.396-0.371-2.451-1.079-3.171
			c-0.708-0.721-1.749-1.079-3.148-1.079C41.439,21.006,32.966,21.006,31.289,21.006z M26.048,25.564v23.031
			c0,0.618,0.146,1.101,0.441,1.432c0.293,0.332,0.705,0.484,1.211,0.484c0.385,0,0.755-0.123,1.101-0.396
			c0.344-0.273,0.855-0.79,1.586-1.498l5.35-5.13c0.093-0.091,0.152-0.091,0.243,0l5.328,5.13c0.758,0.708,1.3,1.225,1.63,1.498
			c0.088,0.073,0.193,0.059,0.286,0.11L26.048,25.564z M25.146,20.338l2.027-1.432L49.61,50.999l-2.03,1.431L25.146,20.338z"/>
	</g>
	<g id="Medium-M" transform="matrix(1.0,0.0,0.0,1.0,1712.61001953125,1055.5400390625)">
		<path fill="#717171" d="M19.537,60.87h32.58c2.936,0,5.132-0.722,6.589-2.167c1.457-1.444,2.186-3.612,2.186-6.503V19.379
			c0-2.891-0.729-5.058-2.186-6.502c-1.457-1.446-3.653-2.169-6.589-2.169h-32.58c-2.913,0-5.103,0.723-6.572,2.169
			c-1.467,1.444-2.2,3.611-2.2,6.502V52.2c0,2.891,0.733,5.059,2.2,6.503C14.433,60.148,16.624,60.87,19.537,60.87z"/>
		<path fill="#010101" d="M31.289,21.006l14.378,20.631V25.256c0-1.396-0.371-2.451-1.079-3.171
			c-0.708-0.721-1.749-1.079-3.148-1.079C41.44,21.006,32.966,21.006,31.289,21.006z M26.048,25.564v23.031
			c0,0.618,0.146,1.101,0.441,1.432c0.293,0.332,0.705,0.484,1.211,0.484c0.385,0,0.755-0.123,1.101-0.396
			c0.344-0.273,0.855-0.79,1.585-1.498l5.351-5.13c0.093-0.091,0.151-0.091,0.243,0l5.328,5.13c0.758,0.708,1.3,1.225,1.63,1.498
			c0.088,0.073,0.193,0.059,0.286,0.11L26.048,25.564z M25.147,20.338l2.027-1.432L49.61,50.999l-2.03,1.431L25.147,20.338z"/>
	</g>
	<g id="Regular-M" transform="matrix(1.0,0.0,0.0,1.0,1415.9000195312499,1055.5400390625)">
		<path fill="#717171" d="M19.537,60.87h32.58c2.936,0,5.132-0.722,6.589-2.167c1.457-1.444,2.185-3.612,2.185-6.503V19.379
			c0-2.891-0.728-5.058-2.185-6.502c-1.457-1.446-3.653-2.169-6.589-2.169h-32.58c-2.913,0-5.104,0.723-6.572,2.169
			c-1.467,1.444-2.201,3.611-2.201,6.502V52.2c0,2.891,0.734,5.059,2.201,6.503C14.434,60.148,16.624,60.87,19.537,60.87z"/>
		<path fill="#010101" d="M31.289,21.006l14.378,20.631V25.256c0-1.396-0.371-2.451-1.079-3.171
			c-0.708-0.721-1.749-1.079-3.148-1.079C41.44,21.006,32.966,21.006,31.289,21.006z M26.048,25.564v23.031
			c0,0.618,0.146,1.101,0.441,1.432c0.293,0.332,0.705,0.484,1.211,0.484c0.385,0,0.755-0.123,1.101-0.396
			c0.344-0.273,0.855-0.79,1.585-1.498l5.351-5.13c0.093-0.091,0.152-0.091,0.243,0l5.327,5.13c0.759,0.708,1.301,1.225,1.631,1.498
			c0.088,0.073,0.193,0.059,0.285,0.11L26.048,25.564z M25.147,20.338l2.027-1.432L49.61,50.999l-2.03,1.431L25.147,20.338z"/>
	</g>
	<g id="Light-M" transform="matrix(1.0,0.0,0.0,1.0,1119.19001953125,1055.5400390625)">
		<path fill="#717171" d="M19.537,60.87h32.58c2.936,0,5.132-0.722,6.589-2.167c1.457-1.444,2.186-3.612,2.186-6.503V19.379
			c0-2.891-0.729-5.058-2.186-6.502c-1.457-1.446-3.653-2.169-6.589-2.169h-32.58c-2.913,0-5.103,0.723-6.572,2.169
			c-1.467,1.444-2.201,3.611-2.201,6.502V52.2c0,2.891,0.734,5.059,2.201,6.503C14.433,60.148,16.624,60.87,19.537,60.87z"/>
		<path fill="#010101" d="M31.289,21.006l14.378,20.631V25.256c0-1.396-0.371-2.451-1.079-3.171
			c-0.708-0.721-1.749-1.079-3.148-1.079C41.44,21.006,32.966,21.006,31.289,21.006z M26.048,25.564v23.031
			c0,0.618,0.146,1.101,0.441,1.432c0.293,0.332,0.705,0.484,1.211,0.484c0.385,0,0.755-0.123,1.101-0.396
			c0.344-0.273,0.855-0.79,1.585-1.498l5.351-5.13c0.093-0.091,0.151-0.091,0.243,0l5.328,5.13c0.758,0.708,1.3,1.225,1.63,1.498
			c0.088,0.073,0.193,0.059,0.286,0.11L26.048,25.564z M25.147,20.338l2.027-1.432L49.61,50.999l-2.03,1.431L25.147,20.338z"/>
	</g>
	<g id="Thin-M" transform="matrix(1.0,0.0,0.0,1.0,822.48001953125,1055.5400390625)">
		<path fill="#717171" d="M19.537,60.87h32.58c2.936,0,5.132-0.722,6.589-2.167c1.457-1.444,2.185-3.612,2.185-6.503V19.379
			c0-2.891-0.728-5.058-2.185-6.502c-1.457-1.446-3.653-2.169-6.589-2.169h-32.58c-2.913,0-5.104,0.723-6.572,2.169
			c-1.467,1.444-2.201,3.611-2.201,6.502V52.2c0,2.891,0.734,5.059,2.201,6.503C14.433,60.148,16.624,60.87,19.537,60.87z"/>
		<path fill="#010101" d="M31.289,21.006l14.378,20.631V25.256c0-1.396-0.371-2.451-1.079-3.171
			c-0.708-0.721-1.749-1.079-3.148-1.079C41.44,21.006,32.966,21.006,31.289,21.006z M26.048,25.564v23.031
			c0,0.618,0.146,1.101,0.441,1.432c0.293,0.332,0.705,0.484,1.211,0.484c0.385,0,0.755-0.123,1.101-0.396
			c0.344-0.273,0.855-0.79,1.585-1.498l5.351-5.13c0.093-0.091,0.151-0.091,0.243,0l5.327,5.13c0.759,0.708,1.301,1.225,1.631,1.498
			c0.088,0.073,0.193,0.059,0.285,0.11L26.048,25.564z M25.147,20.338l2.027-1.432l22.437,32.093l-2.03,1.431L25.147,20.338z"/>
	</g>
	<g id="Ultralight-M" transform="matrix(1.0,0.0,0.0,1.0,525.77001953125,1055.5400390625)">
		<path fill="#717171" d="M19.537,60.87h32.58c2.936,0,5.132-0.722,6.589-2.167c1.457-1.444,2.185-3.612,2.185-6.503V19.379
			c0-2.891-0.728-5.058-2.185-6.502c-1.457-1.446-3.653-2.169-6.589-2.169h-32.58c-2.913,0-5.104,0.723-6.572,2.169
			c-1.467,1.444-2.201,3.611-2.201,6.502V52.2c0,2.891,0.734,5.059,2.201,6.503C14.433,60.148,16.624,60.87,19.537,60.87z"/>
		<path fill="#010101" d="M31.289,21.006l14.378,20.631V25.256c0-1.396-0.371-2.451-1.079-3.171
			c-0.708-0.721-1.749-1.079-3.148-1.079C41.44,21.006,32.966,21.006,31.289,21.006z M26.048,25.564v23.031
			c0,0.618,0.146,1.101,0.441,1.432c0.293,0.332,0.705,0.484,1.211,0.484c0.385,0,0.755-0.123,1.101-0.396
			c0.343-0.273,0.855-0.79,1.585-1.498l5.351-5.13c0.093-0.091,0.151-0.091,0.243,0l5.327,5.13c0.759,0.708,1.301,1.225,1.63,1.498
			c0.089,0.073,0.194,0.059,0.286,0.11L26.048,25.564z M25.146,20.338l2.028-1.432l22.437,32.093l-2.03,1.431L25.146,20.338z"/>
	</g>
	<g id="Black-S" transform="matrix(1.0,0.0,0.0,1.0,2907.0949252929686,633.1849448242187)">
		<path fill="#717171" d="M15.297,47.662h25.511c2.299,0,4.019-0.565,5.159-1.697s1.711-2.829,1.711-5.092V15.174
			c0-2.263-0.57-3.96-1.711-5.092c-1.141-1.131-2.86-1.697-5.159-1.697H15.297c-2.281,0-3.995,0.566-5.145,1.697
			c-1.149,1.132-1.725,2.829-1.725,5.092v25.699c0,2.263,0.575,3.96,1.725,5.092C11.301,47.096,13.016,47.662,15.297,47.662z"/>
		<path fill="#010101" d="M24.5,16.448l11.258,16.153V19.774c0-1.092-0.29-1.919-0.845-2.482s-1.369-0.844-2.465-0.844
			C32.448,16.448,25.812,16.448,24.5,16.448z M20.396,20.016V38.05c0,0.483,0.114,0.862,0.345,1.121
			c0.23,0.26,0.553,0.379,0.948,0.379c0.302,0,0.591-0.096,0.862-0.31c0.27-0.216,0.67-0.618,1.241-1.174l4.189-4.017
			c0.072-0.071,0.118-0.071,0.189,0l4.173,4.017c0.593,0.556,1.018,0.96,1.275,1.174c0.068,0.057,0.151,0.045,0.224,0.086
			L20.396,20.016z M19.689,15.924l1.589-1.12l17.566,25.129l-1.589,1.12L19.689,15.924z"/>
	</g>
	<g id="Heavy-S" transform="matrix(1.0,0.0,0.0,1.0,2610.3849252929685,633.1849448242187)">
		<path fill="#717171" d="M15.297,47.662h25.511c2.299,0,4.018-0.565,5.159-1.697c1.141-1.132,1.711-2.829,1.711-5.092V15.174
			c0-2.263-0.57-3.96-1.711-5.092c-1.142-1.131-2.86-1.697-5.159-1.697H15.297c-2.281,0-3.995,0.566-5.146,1.697
			c-1.148,1.132-1.724,2.829-1.724,5.092v25.699c0,2.263,0.575,3.96,1.724,5.092C11.301,47.096,13.016,47.662,15.297,47.662z"/>
		<path fill="#010101" d="M24.5,16.448l11.258,16.153V19.774c0-1.092-0.29-1.919-0.845-2.482s-1.369-0.844-2.466-0.844
			C32.447,16.448,25.812,16.448,24.5,16.448z M20.396,20.016V38.05c0,0.483,0.114,0.862,0.346,1.121
			c0.229,0.26,0.552,0.379,0.947,0.379c0.303,0,0.592-0.096,0.862-0.31c0.269-0.216,0.67-0.618,1.241-1.174l4.189-4.017
			c0.072-0.071,0.118-0.071,0.189,0l4.173,4.017c0.593,0.556,1.019,0.96,1.274,1.174c0.069,0.057,0.152,0.045,0.225,0.086
			L20.396,20.016z M19.689,15.924l1.588-1.12l17.567,25.129l-1.589,1.12L19.689,15.924z"/>
	</g>
	<g id="Bold-S" transform="matrix(1.0,0.0,0.0,1.0,2313.6749252929685,633.1849448242187)">
		<path fill="#717171" d="M15.298,47.662h25.511c2.299,0,4.018-0.565,5.159-1.697c1.141-1.132,1.711-2.829,1.711-5.092V15.174
			c0-2.263-0.57-3.96-1.711-5.092c-1.142-1.131-2.86-1.697-5.159-1.697H15.298c-2.281,0-3.995,0.566-5.146,1.697
			c-1.149,1.132-1.724,2.829-1.724,5.092v25.699c0,2.263,0.574,3.96,1.724,5.092C11.302,47.096,13.016,47.662,15.298,47.662z"/>
		<path fill="#010101" d="M24.499,16.448l11.259,16.153V19.774c0-1.092-0.29-1.919-0.845-2.482s-1.369-0.844-2.466-0.844
			C32.447,16.448,25.812,16.448,24.499,16.448z M20.396,20.016V38.05c0,0.483,0.114,0.862,0.345,1.121
			c0.23,0.26,0.553,0.379,0.948,0.379c0.302,0,0.591-0.096,0.862-0.31c0.269-0.216,0.67-0.618,1.24-1.174l4.19-4.017
			c0.072-0.071,0.118-0.071,0.188,0l4.174,4.017c0.593,0.556,1.018,0.96,1.274,1.174c0.069,0.057,0.152,0.045,0.225,0.086
			L20.396,20.016z M19.689,15.924l1.588-1.12l17.567,25.129l-1.59,1.12L19.689,15.924z"/>
	</g>
	<g id="Semibold-S" transform="matrix(1.0,0.0,0.0,1.0,2016.9649252929687,633.1849448242187)">
		<path fill="#717171" d="M15.297,47.662h25.511c2.299,0,4.018-0.565,5.159-1.697c1.141-1.132,1.711-2.829,1.711-5.092V15.174
			c0-2.263-0.57-3.96-1.711-5.092c-1.142-1.131-2.86-1.697-5.159-1.697H15.297c-2.281,0-3.995,0.566-5.146,1.697
			c-1.148,1.132-1.724,2.829-1.724,5.092v25.699c0,2.263,0.575,3.96,1.724,5.092C11.301,47.096,13.016,47.662,15.297,47.662z"/>
		<path fill="#010101" d="M24.5,16.448l11.258,16.153V19.774c0-1.092-0.29-1.919-0.846-2.482c-0.554-0.563-1.368-0.844-2.465-0.844
			C32.447,16.448,25.812,16.448,24.5,16.448z M20.396,20.016V38.05c0,0.483,0.114,0.862,0.345,1.121
			c0.23,0.26,0.553,0.379,0.948,0.379c0.302,0,0.591-0.096,0.862-0.31c0.269-0.216,0.67-0.618,1.241-1.174l4.189-4.017
			c0.072-0.071,0.118-0.071,0.189,0l4.173,4.017c0.593,0.556,1.018,0.96,1.274,1.174c0.069,0.057,0.152,0.045,0.225,0.086
			L20.396,20.016z M19.689,15.924l1.588-1.12l17.567,25.129l-1.589,1.12L19.689,15.924z"/>
	</g>
	<g id="Medium-S" transform="matrix(1.0,0.0,0.0,1.0,1720.2549252929687,633.1849448242187)">
		<path fill="#717171" d="M15.298,47.662h25.511c2.299,0,4.018-0.565,5.159-1.697c1.141-1.132,1.711-2.829,1.711-5.092V15.174
			c0-2.263-0.57-3.96-1.711-5.092c-1.142-1.131-2.86-1.697-5.159-1.697H15.298c-2.281,0-3.995,0.566-5.146,1.697
			c-1.148,1.132-1.724,2.829-1.724,5.092v25.699c0,2.263,0.575,3.96,1.724,5.092C11.302,47.096,13.016,47.662,15.298,47.662z"/>
		<path fill="#010101" d="M24.499,16.448l11.259,16.153V19.774c0-1.092-0.29-1.919-0.846-2.482
			c-0.554-0.563-1.368-0.844-2.465-0.844C32.447,16.448,25.812,16.448,24.499,16.448z M20.396,20.016V38.05
			c0,0.483,0.114,0.862,0.345,1.121c0.23,0.26,0.553,0.379,0.948,0.379c0.302,0,0.591-0.096,0.862-0.31
			c0.269-0.216,0.67-0.618,1.24-1.174l4.19-4.017c0.072-0.071,0.118-0.071,0.189,0l4.173,4.017c0.593,0.556,1.018,0.96,1.274,1.174
			c0.069,0.057,0.152,0.045,0.225,0.086L20.396,20.016z M19.689,15.924l1.588-1.12l17.567,25.129l-1.589,1.12L19.689,15.924z"/>
	</g>
	<g id="Regular-S" transform="matrix(1.0,0.0,0.0,1.0,1423.5449252929686,633.1849448242187)">
		<path fill="#717171" d="M15.298,47.662h25.511c2.299,0,4.018-0.565,5.159-1.697c1.141-1.132,1.711-2.829,1.711-5.092V15.174
			c0-2.263-0.57-3.96-1.711-5.092c-1.142-1.131-2.86-1.697-5.159-1.697H15.298c-2.281,0-3.995,0.566-5.146,1.697
			c-1.148,1.132-1.724,2.829-1.724,5.092v25.699c0,2.263,0.575,3.96,1.724,5.092C11.302,47.096,13.016,47.662,15.298,47.662z"/>
		<path fill="#010101" d="M24.5,16.448l11.258,16.153V19.774c0-1.092-0.29-1.919-0.846-2.482c-0.554-0.563-1.369-0.844-2.465-0.844
			C32.447,16.448,25.812,16.448,24.5,16.448z M20.396,20.016V38.05c0,0.483,0.114,0.862,0.345,1.121
			c0.23,0.26,0.552,0.379,0.948,0.379c0.302,0,0.591-0.096,0.862-0.31c0.269-0.216,0.67-0.618,1.241-1.174l4.189-4.017
			c0.072-0.071,0.118-0.071,0.189,0l4.173,4.017c0.593,0.556,1.018,0.96,1.274,1.174c0.069,0.057,0.152,0.045,0.225,0.086
			L20.396,20.016z M19.689,15.924l1.588-1.12l17.567,25.129l-1.589,1.12L19.689,15.924z"/>
	</g>
	<g id="Light-S" transform="matrix(1.0,0.0,0.0,1.0,1126.8349252929688,633.1849448242187)">
		<path fill="#717171" d="M15.298,47.662h25.511c2.299,0,4.018-0.565,5.159-1.697c1.141-1.132,1.711-2.829,1.711-5.092V15.174
			c0-2.263-0.57-3.96-1.711-5.092c-1.142-1.131-2.86-1.697-5.159-1.697H15.298c-2.281,0-3.995,0.566-5.146,1.697
			c-1.148,1.132-1.724,2.829-1.724,5.092v25.699c0,2.263,0.575,3.96,1.724,5.092C11.302,47.096,13.016,47.662,15.298,47.662z"/>
		<path fill="#010101" d="M24.499,16.448l11.259,16.153V19.774c0-1.092-0.29-1.919-0.846-2.482
			c-0.554-0.563-1.368-0.844-2.465-0.844C32.447,16.448,25.812,16.448,24.499,16.448z M20.396,20.016V38.05
			c0,0.483,0.114,0.862,0.345,1.121c0.23,0.26,0.553,0.379,0.948,0.379c0.302,0,0.591-0.096,0.862-0.31
			c0.269-0.216,0.67-0.618,1.24-1.174l4.19-4.017c0.072-0.071,0.118-0.071,0.189,0l4.173,4.017c0.593,0.556,1.018,0.96,1.274,1.174
			c0.069,0.057,0.152,0.045,0.225,0.086L20.396,20.016z M19.689,15.924l1.588-1.12l17.567,25.129l-1.589,1.12L19.689,15.924z"/>
	</g>
	<g id="Thin-S" transform="matrix(1.0,0.0,0.0,1.0,830.1249252929688,633.1849448242187)">
		<path fill="#717171" d="M15.298,47.662h25.511c2.299,0,4.018-0.565,5.159-1.697c1.141-1.132,1.711-2.829,1.711-5.092V15.174
			c0-2.263-0.57-3.96-1.711-5.092c-1.142-1.131-2.86-1.697-5.159-1.697H15.298c-2.281,0-3.995,0.566-5.146,1.697
			c-1.148,1.132-1.724,2.829-1.724,5.092v25.699c0,2.263,0.575,3.96,1.724,5.092C11.302,47.096,13.016,47.662,15.298,47.662z"/>
		<path fill="#010101" d="M24.499,16.448l11.259,16.153V19.774c0-1.092-0.29-1.919-0.846-2.482
			c-0.554-0.563-1.369-0.844-2.465-0.844C32.447,16.448,25.812,16.448,24.499,16.448z M20.396,20.016V38.05
			c0,0.483,0.114,0.862,0.345,1.121c0.23,0.26,0.552,0.379,0.948,0.379c0.302,0,0.591-0.096,0.862-0.31
			c0.269-0.216,0.67-0.618,1.24-1.174l4.19-4.017c0.072-0.071,0.118-0.071,0.189,0l4.173,4.017c0.593,0.556,1.018,0.96,1.274,1.174
			c0.069,0.057,0.152,0.045,0.225,0.086L20.396,20.016z M19.689,15.924l1.588-1.12l17.567,25.129l-1.589,1.12L19.689,15.924z"/>
	</g>
	<g id="Ultralight-S" transform="matrix(1.0,0.0,0.0,1.0,533.4149252929687,633.1849448242187)">
		<path fill="#717171" d="M15.298,47.662h25.511c2.299,0,4.018-0.565,5.159-1.697c1.141-1.132,1.711-2.829,1.711-5.092V15.174
			c0-2.263-0.57-3.96-1.711-5.092c-1.142-1.131-2.86-1.697-5.159-1.697H15.298c-2.281,0-3.995,0.566-5.146,1.697
			c-1.149,1.132-1.724,2.829-1.724,5.092v25.699c0,2.263,0.574,3.96,1.724,5.092C11.302,47.096,13.016,47.662,15.298,47.662z"/>
		<path fill="#010101" d="M24.499,16.448l11.259,16.153V19.774c0-1.092-0.29-1.919-0.846-2.482
			c-0.554-0.563-1.369-0.844-2.465-0.844C32.447,16.448,25.812,16.448,24.499,16.448z M20.396,20.016V38.05
			c0,0.483,0.114,0.862,0.345,1.121c0.23,0.26,0.552,0.379,0.948,0.379c0.302,0,0.591-0.096,0.862-0.31
			c0.269-0.216,0.67-0.618,1.24-1.174l4.19-4.017c0.072-0.071,0.118-0.071,0.188,0l4.174,4.017c0.593,0.556,1.018,0.96,1.274,1.174
			c0.069,0.057,0.152,0.045,0.225,0.086L20.396,20.016z M19.689,15.924l1.588-1.12l17.567,25.129l-1.59,1.12L19.689,15.924z"/>
	</g>
</g>
</svg>
