<?xml version="1.0" encoding="utf-8"?>
<!-- Generator: Adobe Illustrator 16.0.0, SVG Export Plug-In . SVG Version: 6.00 Build 0)  -->
<!DOCTYPE svg PUBLIC "-//W3C//DTD SVG 1.1//EN" "http://www.w3.org/Graphics/SVG/1.1/DTD/svg11.dtd" [
	<!ENTITY ns_extend "http://ns.adobe.com/Extensibility/1.0/">
	<!ENTITY ns_ai "http://ns.adobe.com/AdobeIllustrator/10.0/">
	<!ENTITY ns_graphs "http://ns.adobe.com/Graphs/1.0/">
	<!ENTITY ns_vars "http://ns.adobe.com/Variables/1.0/">
	<!ENTITY ns_imrep "http://ns.adobe.com/ImageReplacement/1.0/">
	<!ENTITY ns_sfw "http://ns.adobe.com/SaveForWeb/1.0/">
	<!ENTITY ns_custom "http://ns.adobe.com/GenericCustomNamespace/1.0/">
	<!ENTITY ns_adobe_xpath "http://ns.adobe.com/XPath/1.0/">
]>
<svg version="1.1" id="Layer_1" xmlns:x="&ns_extend;" xmlns:i="&ns_ai;" xmlns:graph="&ns_graphs;"
	 xmlns="http://www.w3.org/2000/svg" xmlns:xlink="http://www.w3.org/1999/xlink" x="0px" y="0px" width="3300px" height="2200px"
	 viewBox="0 0 3300 2200" enable-background="new 0 0 3300 2200" xml:space="preserve">
<metadata>
	<sfw  xmlns="&ns_sfw;">
		<slices></slices>
		<sliceSourceBounds  height="2200" width="3300" x="-1600.5" y="-1049.5" bottomLeftOrigin="true"></sliceSourceBounds>
	</sfw>
</metadata>
<g id="Notes">
	<rect id="artboard" x="0" y="0" fill="#FFFFFF" width="3300" height="2200"/>
	<line fill="none" stroke="#000000" stroke-width="0.5" x1="263" y1="292" x2="3036" y2="292"/>
	<text transform="matrix(1 0 0 1 263.0002 322.0002)" enable-background="new    "><tspan x="0" y="0" font-family="'Arial-BoldMT'" font-size="13">W</tspan><tspan x="12.035" y="0" font-family="'Arial-BoldMT'" font-size="13">eight/Scale </tspan><tspan x="84.284" y="0" font-family="'Arial-BoldMT'" font-size="13">V</tspan><tspan x="92.238" y="0" font-family="'Arial-BoldMT'" font-size="13">ariations</tspan></text>
	<text transform="matrix(1 0 0 1 534.0642 322.0002)" font-family="'ArialMT'" font-size="13">Ultralight</text>
	<text transform="matrix(1 0 0 1 843.7781 322.0002)" font-family="'ArialMT'" font-size="13">Thin</text>
	<text transform="matrix(1 0 0 1 1139.0359 322.0002)" font-family="'ArialMT'" font-size="13">Light</text>
	<text transform="matrix(1 0 0 1 1427.0779 322.0002)" font-family="'ArialMT'" font-size="13">Regular</text>
	<text transform="matrix(1 0 0 1 1723.4412 322.0002)" font-family="'ArialMT'" font-size="13">Medium</text>
	<text transform="matrix(1 0 0 1 2016.1716 322.0002)" font-family="'ArialMT'" font-size="13">Semibold</text>
	<text transform="matrix(1 0 0 1 2326.9705 322.0002)" font-family="'ArialMT'" font-size="13">Bold</text>
	<text transform="matrix(1 0 0 1 2618.2654 322.0002)" font-family="'ArialMT'" font-size="13">Heavy</text>
	<text transform="matrix(1 0 0 1 2917.5056 322.0002)" font-family="'ArialMT'" font-size="13">Black</text>
	<line fill="none" stroke="#000000" stroke-width="0.5" x1="263" y1="1903" x2="3036" y2="1903"/>
	<g transform="matrix(1 0 0 1 263 1933)">
		<path d="M9.248,0.828c1.081,0,2.098-0.203,3.047-0.613c0.951-0.41,1.789-0.979,2.517-1.709c0.726-0.73,1.295-1.569,1.709-2.521
			s0.62-1.963,0.62-3.037c0-1.072-0.207-2.087-0.62-3.037c-0.413-0.948-0.985-1.79-1.714-2.52c-0.729-0.73-1.569-1.299-2.521-1.709
			s-1.966-0.615-3.047-0.615c-1.074,0-2.086,0.205-3.037,0.615s-1.787,0.979-2.51,1.709c-0.725,0.729-1.291,1.568-1.704,2.52
			s-0.62,1.965-0.62,3.037c0,1.074,0.207,2.087,0.62,3.037s0.983,1.79,1.709,2.521C4.422-0.764,5.26-0.195,6.211,0.215
			S8.174,0.828,9.248,0.828z M9.248-0.654c-0.885,0-1.714-0.164-2.483-0.493C5.992-1.476,5.314-1.934,4.731-2.52
			S3.693-3.786,3.364-4.561s-0.493-1.604-0.493-2.49s0.163-1.716,0.488-2.489s0.78-1.454,1.362-2.041
			c0.582-0.586,1.26-1.043,2.029-1.371c0.771-0.329,1.602-0.493,2.485-0.493c0.892,0,1.724,0.164,2.495,0.493
			c0.771,0.328,1.45,0.785,2.036,1.371c0.586,0.587,1.045,1.268,1.377,2.041s0.498,1.604,0.498,2.489
			c0,0.886-0.165,1.716-0.493,2.49s-0.785,1.455-1.367,2.041s-1.261,1.043-2.036,1.372C10.972-0.819,10.14-0.654,9.248-0.654z
			 M5.654-7.052c0,0.215,0.068,0.391,0.205,0.522s0.319,0.2,0.547,0.2h2.109v2.117c0,0.217,0.063,0.395,0.193,0.532
			c0.13,0.14,0.308,0.21,0.527,0.21c0.215,0,0.392-0.068,0.532-0.21c0.14-0.14,0.21-0.315,0.21-0.532V-6.33h2.107
			c0.223,0,0.4-0.066,0.537-0.2c0.139-0.134,0.205-0.31,0.205-0.522c0-0.222-0.066-0.398-0.205-0.537
			c-0.137-0.137-0.314-0.203-0.537-0.203H9.98v-2.109c0-0.223-0.07-0.402-0.21-0.542c-0.142-0.14-0.317-0.21-0.532-0.21
			c-0.221,0-0.397,0.07-0.527,0.21s-0.193,0.319-0.193,0.542v2.109h-2.11c-0.228,0-0.41,0.066-0.547,0.203
			C5.722-7.451,5.654-7.272,5.654-7.052z"/>
	</g>
	<g transform="matrix(1 0 0 1 281.867 1933)">
		<path d="M11.709,2.908c1.36,0,2.642-0.261,3.843-0.779c1.201-0.521,2.263-1.24,3.181-2.158s1.637-1.979,2.158-3.18
			c0.521-1.2,0.779-2.481,0.779-3.844c0-1.359-0.261-2.642-0.779-3.843c-0.521-1.201-1.24-2.261-2.158-3.179
			s-1.979-1.639-3.186-2.158s-2.485-0.781-3.848-0.781s-2.644,0.262-3.843,0.781c-1.201,0.521-2.261,1.24-3.176,2.158
			s-1.633,1.978-2.151,3.179C2.009-9.692,1.748-8.411,1.748-7.052c0,1.36,0.26,2.644,0.781,3.844c0.521,1.2,1.241,2.262,2.159,3.18
			s1.978,1.638,3.179,2.158C9.068,2.649,10.348,2.908,11.709,2.908z M11.709,1.25c-1.152,0-2.229-0.217-3.23-0.646
			c-1.005-0.43-1.885-1.021-2.644-1.782c-0.759-0.758-1.351-1.637-1.777-2.64c-0.426-1.003-0.64-2.08-0.64-3.232
			c0-1.15,0.213-2.229,0.64-3.23c0.428-1.002,1.019-1.887,1.772-2.646c0.755-0.762,1.634-1.354,2.637-1.781
			c1.002-0.428,2.08-0.641,3.232-0.641c1.15,0,2.229,0.213,3.23,0.641c1.004,0.428,1.887,1.021,2.646,1.781
			c0.76,0.762,1.357,1.646,1.787,2.646s0.646,2.08,0.646,3.23c0,1.152-0.215,2.229-0.642,3.232s-1.019,1.883-1.775,2.642
			c-0.76,0.759-1.643,1.354-2.646,1.782S12.862,1.25,11.709,1.25z M7.178-7.052c0,0.234,0.078,0.428,0.234,0.576
			C7.568-6.327,7.771-6.25,8.018-6.25h2.871v2.881c0,0.247,0.075,0.445,0.227,0.601c0.147,0.153,0.342,0.229,0.576,0.229
			c0.247,0,0.445-0.076,0.601-0.229c0.153-0.153,0.229-0.354,0.229-0.601V-6.25h2.881c0.247,0,0.447-0.075,0.601-0.227
			c0.154-0.148,0.229-0.342,0.229-0.576c0-0.247-0.076-0.445-0.229-0.601c-0.151-0.154-0.354-0.229-0.601-0.229h-2.881v-2.869
			c0-0.256-0.077-0.457-0.229-0.61c-0.153-0.153-0.354-0.229-0.601-0.229c-0.234,0-0.429,0.078-0.576,0.234
			c-0.15,0.156-0.227,0.357-0.227,0.605v2.869H8.018c-0.254,0-0.456,0.076-0.608,0.229C7.254-7.498,7.178-7.3,7.178-7.052z"/>
	</g>
	<g transform="matrix(1 0 0 1 305.646 1933)">
		<path d="M14.971,5.662c1.395,0,2.725-0.217,3.989-0.647c1.266-0.433,2.43-1.04,3.491-1.821c1.061-0.781,1.981-1.702,2.768-2.764
			c0.785-1.063,1.396-2.229,1.826-3.496c0.434-1.271,0.65-2.598,0.65-3.984c0-1.394-0.219-2.723-0.65-3.987
			c-0.433-1.269-1.041-2.432-1.826-3.491c-0.784-1.063-1.707-1.984-2.768-2.771c-1.063-0.784-2.229-1.394-3.496-1.825
			c-1.271-0.433-2.604-0.648-3.995-0.648s-2.723,0.217-3.988,0.648c-1.267,0.434-2.429,1.041-3.485,1.825
			c-1.06,0.784-1.979,1.707-2.766,2.771c-0.784,1.062-1.391,2.225-1.818,3.491C2.472-9.772,2.256-8.443,2.256-7.052
			c0,1.389,0.216,2.715,0.648,3.984c0.434,1.27,1.041,2.435,1.82,3.496C5.507,1.49,6.428,2.409,7.49,3.193
			c1.061,0.781,2.225,1.39,3.49,1.821C12.248,5.447,13.578,5.662,14.971,5.662z M14.971,3.848c-1.205,0-2.353-0.186-3.441-0.552
			C10.44,2.928,9.442,2.41,8.537,1.748C7.63,1.084,6.844,0.298,6.176-0.61C5.509-1.519,4.994-2.518,4.629-3.608
			C4.264-4.699,4.083-5.847,4.083-7.052c0-1.211,0.182-2.359,0.547-3.452c0.364-1.091,0.879-2.09,1.543-2.997
			s1.448-1.693,2.354-2.357c0.902-0.664,1.9-1.179,2.991-1.543c1.092-0.364,2.237-0.547,3.441-0.547
			c1.211,0,2.362,0.183,3.452,0.547c1.091,0.364,2.09,0.879,2.998,1.543s1.693,1.45,2.356,2.357
			c0.664,0.907,1.183,1.906,1.551,2.997c0.365,1.093,0.551,2.241,0.551,3.452c0.007,1.204-0.172,2.354-0.537,3.442
			c-0.364,1.091-0.88,2.09-1.547,2.998c-0.668,0.908-1.456,1.692-2.364,2.356s-1.907,1.182-2.997,1.549
			C17.333,3.662,16.182,3.848,14.971,3.848z M9.2-7.052c0,0.254,0.086,0.464,0.258,0.63c0.173,0.166,0.393,0.249,0.66,0.249h3.945
			v3.955c0,0.269,0.08,0.486,0.246,0.659s0.383,0.259,0.643,0.259c0.267,0,0.486-0.085,0.659-0.254
			c0.172-0.169,0.258-0.391,0.258-0.664v-3.955h3.955c0.268,0,0.483-0.083,0.653-0.249c0.171-0.166,0.255-0.376,0.255-0.63
			c0-0.271-0.084-0.495-0.255-0.664c-0.17-0.169-0.388-0.254-0.653-0.254h-3.955v-3.943c0-0.273-0.086-0.496-0.258-0.67
			c-0.173-0.174-0.395-0.26-0.659-0.26c-0.261,0-0.477,0.086-0.643,0.26s-0.246,0.396-0.246,0.67v3.943h-3.945
			c-0.273,0-0.495,0.085-0.664,0.254C9.284-7.548,9.2-7.324,9.2-7.052z"/>
	</g>
	<text transform="matrix(1 0 0 1 263.0002 1953.0002)" enable-background="new    "><tspan x="0" y="0" font-family="'Arial-BoldMT'" font-size="13">Design </tspan><tspan x="46.954" y="0" font-family="'Arial-BoldMT'" font-size="13">V</tspan><tspan x="54.907" y="0" font-family="'Arial-BoldMT'" font-size="13">ariations</tspan></text>
	<text transform="matrix(1 0 0 1 263.0002 1971.0002)" font-family="'ArialMT'" font-size="13">Symbols are supported in up to nine weights and three scales.</text>
	<text transform="matrix(1 0 0 1 263.0002 1989.0002)" font-family="'ArialMT'" font-size="13">For optimal layout with text and other symbols, vertically align</text>
	<text transform="matrix(1 0 0 1 263.0002 2007.0002)" font-family="'ArialMT'" font-size="13">symbols with the adjacent text.</text>
	<line fill="none" stroke="#00AEEF" stroke-width="0.5" x1="776" y1="1919" x2="776" y2="1933"/>
	<g transform="matrix(1 0 0 1 776 1933)">
		<path d="M3.311,0.156c0.261,0,0.462-0.056,0.604-0.166C4.059-0.12,4.177-0.313,4.268-0.588l1.26-3.445h5.762l1.262,3.445
			c0.09,0.273,0.207,0.468,0.35,0.576c0.144,0.11,0.342,0.166,0.596,0.166c0.263,0,0.469-0.07,0.62-0.215
			c0.153-0.144,0.229-0.339,0.229-0.586c0-0.149-0.036-0.325-0.107-0.527l-4.58-12.195c-0.116-0.302-0.274-0.524-0.479-0.674
			c-0.203-0.15-0.459-0.227-0.771-0.227c-0.604,0-1.016,0.296-1.229,0.889L2.598-1.162C2.526-0.962,2.49-0.784,2.49-0.635
			c0,0.247,0.073,0.441,0.222,0.581C2.857,0.086,3.057,0.156,3.311,0.156z M6.008-5.518l2.373-6.572h0.049l2.373,6.572H6.008z"/>
	</g>
	<line fill="none" stroke="#00AEEF" stroke-width="0.5" x1="793.197" y1="1919" x2="793.197" y2="1933"/>
	<text transform="matrix(1 0 0 1 776.0002 1953.0002)" font-family="'Arial-BoldMT'" font-size="13">Margins</text>
	<text transform="matrix(1 0 0 1 776.0002 1971.0002)" font-family="'ArialMT'" font-size="13">Leading and trailing margins on the left and right side of each symbol</text>
	<text transform="matrix(1 0 0 1 776.0002 1989.0002)" font-family="'ArialMT'" font-size="13">can be adjusted by modifying the x-location of the margin guidelines.</text>
	<text transform="matrix(1 0 0 1 776.0002 2007.0002)" font-family="'ArialMT'" font-size="13">Modifications are automatically applied proportionally to all</text>
	<text transform="matrix(1 0 0 1 776.0002 2025.0002)" font-family="'ArialMT'" font-size="13">scales and weights.</text>
	<g transform="matrix(1 0 0 1 1289 1933)">
		<path d="M2.844,1.865l1.697,1.709c0.432,0.438,0.886,0.64,1.362,0.605c0.479-0.033,0.949-0.306,1.411-0.82L18.01-8.428
			l-0.969-0.977L6.427,2.275C6.25,2.478,6.072,2.591,5.894,2.615c-0.178,0.026-0.386-0.078-0.62-0.313l-1.172-1.16
			c-0.234-0.234-0.337-0.441-0.308-0.62c0.027-0.179,0.144-0.36,0.347-0.543l11.474-10.8l-0.977-0.967L3.049-0.898
			C2.552-0.442,2.287,0.023,2.252,0.498C2.217,0.973,2.412,1.429,2.844,1.865z M9.26-16.328c-0.208,0.201-0.325,0.433-0.354,0.691
			c-0.025,0.262,0.021,0.488,0.137,0.686c0.117,0.183,0.289,0.317,0.515,0.41c0.225,0.091,0.5,0.098,0.825,0.02
			c0.729-0.169,1.468-0.239,2.217-0.21s1.479,0.278,2.197,0.747l-0.588,1.455c-0.168,0.417-0.217,0.779-0.142,1.089
			s0.246,0.601,0.513,0.874l2.295,2.314c0.241,0.245,0.478,0.391,0.703,0.43c0.229,0.039,0.481,0.031,0.764-0.021l1.063-0.193
			l0.664,0.674l-0.039,0.557c-0.02,0.247,0.012,0.478,0.093,0.686s0.242,0.433,0.483,0.674l0.762,0.74
			c0.241,0.241,0.503,0.366,0.786,0.378c0.283,0.01,0.542-0.104,0.776-0.339l2.91-2.92c0.232-0.232,0.349-0.488,0.342-0.767
			s-0.13-0.535-0.371-0.776l-0.771-0.762c-0.232-0.241-0.453-0.405-0.657-0.493c-0.205-0.088-0.43-0.122-0.671-0.103l-0.574,0.049
			l-0.646-0.635l0.244-1.123c0.065-0.28,0.052-0.542-0.039-0.786s-0.283-0.513-0.576-0.806l-2.195-2.188
			c-0.833-0.827-1.723-1.447-2.661-1.86c-0.94-0.412-1.89-0.628-2.842-0.645c-0.954-0.018-1.872,0.158-2.755,0.521
			C10.783-17.596,9.98-17.052,9.26-16.328z M10.752-15.957c0.605-0.442,1.257-0.761,1.948-0.947
			c0.693-0.188,1.396-0.249,2.104-0.182c0.709,0.067,1.396,0.26,2.063,0.57c0.667,0.313,1.277,0.749,1.831,1.311l2.434,2.412
			c0.117,0.115,0.188,0.229,0.22,0.342c0.03,0.109,0.024,0.251-0.015,0.42l-0.322,1.482l1.504,1.484l0.986-0.059
			c0.124-0.009,0.218,0.002,0.281,0.022c0.065,0.022,0.146,0.083,0.244,0.181l0.576,0.576L22.168-5.9l-0.575-0.576
			c-0.1-0.098-0.159-0.179-0.188-0.244c-0.025-0.063-0.036-0.163-0.028-0.293l0.067-0.977L19.95-9.474L18.427-9.22
			c-0.163,0.032-0.291,0.037-0.387,0.017c-0.096-0.022-0.202-0.095-0.326-0.212l-2.002-2.002c-0.131-0.115-0.203-0.229-0.222-0.337
			c-0.017-0.106,0.017-0.252,0.095-0.435l0.879-2.09c-0.781-0.729-1.66-1.233-2.639-1.514c-0.977-0.281-1.973-0.271-2.986,0.027
			c-0.078,0.021-0.129,0.005-0.151-0.044S10.687-15.905,10.752-15.957z"/>
	</g>
	<text transform="matrix(1 0 0 1 1289.0007 1953.0002)" font-family="'Arial-BoldMT'" font-size="13">Exporting</text>
	<text transform="matrix(1 0 0 1 1289.0007 1971.0002)" font-family="'ArialMT'" font-size="13">Symbols should be outlined when exporting to ensure the</text>
	<text transform="matrix(1 0 0 1 1289.0007 1989.0002)" font-family="'ArialMT'" font-size="13">design is preserved when submitting to Xcode.</text>
	<text id="template-version" transform="matrix(1 0 0 1 2952.4197 1933.0002)" enable-background="new    "><tspan x="0" y="0" font-family="'ArialMT'" font-size="13" letter-spacing="-1">T</tspan><tspan x="6.5" y="0" font-family="'ArialMT'" font-size="13">emplate </tspan><tspan x="56.361" y="0" font-family="'ArialMT'" font-size="13">v</tspan><tspan x="61.896" y="0" font-family="'ArialMT'" font-size="13">.3.0</tspan></text>
	<text transform="matrix(1 0 0 1 2865.4568 1951.0002)" font-family="'ArialMT'" font-size="13">Requires Xcode 13 or greater</text>
	<text id="descriptive-name" transform="matrix(1 0 0 1 2762.1677 1969.0002)" enable-background="new    "><tspan x="0" y="0" font-family="'ArialMT'" font-size="13">Generated from arro</tspan><tspan x="117.774" y="0" font-family="'ArialMT'" font-size="13">w</tspan><tspan x="126.445" y="0" font-family="'ArialMT'" font-size="13">.backward.to.line.circle.fill</tspan></text>
	<text transform="matrix(1 0 0 1 2912.4177 1987.0002)" enable-background="new    "><tspan x="0" y="0" font-family="'ArialMT'" font-size="13">T</tspan><tspan x="7.224" y="0" font-family="'ArialMT'" font-size="13">ypeset at 100 points</tspan></text>
	<text transform="matrix(1 0 0 1 263.0002 725.9998)" font-family="'ArialMT'" font-size="13">Small</text>
	<text transform="matrix(1 0 0 1 263.0002 1156.0002)" font-family="'ArialMT'" font-size="13">Medium</text>
	<text transform="matrix(1 0 0 1 263.0002 1586.0002)" font-family="'ArialMT'" font-size="13">Large</text>
</g>
<g id="Guides">
	<g id="H-reference" transform="matrix(1 0 0 1 339 696)">
		<path fill="#27AAE1" d="M0.993,0h2.646l25.688-67.135h0.702v-3.326h-1.907L0.993,0z M11.688-24.479h35.293l-0.75-2.249H12.438
			L11.688-24.479z M55.119,0h2.646L30.638-70.461h-1.205v3.326L55.119,0z"/>
	</g>
	<line id="Baseline-S" fill="none" stroke="#27AAE1" stroke-width="0.5" x1="263" y1="696" x2="3036" y2="696"/>
	<line id="Capline-S" fill="none" stroke="#27AAE1" stroke-width="0.5" x1="263" y1="625.541" x2="3036" y2="625.541"/>
	<g id="H-reference_1_" transform="matrix(1 0 0 1 339 1126)">
		<path fill="#27AAE1" d="M0.993,0h2.646l25.688-67.135h0.702v-3.324h-1.907L0.993,0z M11.688-24.479h35.293l-0.75-2.249H12.438
			L11.688-24.479z M55.119,0h2.646L30.638-70.459h-1.205v3.324L55.119,0z"/>
	</g>
	<line id="Baseline-M" fill="none" stroke="#27AAE1" stroke-width="0.5" x1="263" y1="1126" x2="3036" y2="1126"/>
	<line id="Capline-M" fill="none" stroke="#27AAE1" stroke-width="0.5" x1="263" y1="1055.538" x2="3036" y2="1055.538"/>
	<g id="H-reference_2_" transform="matrix(1 0 0 1 339 1556)">
		<path fill="#27AAE1" d="M0.993,0h2.646l25.688-67.135h0.702v-3.324h-1.907L0.993,0z M11.688-24.479h35.293l-0.75-2.249H12.438
			L11.688-24.479z M55.119,0h2.646L30.638-70.459h-1.205v3.324L55.119,0z"/>
	</g>
	<line id="Baseline-L" fill="none" stroke="#27AAE1" stroke-width="0.5" x1="263" y1="1556" x2="3036" y2="1556"/>
	<line id="Capline-L" fill="none" stroke="#27AAE1" stroke-width="0.5" x1="263" y1="1485.538" x2="3036" y2="1485.538"/>
	
		<line id="left-margin-Ultralight-S" fill="none" stroke="#00AEEF" stroke-width="0.5" x1="515.649" y1="600.783" x2="515.649" y2="720.119"/>
	
		<line id="right-margin-Ultralight-S" fill="none" stroke="#00AEEF" stroke-width="0.5" x1="603.773" y1="600.783" x2="603.773" y2="720.119"/>
	
		<line id="left-margin-Regular-S" fill="none" stroke="#00AEEF" stroke-width="0.5" x1="1403.58" y1="600.783" x2="1403.58" y2="720.119"/>
	
		<line id="right-margin-Regular-S" fill="none" stroke="#00AEEF" stroke-width="0.5" x1="1496.11" y1="600.783" x2="1496.11" y2="720.119"/>
	
		<line id="left-margin-Black-S" fill="none" stroke="#00AEEF" stroke-width="0.5" x1="2884.57" y1="600.783" x2="2884.57" y2="720.119"/>
	
		<line id="right-margin-Black-S" fill="none" stroke="#00AEEF" stroke-width="0.5" x1="2982.23" y1="600.783" x2="2982.23" y2="720.119"/>
</g>
<g id="Symbols">
	<g id="Black-S" transform="matrix(1 0 0 1 2884.57 696)">
		<path fill="#8E8E8E" d="M27.256,2.098h45.49c4.752,0,8.463-1.333,11.129-4c2.668-2.667,4.002-6.377,4.002-11.131v-45.489
			c0-4.753-1.334-8.463-4.002-11.13c-2.666-2.667-6.377-4-11.129-4h-45.49c-4.754,0-8.463,1.333-11.131,4
			c-2.666,2.667-4.012,6.377-4.012,11.13v45.489c0,4.753,1.346,8.464,4.012,11.131C18.793,0.765,22.502,2.098,27.256,2.098z"/>
		<path fill="#010101" d="M64.89-26.15l-20.41-29.28c2.391,0,14.41,0,14.41,0c1.99,0,3.47,0.51,4.47,1.53
			c1.011,1.02,1.53,2.52,1.53,4.5V-26.15z"/>
		<path fill="#010101" d="M37.05-48.96l24.37,35c-0.13-0.08-0.28-0.06-0.4-0.16c-0.47-0.39-1.24-1.12-2.31-2.12l-7.57-7.29
			c-0.13-0.12-0.21-0.12-0.34,0l-7.601,7.29c-1.029,1-1.76,1.73-2.25,2.12c-0.489,0.39-1.01,0.56-1.56,0.56
			c-0.72,0-1.3-0.21-1.72-0.68c-0.42-0.47-0.62-1.16-0.62-2.04V-48.96z"/>
		<polygon fill="#010101" points="69.68,-15.03 65.859,-12.36 35.319,-56.06 39.13,-58.73 		"/>
	</g>
	<g id="Regular-S" transform="matrix(1 0 0 1 1403.58 696)">
		<path fill="#8E8E8E" d="M23.891,0.028h45.928c4.132,0,7.229-1.019,9.286-3.057c2.057-2.035,3.078-5.092,3.078-9.165v-46.268
			c0-4.073-1.021-7.13-3.078-9.167c-2.057-2.033-5.154-3.054-9.286-3.054H23.891c-4.111,0-7.2,1.021-9.27,3.054
			c-2.063,2.038-3.098,5.094-3.098,9.167v46.269c0,4.073,1.033,7.13,3.098,9.165C16.691-0.991,19.78,0.028,23.891,0.028z"/>
		<path fill="#010101" d="M61.37-25.8L40.96-55.08c2.38,0,14.41,0,14.41,0c1.99,0,3.46,0.51,4.47,1.53c1,1.02,1.53,2.52,1.53,4.5
			V-25.8z"/>
		<path fill="#010101" d="M33.53-48.61l24.37,35c-0.13-0.08-0.28-0.05-0.4-0.16c-0.47-0.39-1.24-1.12-2.32-2.12l-7.56-7.28
			c-0.13-0.13-0.21-0.13-0.34,0l-7.6,7.28c-1.03,1-1.76,1.73-2.25,2.12c-0.49,0.39-1.01,0.56-1.56,0.56c-0.72,0-1.3-0.21-1.72-0.68
			c-0.42-0.47-0.62-1.16-0.62-2.03V-48.61z"/>
		
			<rect x="46.644" y="-61.855" transform="matrix(0.8196 -0.5729 0.5729 0.8196 28.9979 21.7098)" fill="#010101" width="4.661" height="53.32"/>
	</g>
	<g id="Ultralight-S" transform="matrix(1 0 0 1 515.649 696)">
		<path fill="#8E8E8E" d="M20.403-1.987h46.85c3.269,0,5.737-0.858,7.42-2.57c1.683-1.716,2.522-4.173,2.522-7.372v-46.896
			c0-3.199-0.841-5.648-2.522-7.35c-1.683-1.694-4.151-2.546-7.42-2.546h-46.85c-3.266,0-5.737,0.842-7.417,2.522
			c-1.685,1.683-2.522,4.14-2.522,7.372v46.896c0,3.266,0.839,5.74,2.522,7.42C14.664-2.829,17.137-1.987,20.403-1.987z"/>
		<path fill="#010101" d="M29.331-49.57l24.38,35c-0.13-0.08-0.28-0.05-0.41-0.16c-0.47-0.39-1.24-1.12-2.31-2.12l-7.56-7.28
			c-0.13-0.13-0.22-0.13-0.35,0l-7.59,7.28c-1.04,1-1.76,1.73-2.25,2.12c-0.49,0.39-1.02,0.57-1.57,0.57c-0.71,0-1.3-0.22-1.71-0.69
			c-0.42-0.47-0.63-1.16-0.63-2.03V-49.57z"/>
		<polygon fill="#010101" points="60.971,-14.95 59.231,-13.73 28.681,-57.43 30.431,-58.65 		"/>
		<path fill="#010101" d="M57.171-26.76l-20.4-29.28c2.38,0,14.4,0,14.4,0c1.99,0,3.47,0.51,4.47,1.53c1.01,1.02,1.53,2.52,1.53,4.5
			V-26.76z"/>
	</g>
</g>
</svg>
