<?xml version="1.0" encoding="utf-8"?>
<!-- Generator: Adobe Illustrator 16.0.0, SVG Export Plug-In . SVG Version: 6.00 Build 0)  -->
<!DOCTYPE svg PUBLIC "-//W3C//DTD SVG 1.1//EN" "http://www.w3.org/Graphics/SVG/1.1/DTD/svg11.dtd" [
	<!ENTITY ns_extend "http://ns.adobe.com/Extensibility/1.0/">
	<!ENTITY ns_ai "http://ns.adobe.com/AdobeIllustrator/10.0/">
	<!ENTITY ns_graphs "http://ns.adobe.com/Graphs/1.0/">
	<!ENTITY ns_vars "http://ns.adobe.com/Variables/1.0/">
	<!ENTITY ns_imrep "http://ns.adobe.com/ImageReplacement/1.0/">
	<!ENTITY ns_sfw "http://ns.adobe.com/SaveForWeb/1.0/">
	<!ENTITY ns_custom "http://ns.adobe.com/GenericCustomNamespace/1.0/">
	<!ENTITY ns_adobe_xpath "http://ns.adobe.com/XPath/1.0/">
]>
<svg version="1.1" id="Layer_1" xmlns:x="&ns_extend;" xmlns:i="&ns_ai;" xmlns:graph="&ns_graphs;"
	 xmlns="http://www.w3.org/2000/svg" xmlns:xlink="http://www.w3.org/1999/xlink" x="0px" y="0px" width="100px" height="100px"
	 viewBox="0 0 100 100" enable-background="new 0 0 100 100" xml:space="preserve">
<metadata>
	<sfw  xmlns="&ns_sfw;">
		<slices></slices>
		<sliceSourceBounds  width="100" height="66.667" y="17.166" x="-0.5" bottomLeftOrigin="true"></sliceSourceBounds>
	</sfw>
</metadata>
<g id="Notes">
	<rect id="artboard" y="16.667" fill="#FFFFFF" width="100" height="66.667"/>
	<line fill="none" stroke="#000000" stroke-width="0.5" x1="7.97" y1="25.515" x2="92" y2="25.515"/>
	<text transform="matrix(1 0 0 1 7.9697 26.4243)" font-family="'Arial-BoldMT'" font-size="0.3939">Weight/Scale Variations</text>
	<text transform="matrix(1 0 0 1 16.1836 26.4243)" font-family="'ArialMT'" font-size="0.3939">Ultralight</text>
	<text transform="matrix(1 0 0 1 25.5688 26.4243)" font-family="'ArialMT'" font-size="0.3939">Thin</text>
	<text transform="matrix(1 0 0 1 34.5161 26.4243)" font-family="'ArialMT'" font-size="0.3939">Light</text>
	<text transform="matrix(1 0 0 1 43.2446 26.4243)" font-family="'ArialMT'" font-size="0.3939">Regular</text>
	<text transform="matrix(1 0 0 1 52.2246 26.4243)" font-family="'ArialMT'" font-size="0.3939">Medium</text>
	<text transform="matrix(1 0 0 1 61.0957 26.4243)" font-family="'ArialMT'" font-size="0.3939">Semibold</text>
	<text transform="matrix(1 0 0 1 70.5137 26.4243)" font-family="'ArialMT'" font-size="0.3939">Bold</text>
	<text transform="matrix(1 0 0 1 79.3418 26.4243)" font-family="'ArialMT'" font-size="0.3939">Heavy</text>
	<text transform="matrix(1 0 0 1 88.4092 26.4243)" font-family="'ArialMT'" font-size="0.3939">Black</text>
	<line fill="none" stroke="#000000" stroke-width="0.5" x1="7.97" y1="74.334" x2="92" y2="74.334"/>
	<g transform="matrix(1 0 0 1 263 1933)">
		<path d="M-254.751-1857.733c0.033,0,0.063-0.006,0.091-0.019c0.03-0.012,0.055-0.029,0.076-0.051
			c0.021-0.021,0.04-0.049,0.052-0.076s0.018-0.061,0.018-0.091c0-0.033-0.006-0.063-0.018-0.091s-0.03-0.055-0.052-0.076
			c-0.021-0.021-0.048-0.039-0.076-0.051c-0.027-0.013-0.061-0.019-0.091-0.019c-0.033,0-0.063,0.006-0.091,0.019
			c-0.027,0.012-0.055,0.029-0.076,0.051c-0.021,0.019-0.04,0.046-0.052,0.073s-0.018,0.061-0.018,0.091
			c0,0.033,0.006,0.063,0.018,0.094s0.03,0.055,0.052,0.076c0.021,0.021,0.048,0.039,0.076,0.051
			C-254.815-1857.739-254.782-1857.733-254.751-1857.733z M-254.751-1857.779c-0.027,0-0.052-0.006-0.076-0.015
			c-0.021-0.009-0.042-0.021-0.061-0.04c-0.019-0.018-0.03-0.039-0.042-0.061c-0.012-0.021-0.012-0.051-0.012-0.078
			s0.003-0.052,0.015-0.072c0.009-0.025,0.024-0.046,0.042-0.061c0.018-0.016,0.04-0.031,0.061-0.043
			c0.024-0.01,0.048-0.016,0.076-0.016s0.052,0.006,0.076,0.016c0.024,0.01,0.042,0.024,0.061,0.043
			c0.019,0.018,0.03,0.039,0.042,0.061c0.009,0.023,0.015,0.048,0.015,0.075s-0.006,0.052-0.015,0.075
			c-0.009,0.025-0.024,0.046-0.042,0.061c-0.018,0.016-0.039,0.031-0.061,0.043
			C-254.697-1857.781-254.724-1857.779-254.751-1857.779z M-254.857-1857.973c0,0.006,0.003,0.012,0.006,0.016
			c0.003,0.002,0.009,0.006,0.015,0.006h0.063v0.063c0,0.006,0.003,0.012,0.006,0.015c0.003,0.01,0.009,0.01,0.015,0.01
			c0.006,0,0.012-0.004,0.015-0.006c0.006-0.004,0.009-0.01,0.009-0.016v-0.064h0.063c0.006,0,0.012-0.002,0.015-0.006
			c0.003-0.002,0.006-0.008,0.006-0.015c0-0.006-0.003-0.013-0.006-0.015c-0.003-0.004-0.009-0.006-0.015-0.006h-0.063v-0.064
			c0-0.006-0.003-0.012-0.006-0.016c-0.003-0.002-0.009-0.006-0.015-0.006s-0.012,0.004-0.015,0.006
			c-0.003,0.004-0.006,0.01-0.006,0.016v0.064h-0.067c-0.006-0.004-0.012,0-0.015,0.002
			C-254.857-1857.984-254.857-1857.979-254.857-1857.973z"/>
	</g>
	<g transform="matrix(1 0 0 1 281.867 1933)">
		<path d="M-272.971-1857.67c0.042,0,0.079-0.009,0.115-0.023c0.036-0.016,0.07-0.037,0.097-0.067
			c0.027-0.03,0.049-0.061,0.067-0.097c0.015-0.037,0.024-0.076,0.024-0.115c0-0.043-0.009-0.078-0.024-0.115
			c-0.015-0.036-0.037-0.07-0.067-0.098c-0.03-0.026-0.061-0.048-0.097-0.066c-0.037-0.018-0.073-0.021-0.115-0.021
			s-0.079,0.01-0.115,0.025c-0.036,0.015-0.07,0.036-0.097,0.066c-0.027,0.03-0.049,0.061-0.067,0.097
			c-0.015,0.034-0.024,0.073-0.024,0.112c0,0.043,0.009,0.078,0.024,0.115c0.018,0.039,0.04,0.072,0.067,0.1
			c0.027,0.027,0.061,0.049,0.097,0.066C-273.05-1857.673-273.013-1857.67-272.971-1857.67z M-272.971-1857.721
			c-0.037,0-0.067-0.006-0.097-0.019s-0.058-0.03-0.079-0.055c-0.024-0.021-0.042-0.048-0.055-0.079
			c-0.012-0.029-0.021-0.063-0.021-0.1c0-0.037,0.006-0.066,0.018-0.098c0.012-0.029,0.03-0.057,0.055-0.078
			c0.024-0.024,0.048-0.043,0.079-0.055s0.063-0.018,0.097-0.018c0.036,0,0.066,0.006,0.097,0.018s0.058,0.03,0.079,0.055
			c0.021,0.024,0.042,0.049,0.054,0.078c0.012,0.031,0.024,0.064,0.024,0.098c0,0.036-0.006,0.066-0.018,0.097
			s-0.03,0.058-0.055,0.079c-0.024,0.023-0.048,0.043-0.079,0.055S-272.935-1857.721-272.971-1857.721z M-273.107-1857.973
			c0,0.006,0.003,0.012,0.006,0.018s0.012,0.01,0.018,0.01h0.088v0.088c0,0.006,0.003,0.012,0.006,0.018
			c0.003,0.006,0.009,0.006,0.018,0.006c0.006,0,0.012-0.002,0.018-0.006c0.006-0.006,0.006-0.012,0.006-0.018v-0.088h0.088
			c0.006,0,0.012-0.004,0.018-0.006c0.006-0.004,0.006-0.01,0.006-0.019c0-0.006-0.003-0.013-0.006-0.019
			c-0.006-0.006-0.012-0.006-0.018-0.006h-0.088v-0.088c0-0.009-0.003-0.016-0.006-0.018c-0.006-0.006-0.012-0.006-0.018-0.006
			s-0.012,0.002-0.018,0.006c-0.003,0.006-0.006,0.012-0.006,0.018v0.088h-0.088c-0.009,0-0.015,0.004-0.018,0.006
			C-273.104-1857.984-273.107-1857.979-273.107-1857.973z"/>
	</g>
	<g transform="matrix(1 0 0 1 305.646 1933)">
		<path d="M-295.93-1857.585c0.042,0,0.082-0.006,0.122-0.019c0.039-0.012,0.073-0.029,0.106-0.055
			c0.033-0.023,0.061-0.051,0.085-0.084c0.021-0.033,0.039-0.07,0.051-0.109s0.018-0.078,0.018-0.121s-0.006-0.082-0.018-0.121
			s-0.03-0.072-0.054-0.106c-0.024-0.033-0.052-0.061-0.085-0.085c-0.034-0.023-0.067-0.042-0.106-0.055
			c-0.039-0.012-0.079-0.018-0.121-0.018s-0.082,0.006-0.121,0.018c-0.04,0.013-0.073,0.031-0.106,0.055
			c-0.033,0.024-0.061,0.052-0.085,0.085c-0.024,0.034-0.042,0.067-0.055,0.106s-0.018,0.078-0.018,0.121s0.006,0.082,0.018,0.121
			s0.03,0.072,0.055,0.105c0.024,0.034,0.052,0.061,0.085,0.086c0.036,0.023,0.07,0.042,0.109,0.055
			C-296.014-1857.594-295.972-1857.585-295.93-1857.585z M-295.93-1857.643c-0.036,0-0.072-0.006-0.103-0.018
			c-0.033-0.013-0.063-0.027-0.091-0.046c-0.03-0.019-0.054-0.042-0.073-0.069c-0.021-0.027-0.036-0.059-0.048-0.092
			c-0.009-0.033-0.015-0.066-0.015-0.105c0-0.037,0.006-0.072,0.015-0.105c0.012-0.034,0.027-0.064,0.045-0.092
			c0.021-0.027,0.042-0.051,0.073-0.072c0.027-0.021,0.058-0.037,0.091-0.046c0.034-0.009,0.067-0.015,0.103-0.015
			c0.037,0,0.073,0.006,0.106,0.015c0.034,0.013,0.064,0.027,0.091,0.046c0.027,0.018,0.051,0.042,0.073,0.072
			c0.021,0.027,0.036,0.058,0.045,0.092c0.012,0.033,0.018,0.066,0.018,0.105c0,0.036-0.006,0.072-0.015,0.104
			c-0.012,0.033-0.027,0.063-0.045,0.09c-0.021,0.027-0.045,0.053-0.073,0.073s-0.058,0.036-0.091,0.046
			C-295.86-1857.646-295.893-1857.643-295.93-1857.643z M-296.105-1857.973c0,0.01,0.003,0.016,0.009,0.018
			c0.006,0.006,0.012,0.006,0.021,0.006h0.118v0.122c0,0.009,0.003,0.015,0.006,0.021c0.003,0.007,0.012,0.01,0.018,0.01
			c0.009,0,0.015-0.003,0.021-0.01c0.006-0.006,0.009-0.012,0.009-0.021v-0.122h0.122c0.009,0,0.015-0.002,0.021-0.006
			c0.006-0.002,0.009-0.012,0.009-0.018c0-0.01-0.003-0.016-0.009-0.021s-0.015-0.006-0.024-0.006h-0.121v-0.118
			c0-0.009-0.003-0.015-0.009-0.021c-0.006-0.007-0.012-0.01-0.021-0.01s-0.015,0.003-0.018,0.01
			c-0.006,0.006-0.006,0.012-0.006,0.021v0.118h-0.118c-0.009,0-0.015,0.003-0.018,0.01
			C-296.102-1857.984-296.105-1857.979-296.105-1857.973z"/>
	</g>
	<text transform="matrix(1 0 0 1 7.9697 75.8486)" font-family="'Arial-BoldMT'" font-size="0.3939">Design Variations</text>
	<text transform="matrix(1 0 0 1 7.9697 76.3945)" font-family="'ArialMT'" font-size="0.3939">Symbols are supported in up to nine weights and three scales.</text>
	<text transform="matrix(1 0 0 1 7.9697 76.9395)" font-family="'ArialMT'" font-size="0.3939">For optimal layout with text and other symbols, vertically align</text>
	<text transform="matrix(1 0 0 1 7.9697 77.4844)" font-family="'ArialMT'" font-size="0.3939">symbols with the adjacent text.</text>
	<line fill="none" stroke="#00AEEF" stroke-width="0.5" x1="23.515" y1="74.818" x2="23.515" y2="75.242"/>
	<g transform="matrix(1 0 0 1 776 1933)">
		<path d="M-752.385-1857.752c0.009,0,0.015-0.002,0.018-0.006c0.003-0.003,0.009-0.009,0.012-0.018l0.036-0.104h0.176l0.04,0.104
			c0.003,0.009,0.006,0.015,0.012,0.018c0.003,0.004,0.009,0.006,0.018,0.006s0.015-0.002,0.018-0.006
			c0.006-0.003,0.006-0.009,0.006-0.018c0-0.004,0-0.01-0.003-0.016l-0.14-0.373c-0.003-0.009-0.009-0.015-0.015-0.021
			c-0.006-0.002-0.015-0.006-0.024-0.006c-0.018,0-0.03,0.01-0.036,0.027l-0.14,0.37c-0.003,0.006-0.003,0.013-0.003,0.019
			s0.003,0.012,0.006,0.018C-752.397-1857.754-752.391-1857.752-752.385-1857.752z M-752.303-1857.924l0.073-0.2l0,0l0.073,0.2
			H-752.303z"/>
	</g>
	<line fill="none" stroke="#00AEEF" stroke-width="0.5" x1="24.036" y1="74.818" x2="24.036" y2="75.242"/>
	<text transform="matrix(1 0 0 1 23.5151 75.8486)" font-family="'Arial-BoldMT'" font-size="0.3939">Margins</text>
	<text transform="matrix(1 0 0 1 23.5151 76.3945)" font-family="'ArialMT'" font-size="0.3939">Leading and trailing margins on the left and right side of each symbol</text>
	<text transform="matrix(1 0 0 1 23.5151 76.9395)" font-family="'ArialMT'" font-size="0.3939">can be adjusted by modifying the x-location of the margin guidelines.</text>
	<text transform="matrix(1 0 0 1 23.5151 77.4844)" font-family="'ArialMT'" font-size="0.3939">Modifications are automatically applied proportionally to all</text>
	<text transform="matrix(1 0 0 1 23.5151 78.0313)" font-family="'ArialMT'" font-size="0.3939">scales and weights.</text>
	<g transform="matrix(1 0 0 1 1289 1933)">
		<path d="M-1249.854-1857.7l0.051,0.052c0.015,0.012,0.027,0.018,0.042,0.018s0.027-0.008,0.042-0.023l0.324-0.357l-0.03-0.031
			l-0.321,0.355c-0.006,0.006-0.009,0.009-0.015,0.009c-0.006,0-0.012-0.003-0.018-0.009l-0.036-0.037
			c-0.006-0.006-0.009-0.012-0.009-0.018s0.003-0.012,0.009-0.016l0.348-0.327l-0.03-0.03l-0.352,0.33
			c-0.012,0.016-0.021,0.027-0.021,0.043C-1249.873-1857.727-1249.867-1857.715-1249.854-1857.7z M-1249.658-1858.252
			c-0.006,0.006-0.009,0.013-0.012,0.021c0,0.01,0,0.016,0.003,0.021c0.003,0.006,0.009,0.009,0.015,0.012
			c0.006,0.004,0.015,0.004,0.024,0c0.021-0.006,0.045-0.006,0.067-0.006c0.021,0,0.045,0.01,0.066,0.021l-0.018,0.045
			c-0.006,0.013-0.006,0.024-0.003,0.033c0.003,0.01,0.006,0.019,0.015,0.027l0.07,0.07c0.006,0.006,0.015,0.012,0.021,0.012
			c0.006,0,0.015,0,0.024,0l0.033-0.006l0.021,0.021v0.018c0,0.006,0,0.016,0.003,0.021s0.006,0.012,0.015,0.021l0.024,0.021
			c0.006,0.006,0.015,0.012,0.024,0.012s0.015-0.003,0.024-0.01l0.088-0.088c0.006-0.006,0.009-0.015,0.009-0.023
			c0-0.01-0.003-0.016-0.012-0.024l-0.027-0.027c-0.006-0.006-0.015-0.013-0.021-0.015c-0.006-0.004-0.012-0.004-0.021-0.004h-0.018
			l-0.019-0.018l0.006-0.033c0.003-0.01,0.003-0.016,0-0.024s-0.009-0.015-0.019-0.024l-0.063-0.066
			c-0.024-0.024-0.051-0.043-0.082-0.058c-0.027-0.013-0.058-0.019-0.085-0.019c-0.03,0-0.058,0.006-0.085,0.016
			C-1249.612-1858.291-1249.636-1858.275-1249.658-1858.252z M-1249.612-1858.242c0.019-0.012,0.04-0.024,0.058-0.027
			c0.021-0.006,0.042-0.006,0.064-0.006c0.021,0.002,0.042,0.009,0.063,0.018c0.021,0.01,0.04,0.021,0.055,0.039l0.073,0.073
			c0.003,0.003,0.006,0.007,0.006,0.009c0,0.004,0,0.01,0,0.013l-0.009,0.048l0.046,0.046l0.03-0.003c0.003,0,0.006,0,0.009,0
			s0.003,0.003,0.006,0.006l0.018,0.018l-0.073,0.073l-0.018-0.019c-0.003-0.002-0.006-0.006-0.006-0.006c0-0.002,0-0.006,0-0.009
			l0.003-0.03l-0.045-0.045l-0.045,0.009c-0.006,0-0.009,0-0.012,0c-0.003,0-0.006-0.003-0.009-0.007l-0.061-0.061
			c-0.003-0.002-0.006-0.006-0.006-0.009s0-0.009,0.003-0.012l0.027-0.063c-0.024-0.021-0.051-0.037-0.079-0.046
			c-0.03-0.009-0.061-0.009-0.091,0c-0.003,0-0.003,0-0.006,0C-1249.615-1858.233-1249.615-1858.239-1249.612-1858.242z"/>
	</g>
	<text transform="matrix(1 0 0 1 39.0605 75.8486)" font-family="'Arial-BoldMT'" font-size="0.3939">Exporting</text>
	<text transform="matrix(1 0 0 1 39.0605 76.3945)" font-family="'ArialMT'" font-size="0.3939">Symbols should be outlined when exporting to ensure the</text>
	<text transform="matrix(1 0 0 1 39.0605 76.9395)" font-family="'ArialMT'" font-size="0.3939">design is preserved when submitting to Xcode.</text>
	<text id="template-version" transform="matrix(1 0 0 1 89.4668 75.2422)" font-family="'ArialMT'" font-size="0.3939">Template v.3.0</text>
	<text transform="matrix(1 0 0 1 86.832 75.7881)" font-family="'ArialMT'" font-size="0.3939">Requires Xcode 13 or greater</text>
	<text id="descriptive-name" transform="matrix(1 0 0 1 83.7012 76.334)" font-family="'ArialMT'" font-size="0.3939">Generated from arrow.backward.to.line.circle.fill</text>
	<text transform="matrix(1 0 0 1 88.2549 76.8789)" font-family="'ArialMT'" font-size="0.3939">Typeset at 100 points</text>
	<text transform="matrix(1 0 0 1 7.9697 38.667)" font-family="'ArialMT'" font-size="0.3939">Small</text>
	<text transform="matrix(1 0 0 1 7.9697 51.6973)" font-family="'ArialMT'" font-size="0.3939">Medium</text>
	<text transform="matrix(1 0 0 1 7.9697 64.7275)" font-family="'ArialMT'" font-size="0.3939">Large</text>
</g>
<g id="Guides">
	<g id="H-reference" transform="matrix(1 0 0 1 339 696)">
		<path fill="#27AAE1" d="M-328.697-658.243h0.079l0.779-2.033h0.021v-0.1h-0.058L-328.697-658.243z M-328.373-658.985h1.069
			l-0.024-0.066h-1.024L-328.373-658.985z M-327.058-658.243h0.079l-0.821-2.136h-0.037v0.1L-327.058-658.243z"/>
	</g>
	<line id="Baseline-S" fill="none" stroke="#27AAE1" stroke-width="0.5" x1="7.97" y1="37.757" x2="92" y2="37.757"/>
	<line id="Capline-S" fill="none" stroke="#27AAE1" stroke-width="0.5" x1="7.97" y1="35.621" x2="92" y2="35.621"/>
	<g id="H-reference_1_" transform="matrix(1 0 0 1 339 1126)">
		<path fill="#27AAE1" d="M-328.697-1075.212h0.079l0.779-2.034h0.021v-0.1h-0.058L-328.697-1075.212z M-328.373-1075.955h1.069
			l-0.024-0.066h-1.024L-328.373-1075.955z M-327.058-1075.212h0.079l-0.821-2.137h-0.037v0.1L-327.058-1075.212z"/>
	</g>
	<line id="Baseline-M" fill="none" stroke="#27AAE1" stroke-width="0.5" x1="7.97" y1="50.788" x2="92" y2="50.788"/>
	<line id="Capline-M" fill="none" stroke="#27AAE1" stroke-width="0.5" x1="7.97" y1="48.651" x2="92" y2="48.651"/>
	<g id="H-reference_2_" transform="matrix(1 0 0 1 339 1556)">
		<path fill="#27AAE1" d="M-328.697-1492.182h0.079l0.779-2.033h0.021v-0.1h-0.058L-328.697-1492.182z M-328.373-1492.924h1.069
			l-0.024-0.066h-1.024L-328.373-1492.924z M-327.058-1492.182h0.079l-0.821-2.137h-0.037v0.1L-327.058-1492.182z"/>
	</g>
	<line id="Baseline-L" fill="none" stroke="#27AAE1" stroke-width="0.5" x1="7.97" y1="63.818" x2="92" y2="63.818"/>
	<line id="Capline-L" fill="none" stroke="#27AAE1" stroke-width="0.5" x1="7.97" y1="61.682" x2="92" y2="61.682"/>
	
		<line id="left-margin-Ultralight-S" fill="none" stroke="#00AEEF" stroke-width="0.5" x1="15.624" y1="34.873" x2="15.624" y2="38.488"/>
	
		<line id="right-margin-Ultralight-S" fill="none" stroke="#00AEEF" stroke-width="0.5" x1="18.297" y1="34.873" x2="18.297" y2="38.488"/>
	
		<line id="left-margin-Regular-S" fill="none" stroke="#00AEEF" stroke-width="0.5" x1="42.533" y1="34.873" x2="42.533" y2="38.488"/>
	
		<line id="right-margin-Regular-S" fill="none" stroke="#00AEEF" stroke-width="0.5" x1="45.336" y1="34.873" x2="45.336" y2="38.488"/>
	
		<line id="left-margin-Black-S" fill="none" stroke="#00AEEF" stroke-width="0.5" x1="87.412" y1="34.873" x2="87.412" y2="38.488"/>
	
		<line id="right-margin-Black-S" fill="none" stroke="#00AEEF" stroke-width="0.5" x1="90.369" y1="34.873" x2="90.369" y2="38.488"/>
</g>
<g id="Symbols">
	<g id="Black-S" transform="matrix(1 0 0 1 2884.57 696)">
		<path fill="#8E8E8E" d="M-2794.617-660.354c-0.082-0.082-0.193-0.121-0.336-0.121h-1.379c-0.145,0-0.258,0.039-0.336,0.121
			c-0.082,0.082-0.121,0.194-0.121,0.336v1.382c0,0.146,0.039,0.257,0.121,0.336c0.082,0.082,0.193,0.121,0.336,0.121h1.379
			c0.146,0,0.258-0.04,0.336-0.121c0.082-0.082,0.121-0.194,0.121-0.336v-1.379
			C-2794.496-660.161-2794.538-660.273-2794.617-660.354z"/>
		<path d="M-2795.374-659.921c0.061,0,0.106,0.015,0.136,0.045c0.031,0.031,0.046,0.076,0.046,0.137v0.703l-0.618-0.885
			C-2795.738-659.921-2795.374-659.921-2795.374-659.921z M-2795.31-658.67c-0.016-0.012-0.037-0.033-0.07-0.063l-0.23-0.221
			c-0.002-0.003-0.006-0.003-0.008,0l-0.23,0.221c-0.031,0.03-0.055,0.052-0.066,0.063c-0.016,0.012-0.031,0.019-0.049,0.019
			c-0.021,0-0.039-0.006-0.052-0.021s-0.019-0.036-0.019-0.061v-0.994l0.74,1.061
			C-2795.301-658.667-2795.307-658.667-2795.31-658.67z M-2795.162-658.618l-0.928-1.324l0.115-0.082l0.928,1.328L-2795.162-658.618
			z"/>
	</g>
	<g id="Regular-S" transform="matrix(1 0 0 1 1403.58 696)">
		<path fill="#8E8E8E" d="M-1358.65-660.291c-0.063-0.061-0.158-0.094-0.282-0.094h-1.391c-0.124,0-0.218,0.03-0.282,0.094
			c-0.063,0.061-0.094,0.155-0.094,0.279v1.403c0,0.124,0.03,0.215,0.094,0.278c0.063,0.058,0.158,0.088,0.282,0.088h1.391
			c0.127,0,0.218-0.03,0.282-0.091s0.094-0.154,0.094-0.279v-1.403C-1358.557-660.136-1358.587-660.23-1358.65-660.291z"/>
		<path d="M-1359.369-659.912c0.061,0,0.106,0.015,0.136,0.045c0.031,0.03,0.046,0.076,0.046,0.136v0.703l-0.618-0.885
			C-1359.735-659.912-1359.369-659.912-1359.369-659.912z M-1359.305-658.661c-0.015-0.012-0.037-0.033-0.07-0.063l-0.23-0.221
			c-0.003-0.003-0.006-0.003-0.009,0l-0.23,0.221c-0.03,0.03-0.055,0.051-0.067,0.063c-0.015,0.012-0.03,0.018-0.048,0.018
			c-0.021,0-0.04-0.006-0.052-0.021c-0.012-0.015-0.018-0.037-0.018-0.061v-0.991l0.74,1.061
			C-1359.296-658.658-1359.302-658.658-1359.305-658.661z M-1359.16-658.606l-0.924-1.324l0.115-0.082l0.924,1.324L-1359.16-658.606
			z"/>
	</g>
	<g>
		<path fill="#8E8E8E" d="M17.888,35.751c-0.051-0.051-0.127-0.076-0.224-0.076h-1.421c-0.1,0-0.173,0.024-0.225,0.076
			c-0.051,0.052-0.076,0.124-0.076,0.224v1.421c0,0.1,0.024,0.173,0.076,0.224c0.052,0.052,0.127,0.076,0.225,0.076h1.421
			c0.1,0,0.173-0.027,0.224-0.079c0.052-0.051,0.076-0.127,0.076-0.224v-1.421C17.964,35.879,17.939,35.803,17.888,35.751z"/>
		<path d="M17.176,36.061c0.061,0,0.106,0.015,0.136,0.045s0.045,0.076,0.045,0.136v0.703l-0.618-0.885
			C16.812,36.061,17.176,36.061,17.176,36.061z M17.243,37.312c-0.016-0.012-0.037-0.033-0.07-0.063l-0.23-0.221
			c-0.003-0.003-0.006-0.003-0.009,0l-0.23,0.221c-0.03,0.03-0.055,0.051-0.067,0.063c-0.015,0.012-0.03,0.018-0.048,0.018
			c-0.021,0-0.04-0.006-0.052-0.021c-0.012-0.015-0.018-0.036-0.018-0.061v-0.991l0.74,1.061
			C17.249,37.315,17.246,37.315,17.243,37.312z M17.421,37.342l-0.924-1.324l0.051-0.036l0.924,1.324L17.421,37.342z"/>
	</g>
</g>
</svg>
