<?xml version="1.0" encoding="utf-8"?>
<!-- Generator: Adobe Illustrator 16.0.0, SVG Export Plug-In . SVG Version: 6.00 Build 0)  -->
<!DOCTYPE svg PUBLIC "-//W3C//DTD SVG 1.1//EN" "http://www.w3.org/Graphics/SVG/1.1/DTD/svg11.dtd" [
	<!ENTITY ns_extend "http://ns.adobe.com/Extensibility/1.0/">
	<!ENTITY ns_ai "http://ns.adobe.com/AdobeIllustrator/10.0/">
	<!ENTITY ns_graphs "http://ns.adobe.com/Graphs/1.0/">
	<!ENTITY ns_vars "http://ns.adobe.com/Variables/1.0/">
	<!ENTITY ns_imrep "http://ns.adobe.com/ImageReplacement/1.0/">
	<!ENTITY ns_sfw "http://ns.adobe.com/SaveForWeb/1.0/">
	<!ENTITY ns_custom "http://ns.adobe.com/GenericCustomNamespace/1.0/">
	<!ENTITY ns_adobe_xpath "http://ns.adobe.com/XPath/1.0/">
]>
<svg version="1.1" id="Group" xmlns:x="&ns_extend;" xmlns:i="&ns_ai;" xmlns:graph="&ns_graphs;"
	 xmlns="http://www.w3.org/2000/svg" xmlns:xlink="http://www.w3.org/1999/xlink" x="0px" y="0px" width="100px" height="100px"
	 viewBox="0 0 100 100" enable-background="new 0 0 100 100" xml:space="preserve">
<metadata>
	<sfw  xmlns="&ns_sfw;">
		<slices></slices>
		<sliceSourceBounds  height="44.92" width="32.29" x="34.33" y="-73.27" bottomLeftOrigin="true"></sliceSourceBounds>
	</sfw>
</metadata>
<path fill="#020202" d="M34.98,37.43l24.379,35c-0.129-0.08-0.279-0.05-0.409-0.16c-0.47-0.39-1.24-1.119-2.31-2.119l-7.561-7.28
	c-0.13-0.13-0.22-0.13-0.35,0l-7.59,7.28c-1.04,1-1.76,1.729-2.25,2.119c-0.49,0.391-1.02,0.57-1.57,0.57
	c-0.71,0-1.3-0.22-1.71-0.689c-0.42-0.471-0.63-1.16-0.63-2.03V37.43z M62.82,36.99c0-1.98-0.521-3.48-1.53-4.5
	c-1-1.02-2.479-1.53-4.47-1.53c0,0-12.021,0-14.4,0l20.4,29.28V36.99z M36.08,28.35l-1.75,1.22l30.55,43.7l1.74-1.22L36.08,28.35z"
	/>
</svg>
