<?xml version="1.0" encoding="utf-8"?>
<!-- Generator: Adobe Illustrator 16.0.0, SVG Export Plug-In . SVG Version: 6.00 Build 0)  -->
<!DOCTYPE svg PUBLIC "-//W3C//DTD SVG 1.1//EN" "http://www.w3.org/Graphics/SVG/1.1/DTD/svg11.dtd">
<svg version="1.1" id="Layer_1" xmlns="http://www.w3.org/2000/svg" xmlns:xlink="http://www.w3.org/1999/xlink" x="0px" y="0px"
	 width="595.28px" height="841.89px" viewBox="0 0 595.28 841.89" enable-background="new 0 0 595.28 841.89" xml:space="preserve">
<g id="Regular-S" transform="matrix(1 0 0 1 1404.51 696)">
	<path fill="#717171" d="M-1129.783-239.609h46.24c4.167,0,7.283-1.025,9.351-3.076s3.101-5.127,3.101-9.229v-46.582
		c0-4.102-1.033-7.178-3.101-9.229s-5.184-3.076-9.351-3.076h-46.24c-4.134,0-7.242,1.025-9.326,3.076
		c-2.083,2.051-3.125,5.127-3.125,9.229v46.582c0,4.102,1.042,7.178,3.125,9.229
		C-1137.026-240.635-1133.917-239.609-1129.783-239.609z"/>
	<path fill="#010101" d="M-1114.551-296.195c-0.147,0-0.237,0.057-0.377,0.062l22.224,31.379v-25.402
		c0-1.979-0.518-3.491-1.523-4.513s-2.469-1.526-4.455-1.526H-1114.551z"/>
	<path fill="#010101" d="M-1120.219-292.366c-0.178,0.666-0.307,1.375-0.307,2.21v33.123c0,0.876,0.2,1.556,0.618,2.025
		c0.417,0.472,0.995,0.684,1.712,0.684c0.547,0,1.064-0.172,1.555-0.56c0.488-0.389,1.235-1.111,2.271-2.116l7.571-7.285
		c0.131-0.129,0.238-0.129,0.367,0l7.532,7.285c1.076,1.005,1.873,1.728,2.34,2.116c0.469,0.388,0.977,0.56,1.526,0.56
		c0.566,0,0.955-0.26,1.335-0.56L-1120.219-292.366z"/>
	<path fill="#010101" d="M-1121.822-297.136l2.879-2.031l32.108,45.129l-2.881,2.029L-1121.822-297.136z"/>
</g>
</svg>
