<?xml version="1.0" encoding="UTF-8"?>
<!-- Generator: CustomSymbols v2.6.1.40 by @serious_bret https://bretlester.com/app_content/CustomSymbols/ -->
<!-- Guides: Left/Right 0.0/0.0 Cap/Base 0.0/0.0 -->
<!-- Settings: RefScale 1.0 Min/Max Stroke Scales 0.5/2.21 -->
<!DOCTYPE svg
PUBLIC "-//W3C//DTD SVG 1.1//EN"
       "http://www.w3.org/Graphics/SVG/1.1/DTD/svg11.dtd">
<svg version="1.1" xmlns="http://www.w3.org/2000/svg" xmlns:xlink="http://www.w3.org/1999/xlink" width="3300" height="2200">
<![CDATA[<?xml version="1.0" encoding="UTF-8" standalone="no"?>
<!DOCTYPE svg PUBLIC "-//W3C//DTD SVG 1.1//EN" "http://www.w3.org/Graphics/SVG/1.1/DTD/svg11.dtd">
<!-- Created with Vectornator (http://vectornator.io/) -->
<svg height="100%" stroke-miterlimit="10" style="fill-rule:nonzero;clip-rule:evenodd;stroke-linecap:round;stroke-linejoin:round;" version="1.1" viewBox="0 0 100 100" width="100%" xml:space="preserve" xmlns="http://www.w3.org/2000/svg" xmlns:xlink="http://www.w3.org/1999/xlink">
<defs/>
<g id="Regular-S">
<path d="M27.7271 86.391L73.9671 86.391C78.1341 86.391 81.2501 85.366 83.3181 83.315C85.3861 81.264 86.4191 78.188 86.4191 74.086L86.4191 27.504C86.4191 23.402 85.3861 20.326 83.3181 18.275C81.2501 16.224 78.1341 15.199 73.9671 15.199L27.7271 15.199C23.5931 15.199 20.4851 16.224 18.4011 18.275C16.3181 20.326 15.2761 23.402 15.2761 27.504L15.2761 74.086C15.2761 78.188 16.3181 81.264 18.4011 83.315C20.484 85.365 23.593 86.391 27.7271 86.391Z" fill="#717171" fill-rule="nonzero" opacity="1" stroke="none"/>
<path d="M44.4062 29.8125L64.8125 59.0938L64.8125 35.8438C64.8125 33.8648 64.2863 32.3657 63.2812 31.3438C62.2763 30.3217 60.7985 29.8125 58.8125 29.8125C58.8125 29.8125 46.787 29.8125 44.4062 29.8125ZM36.9688 36.2812L36.9688 68.9688C36.9688 69.8448 37.1758 70.531 37.5938 71C38.0107 71.472 38.5955 71.6875 39.3125 71.6875C39.8595 71.6875 40.384 71.513 40.875 71.125C41.363 70.736 42.089 70.005 43.125 69L50.7188 61.7188C50.8497 61.5898 50.9335 61.5897 51.0625 61.7188L58.625 69C59.701 70.005 60.4705 70.737 60.9375 71.125C61.0626 71.2285 61.213 71.2076 61.3438 71.2812L36.9688 36.2812ZM35.688 28.864L38.567 26.833L70.4085 72.382L67.5275 74.411L35.688 28.864Z" fill="#010101" fill-rule="nonzero" opacity="1" stroke="none"/>
</g>
</svg>
]]>
 <g id="Notes">
  <rect height="2200" id="artboard" style="fill:white;opacity:1" width="3300" x="0" y="0"/>
  <line id="" style="fill:none;stroke:black;opacity:1;stroke-width:0.5;" x1="263" x2="3036" y1="292" y2="292"/>
  <text id="reftext1" style="stroke:none;fill:black;font-family:-apple-system,&quot;SF Pro Display&quot;,&quot;SF Pro Text&quot;,Helvetica,sans-serif;font-weight:bold;" transform="matrix(1 0 0 1 263 322)">Weight/Scale Variations</text>
  <text id="reftext2" style="stroke:none;fill:black;font-family:-apple-system,&quot;SF Pro Display&quot;,&quot;SF Pro Text&quot;,Helvetica,sans-serif;text-anchor:middle;" transform="matrix(1 0 0 1 559.711 322)">Ultralight</text>
  <text style="stroke:none;fill:black;font-family:-apple-system,&quot;SF Pro Display&quot;,&quot;SF Pro Text&quot;,Helvetica,sans-serif;text-anchor:middle;" transform="matrix(1 0 0 1 856.422 322)">Thin</text>
  <text style="stroke:none;fill:black;font-family:-apple-system,&quot;SF Pro Display&quot;,&quot;SF Pro Text&quot;,Helvetica,sans-serif;text-anchor:middle;" transform="matrix(1 0 0 1 1153.13 322)">Light</text>
  <text style="stroke:none;fill:black;font-family:-apple-system,&quot;SF Pro Display&quot;,&quot;SF Pro Text&quot;,Helvetica,sans-serif;text-anchor:middle;" transform="matrix(1 0 0 1 1449.84 322)">Regular</text>
  <text style="stroke:none;fill:black;font-family:-apple-system,&quot;SF Pro Display&quot;,&quot;SF Pro Text&quot;,Helvetica,sans-serif;text-anchor:middle;" transform="matrix(1 0 0 1 1746.56 322)">Medium</text>
  <text style="stroke:none;fill:black;font-family:-apple-system,&quot;SF Pro Display&quot;,&quot;SF Pro Text&quot;,Helvetica,sans-serif;text-anchor:middle;" transform="matrix(1 0 0 1 2043.27 322)">Semibold</text>
  <text style="stroke:none;fill:black;font-family:-apple-system,&quot;SF Pro Display&quot;,&quot;SF Pro Text&quot;,Helvetica,sans-serif;text-anchor:middle;" transform="matrix(1 0 0 1 2339.98 322)">Bold</text>
  <text style="stroke:none;fill:black;font-family:-apple-system,&quot;SF Pro Display&quot;,&quot;SF Pro Text&quot;,Helvetica,sans-serif;text-anchor:middle;" transform="matrix(1 0 0 1 2636.69 322)">Heavy</text>
  <text style="stroke:none;fill:black;font-family:-apple-system,&quot;SF Pro Display&quot;,&quot;SF Pro Text&quot;,Helvetica,sans-serif;text-anchor:middle;" transform="matrix(1 0 0 1 2933.4 322)">Black</text>
  <line id="" style="fill:none;stroke:black;opacity:1;stroke-width:0.5;" x1="263" x2="3036" y1="1903" y2="1903"/>
  <g id="" transform="matrix(1 0 0 1 263 1933)">
   <path d="M9.24805 0.830078C13.5547 0.830078 17.1387-2.74414 17.1387-7.05078C17.1387-11.3574 13.5449-14.9316 9.23828-14.9316C4.94141-14.9316 1.36719-11.3574 1.36719-7.05078C1.36719-2.74414 4.95117 0.830078 9.24805 0.830078ZM9.24805-0.654297C5.70312-0.654297 2.87109-3.49609 2.87109-7.05078C2.87109-10.6055 5.69336-13.4473 9.23828-13.4473C12.793-13.4473 15.6348-10.6055 15.6445-7.05078C15.6543-3.49609 12.8027-0.654297 9.24805-0.654297ZM6.39648-6.31836L8.50586-6.31836L8.50586-4.19922C8.50586-3.75977 8.79883-3.45703 9.22852-3.45703C9.67773-3.45703 9.9707-3.75977 9.9707-4.19922L9.9707-6.31836L12.0996-6.31836C12.5391-6.31836 12.8418-6.61133 12.8418-7.04102C12.8418-7.48047 12.5391-7.7832 12.0996-7.7832L9.9707-7.7832L9.9707-9.89258C9.9707-10.3418 9.67773-10.6445 9.22852-10.6445C8.79883-10.6445 8.50586-10.3418 8.50586-9.89258L8.50586-7.7832L6.39648-7.7832C5.94727-7.7832 5.64453-7.48047 5.64453-7.04102C5.64453-6.61133 5.94727-6.31836 6.39648-6.31836Z"/>
  </g>
  <g id="" transform="matrix(1 0 0 1 281.506 1933)">
   <path d="M11.709 2.91016C17.1582 2.91016 21.6699-1.61133 21.6699-7.05078C21.6699-12.5 17.1484-17.0117 11.6992-17.0117C6.25977-17.0117 1.74805-12.5 1.74805-7.05078C1.74805-1.61133 6.26953 2.91016 11.709 2.91016ZM11.709 1.25C7.09961 1.25 3.41797-2.44141 3.41797-7.05078C3.41797-11.6602 7.08984-15.3516 11.6992-15.3516C16.3086-15.3516 20-11.6602 20.0098-7.05078C20.0195-2.44141 16.3184 1.25 11.709 1.25ZM7.98828-6.23047L10.8789-6.23047L10.8789-3.32031C10.8789-2.83203 11.2109-2.5 11.6895-2.5C12.1777-2.5 12.5195-2.83203 12.5195-3.32031L12.5195-6.23047L15.4297-6.23047C15.918-6.23047 16.25-6.5625 16.25-7.04102C16.25-7.5293 15.918-7.87109 15.4297-7.87109L12.5195-7.87109L12.5195-10.7617C12.5195-11.2695 12.1777-11.6016 11.6895-11.6016C11.2109-11.6016 10.8789-11.2598 10.8789-10.7617L10.8789-7.87109L7.98828-7.87109C7.48047-7.87109 7.14844-7.5293 7.14844-7.04102C7.14844-6.5625 7.49023-6.23047 7.98828-6.23047Z"/>
  </g>
  <g id="" transform="matrix(1 0 0 1 304.924 1933)">
   <path d="M14.9707 5.66406C21.9336 5.66406 27.6953-0.0976562 27.6953-7.05078C27.6953-14.0137 21.9238-19.7754 14.9609-19.7754C8.00781-19.7754 2.25586-14.0137 2.25586-7.05078C2.25586-0.0976562 8.01758 5.66406 14.9707 5.66406ZM14.9707 3.84766C8.93555 3.84766 4.08203-1.01562 4.08203-7.05078C4.08203-13.0957 8.92578-17.9492 14.9609-17.9492C21.0059-17.9492 25.8594-13.0957 25.8691-7.05078C25.8789-1.01562 21.0156 3.84766 14.9707 3.84766ZM10.0586-6.14258L14.0625-6.14258L14.0625-2.12891C14.0625-1.5918 14.4336-1.2207 14.9512-1.2207C15.4883-1.2207 15.8594-1.5918 15.8594-2.12891L15.8594-6.14258L19.8828-6.14258C20.4102-6.14258 20.791-6.51367 20.791-7.03125C20.791-7.56836 20.4199-7.94922 19.8828-7.94922L15.8594-7.94922L15.8594-11.9531C15.8594-12.5098 15.4883-12.8809 14.9512-12.8809C14.4336-12.8809 14.0625-12.5 14.0625-11.9531L14.0625-7.94922L10.0586-7.94922C9.50195-7.94922 9.13086-7.56836 9.13086-7.03125C9.13086-6.51367 9.51172-6.14258 10.0586-6.14258Z"/>
  </g>
  <text style="stroke:none;fill:black;font-family:-apple-system,&quot;SF Pro Display&quot;,&quot;SF Pro Text&quot;,Helvetica,sans-serif;font-weight:bold;" transform="matrix(1 0 0 1 263 1953)">Design Variations</text>
  <text style="stroke:none;fill:black;font-family:-apple-system,&quot;SF Pro Display&quot;,&quot;SF Pro Text&quot;,Helvetica,sans-serif;" transform="matrix(1 0 0 1 263 1971)">Symbols are supported in up to nine weights and three scales.</text>
  <text style="stroke:none;fill:black;font-family:-apple-system,&quot;SF Pro Display&quot;,&quot;SF Pro Text&quot;,Helvetica,sans-serif;" transform="matrix(1 0 0 1 263 1989)">For optimal layout with text and other symbols, vertically align</text>
  <text style="stroke:none;fill:black;font-family:-apple-system,&quot;SF Pro Display&quot;,&quot;SF Pro Text&quot;,Helvetica,sans-serif;" transform="matrix(1 0 0 1 263 2007)">symbols with the adjacent text.</text>
  <line id="" style="fill:none;stroke:#00AEEF;stroke-width:0.5;opacity:1.0;" x1="776" x2="776" y1="1919" y2="1933"/>
  <g id="" transform="matrix(1 0 0 1 776 1933)">
   <path d="M3.31055 0.126953C3.82812 0.126953 4.08203-0.0683594 4.26758-0.605469L5.52734-4.0625L11.2891-4.0625L12.5488-0.605469C12.7344-0.0683594 12.9883 0.126953 13.4961 0.126953C14.0137 0.126953 14.3457-0.185547 14.3457-0.673828C14.3457-0.839844 14.3164-0.986328 14.2383-1.20117L9.6582-13.3887C9.43359-13.9941 9.0332-14.2871 8.4082-14.2871C7.80273-14.2871 7.39258-13.9941 7.17773-13.3984L2.59766-1.19141C2.51953-0.976562 2.49023-0.830078 2.49023-0.664062C2.49023-0.175781 2.80273 0.126953 3.31055 0.126953ZM6.00586-5.53711L8.37891-12.1094L8.42773-12.1094L10.8008-5.53711Z"/>
  </g>
  <line id="" style="fill:none;stroke:#00AEEF;stroke-width:0.5;opacity:1.0;" x1="792.836" x2="792.836" y1="1919" y2="1933"/>
  <text style="stroke:none;fill:black;font-family:-apple-system,&quot;SF Pro Display&quot;,&quot;SF Pro Text&quot;,Helvetica,sans-serif;font-weight:bold;" transform="matrix(1 0 0 1 776 1953)">Margins</text>
  <text style="stroke:none;fill:black;font-family:-apple-system,&quot;SF Pro Display&quot;,&quot;SF Pro Text&quot;,Helvetica,sans-serif;" transform="matrix(1 0 0 1 776 1971)">Leading and trailing margins on the left and right side of each symbol</text>
  <text style="stroke:none;fill:black;font-family:-apple-system,&quot;SF Pro Display&quot;,&quot;SF Pro Text&quot;,Helvetica,sans-serif;" transform="matrix(1 0 0 1 776 1989)">can be adjusted by modifying the x-location of the margin guidelines.</text>
  <text style="stroke:none;fill:black;font-family:-apple-system,&quot;SF Pro Display&quot;,&quot;SF Pro Text&quot;,Helvetica,sans-serif;" transform="matrix(1 0 0 1 776 2007)">Modifications are automatically applied proportionally to all</text>
  <text style="stroke:none;fill:black;font-family:-apple-system,&quot;SF Pro Display&quot;,&quot;SF Pro Text&quot;,Helvetica,sans-serif;" transform="matrix(1 0 0 1 776 2025)">scales and weights.</text>
  <g id="" transform="matrix(1 0 0 1 1289 1933)">
   <path d="M2.8418 1.86523L4.54102 3.57422C5.40039 4.44336 6.38672 4.38477 7.31445 3.35938L17.4902-7.85156C17.7539-7.76367 18.0273-7.7832 18.3398-7.8418L19.4043-8.03711L20.0684-7.36328L20.0293-6.80664C19.9902-6.30859 20.1172-5.92773 20.6055-5.44922L21.3672-4.70703C21.8457-4.22852 22.4609-4.19922 22.9297-4.66797L25.8398-7.58789C26.3086-8.05664 26.2891-8.65234 25.8105-9.13086L25.0391-9.89258C24.5605-10.3711 24.1895-10.5273 23.7109-10.4883L23.1348-10.4395L22.4902-11.0742L22.7344-12.1973C22.8613-12.7637 22.7051-13.2031 22.1191-13.7891L19.9219-15.9766C16.582-19.2969 12.1484-19.2188 9.25781-16.3281C8.83789-15.918 8.80859-15.3418 9.04297-14.9512C9.27734-14.5898 9.73633-14.3555 10.3809-14.5215C11.8457-14.8633 13.3691-14.9219 14.7949-13.9844L14.209-12.5293C14.0137-12.0508 13.9844-11.6504 14.1113-11.2891L3.04688-0.898438C2.06055 0.0195312 1.98242 0.996094 2.8418 1.86523ZM10.752-15.957C13.1836-17.7344 16.4746-17.4316 18.7012-15.2051L21.1328-12.793C21.3672-12.5586 21.4062-12.373 21.3379-12.0312L21.0156-10.5469L22.5195-9.0625L23.5059-9.12109C23.7598-9.13086 23.8379-9.11133 24.0332-8.91602L24.6094-8.33984L22.168-5.89844L21.5918-6.47461C21.3965-6.66992 21.3672-6.74805 21.377-7.01172L21.4453-7.98828L19.9512-9.47266L18.4277-9.21875C18.1055-9.15039 17.959-9.17969 17.7148-9.41406L15.7129-11.416C15.459-11.6504 15.4297-11.8164 15.5859-12.1875L16.4648-14.2773C14.9023-15.7324 12.8711-16.3574 10.8398-15.7617C10.6836-15.7227 10.625-15.8496 10.752-15.957ZM5.27344 2.30469L4.10156 1.14258C3.63281 0.683594 3.74023 0.341797 4.14062-0.0195312L14.9512-10.1953L16.416-8.71094L6.42578 2.27539C6.07422 2.67578 5.74219 2.77344 5.27344 2.30469Z"/>
  </g>
  <text style="stroke:none;fill:black;font-family:-apple-system,&quot;SF Pro Display&quot;,&quot;SF Pro Text&quot;,Helvetica,sans-serif;font-weight:bold;" transform="matrix(1 0 0 1 1289 1953)">Exporting</text>
  <text style="stroke:none;fill:black;font-family:-apple-system,&quot;SF Pro Display&quot;,&quot;SF Pro Text&quot;,Helvetica,sans-serif;" transform="matrix(1 0 0 1 1289 1971)">Symbols should be outlined when exporting to ensure the</text>
  <text style="stroke:none;fill:black;font-family:-apple-system,&quot;SF Pro Display&quot;,&quot;SF Pro Text&quot;,Helvetica,sans-serif;" transform="matrix(1 0 0 1 1289 1989)">design is preserved when submitting to Xcode.</text>
  <text id="template-version" style="stroke:none;fill:black;font-family:-apple-system,&quot;SF Pro Display&quot;,&quot;SF Pro Text&quot;,Helvetica,sans-serif;text-anchor:end;" transform="matrix(1 0 0 1 3036 1933)">Template v.2.0</text>
  <text style="stroke:none;fill:black;font-family:-apple-system,&quot;SF Pro Display&quot;,&quot;SF Pro Text&quot;,Helvetica,sans-serif;text-anchor:end;" transform="matrix(1 0 0 1 3036 1951)">Requires Xcode 12 or greater</text>
  <text style="stroke:none;fill:black;font-family:-apple-system,&quot;SF Pro Display&quot;,&quot;SF Pro Text&quot;,Helvetica,sans-serif;" transform="matrix(1 0 0 1 263 726)">Small</text>
  <text style="stroke:none;fill:black;font-family:-apple-system,&quot;SF Pro Display&quot;,&quot;SF Pro Text&quot;,Helvetica,sans-serif;" transform="matrix(1 0 0 1 263 1156)">Medium</text>
  <text style="stroke:none;fill:black;font-family:-apple-system,&quot;SF Pro Display&quot;,&quot;SF Pro Text&quot;,Helvetica,sans-serif;" transform="matrix(1 0 0 1 263 1586)">Large</text>
 </g>
 <g id="Guides">
  <g id="H-reference" style="fill:#27AAE1;stroke:none;" transform="matrix(1 0 0 1 339 696)">
   <path d="M0.976562 0L3.66211 0L12.9883-24.4629L45.752-24.4629L55.127 0L57.7637 0L30.6152-70.459L28.125-70.459ZM29.3457-67.1387L29.4434-67.1387L44.873-26.709L13.8672-26.709Z"/>
  </g>
  <line id="Baseline-S" style="fill:none;stroke:#27AAE1;opacity:1;stroke-width:0.5;" x1="263" x2="3036" y1="696" y2="696"/>
  <line id="Capline-S" style="fill:none;stroke:#27AAE1;opacity:1;stroke-width:0.5;" x1="263" x2="3036" y1="625.541" y2="625.541"/>
  <g id="H-reference" style="fill:#27AAE1;stroke:none;" transform="matrix(1 0 0 1 339 1126)">
   <path d="M0.976562 0L3.66211 0L12.9883-24.4629L45.752-24.4629L55.127 0L57.7637 0L30.6152-70.459L28.125-70.459ZM29.3457-67.1387L29.4434-67.1387L44.873-26.709L13.8672-26.709Z"/>
  </g>
  <line id="Baseline-M" style="fill:none;stroke:#27AAE1;opacity:1;stroke-width:0.5;" x1="263" x2="3036" y1="1126" y2="1126"/>
  <line id="Capline-M" style="fill:none;stroke:#27AAE1;opacity:1;stroke-width:0.5;" x1="263" x2="3036" y1="1055.54" y2="1055.54"/>
  <g id="H-reference" style="fill:#27AAE1;stroke:none;" transform="matrix(1 0 0 1 339 1556)">
   <path d="M0.976562 0L3.66211 0L12.9883-24.4629L45.752-24.4629L55.127 0L57.7637 0L30.6152-70.459L28.125-70.459ZM29.3457-67.1387L29.4434-67.1387L44.873-26.709L13.8672-26.709Z"/>
  </g>
  <line id="Baseline-L" style="fill:none;stroke:#27AAE1;opacity:1;stroke-width:0.5;" x1="263" x2="3036" y1="1556" y2="1556"/>
  <line id="Capline-L" style="fill:none;stroke:#27AAE1;opacity:1;stroke-width:0.5;" x1="263" x2="3036" y1="1485.54" y2="1485.54"/>
  <line id="left-margin" x1="1415.9000195312499" x2="1415.9000195312499" y1="1030.79" y2="1150.12" style="fill:none;stroke:#00AEEF;stroke-width:0.5;opacity:1.0;"/>
  <line id="right-margin" x1="1486.3599804687499" x2="1486.3599804687499" y1="1030.79" y2="1150.12" style="fill:none;stroke:#00AEEF;stroke-width:0.5;opacity:1.0;"/>
 </g>
 <g id="Symbols">
  <g id="Black-L" transform="matrix(1.0,0.0,0.0,1.0,2889.2333251953123,1475.3233447265625)">  <path fill="#717171" opacity="1" fill-opacity="1" stroke-linejoin="round" clip-rule="evenodd" stroke="none" stroke-width="1px" xmlns:xlink="http://www.w3.org/1999/xlink" stroke-miterlimit="10" stroke-dasharray="none" fill-rule="nonzero" stroke-opacity="1" xml:space="preserve" stroke-linecap="round" version="1.1" d="M25.202,78.524L67.231,78.524C71.019,78.524,73.851,77.592,75.731,75.728C77.61,73.864,78.549,71.068,78.549,67.339L78.549,24.999C78.549,21.271,77.61,18.475,75.731,16.611C73.851,14.747,71.019,13.815,67.231,13.815L25.202,13.815C21.445,13.815,18.62,14.747,16.725,16.611C14.832,18.475,13.885,21.271,13.885,24.999L13.885,67.339C13.885,71.068,14.832,73.864,16.725,75.728C18.619,77.591,21.444,78.524,25.202,78.524ZM25.202,78.524"/>
  <path fill-opacity="1" stroke-linecap="round" fill="#010101" stroke-miterlimit="10" stroke-width="1px" opacity="1" clip-rule="evenodd" fill-rule="nonzero" stroke="none" stroke-opacity="1" stroke-linejoin="round" stroke-dasharray="none" version="1.1" xml:space="preserve" xmlns:xlink="http://www.w3.org/1999/xlink" d="M40.362,27.098L58.91,53.712L58.91,32.58C58.91,30.781,58.432,29.418,57.518,28.489C56.605,27.56,55.262,27.098,53.457,27.098C53.457,27.098,42.526,27.098,40.362,27.098ZM33.602,32.977L33.602,62.688C33.602,63.484,33.79,64.108,34.17,64.534C34.549,64.963,35.081,65.159,35.732,65.159C36.23,65.159,36.706,65.001,37.153,64.648C37.596,64.294,38.256,63.63,39.198,62.716L46.1,56.098C46.219,55.981,46.295,55.981,46.412,56.098L53.286,62.716C54.264,63.63,54.964,64.295,55.388,64.648C55.502,64.742,55.639,64.723,55.757,64.79L33.602,32.977ZM32.438,26.235L35.055,24.389L63.997,65.79L61.378,67.635L32.438,26.235ZM32.438,26.235"/>
</g>
  <g id="Heavy-L" transform="matrix(1.0,0.0,0.0,1.0,2592.5233251953123,1475.3233447265625)">  <path stroke-width="1px" version="1.1" stroke-miterlimit="10" fill="#717171" stroke-dasharray="none" clip-rule="evenodd" xml:space="preserve" opacity="1" fill-rule="nonzero" stroke-linejoin="round" fill-opacity="1" stroke="none" stroke-opacity="1" xmlns:xlink="http://www.w3.org/1999/xlink" stroke-linecap="round" d="M25.202,78.524L67.231,78.524C71.019,78.524,73.851,77.592,75.731,75.728C77.61,73.864,78.549,71.068,78.549,67.339L78.549,24.999C78.549,21.271,77.61,18.475,75.731,16.611C73.851,14.747,71.019,13.815,67.231,13.815L25.202,13.815C21.445,13.815,18.62,14.747,16.725,16.611C14.832,18.475,13.885,21.271,13.885,24.999L13.885,67.339C13.885,71.068,14.832,73.864,16.725,75.728C18.619,77.591,21.444,78.524,25.202,78.524ZM25.202,78.524"/>
  <path fill-rule="nonzero" xmlns:xlink="http://www.w3.org/1999/xlink" stroke-width="1px" stroke-miterlimit="10" stroke-linecap="round" stroke="none" fill="#010101" version="1.1" stroke-dasharray="none" stroke-linejoin="round" clip-rule="evenodd" opacity="1" xml:space="preserve" stroke-opacity="1" fill-opacity="1" d="M40.362,27.098L58.91,53.712L58.91,32.58C58.91,30.781,58.432,29.418,57.518,28.489C56.605,27.56,55.262,27.098,53.457,27.098C53.457,27.098,42.526,27.098,40.362,27.098ZM33.602,32.977L33.602,62.688C33.602,63.484,33.79,64.108,34.17,64.534C34.549,64.963,35.081,65.159,35.732,65.159C36.23,65.159,36.706,65.001,37.153,64.648C37.596,64.294,38.256,63.63,39.198,62.716L46.1,56.098C46.219,55.981,46.295,55.981,46.412,56.098L53.286,62.716C54.264,63.63,54.964,64.295,55.388,64.648C55.502,64.742,55.639,64.723,55.757,64.79L33.602,32.977ZM32.438,26.235L35.055,24.389L63.997,65.79L61.378,67.635L32.438,26.235ZM32.438,26.235"/>
</g>
  <g id="Bold-L" transform="matrix(1.0,0.0,0.0,1.0,2295.8133251953122,1475.3233447265625)">  <path stroke-opacity="1" stroke-width="1px" fill="#717171" xmlns:xlink="http://www.w3.org/1999/xlink" stroke-linecap="round" version="1.1" fill-rule="nonzero" xml:space="preserve" stroke-miterlimit="10" stroke="none" stroke-dasharray="none" opacity="1" fill-opacity="1" stroke-linejoin="round" clip-rule="evenodd" d="M25.202,78.524L67.231,78.524C71.019,78.524,73.851,77.592,75.731,75.728C77.61,73.864,78.549,71.068,78.549,67.339L78.549,24.999C78.549,21.271,77.61,18.475,75.731,16.611C73.851,14.747,71.019,13.815,67.231,13.815L25.202,13.815C21.445,13.815,18.62,14.747,16.725,16.611C14.832,18.475,13.885,21.271,13.885,24.999L13.885,67.339C13.885,71.068,14.832,73.864,16.725,75.728C18.619,77.591,21.444,78.524,25.202,78.524ZM25.202,78.524"/>
  <path stroke-miterlimit="10" xml:space="preserve" clip-rule="evenodd" stroke-width="1px" stroke-opacity="1" fill="#010101" stroke-dasharray="none" opacity="1" fill-opacity="1" stroke-linecap="round" stroke="none" stroke-linejoin="round" version="1.1" xmlns:xlink="http://www.w3.org/1999/xlink" fill-rule="nonzero" d="M40.362,27.098L58.91,53.712L58.91,32.58C58.91,30.781,58.432,29.418,57.518,28.489C56.605,27.56,55.262,27.098,53.457,27.098C53.457,27.098,42.526,27.098,40.362,27.098ZM33.602,32.977L33.602,62.688C33.602,63.484,33.79,64.108,34.17,64.534C34.549,64.963,35.081,65.159,35.732,65.159C36.23,65.159,36.706,65.001,37.153,64.648C37.596,64.294,38.256,63.63,39.198,62.716L46.1,56.098C46.219,55.981,46.295,55.981,46.412,56.098L53.286,62.716C54.264,63.63,54.964,64.295,55.388,64.648C55.502,64.742,55.639,64.723,55.757,64.79L33.602,32.977ZM32.438,26.235L35.055,24.389L63.997,65.79L61.378,67.635L32.438,26.235ZM32.438,26.235"/>
</g>
  <g id="Semibold-L" transform="matrix(1.0,0.0,0.0,1.0,1999.1033251953124,1475.3233447265625)">  <path fill-rule="nonzero" fill="#717171" version="1.1" stroke-width="1px" xml:space="preserve" stroke-opacity="1" stroke-miterlimit="10" clip-rule="evenodd" opacity="1" xmlns:xlink="http://www.w3.org/1999/xlink" stroke="none" stroke-linejoin="round" fill-opacity="1" stroke-linecap="round" stroke-dasharray="none" d="M25.202,78.524L67.231,78.524C71.019,78.524,73.851,77.592,75.731,75.728C77.61,73.864,78.549,71.068,78.549,67.339L78.549,24.999C78.549,21.271,77.61,18.475,75.731,16.611C73.851,14.747,71.019,13.815,67.231,13.815L25.202,13.815C21.445,13.815,18.62,14.747,16.725,16.611C14.832,18.475,13.885,21.271,13.885,24.999L13.885,67.339C13.885,71.068,14.832,73.864,16.725,75.728C18.619,77.591,21.444,78.524,25.202,78.524ZM25.202,78.524"/>
  <path stroke-width="1px" fill-opacity="1" xml:space="preserve" fill="#010101" fill-rule="nonzero" opacity="1" stroke-miterlimit="10" clip-rule="evenodd" stroke-dasharray="none" stroke-linecap="round" stroke-opacity="1" xmlns:xlink="http://www.w3.org/1999/xlink" stroke="none" version="1.1" stroke-linejoin="round" d="M40.362,27.098L58.91,53.712L58.91,32.58C58.91,30.781,58.432,29.418,57.518,28.489C56.605,27.56,55.262,27.098,53.457,27.098C53.457,27.098,42.526,27.098,40.362,27.098ZM33.602,32.977L33.602,62.688C33.602,63.484,33.79,64.108,34.17,64.534C34.549,64.963,35.081,65.159,35.732,65.159C36.23,65.159,36.706,65.001,37.153,64.648C37.596,64.294,38.256,63.63,39.198,62.716L46.1,56.098C46.219,55.981,46.295,55.981,46.412,56.098L53.286,62.716C54.264,63.63,54.964,64.295,55.388,64.648C55.502,64.742,55.639,64.723,55.757,64.79L33.602,32.977ZM32.438,26.235L35.055,24.389L63.997,65.79L61.378,67.635L32.438,26.235ZM32.438,26.235"/>
</g>
  <g id="Medium-L" transform="matrix(1.0,0.0,0.0,1.0,1702.3933251953124,1475.3233447265625)">  <path clip-rule="evenodd" stroke-linejoin="round" xmlns:xlink="http://www.w3.org/1999/xlink" fill="#717171" xml:space="preserve" stroke-linecap="round" version="1.1" stroke-miterlimit="10" opacity="1" stroke-dasharray="none" stroke="none" stroke-opacity="1" fill-opacity="1" fill-rule="nonzero" stroke-width="1px" d="M25.202,78.524L67.231,78.524C71.019,78.524,73.851,77.592,75.731,75.728C77.61,73.864,78.549,71.068,78.549,67.339L78.549,24.999C78.549,21.271,77.61,18.475,75.731,16.611C73.851,14.747,71.019,13.815,67.231,13.815L25.202,13.815C21.445,13.815,18.62,14.747,16.725,16.611C14.832,18.475,13.885,21.271,13.885,24.999L13.885,67.339C13.885,71.068,14.832,73.864,16.725,75.728C18.619,77.591,21.444,78.524,25.202,78.524ZM25.202,78.524"/>
  <path fill-opacity="1" stroke-linejoin="round" opacity="1" version="1.1" stroke-opacity="1" stroke-linecap="round" stroke-dasharray="none" fill="#010101" stroke-miterlimit="10" fill-rule="nonzero" stroke-width="1px" xml:space="preserve" stroke="none" clip-rule="evenodd" xmlns:xlink="http://www.w3.org/1999/xlink" d="M40.362,27.098L58.91,53.712L58.91,32.58C58.91,30.781,58.432,29.418,57.518,28.489C56.605,27.56,55.262,27.098,53.457,27.098C53.457,27.098,42.526,27.098,40.362,27.098ZM33.602,32.977L33.602,62.688C33.602,63.484,33.79,64.108,34.17,64.534C34.549,64.963,35.081,65.159,35.732,65.159C36.23,65.159,36.706,65.001,37.153,64.648C37.596,64.294,38.256,63.63,39.198,62.716L46.1,56.098C46.219,55.981,46.295,55.981,46.412,56.098L53.286,62.716C54.264,63.63,54.964,64.295,55.388,64.648C55.502,64.742,55.639,64.723,55.757,64.79L33.602,32.977ZM32.438,26.235L35.055,24.389L63.997,65.79L61.378,67.635L32.438,26.235ZM32.438,26.235"/>
</g>
  <g id="Regular-L" transform="matrix(1.0,0.0,0.0,1.0,1405.6833251953124,1475.3233447265625)">  <path xml:space="preserve" stroke-width="1px" clip-rule="evenodd" stroke="none" stroke-linejoin="round" fill-opacity="1" stroke-linecap="round" stroke-miterlimit="10" opacity="1" stroke-dasharray="none" version="1.1" stroke-opacity="1" fill="#717171" fill-rule="nonzero" xmlns:xlink="http://www.w3.org/1999/xlink" d="M25.202,78.524L67.231,78.524C71.019,78.524,73.851,77.592,75.731,75.728C77.61,73.864,78.549,71.068,78.549,67.339L78.549,24.999C78.549,21.271,77.61,18.475,75.731,16.611C73.851,14.747,71.019,13.815,67.231,13.815L25.202,13.815C21.445,13.815,18.62,14.747,16.725,16.611C14.832,18.475,13.885,21.271,13.885,24.999L13.885,67.339C13.885,71.068,14.832,73.864,16.725,75.728C18.619,77.591,21.444,78.524,25.202,78.524ZM25.202,78.524"/>
  <path xmlns:xlink="http://www.w3.org/1999/xlink" clip-rule="evenodd" stroke-opacity="1" stroke-dasharray="none" stroke-linecap="round" stroke-width="1px" fill-rule="nonzero" fill="#010101" fill-opacity="1" xml:space="preserve" stroke="none" opacity="1" stroke-miterlimit="10" stroke-linejoin="round" version="1.1" d="M40.362,27.098L58.91,53.712L58.91,32.58C58.91,30.781,58.432,29.418,57.518,28.489C56.605,27.56,55.262,27.098,53.457,27.098C53.457,27.098,42.526,27.098,40.362,27.098ZM33.602,32.977L33.602,62.688C33.602,63.484,33.79,64.108,34.17,64.534C34.549,64.963,35.081,65.159,35.732,65.159C36.23,65.159,36.706,65.001,37.153,64.648C37.596,64.294,38.256,63.63,39.198,62.716L46.1,56.098C46.219,55.981,46.295,55.981,46.412,56.098L53.286,62.716C54.264,63.63,54.964,64.295,55.388,64.648C55.502,64.742,55.639,64.723,55.757,64.79L33.602,32.977ZM32.438,26.235L35.055,24.389L63.997,65.79L61.378,67.635L32.438,26.235ZM32.438,26.235"/>
</g>
  <g id="Light-L" transform="matrix(1.0,0.0,0.0,1.0,1108.9733251953126,1475.3233447265625)">  <path stroke="none" version="1.1" stroke-linecap="round" stroke-opacity="1" fill="#717171" stroke-linejoin="round" xml:space="preserve" opacity="1" clip-rule="evenodd" stroke-dasharray="none" stroke-width="1px" stroke-miterlimit="10" fill-rule="nonzero" xmlns:xlink="http://www.w3.org/1999/xlink" fill-opacity="1" d="M25.202,78.524L67.231,78.524C71.019,78.524,73.851,77.592,75.731,75.728C77.61,73.864,78.549,71.068,78.549,67.339L78.549,24.999C78.549,21.271,77.61,18.475,75.731,16.611C73.851,14.747,71.019,13.815,67.231,13.815L25.202,13.815C21.445,13.815,18.62,14.747,16.725,16.611C14.832,18.475,13.885,21.271,13.885,24.999L13.885,67.339C13.885,71.068,14.832,73.864,16.725,75.728C18.619,77.591,21.444,78.524,25.202,78.524ZM25.202,78.524"/>
  <path fill-rule="nonzero" xmlns:xlink="http://www.w3.org/1999/xlink" xml:space="preserve" stroke-opacity="1" fill="#010101" stroke="none" stroke-linejoin="round" fill-opacity="1" clip-rule="evenodd" stroke-dasharray="none" stroke-miterlimit="10" stroke-linecap="round" stroke-width="1px" version="1.1" opacity="1" d="M40.362,27.098L58.91,53.712L58.91,32.58C58.91,30.781,58.432,29.418,57.518,28.489C56.605,27.56,55.262,27.098,53.457,27.098C53.457,27.098,42.526,27.098,40.362,27.098ZM33.602,32.977L33.602,62.688C33.602,63.484,33.79,64.108,34.17,64.534C34.549,64.963,35.081,65.159,35.732,65.159C36.23,65.159,36.706,65.001,37.153,64.648C37.596,64.294,38.256,63.63,39.198,62.716L46.1,56.098C46.219,55.981,46.295,55.981,46.412,56.098L53.286,62.716C54.264,63.63,54.964,64.295,55.388,64.648C55.502,64.742,55.639,64.723,55.757,64.79L33.602,32.977ZM32.438,26.235L35.055,24.389L63.997,65.79L61.378,67.635L32.438,26.235ZM32.438,26.235"/>
</g>
  <g id="Thin-L" transform="matrix(1.0,0.0,0.0,1.0,812.2633251953125,1475.3233447265625)">  <path xml:space="preserve" stroke-width="1px" opacity="1" stroke-miterlimit="10" clip-rule="evenodd" stroke="none" fill="#717171" stroke-linejoin="round" stroke-opacity="1" stroke-linecap="round" xmlns:xlink="http://www.w3.org/1999/xlink" version="1.1" fill-rule="nonzero" fill-opacity="1" stroke-dasharray="none" d="M25.202,78.524L67.231,78.524C71.019,78.524,73.851,77.592,75.731,75.728C77.61,73.864,78.549,71.068,78.549,67.339L78.549,24.999C78.549,21.271,77.61,18.475,75.731,16.611C73.851,14.747,71.019,13.815,67.231,13.815L25.202,13.815C21.445,13.815,18.62,14.747,16.725,16.611C14.832,18.475,13.885,21.271,13.885,24.999L13.885,67.339C13.885,71.068,14.832,73.864,16.725,75.728C18.619,77.591,21.444,78.524,25.202,78.524ZM25.202,78.524"/>
  <path stroke-width="1px" xml:space="preserve" stroke-miterlimit="10" stroke="none" stroke-linecap="round" fill="#010101" clip-rule="evenodd" opacity="1" version="1.1" stroke-linejoin="round" stroke-dasharray="none" fill-opacity="1" stroke-opacity="1" xmlns:xlink="http://www.w3.org/1999/xlink" fill-rule="nonzero" d="M40.362,27.098L58.91,53.712L58.91,32.58C58.91,30.781,58.432,29.418,57.518,28.489C56.605,27.56,55.262,27.098,53.457,27.098C53.457,27.098,42.526,27.098,40.362,27.098ZM33.602,32.977L33.602,62.688C33.602,63.484,33.79,64.108,34.17,64.534C34.549,64.963,35.081,65.159,35.732,65.159C36.23,65.159,36.706,65.001,37.153,64.648C37.596,64.294,38.256,63.63,39.198,62.716L46.1,56.098C46.219,55.981,46.295,55.981,46.412,56.098L53.286,62.716C54.264,63.63,54.964,64.295,55.388,64.648C55.502,64.742,55.639,64.723,55.757,64.79L33.602,32.977ZM32.438,26.235L35.055,24.389L63.997,65.79L61.378,67.635L32.438,26.235ZM32.438,26.235"/>
</g>
  <g id="Ultralight-L" transform="matrix(1.0,0.0,0.0,1.0,515.5533251953125,1475.3233447265625)">  <path stroke-linejoin="round" fill-opacity="1" stroke-linecap="round" version="1.1" xmlns:xlink="http://www.w3.org/1999/xlink" clip-rule="evenodd" stroke-dasharray="none" stroke-width="1px" xml:space="preserve" fill="#717171" stroke="none" stroke-opacity="1" fill-rule="nonzero" stroke-miterlimit="10" opacity="1" d="M25.202,78.524L67.231,78.524C71.019,78.524,73.851,77.592,75.731,75.728C77.61,73.864,78.549,71.068,78.549,67.339L78.549,24.999C78.549,21.271,77.61,18.475,75.731,16.611C73.851,14.747,71.019,13.815,67.231,13.815L25.202,13.815C21.445,13.815,18.62,14.747,16.725,16.611C14.832,18.475,13.885,21.271,13.885,24.999L13.885,67.339C13.885,71.068,14.832,73.864,16.725,75.728C18.619,77.591,21.444,78.524,25.202,78.524ZM25.202,78.524"/>
  <path stroke-width="1px" xml:space="preserve" stroke-opacity="1" stroke-miterlimit="10" fill-rule="nonzero" xmlns:xlink="http://www.w3.org/1999/xlink" version="1.1" stroke-dasharray="none" stroke-linejoin="round" stroke-linecap="round" fill-opacity="1" opacity="1" fill="#010101" stroke="none" clip-rule="evenodd" d="M40.362,27.098L58.91,53.712L58.91,32.58C58.91,30.781,58.432,29.418,57.518,28.489C56.605,27.56,55.262,27.098,53.457,27.098C53.457,27.098,42.526,27.098,40.362,27.098ZM33.602,32.977L33.602,62.688C33.602,63.484,33.79,64.108,34.17,64.534C34.549,64.963,35.081,65.159,35.732,65.159C36.23,65.159,36.706,65.001,37.153,64.648C37.596,64.294,38.256,63.63,39.198,62.716L46.1,56.098C46.219,55.981,46.295,55.981,46.412,56.098L53.286,62.716C54.264,63.63,54.964,64.295,55.388,64.648C55.502,64.742,55.639,64.723,55.757,64.79L33.602,32.977ZM32.438,26.235L35.055,24.389L63.997,65.79L61.378,67.635L32.438,26.235ZM32.438,26.235"/>
</g>
  <g id="Black-M" transform="matrix(1.0,0.0,0.0,1.0,2899.45001953125,1055.5400390625)">  <path fill="#717171" opacity="1" fill-opacity="1" stroke-linejoin="round" clip-rule="evenodd" stroke="none" stroke-width="1px" xmlns:xlink="http://www.w3.org/1999/xlink" stroke-miterlimit="10" stroke-dasharray="none" fill-rule="nonzero" stroke-opacity="1" xml:space="preserve" stroke-linecap="round" version="1.1" d="M19.537,60.871L52.117,60.871C55.053,60.871,57.249,60.149,58.706,58.704C60.163,57.259,60.891,55.091,60.891,52.201L60.891,19.379C60.891,16.489,60.163,14.322,58.706,12.877C57.249,11.431,55.053,10.709,52.117,10.709L19.537,10.709C16.624,10.709,14.434,11.431,12.965,12.877C11.498,14.322,10.764,16.489,10.764,19.379L10.764,52.201C10.764,55.091,11.498,57.259,12.965,58.704C14.433,60.148,16.624,60.871,19.537,60.871ZM19.537,60.871"/>
  <path fill-opacity="1" stroke-linecap="round" fill="#010101" stroke-miterlimit="10" stroke-width="1px" opacity="1" clip-rule="evenodd" fill-rule="nonzero" stroke="none" stroke-opacity="1" stroke-linejoin="round" stroke-dasharray="none" version="1.1" xml:space="preserve" xmlns:xlink="http://www.w3.org/1999/xlink" d="M31.289,21.006L45.667,41.637L45.667,25.256C45.667,23.861,45.296,22.805,44.588,22.085C43.88,21.365,42.839,21.006,41.439,21.006C41.439,21.006,32.966,21.006,31.289,21.006ZM26.048,25.564L26.048,48.595C26.048,49.213,26.194,49.696,26.489,50.027C26.782,50.359,27.194,50.511,27.7,50.511C28.085,50.511,28.455,50.388,28.801,50.115C29.144,49.841,29.656,49.325,30.386,48.617L35.736,43.487C35.829,43.396,35.888,43.396,35.979,43.487L41.307,48.617C42.065,49.325,42.607,49.841,42.937,50.115C43.025,50.188,43.131,50.173,43.223,50.225L26.048,25.564ZM25.146,20.338L27.174,18.907L49.61,51L47.58,52.43L25.146,20.338ZM25.146,20.338"/>
</g>
  <g id="Heavy-M" transform="matrix(1.0,0.0,0.0,1.0,2602.74001953125,1055.5400390625)">  <path stroke-width="1px" version="1.1" stroke-miterlimit="10" fill="#717171" stroke-dasharray="none" clip-rule="evenodd" xml:space="preserve" opacity="1" fill-rule="nonzero" stroke-linejoin="round" fill-opacity="1" stroke="none" stroke-opacity="1" xmlns:xlink="http://www.w3.org/1999/xlink" stroke-linecap="round" d="M19.537,60.871L52.117,60.871C55.053,60.871,57.249,60.149,58.706,58.704C60.163,57.259,60.891,55.091,60.891,52.201L60.891,19.379C60.891,16.489,60.163,14.322,58.706,12.877C57.249,11.431,55.053,10.709,52.117,10.709L19.537,10.709C16.624,10.709,14.434,11.431,12.965,12.877C11.498,14.322,10.764,16.489,10.764,19.379L10.764,52.201C10.764,55.091,11.498,57.259,12.965,58.704C14.433,60.148,16.624,60.871,19.537,60.871ZM19.537,60.871"/>
  <path fill-rule="nonzero" xmlns:xlink="http://www.w3.org/1999/xlink" stroke-width="1px" stroke-miterlimit="10" stroke-linecap="round" stroke="none" fill="#010101" version="1.1" stroke-dasharray="none" stroke-linejoin="round" clip-rule="evenodd" opacity="1" xml:space="preserve" stroke-opacity="1" fill-opacity="1" d="M31.289,21.006L45.667,41.637L45.667,25.256C45.667,23.861,45.296,22.805,44.588,22.085C43.88,21.365,42.839,21.006,41.439,21.006C41.439,21.006,32.966,21.006,31.289,21.006ZM26.048,25.564L26.048,48.595C26.048,49.213,26.194,49.696,26.489,50.027C26.782,50.359,27.194,50.511,27.7,50.511C28.085,50.511,28.455,50.388,28.801,50.115C29.144,49.841,29.656,49.325,30.386,48.617L35.736,43.487C35.829,43.396,35.888,43.396,35.979,43.487L41.307,48.617C42.065,49.325,42.607,49.841,42.937,50.115C43.025,50.188,43.131,50.173,43.223,50.225L26.048,25.564ZM25.146,20.338L27.174,18.907L49.61,51L47.58,52.43L25.146,20.338ZM25.146,20.338"/>
</g>
  <g id="Bold-M" transform="matrix(1.0,0.0,0.0,1.0,2306.0300195312498,1055.5400390625)">  <path stroke-opacity="1" stroke-width="1px" fill="#717171" xmlns:xlink="http://www.w3.org/1999/xlink" stroke-linecap="round" version="1.1" fill-rule="nonzero" xml:space="preserve" stroke-miterlimit="10" stroke="none" stroke-dasharray="none" opacity="1" fill-opacity="1" stroke-linejoin="round" clip-rule="evenodd" d="M19.537,60.871L52.117,60.871C55.053,60.871,57.249,60.149,58.706,58.704C60.163,57.259,60.891,55.091,60.891,52.201L60.891,19.379C60.891,16.489,60.163,14.322,58.706,12.877C57.249,11.431,55.053,10.709,52.117,10.709L19.537,10.709C16.624,10.709,14.434,11.431,12.965,12.877C11.498,14.322,10.764,16.489,10.764,19.379L10.764,52.201C10.764,55.091,11.498,57.259,12.965,58.704C14.433,60.148,16.624,60.871,19.537,60.871ZM19.537,60.871"/>
  <path stroke-miterlimit="10" xml:space="preserve" clip-rule="evenodd" stroke-width="1px" stroke-opacity="1" fill="#010101" stroke-dasharray="none" opacity="1" fill-opacity="1" stroke-linecap="round" stroke="none" stroke-linejoin="round" version="1.1" xmlns:xlink="http://www.w3.org/1999/xlink" fill-rule="nonzero" d="M31.289,21.006L45.667,41.637L45.667,25.256C45.667,23.861,45.296,22.805,44.588,22.085C43.88,21.365,42.839,21.006,41.439,21.006C41.439,21.006,32.966,21.006,31.289,21.006ZM26.048,25.564L26.048,48.595C26.048,49.213,26.194,49.696,26.489,50.027C26.782,50.359,27.194,50.511,27.7,50.511C28.085,50.511,28.455,50.388,28.801,50.115C29.144,49.841,29.656,49.325,30.386,48.617L35.736,43.487C35.829,43.396,35.888,43.396,35.979,43.487L41.307,48.617C42.065,49.325,42.607,49.841,42.937,50.115C43.025,50.188,43.131,50.173,43.223,50.225L26.048,25.564ZM25.146,20.338L27.174,18.907L49.61,51L47.58,52.43L25.146,20.338ZM25.146,20.338"/>
</g>
  <g id="Semibold-M" transform="matrix(1.0,0.0,0.0,1.0,2009.32001953125,1055.5400390625)">  <path fill-rule="nonzero" fill="#717171" version="1.1" stroke-width="1px" xml:space="preserve" stroke-opacity="1" stroke-miterlimit="10" clip-rule="evenodd" opacity="1" xmlns:xlink="http://www.w3.org/1999/xlink" stroke="none" stroke-linejoin="round" fill-opacity="1" stroke-linecap="round" stroke-dasharray="none" d="M19.537,60.871L52.117,60.871C55.053,60.871,57.249,60.149,58.706,58.704C60.163,57.259,60.891,55.091,60.891,52.201L60.891,19.379C60.891,16.489,60.163,14.322,58.706,12.877C57.249,11.431,55.053,10.709,52.117,10.709L19.537,10.709C16.624,10.709,14.434,11.431,12.965,12.877C11.498,14.322,10.764,16.489,10.764,19.379L10.764,52.201C10.764,55.091,11.498,57.259,12.965,58.704C14.433,60.148,16.624,60.871,19.537,60.871ZM19.537,60.871"/>
  <path stroke-width="1px" fill-opacity="1" xml:space="preserve" fill="#010101" fill-rule="nonzero" opacity="1" stroke-miterlimit="10" clip-rule="evenodd" stroke-dasharray="none" stroke-linecap="round" stroke-opacity="1" xmlns:xlink="http://www.w3.org/1999/xlink" stroke="none" version="1.1" stroke-linejoin="round" d="M31.289,21.006L45.667,41.637L45.667,25.256C45.667,23.861,45.296,22.805,44.588,22.085C43.88,21.365,42.839,21.006,41.439,21.006C41.439,21.006,32.966,21.006,31.289,21.006ZM26.048,25.564L26.048,48.595C26.048,49.213,26.194,49.696,26.489,50.027C26.782,50.359,27.194,50.511,27.7,50.511C28.085,50.511,28.455,50.388,28.801,50.115C29.144,49.841,29.656,49.325,30.386,48.617L35.736,43.487C35.829,43.396,35.888,43.396,35.979,43.487L41.307,48.617C42.065,49.325,42.607,49.841,42.937,50.115C43.025,50.188,43.131,50.173,43.223,50.225L26.048,25.564ZM25.146,20.338L27.174,18.907L49.61,51L47.58,52.43L25.146,20.338ZM25.146,20.338"/>
</g>
  <g id="Medium-M" transform="matrix(1.0,0.0,0.0,1.0,1712.61001953125,1055.5400390625)">  <path clip-rule="evenodd" stroke-linejoin="round" xmlns:xlink="http://www.w3.org/1999/xlink" fill="#717171" xml:space="preserve" stroke-linecap="round" version="1.1" stroke-miterlimit="10" opacity="1" stroke-dasharray="none" stroke="none" stroke-opacity="1" fill-opacity="1" fill-rule="nonzero" stroke-width="1px" d="M19.537,60.871L52.117,60.871C55.053,60.871,57.249,60.149,58.706,58.704C60.163,57.259,60.891,55.091,60.891,52.201L60.891,19.379C60.891,16.489,60.163,14.322,58.706,12.877C57.249,11.431,55.053,10.709,52.117,10.709L19.537,10.709C16.624,10.709,14.434,11.431,12.965,12.877C11.498,14.322,10.764,16.489,10.764,19.379L10.764,52.201C10.764,55.091,11.498,57.259,12.965,58.704C14.433,60.148,16.624,60.871,19.537,60.871ZM19.537,60.871"/>
  <path fill-opacity="1" stroke-linejoin="round" opacity="1" version="1.1" stroke-opacity="1" stroke-linecap="round" stroke-dasharray="none" fill="#010101" stroke-miterlimit="10" fill-rule="nonzero" stroke-width="1px" xml:space="preserve" stroke="none" clip-rule="evenodd" xmlns:xlink="http://www.w3.org/1999/xlink" d="M31.289,21.006L45.667,41.637L45.667,25.256C45.667,23.861,45.296,22.805,44.588,22.085C43.88,21.365,42.839,21.006,41.439,21.006C41.439,21.006,32.966,21.006,31.289,21.006ZM26.048,25.564L26.048,48.595C26.048,49.213,26.194,49.696,26.489,50.027C26.782,50.359,27.194,50.511,27.7,50.511C28.085,50.511,28.455,50.388,28.801,50.115C29.144,49.841,29.656,49.325,30.386,48.617L35.736,43.487C35.829,43.396,35.888,43.396,35.979,43.487L41.307,48.617C42.065,49.325,42.607,49.841,42.937,50.115C43.025,50.188,43.131,50.173,43.223,50.225L26.048,25.564ZM25.146,20.338L27.174,18.907L49.61,51L47.58,52.43L25.146,20.338ZM25.146,20.338"/>
</g>
  <g id="Regular-M" transform="matrix(1.0,0.0,0.0,1.0,1415.9000195312499,1055.5400390625)">  <path xml:space="preserve" stroke-width="1px" clip-rule="evenodd" stroke="none" stroke-linejoin="round" fill-opacity="1" stroke-linecap="round" stroke-miterlimit="10" opacity="1" stroke-dasharray="none" version="1.1" stroke-opacity="1" fill="#717171" fill-rule="nonzero" xmlns:xlink="http://www.w3.org/1999/xlink" d="M19.537,60.871L52.117,60.871C55.053,60.871,57.249,60.149,58.706,58.704C60.163,57.259,60.891,55.091,60.891,52.201L60.891,19.379C60.891,16.489,60.163,14.322,58.706,12.877C57.249,11.431,55.053,10.709,52.117,10.709L19.537,10.709C16.624,10.709,14.434,11.431,12.965,12.877C11.498,14.322,10.764,16.489,10.764,19.379L10.764,52.201C10.764,55.091,11.498,57.259,12.965,58.704C14.433,60.148,16.624,60.871,19.537,60.871ZM19.537,60.871"/>
  <path xmlns:xlink="http://www.w3.org/1999/xlink" clip-rule="evenodd" stroke-opacity="1" stroke-dasharray="none" stroke-linecap="round" stroke-width="1px" fill-rule="nonzero" fill="#010101" fill-opacity="1" xml:space="preserve" stroke="none" opacity="1" stroke-miterlimit="10" stroke-linejoin="round" version="1.1" d="M31.289,21.006L45.667,41.637L45.667,25.256C45.667,23.861,45.296,22.805,44.588,22.085C43.88,21.365,42.839,21.006,41.439,21.006C41.439,21.006,32.966,21.006,31.289,21.006ZM26.048,25.564L26.048,48.595C26.048,49.213,26.194,49.696,26.489,50.027C26.782,50.359,27.194,50.511,27.7,50.511C28.085,50.511,28.455,50.388,28.801,50.115C29.144,49.841,29.656,49.325,30.386,48.617L35.736,43.487C35.829,43.396,35.888,43.396,35.979,43.487L41.307,48.617C42.065,49.325,42.607,49.841,42.937,50.115C43.025,50.188,43.131,50.173,43.223,50.225L26.048,25.564ZM25.146,20.338L27.174,18.907L49.61,51L47.58,52.43L25.146,20.338ZM25.146,20.338"/>
</g>
  <g id="Light-M" transform="matrix(1.0,0.0,0.0,1.0,1119.19001953125,1055.5400390625)">  <path stroke="none" version="1.1" stroke-linecap="round" stroke-opacity="1" fill="#717171" stroke-linejoin="round" xml:space="preserve" opacity="1" clip-rule="evenodd" stroke-dasharray="none" stroke-width="1px" stroke-miterlimit="10" fill-rule="nonzero" xmlns:xlink="http://www.w3.org/1999/xlink" fill-opacity="1" d="M19.537,60.871L52.117,60.871C55.053,60.871,57.249,60.149,58.706,58.704C60.163,57.259,60.891,55.091,60.891,52.201L60.891,19.379C60.891,16.489,60.163,14.322,58.706,12.877C57.249,11.431,55.053,10.709,52.117,10.709L19.537,10.709C16.624,10.709,14.434,11.431,12.965,12.877C11.498,14.322,10.764,16.489,10.764,19.379L10.764,52.201C10.764,55.091,11.498,57.259,12.965,58.704C14.433,60.148,16.624,60.871,19.537,60.871ZM19.537,60.871"/>
  <path fill-rule="nonzero" xmlns:xlink="http://www.w3.org/1999/xlink" xml:space="preserve" stroke-opacity="1" fill="#010101" stroke="none" stroke-linejoin="round" fill-opacity="1" clip-rule="evenodd" stroke-dasharray="none" stroke-miterlimit="10" stroke-linecap="round" stroke-width="1px" version="1.1" opacity="1" d="M31.289,21.006L45.667,41.637L45.667,25.256C45.667,23.861,45.296,22.805,44.588,22.085C43.88,21.365,42.839,21.006,41.439,21.006C41.439,21.006,32.966,21.006,31.289,21.006ZM26.048,25.564L26.048,48.595C26.048,49.213,26.194,49.696,26.489,50.027C26.782,50.359,27.194,50.511,27.7,50.511C28.085,50.511,28.455,50.388,28.801,50.115C29.144,49.841,29.656,49.325,30.386,48.617L35.736,43.487C35.829,43.396,35.888,43.396,35.979,43.487L41.307,48.617C42.065,49.325,42.607,49.841,42.937,50.115C43.025,50.188,43.131,50.173,43.223,50.225L26.048,25.564ZM25.146,20.338L27.174,18.907L49.61,51L47.58,52.43L25.146,20.338ZM25.146,20.338"/>
</g>
  <g id="Thin-M" transform="matrix(1.0,0.0,0.0,1.0,822.48001953125,1055.5400390625)">  <path xml:space="preserve" stroke-width="1px" opacity="1" stroke-miterlimit="10" clip-rule="evenodd" stroke="none" fill="#717171" stroke-linejoin="round" stroke-opacity="1" stroke-linecap="round" xmlns:xlink="http://www.w3.org/1999/xlink" version="1.1" fill-rule="nonzero" fill-opacity="1" stroke-dasharray="none" d="M19.537,60.871L52.117,60.871C55.053,60.871,57.249,60.149,58.706,58.704C60.163,57.259,60.891,55.091,60.891,52.201L60.891,19.379C60.891,16.489,60.163,14.322,58.706,12.877C57.249,11.431,55.053,10.709,52.117,10.709L19.537,10.709C16.624,10.709,14.434,11.431,12.965,12.877C11.498,14.322,10.764,16.489,10.764,19.379L10.764,52.201C10.764,55.091,11.498,57.259,12.965,58.704C14.433,60.148,16.624,60.871,19.537,60.871ZM19.537,60.871"/>
  <path stroke-width="1px" xml:space="preserve" stroke-miterlimit="10" stroke="none" stroke-linecap="round" fill="#010101" clip-rule="evenodd" opacity="1" version="1.1" stroke-linejoin="round" stroke-dasharray="none" fill-opacity="1" stroke-opacity="1" xmlns:xlink="http://www.w3.org/1999/xlink" fill-rule="nonzero" d="M31.289,21.006L45.667,41.637L45.667,25.256C45.667,23.861,45.296,22.805,44.588,22.085C43.88,21.365,42.839,21.006,41.439,21.006C41.439,21.006,32.966,21.006,31.289,21.006ZM26.048,25.564L26.048,48.595C26.048,49.213,26.194,49.696,26.489,50.027C26.782,50.359,27.194,50.511,27.7,50.511C28.085,50.511,28.455,50.388,28.801,50.115C29.144,49.841,29.656,49.325,30.386,48.617L35.736,43.487C35.829,43.396,35.888,43.396,35.979,43.487L41.307,48.617C42.065,49.325,42.607,49.841,42.937,50.115C43.025,50.188,43.131,50.173,43.223,50.225L26.048,25.564ZM25.146,20.338L27.174,18.907L49.61,51L47.58,52.43L25.146,20.338ZM25.146,20.338"/>
</g>
  <g id="Ultralight-M" transform="matrix(1.0,0.0,0.0,1.0,525.77001953125,1055.5400390625)">  <path stroke-linejoin="round" fill-opacity="1" stroke-linecap="round" version="1.1" xmlns:xlink="http://www.w3.org/1999/xlink" clip-rule="evenodd" stroke-dasharray="none" stroke-width="1px" xml:space="preserve" fill="#717171" stroke="none" stroke-opacity="1" fill-rule="nonzero" stroke-miterlimit="10" opacity="1" d="M19.537,60.871L52.117,60.871C55.053,60.871,57.249,60.149,58.706,58.704C60.163,57.259,60.891,55.091,60.891,52.201L60.891,19.379C60.891,16.489,60.163,14.322,58.706,12.877C57.249,11.431,55.053,10.709,52.117,10.709L19.537,10.709C16.624,10.709,14.434,11.431,12.965,12.877C11.498,14.322,10.764,16.489,10.764,19.379L10.764,52.201C10.764,55.091,11.498,57.259,12.965,58.704C14.433,60.148,16.624,60.871,19.537,60.871ZM19.537,60.871"/>
  <path stroke-width="1px" xml:space="preserve" stroke-opacity="1" stroke-miterlimit="10" fill-rule="nonzero" xmlns:xlink="http://www.w3.org/1999/xlink" version="1.1" stroke-dasharray="none" stroke-linejoin="round" stroke-linecap="round" fill-opacity="1" opacity="1" fill="#010101" stroke="none" clip-rule="evenodd" d="M31.289,21.006L45.667,41.637L45.667,25.256C45.667,23.861,45.296,22.805,44.588,22.085C43.88,21.365,42.839,21.006,41.439,21.006C41.439,21.006,32.966,21.006,31.289,21.006ZM26.048,25.564L26.048,48.595C26.048,49.213,26.194,49.696,26.489,50.027C26.782,50.359,27.194,50.511,27.7,50.511C28.085,50.511,28.455,50.388,28.801,50.115C29.144,49.841,29.656,49.325,30.386,48.617L35.736,43.487C35.829,43.396,35.888,43.396,35.979,43.487L41.307,48.617C42.065,49.325,42.607,49.841,42.937,50.115C43.025,50.188,43.131,50.173,43.223,50.225L26.048,25.564ZM25.146,20.338L27.174,18.907L49.61,51L47.58,52.43L25.146,20.338ZM25.146,20.338"/>
</g>
  <g id="Black-S" transform="matrix(1.0,0.0,0.0,1.0,2907.0949252929686,633.1849448242187)">  <path fill="#717171" opacity="1" fill-opacity="1" stroke-linejoin="round" clip-rule="evenodd" stroke="none" stroke-width="1px" xmlns:xlink="http://www.w3.org/1999/xlink" stroke-miterlimit="10" stroke-dasharray="none" fill-rule="nonzero" stroke-opacity="1" xml:space="preserve" stroke-linecap="round" version="1.1" d="M15.297,47.662L40.808,47.662C43.107,47.662,44.826,47.097,45.967,45.965C47.108,44.833,47.678,43.136,47.678,40.873L47.678,15.174C47.678,12.911,47.108,11.214,45.967,10.082C44.826,8.951,43.107,8.385,40.808,8.385L15.297,8.385C13.016,8.385,11.302,8.951,10.152,10.082C9.003,11.214,8.428,12.911,8.428,15.174L8.428,40.873C8.428,43.136,9.003,44.833,10.152,45.965C11.301,47.096,13.016,47.662,15.297,47.662ZM15.297,47.662"/>
  <path fill-opacity="1" stroke-linecap="round" fill="#010101" stroke-miterlimit="10" stroke-width="1px" opacity="1" clip-rule="evenodd" fill-rule="nonzero" stroke="none" stroke-opacity="1" stroke-linejoin="round" stroke-dasharray="none" version="1.1" xml:space="preserve" xmlns:xlink="http://www.w3.org/1999/xlink" d="M24.499,16.448L35.757,32.602L35.757,19.775C35.757,18.683,35.467,17.856,34.912,17.292C34.358,16.729,33.543,16.448,32.447,16.448C32.447,16.448,25.812,16.448,24.499,16.448ZM20.396,20.016L20.396,38.05C20.396,38.533,20.51,38.912,20.741,39.171C20.971,39.431,21.293,39.55,21.689,39.55C21.991,39.55,22.28,39.454,22.551,39.24C22.82,39.025,23.221,38.622,23.792,38.067L27.982,34.05C28.054,33.979,28.1,33.979,28.171,34.05L32.344,38.067C32.937,38.622,33.362,39.026,33.619,39.24C33.688,39.297,33.771,39.285,33.843,39.326L20.396,20.016ZM19.689,15.924L21.277,14.804L38.844,39.933L37.255,41.053L19.689,15.924ZM19.689,15.924"/>
</g>
  <g id="Heavy-S" transform="matrix(1.0,0.0,0.0,1.0,2610.3849252929685,633.1849448242187)">  <path stroke-width="1px" version="1.1" stroke-miterlimit="10" fill="#717171" stroke-dasharray="none" clip-rule="evenodd" xml:space="preserve" opacity="1" fill-rule="nonzero" stroke-linejoin="round" fill-opacity="1" stroke="none" stroke-opacity="1" xmlns:xlink="http://www.w3.org/1999/xlink" stroke-linecap="round" d="M15.297,47.662L40.808,47.662C43.107,47.662,44.826,47.097,45.967,45.965C47.108,44.833,47.678,43.136,47.678,40.873L47.678,15.174C47.678,12.911,47.108,11.214,45.967,10.082C44.826,8.951,43.107,8.385,40.808,8.385L15.297,8.385C13.016,8.385,11.302,8.951,10.152,10.082C9.003,11.214,8.428,12.911,8.428,15.174L8.428,40.873C8.428,43.136,9.003,44.833,10.152,45.965C11.301,47.096,13.016,47.662,15.297,47.662ZM15.297,47.662"/>
  <path fill-rule="nonzero" xmlns:xlink="http://www.w3.org/1999/xlink" stroke-width="1px" stroke-miterlimit="10" stroke-linecap="round" stroke="none" fill="#010101" version="1.1" stroke-dasharray="none" stroke-linejoin="round" clip-rule="evenodd" opacity="1" xml:space="preserve" stroke-opacity="1" fill-opacity="1" d="M24.499,16.448L35.757,32.602L35.757,19.775C35.757,18.683,35.467,17.856,34.912,17.292C34.358,16.729,33.543,16.448,32.447,16.448C32.447,16.448,25.812,16.448,24.499,16.448ZM20.396,20.016L20.396,38.05C20.396,38.533,20.51,38.912,20.741,39.171C20.971,39.431,21.293,39.55,21.689,39.55C21.991,39.55,22.28,39.454,22.551,39.24C22.82,39.025,23.221,38.622,23.792,38.067L27.982,34.05C28.054,33.979,28.1,33.979,28.171,34.05L32.344,38.067C32.937,38.622,33.362,39.026,33.619,39.24C33.688,39.297,33.771,39.285,33.843,39.326L20.396,20.016ZM19.689,15.924L21.277,14.804L38.844,39.933L37.255,41.053L19.689,15.924ZM19.689,15.924"/>
</g>
  <g id="Bold-S" transform="matrix(1.0,0.0,0.0,1.0,2313.6749252929685,633.1849448242187)">  <path stroke-opacity="1" stroke-width="1px" fill="#717171" xmlns:xlink="http://www.w3.org/1999/xlink" stroke-linecap="round" version="1.1" fill-rule="nonzero" xml:space="preserve" stroke-miterlimit="10" stroke="none" stroke-dasharray="none" opacity="1" fill-opacity="1" stroke-linejoin="round" clip-rule="evenodd" d="M15.297,47.662L40.808,47.662C43.107,47.662,44.826,47.097,45.967,45.965C47.108,44.833,47.678,43.136,47.678,40.873L47.678,15.174C47.678,12.911,47.108,11.214,45.967,10.082C44.826,8.951,43.107,8.385,40.808,8.385L15.297,8.385C13.016,8.385,11.302,8.951,10.152,10.082C9.003,11.214,8.428,12.911,8.428,15.174L8.428,40.873C8.428,43.136,9.003,44.833,10.152,45.965C11.301,47.096,13.016,47.662,15.297,47.662ZM15.297,47.662"/>
  <path stroke-miterlimit="10" xml:space="preserve" clip-rule="evenodd" stroke-width="1px" stroke-opacity="1" fill="#010101" stroke-dasharray="none" opacity="1" fill-opacity="1" stroke-linecap="round" stroke="none" stroke-linejoin="round" version="1.1" xmlns:xlink="http://www.w3.org/1999/xlink" fill-rule="nonzero" d="M24.499,16.448L35.757,32.602L35.757,19.775C35.757,18.683,35.467,17.856,34.912,17.292C34.358,16.729,33.543,16.448,32.447,16.448C32.447,16.448,25.812,16.448,24.499,16.448ZM20.396,20.016L20.396,38.05C20.396,38.533,20.51,38.912,20.741,39.171C20.971,39.431,21.293,39.55,21.689,39.55C21.991,39.55,22.28,39.454,22.551,39.24C22.82,39.025,23.221,38.622,23.792,38.067L27.982,34.05C28.054,33.979,28.1,33.979,28.171,34.05L32.344,38.067C32.937,38.622,33.362,39.026,33.619,39.24C33.688,39.297,33.771,39.285,33.843,39.326L20.396,20.016ZM19.689,15.924L21.277,14.804L38.844,39.933L37.255,41.053L19.689,15.924ZM19.689,15.924"/>
</g>
  <g id="Semibold-S" transform="matrix(1.0,0.0,0.0,1.0,2016.9649252929687,633.1849448242187)">  <path fill-rule="nonzero" fill="#717171" version="1.1" stroke-width="1px" xml:space="preserve" stroke-opacity="1" stroke-miterlimit="10" clip-rule="evenodd" opacity="1" xmlns:xlink="http://www.w3.org/1999/xlink" stroke="none" stroke-linejoin="round" fill-opacity="1" stroke-linecap="round" stroke-dasharray="none" d="M15.297,47.662L40.808,47.662C43.107,47.662,44.826,47.097,45.967,45.965C47.108,44.833,47.678,43.136,47.678,40.873L47.678,15.174C47.678,12.911,47.108,11.214,45.967,10.082C44.826,8.951,43.107,8.385,40.808,8.385L15.297,8.385C13.016,8.385,11.302,8.951,10.152,10.082C9.003,11.214,8.428,12.911,8.428,15.174L8.428,40.873C8.428,43.136,9.003,44.833,10.152,45.965C11.301,47.096,13.016,47.662,15.297,47.662ZM15.297,47.662"/>
  <path stroke-width="1px" fill-opacity="1" xml:space="preserve" fill="#010101" fill-rule="nonzero" opacity="1" stroke-miterlimit="10" clip-rule="evenodd" stroke-dasharray="none" stroke-linecap="round" stroke-opacity="1" xmlns:xlink="http://www.w3.org/1999/xlink" stroke="none" version="1.1" stroke-linejoin="round" d="M24.499,16.448L35.757,32.602L35.757,19.775C35.757,18.683,35.467,17.856,34.912,17.292C34.358,16.729,33.543,16.448,32.447,16.448C32.447,16.448,25.812,16.448,24.499,16.448ZM20.396,20.016L20.396,38.05C20.396,38.533,20.51,38.912,20.741,39.171C20.971,39.431,21.293,39.55,21.689,39.55C21.991,39.55,22.28,39.454,22.551,39.24C22.82,39.025,23.221,38.622,23.792,38.067L27.982,34.05C28.054,33.979,28.1,33.979,28.171,34.05L32.344,38.067C32.937,38.622,33.362,39.026,33.619,39.24C33.688,39.297,33.771,39.285,33.843,39.326L20.396,20.016ZM19.689,15.924L21.277,14.804L38.844,39.933L37.255,41.053L19.689,15.924ZM19.689,15.924"/>
</g>
  <g id="Medium-S" transform="matrix(1.0,0.0,0.0,1.0,1720.2549252929687,633.1849448242187)">  <path clip-rule="evenodd" stroke-linejoin="round" xmlns:xlink="http://www.w3.org/1999/xlink" fill="#717171" xml:space="preserve" stroke-linecap="round" version="1.1" stroke-miterlimit="10" opacity="1" stroke-dasharray="none" stroke="none" stroke-opacity="1" fill-opacity="1" fill-rule="nonzero" stroke-width="1px" d="M15.297,47.662L40.808,47.662C43.107,47.662,44.826,47.097,45.967,45.965C47.108,44.833,47.678,43.136,47.678,40.873L47.678,15.174C47.678,12.911,47.108,11.214,45.967,10.082C44.826,8.951,43.107,8.385,40.808,8.385L15.297,8.385C13.016,8.385,11.302,8.951,10.152,10.082C9.003,11.214,8.428,12.911,8.428,15.174L8.428,40.873C8.428,43.136,9.003,44.833,10.152,45.965C11.301,47.096,13.016,47.662,15.297,47.662ZM15.297,47.662"/>
  <path fill-opacity="1" stroke-linejoin="round" opacity="1" version="1.1" stroke-opacity="1" stroke-linecap="round" stroke-dasharray="none" fill="#010101" stroke-miterlimit="10" fill-rule="nonzero" stroke-width="1px" xml:space="preserve" stroke="none" clip-rule="evenodd" xmlns:xlink="http://www.w3.org/1999/xlink" d="M24.499,16.448L35.757,32.602L35.757,19.775C35.757,18.683,35.467,17.856,34.912,17.292C34.358,16.729,33.543,16.448,32.447,16.448C32.447,16.448,25.812,16.448,24.499,16.448ZM20.396,20.016L20.396,38.05C20.396,38.533,20.51,38.912,20.741,39.171C20.971,39.431,21.293,39.55,21.689,39.55C21.991,39.55,22.28,39.454,22.551,39.24C22.82,39.025,23.221,38.622,23.792,38.067L27.982,34.05C28.054,33.979,28.1,33.979,28.171,34.05L32.344,38.067C32.937,38.622,33.362,39.026,33.619,39.24C33.688,39.297,33.771,39.285,33.843,39.326L20.396,20.016ZM19.689,15.924L21.277,14.804L38.844,39.933L37.255,41.053L19.689,15.924ZM19.689,15.924"/>
</g>
  <g id="Regular-S" transform="matrix(1.0,0.0,0.0,1.0,1423.5449252929686,633.1849448242187)">  <path xml:space="preserve" stroke-width="1px" clip-rule="evenodd" stroke="none" stroke-linejoin="round" fill-opacity="1" stroke-linecap="round" stroke-miterlimit="10" opacity="1" stroke-dasharray="none" version="1.1" stroke-opacity="1" fill="#717171" fill-rule="nonzero" xmlns:xlink="http://www.w3.org/1999/xlink" d="M15.297,47.662L40.808,47.662C43.107,47.662,44.826,47.097,45.967,45.965C47.108,44.833,47.678,43.136,47.678,40.873L47.678,15.174C47.678,12.911,47.108,11.214,45.967,10.082C44.826,8.951,43.107,8.385,40.808,8.385L15.297,8.385C13.016,8.385,11.302,8.951,10.152,10.082C9.003,11.214,8.428,12.911,8.428,15.174L8.428,40.873C8.428,43.136,9.003,44.833,10.152,45.965C11.301,47.096,13.016,47.662,15.297,47.662ZM15.297,47.662"/>
  <path xmlns:xlink="http://www.w3.org/1999/xlink" clip-rule="evenodd" stroke-opacity="1" stroke-dasharray="none" stroke-linecap="round" stroke-width="1px" fill-rule="nonzero" fill="#010101" fill-opacity="1" xml:space="preserve" stroke="none" opacity="1" stroke-miterlimit="10" stroke-linejoin="round" version="1.1" d="M24.499,16.448L35.757,32.602L35.757,19.775C35.757,18.683,35.467,17.856,34.912,17.292C34.358,16.729,33.543,16.448,32.447,16.448C32.447,16.448,25.812,16.448,24.499,16.448ZM20.396,20.016L20.396,38.05C20.396,38.533,20.51,38.912,20.741,39.171C20.971,39.431,21.293,39.55,21.689,39.55C21.991,39.55,22.28,39.454,22.551,39.24C22.82,39.025,23.221,38.622,23.792,38.067L27.982,34.05C28.054,33.979,28.1,33.979,28.171,34.05L32.344,38.067C32.937,38.622,33.362,39.026,33.619,39.24C33.688,39.297,33.771,39.285,33.843,39.326L20.396,20.016ZM19.689,15.924L21.277,14.804L38.844,39.933L37.255,41.053L19.689,15.924ZM19.689,15.924"/>
</g>
  <g id="Light-S" transform="matrix(1.0,0.0,0.0,1.0,1126.8349252929688,633.1849448242187)">  <path stroke="none" version="1.1" stroke-linecap="round" stroke-opacity="1" fill="#717171" stroke-linejoin="round" xml:space="preserve" opacity="1" clip-rule="evenodd" stroke-dasharray="none" stroke-width="1px" stroke-miterlimit="10" fill-rule="nonzero" xmlns:xlink="http://www.w3.org/1999/xlink" fill-opacity="1" d="M15.297,47.662L40.808,47.662C43.107,47.662,44.826,47.097,45.967,45.965C47.108,44.833,47.678,43.136,47.678,40.873L47.678,15.174C47.678,12.911,47.108,11.214,45.967,10.082C44.826,8.951,43.107,8.385,40.808,8.385L15.297,8.385C13.016,8.385,11.302,8.951,10.152,10.082C9.003,11.214,8.428,12.911,8.428,15.174L8.428,40.873C8.428,43.136,9.003,44.833,10.152,45.965C11.301,47.096,13.016,47.662,15.297,47.662ZM15.297,47.662"/>
  <path fill-rule="nonzero" xmlns:xlink="http://www.w3.org/1999/xlink" xml:space="preserve" stroke-opacity="1" fill="#010101" stroke="none" stroke-linejoin="round" fill-opacity="1" clip-rule="evenodd" stroke-dasharray="none" stroke-miterlimit="10" stroke-linecap="round" stroke-width="1px" version="1.1" opacity="1" d="M24.499,16.448L35.757,32.602L35.757,19.775C35.757,18.683,35.467,17.856,34.912,17.292C34.358,16.729,33.543,16.448,32.447,16.448C32.447,16.448,25.812,16.448,24.499,16.448ZM20.396,20.016L20.396,38.05C20.396,38.533,20.51,38.912,20.741,39.171C20.971,39.431,21.293,39.55,21.689,39.55C21.991,39.55,22.28,39.454,22.551,39.24C22.82,39.025,23.221,38.622,23.792,38.067L27.982,34.05C28.054,33.979,28.1,33.979,28.171,34.05L32.344,38.067C32.937,38.622,33.362,39.026,33.619,39.24C33.688,39.297,33.771,39.285,33.843,39.326L20.396,20.016ZM19.689,15.924L21.277,14.804L38.844,39.933L37.255,41.053L19.689,15.924ZM19.689,15.924"/>
</g>
  <g id="Thin-S" transform="matrix(1.0,0.0,0.0,1.0,830.1249252929688,633.1849448242187)">  <path xml:space="preserve" stroke-width="1px" opacity="1" stroke-miterlimit="10" clip-rule="evenodd" stroke="none" fill="#717171" stroke-linejoin="round" stroke-opacity="1" stroke-linecap="round" xmlns:xlink="http://www.w3.org/1999/xlink" version="1.1" fill-rule="nonzero" fill-opacity="1" stroke-dasharray="none" d="M15.297,47.662L40.808,47.662C43.107,47.662,44.826,47.097,45.967,45.965C47.108,44.833,47.678,43.136,47.678,40.873L47.678,15.174C47.678,12.911,47.108,11.214,45.967,10.082C44.826,8.951,43.107,8.385,40.808,8.385L15.297,8.385C13.016,8.385,11.302,8.951,10.152,10.082C9.003,11.214,8.428,12.911,8.428,15.174L8.428,40.873C8.428,43.136,9.003,44.833,10.152,45.965C11.301,47.096,13.016,47.662,15.297,47.662ZM15.297,47.662"/>
  <path stroke-width="1px" xml:space="preserve" stroke-miterlimit="10" stroke="none" stroke-linecap="round" fill="#010101" clip-rule="evenodd" opacity="1" version="1.1" stroke-linejoin="round" stroke-dasharray="none" fill-opacity="1" stroke-opacity="1" xmlns:xlink="http://www.w3.org/1999/xlink" fill-rule="nonzero" d="M24.499,16.448L35.757,32.602L35.757,19.775C35.757,18.683,35.467,17.856,34.912,17.292C34.358,16.729,33.543,16.448,32.447,16.448C32.447,16.448,25.812,16.448,24.499,16.448ZM20.396,20.016L20.396,38.05C20.396,38.533,20.51,38.912,20.741,39.171C20.971,39.431,21.293,39.55,21.689,39.55C21.991,39.55,22.28,39.454,22.551,39.24C22.82,39.025,23.221,38.622,23.792,38.067L27.982,34.05C28.054,33.979,28.1,33.979,28.171,34.05L32.344,38.067C32.937,38.622,33.362,39.026,33.619,39.24C33.688,39.297,33.771,39.285,33.843,39.326L20.396,20.016ZM19.689,15.924L21.277,14.804L38.844,39.933L37.255,41.053L19.689,15.924ZM19.689,15.924"/>
</g>
  <g id="Ultralight-S" transform="matrix(1.0,0.0,0.0,1.0,533.4149252929687,633.1849448242187)">  <path stroke-linejoin="round" fill-opacity="1" stroke-linecap="round" version="1.1" xmlns:xlink="http://www.w3.org/1999/xlink" clip-rule="evenodd" stroke-dasharray="none" stroke-width="1px" xml:space="preserve" fill="#717171" stroke="none" stroke-opacity="1" fill-rule="nonzero" stroke-miterlimit="10" opacity="1" d="M15.297,47.662L40.808,47.662C43.107,47.662,44.826,47.097,45.967,45.965C47.108,44.833,47.678,43.136,47.678,40.873L47.678,15.174C47.678,12.911,47.108,11.214,45.967,10.082C44.826,8.951,43.107,8.385,40.808,8.385L15.297,8.385C13.016,8.385,11.302,8.951,10.152,10.082C9.003,11.214,8.428,12.911,8.428,15.174L8.428,40.873C8.428,43.136,9.003,44.833,10.152,45.965C11.301,47.096,13.016,47.662,15.297,47.662ZM15.297,47.662"/>
  <path stroke-width="1px" xml:space="preserve" stroke-opacity="1" stroke-miterlimit="10" fill-rule="nonzero" xmlns:xlink="http://www.w3.org/1999/xlink" version="1.1" stroke-dasharray="none" stroke-linejoin="round" stroke-linecap="round" fill-opacity="1" opacity="1" fill="#010101" stroke="none" clip-rule="evenodd" d="M24.499,16.448L35.757,32.602L35.757,19.775C35.757,18.683,35.467,17.856,34.912,17.292C34.358,16.729,33.543,16.448,32.447,16.448C32.447,16.448,25.812,16.448,24.499,16.448ZM20.396,20.016L20.396,38.05C20.396,38.533,20.51,38.912,20.741,39.171C20.971,39.431,21.293,39.55,21.689,39.55C21.991,39.55,22.28,39.454,22.551,39.24C22.82,39.025,23.221,38.622,23.792,38.067L27.982,34.05C28.054,33.979,28.1,33.979,28.171,34.05L32.344,38.067C32.937,38.622,33.362,39.026,33.619,39.24C33.688,39.297,33.771,39.285,33.843,39.326L20.396,20.016ZM19.689,15.924L21.277,14.804L38.844,39.933L37.255,41.053L19.689,15.924ZM19.689,15.924"/>
</g>
 </g>
</svg>
