<?xml version="1.0" encoding="utf-8"?>
<!-- Generator: Adobe Illustrator 16.0.0, SVG Export Plug-In . SVG Version: 6.00 Build 0)  -->
<!DOCTYPE svg PUBLIC "-//W3C//DTD SVG 1.1//EN" "http://www.w3.org/Graphics/SVG/1.1/DTD/svg11.dtd">
<svg version="1.1" id="Layer_1" xmlns="http://www.w3.org/2000/svg" xmlns:xlink="http://www.w3.org/1999/xlink" x="0px" y="0px"
	 width="3300px" height="2200px" viewBox="0 0 3300 2200" enable-background="new 0 0 3300 2200" xml:space="preserve">
<g id="Notes">
	<rect id="artboard" fill="#FFFFFF" width="3300" height="2200"/>
	<line fill="none" stroke="#000000" stroke-width="0.5" x1="263" y1="292" x2="3036" y2="292"/>
	<text transform="matrix(1 0 0 1 263 322)" font-family="'Arial-BoldMT'" font-size="13">Weight/Scale Variations</text>
	<text transform="matrix(1 0 0 1 534.0635 322)" font-family="'ArialMT'" font-size="13">Ultralight</text>
	<text transform="matrix(1 0 0 1 843.7773 322)" font-family="'ArialMT'" font-size="13">Thin</text>
	<text transform="matrix(1 0 0 1 1139.0352 322)" font-family="'ArialMT'" font-size="13">Light</text>
	<text transform="matrix(1 0 0 1 1427.0771 322)" font-family="'ArialMT'" font-size="13">Regular</text>
	<text transform="matrix(1 0 0 1 1723.4414 322)" font-family="'ArialMT'" font-size="13">Medium</text>
	<text transform="matrix(1 0 0 1 2016.1719 322)" font-family="'ArialMT'" font-size="13">Semibold</text>
	<text transform="matrix(1 0 0 1 2326.9707 322)" font-family="'ArialMT'" font-size="13">Bold</text>
	<text transform="matrix(1 0 0 1 2618.2656 322)" font-family="'ArialMT'" font-size="13">Heavy</text>
	<text transform="matrix(1 0 0 1 2917.5059 322)" font-family="'ArialMT'" font-size="13">Black</text>
	<line fill="none" stroke="#000000" stroke-width="0.5" x1="263" y1="1903" x2="3036" y2="1903"/>
	<g transform="matrix(1 0 0 1 263 1933)">
		<path d="M9.248,0.83c1.081,0,2.096-0.205,3.047-0.615s1.789-0.979,2.515-1.709s1.295-1.569,1.709-2.52s0.62-1.963,0.62-3.037
			s-0.207-2.087-0.62-3.037s-0.985-1.79-1.714-2.52s-1.569-1.299-2.52-1.709s-1.966-0.615-3.047-0.615
			c-1.074,0-2.086,0.205-3.037,0.615s-1.787,0.979-2.51,1.709s-1.291,1.569-1.704,2.52s-0.62,1.963-0.62,3.037
			s0.207,2.087,0.62,3.037s0.983,1.79,1.709,2.52S5.26-0.195,6.211,0.215S8.174,0.83,9.248,0.83z M9.248-0.654
			c-0.885,0-1.714-0.164-2.485-0.493S5.314-1.934,4.731-2.52S3.693-3.786,3.364-4.561s-0.493-1.604-0.493-2.49
			s0.163-1.716,0.488-2.49s0.78-1.455,1.362-2.041s1.26-1.043,2.031-1.372s1.6-0.493,2.485-0.493c0.892,0,1.724,0.164,2.495,0.493
			s1.45,0.786,2.036,1.372s1.045,1.267,1.377,2.041s0.498,1.604,0.498,2.49s-0.165,1.716-0.493,2.49s-0.785,1.455-1.367,2.041
			s-1.261,1.043-2.036,1.372S10.14-0.654,9.248-0.654z M5.654-7.051c0,0.215,0.068,0.389,0.205,0.522s0.319,0.2,0.547,0.2h2.109
			v2.119c0,0.215,0.065,0.393,0.195,0.532s0.306,0.21,0.527,0.21c0.215,0,0.392-0.07,0.532-0.21s0.21-0.317,0.21-0.532v-2.119h2.109
			c0.221,0,0.4-0.066,0.537-0.2s0.205-0.308,0.205-0.522c0-0.222-0.068-0.4-0.205-0.537s-0.316-0.205-0.537-0.205H9.98v-2.109
			c0-0.222-0.07-0.402-0.21-0.542s-0.317-0.21-0.532-0.21c-0.221,0-0.397,0.07-0.527,0.21s-0.195,0.32-0.195,0.542v2.109H6.406
			c-0.228,0-0.41,0.068-0.547,0.205S5.654-7.272,5.654-7.051z"/>
	</g>
	<g transform="matrix(1 0 0 1 281.867 1933)">
		<path d="M11.709,2.91c1.36,0,2.642-0.261,3.843-0.781s2.261-1.24,3.179-2.158s1.637-1.978,2.158-3.179
			c0.521-1.201,0.781-2.482,0.781-3.843s-0.261-2.642-0.781-3.843c-0.521-1.201-1.24-2.261-2.158-3.179s-1.979-1.638-3.184-2.158
			c-1.205-0.521-2.487-0.781-3.848-0.781c-1.361,0-2.642,0.261-3.843,0.781s-2.259,1.24-3.174,2.158
			c-0.915,0.918-1.633,1.978-2.153,3.179C2.009-9.692,1.748-8.411,1.748-7.051s0.26,2.642,0.781,3.843
			C3.05-2.007,3.77-0.947,4.688-0.029s1.978,1.638,3.179,2.158S10.348,2.91,11.709,2.91z M11.709,1.25
			c-1.152,0-2.23-0.215-3.232-0.645c-1.003-0.43-1.883-1.023-2.642-1.782C5.076-1.936,4.484-2.815,4.058-3.818
			c-0.427-1.003-0.64-2.08-0.64-3.232s0.213-2.229,0.64-3.232c0.426-1.003,1.017-1.885,1.772-2.646
			c0.755-0.762,1.634-1.355,2.637-1.782c1.002-0.427,2.08-0.64,3.232-0.64s2.229,0.213,3.232,0.64
			c1.002,0.427,1.885,1.021,2.646,1.782s1.357,1.644,1.787,2.646s0.645,2.08,0.645,3.232s-0.213,2.229-0.64,3.232
			s-1.019,1.883-1.777,2.642s-1.641,1.353-2.646,1.782S12.862,1.25,11.709,1.25z M7.178-7.051c0,0.234,0.078,0.427,0.234,0.576
			S7.77-6.25,8.018-6.25h2.871v2.881c0,0.247,0.075,0.447,0.225,0.601c0.149,0.153,0.342,0.229,0.576,0.229
			c0.247,0,0.447-0.076,0.601-0.229c0.153-0.153,0.229-0.354,0.229-0.601V-6.25h2.881c0.247,0,0.447-0.075,0.601-0.225
			s0.229-0.342,0.229-0.576c0-0.247-0.076-0.447-0.229-0.601s-0.354-0.229-0.601-0.229H12.52v-2.871c0-0.254-0.077-0.457-0.229-0.61
			c-0.153-0.153-0.354-0.229-0.601-0.229c-0.234,0-0.427,0.078-0.576,0.234c-0.15,0.156-0.225,0.358-0.225,0.605v2.871H8.018
			c-0.254,0-0.458,0.076-0.61,0.229C7.254-7.498,7.178-7.298,7.178-7.051z"/>
	</g>
	<g transform="matrix(1 0 0 1 305.646 1933)">
		<path d="M14.971,5.664c1.393,0,2.723-0.217,3.989-0.649c1.266-0.433,2.43-1.04,3.491-1.821c1.061-0.781,1.983-1.702,2.768-2.764
			c0.785-1.062,1.394-2.227,1.826-3.496c0.434-1.27,0.65-2.598,0.65-3.984c0-1.394-0.217-2.723-0.65-3.989
			c-0.433-1.267-1.041-2.43-1.826-3.491c-0.784-1.062-1.707-1.984-2.768-2.769c-1.062-0.784-2.227-1.394-3.496-1.826
			s-2.602-0.649-3.995-0.649c-1.393,0-2.723,0.217-3.988,0.649c-1.267,0.433-2.429,1.042-3.487,1.826
			c-1.058,0.784-1.979,1.707-2.764,2.769c-0.784,1.062-1.391,2.225-1.82,3.491S2.256-8.444,2.256-7.051
			c0,1.387,0.216,2.715,0.648,3.984c0.434,1.27,1.041,2.435,1.822,3.496s1.702,1.982,2.764,2.764
			c1.061,0.781,2.225,1.389,3.49,1.821C12.248,5.447,13.578,5.664,14.971,5.664z M14.971,3.848c-1.205,0-2.353-0.184-3.443-0.552
			c-1.09-0.368-2.088-0.884-2.992-1.548C7.63,1.084,6.844,0.298,6.176-0.61C5.509-1.519,4.994-2.518,4.629-3.608
			C4.264-4.699,4.083-5.847,4.083-7.051c0-1.211,0.182-2.361,0.547-3.452c0.364-1.091,0.879-2.09,1.543-2.998
			s1.448-1.694,2.354-2.358c0.904-0.664,1.902-1.179,2.993-1.543c1.09-0.364,2.237-0.547,3.441-0.547
			c1.211,0,2.362,0.183,3.452,0.547c1.091,0.364,2.09,0.879,2.998,1.543s1.694,1.45,2.358,2.358s1.181,1.907,1.549,2.998
			c0.367,1.091,0.551,2.241,0.551,3.452c0.007,1.204-0.172,2.352-0.537,3.442c-0.364,1.091-0.88,2.09-1.547,2.998
			c-0.668,0.908-1.456,1.694-2.364,2.358s-1.907,1.18-2.997,1.548C17.333,3.664,16.182,3.848,14.971,3.848z M9.2-7.051
			c0,0.254,0.086,0.464,0.258,0.63c0.173,0.166,0.393,0.249,0.66,0.249h3.945v3.955c0,0.267,0.082,0.486,0.248,0.659
			s0.38,0.259,0.641,0.259c0.267,0,0.486-0.085,0.659-0.254c0.172-0.169,0.258-0.391,0.258-0.664v-3.955h3.955
			c0.268,0,0.485-0.083,0.655-0.249c0.169-0.166,0.253-0.376,0.253-0.63c0-0.273-0.084-0.495-0.253-0.664
			c-0.17-0.169-0.388-0.254-0.655-0.254h-3.955v-3.945c0-0.273-0.086-0.496-0.258-0.669c-0.173-0.173-0.393-0.259-0.659-0.259
			c-0.261,0-0.475,0.086-0.641,0.259s-0.248,0.396-0.248,0.669v3.945h-3.945c-0.273,0-0.495,0.085-0.664,0.254
			C9.284-7.546,9.2-7.324,9.2-7.051z"/>
	</g>
	<text transform="matrix(1 0 0 1 263 1953)" font-family="'Arial-BoldMT'" font-size="13">Design Variations</text>
	<text transform="matrix(1 0 0 1 263 1971)" font-family="'ArialMT'" font-size="13">Symbols are supported in up to nine weights and three scales.</text>
	<text transform="matrix(1 0 0 1 263 1989)" font-family="'ArialMT'" font-size="13">For optimal layout with text and other symbols, vertically align</text>
	<text transform="matrix(1 0 0 1 263 2007)" font-family="'ArialMT'" font-size="13">symbols with the adjacent text.</text>
	<line fill="none" stroke="#00AEEF" stroke-width="0.5" x1="776" y1="1919" x2="776" y2="1933"/>
	<g transform="matrix(1 0 0 1 776 1933)">
		<path d="M3.311,0.156c0.261,0,0.462-0.056,0.605-0.166s0.261-0.303,0.352-0.576l1.26-3.447h5.762l1.26,3.447
			C12.64-0.313,12.757-0.12,12.9-0.01s0.342,0.166,0.596,0.166c0.261,0,0.467-0.071,0.62-0.215s0.229-0.339,0.229-0.586
			c0-0.149-0.036-0.325-0.107-0.527l-4.58-12.197c-0.117-0.3-0.276-0.524-0.479-0.674s-0.459-0.225-0.771-0.225
			c-0.605,0-1.016,0.296-1.23,0.889L2.598-1.162C2.526-0.96,2.49-0.784,2.49-0.635c0,0.247,0.073,0.441,0.22,0.581
			S3.057,0.156,3.311,0.156z M6.006-5.518l2.373-6.572h0.049l2.373,6.572H6.006z"/>
	</g>
	<line fill="none" stroke="#00AEEF" stroke-width="0.5" x1="793.197" y1="1919" x2="793.197" y2="1933"/>
	<text transform="matrix(1 0 0 1 776 1953)" font-family="'Arial-BoldMT'" font-size="13">Margins</text>
	<text transform="matrix(1 0 0 1 776 1971)" font-family="'ArialMT'" font-size="13">Leading and trailing margins on the left and right side of each symbol</text>
	<text transform="matrix(1 0 0 1 776 1989)" font-family="'ArialMT'" font-size="13">can be adjusted by modifying the x-location of the margin guidelines.</text>
	<text transform="matrix(1 0 0 1 776 2007)" font-family="'ArialMT'" font-size="13">Modifications are automatically applied proportionally to all</text>
	<text transform="matrix(1 0 0 1 776 2025)" font-family="'ArialMT'" font-size="13">scales and weights.</text>
	<g transform="matrix(1 0 0 1 1289 1933)">
		<path d="M2.842,1.865l1.699,1.709c0.43,0.437,0.884,0.638,1.362,0.605s0.949-0.306,1.411-0.82L18.008-8.428l-0.967-0.977
			L6.426,2.275C6.25,2.478,6.072,2.591,5.894,2.617s-0.386-0.078-0.62-0.313L4.102,1.143c-0.234-0.234-0.337-0.441-0.308-0.62
			S3.938,0.163,4.141-0.02L15.615-10.82l-0.977-0.967L3.047-0.898c-0.495,0.456-0.76,0.921-0.796,1.396S2.412,1.429,2.842,1.865z
			 M9.258-16.328c-0.208,0.202-0.325,0.433-0.352,0.693s0.02,0.488,0.137,0.684c0.117,0.183,0.288,0.319,0.513,0.41
			s0.5,0.098,0.825,0.02c0.729-0.169,1.468-0.239,2.217-0.21s1.481,0.278,2.197,0.747l-0.586,1.455
			c-0.169,0.417-0.217,0.779-0.142,1.089s0.246,0.601,0.513,0.874l2.295,2.314c0.241,0.247,0.476,0.391,0.703,0.43
			s0.481,0.032,0.762-0.02l1.064-0.195l0.664,0.674l-0.039,0.557c-0.02,0.247,0.012,0.476,0.093,0.684s0.242,0.433,0.483,0.674
			l0.762,0.742c0.241,0.241,0.503,0.366,0.786,0.376s0.542-0.103,0.776-0.337l2.91-2.92c0.234-0.234,0.349-0.49,0.342-0.767
			s-0.13-0.535-0.371-0.776l-0.771-0.762c-0.234-0.241-0.454-0.405-0.659-0.493s-0.428-0.122-0.669-0.103l-0.576,0.049l-0.645-0.635
			l0.244-1.123c0.065-0.28,0.052-0.542-0.039-0.786s-0.283-0.513-0.576-0.806l-2.197-2.188c-0.833-0.827-1.721-1.447-2.661-1.86
			s-1.888-0.628-2.842-0.645s-1.872,0.158-2.754,0.522S9.98-17.051,9.258-16.328z M10.752-15.957
			c0.605-0.442,1.255-0.759,1.948-0.947s1.395-0.249,2.104-0.181s1.398,0.259,2.065,0.571s1.277,0.749,1.831,1.309l2.432,2.412
			c0.117,0.117,0.19,0.231,0.22,0.342s0.024,0.251-0.015,0.42l-0.322,1.484l1.504,1.484l0.986-0.059
			c0.124-0.007,0.218,0.002,0.283,0.024s0.146,0.083,0.244,0.181l0.576,0.576l-2.441,2.441l-0.576-0.576
			c-0.098-0.098-0.159-0.179-0.186-0.244s-0.036-0.163-0.029-0.293l0.068-0.977l-1.494-1.484l-1.523,0.254
			c-0.163,0.032-0.291,0.037-0.386,0.015s-0.203-0.093-0.327-0.21l-2.002-2.002c-0.13-0.117-0.203-0.229-0.22-0.337
			s0.015-0.252,0.093-0.435l0.879-2.09c-0.781-0.729-1.66-1.233-2.637-1.514s-1.973-0.271-2.988,0.029
			c-0.078,0.02-0.129,0.005-0.151-0.044S10.687-15.905,10.752-15.957z"/>
	</g>
	<text transform="matrix(1 0 0 1 1289 1953)" font-family="'Arial-BoldMT'" font-size="13">Exporting</text>
	<text transform="matrix(1 0 0 1 1289 1971)" font-family="'ArialMT'" font-size="13">Symbols should be outlined when exporting to ensure the</text>
	<text transform="matrix(1 0 0 1 1289 1989)" font-family="'ArialMT'" font-size="13">design is preserved when submitting to Xcode.</text>
	<text id="template-version" transform="matrix(1 0 0 1 2952.4199 1933)" font-family="'ArialMT'" font-size="13">Template v.3.0</text>
	<text transform="matrix(1 0 0 1 2865.457 1951)" font-family="'ArialMT'" font-size="13">Requires Xcode 13 or greater</text>
	<text id="descriptive-name" transform="matrix(1 0 0 1 2774.457 1969)" font-family="'ArialMT'" font-size="13">Generated from arrow.forward.to.line.circle.fill</text>
	<text transform="matrix(1 0 0 1 2912.418 1987)" font-family="'ArialMT'" font-size="13">Typeset at 100 points</text>
	<text transform="matrix(1 0 0 1 263 726)" font-family="'ArialMT'" font-size="13">Small</text>
	<text transform="matrix(1 0 0 1 263 1156)" font-family="'ArialMT'" font-size="13">Medium</text>
	<text transform="matrix(1 0 0 1 263 1586)" font-family="'ArialMT'" font-size="13">Large</text>
</g>
<g id="Guides">
	<g id="H-reference" transform="matrix(1 0 0 1 339 696)">
		<path fill="#27AAE1" d="M0.993,0h2.645l25.69-67.133h0.702v-3.326h-1.907L0.993,0z M11.688-24.479h35.293l-0.75-2.249H12.438
			L11.688-24.479z M55.119,0h2.645L30.638-70.459h-1.205v3.326L55.119,0z"/>
	</g>
	<line id="Baseline-S" fill="none" stroke="#27AAE1" stroke-width="0.5" x1="263" y1="696" x2="3036" y2="696"/>
	<line id="Capline-S" fill="none" stroke="#27AAE1" stroke-width="0.5" x1="263" y1="625.541" x2="3036" y2="625.541"/>
	<g id="H-reference_1_" transform="matrix(1 0 0 1 339 1126)">
		<path fill="#27AAE1" d="M0.993,0h2.645l25.69-67.133h0.702v-3.326h-1.907L0.993,0z M11.688-24.479h35.293l-0.75-2.249H12.438
			L11.688-24.479z M55.119,0h2.645L30.638-70.459h-1.205v3.326L55.119,0z"/>
	</g>
	<line id="Baseline-M" fill="none" stroke="#27AAE1" stroke-width="0.5" x1="263" y1="1126" x2="3036" y2="1126"/>
	<line id="Capline-M" fill="none" stroke="#27AAE1" stroke-width="0.5" x1="263" y1="1055.54" x2="3036" y2="1055.54"/>
	<g id="H-reference_2_" transform="matrix(1 0 0 1 339 1556)">
		<path fill="#27AAE1" d="M0.993,0h2.645l25.69-67.133h0.702v-3.326h-1.907L0.993,0z M11.688-24.479h35.293l-0.75-2.249H12.438
			L11.688-24.479z M55.119,0h2.645L30.638-70.459h-1.205v3.326L55.119,0z"/>
	</g>
	<line id="Baseline-L" fill="none" stroke="#27AAE1" stroke-width="0.5" x1="263" y1="1556" x2="3036" y2="1556"/>
	<line id="Capline-L" fill="none" stroke="#27AAE1" stroke-width="0.5" x1="263" y1="1485.54" x2="3036" y2="1485.54"/>
	
		<line id="left-margin-Ultralight-S" fill="none" stroke="#00AEEF" stroke-width="0.5" x1="515.649" y1="600.785" x2="515.649" y2="720.121"/>
	
		<line id="right-margin-Ultralight-S" fill="none" stroke="#00AEEF" stroke-width="0.5" x1="603.773" y1="600.785" x2="603.773" y2="720.121"/>
	
		<line id="left-margin-Regular-S" fill="none" stroke="#00AEEF" stroke-width="0.5" x1="1403.58" y1="600.785" x2="1403.58" y2="720.121"/>
	
		<line id="right-margin-Regular-S" fill="none" stroke="#00AEEF" stroke-width="0.5" x1="1496.11" y1="600.785" x2="1496.11" y2="720.121"/>
	
		<line id="left-margin-Black-S" fill="none" stroke="#00AEEF" stroke-width="0.5" x1="2884.57" y1="600.785" x2="2884.57" y2="720.121"/>
	
		<line id="right-margin-Black-S" fill="none" stroke="#00AEEF" stroke-width="0.5" x1="2982.23" y1="600.785" x2="2982.23" y2="720.121"/>
</g>
<g id="Symbols">
	<g id="Black-S" transform="matrix(1 0 0 1 2884.57 696)">
		<path fill="#8E8E8E" d="M27.502-0.123h42.37c4.427,0,7.884-1.243,10.357-3.727c2.495-2.484,3.737-5.94,3.737-10.368v-42.37
			c0-4.427-1.242-7.883-3.737-10.367c-2.474-2.484-5.931-3.726-10.357-3.726h-42.37c-4.428,0-7.883,1.242-10.367,3.726
			s-3.736,5.94-3.736,10.367v42.37c0,4.428,1.252,7.884,3.736,10.368C19.619-1.365,23.074-0.123,27.502-0.123z"/>
		<path d="M29.034-35.401c0-1.325,0.441-2.394,1.313-3.208c0.869-0.813,2.021-1.22,3.424-1.22h7.863l4.157,0.451l-2.384-1.985
			l-2.442-2.485c-0.432-0.423-0.784-0.881-1.063-1.377c-0.29-0.498-0.431-1.091-0.431-1.785c0-1.205,0.41-2.207,1.222-3.006
			c0.799-0.796,1.862-1.196,3.155-1.196c1.171,0,2.184,0.468,3.035,1.402l10.296,11.156c0.842,0.905,1.262,1.988,1.262,3.253
			c0,1.264-0.42,2.348-1.262,3.252L46.885-20.948c-0.4,0.484-0.871,0.829-1.424,1.039c-0.569,0.213-1.091,0.318-1.611,0.318
			c-1.293,0-2.356-0.4-3.155-1.196c-0.812-0.799-1.222-1.771-1.222-2.915c0-0.725,0.15-1.34,0.449-1.854
			c0.3-0.511,0.651-0.977,1.044-1.399l2.442-2.484l2.384-1.988l-4.157,0.454h-7.863c-1.403,0-2.555-0.406-3.424-1.219
			C29.476-33.008,29.034-34.078,29.034-35.401z M64.133-19.094c-1.143,0-2.134-0.416-2.956-1.243
			c-0.829-0.829-1.241-1.815-1.241-2.96v-24.21c0-1.144,0.412-2.131,1.241-2.959c0.822-0.828,1.813-1.243,2.956-1.243
			s2.132,0.416,2.966,1.243c0.82,0.828,1.243,1.815,1.243,2.959v24.21c0,1.145-0.423,2.132-1.243,2.96
			C66.265-19.51,65.276-19.094,64.133-19.094z"/>
	</g>
	<g id="Regular-S" transform="matrix(1 0 0 1 1403.58 696)">
		<path fill="#8E8E8E" d="M23.311,0.059h45.731c4.125,0,7.212-1.015,9.257-3.042c2.038-2.03,3.068-5.071,3.068-9.129v-46.072
			c0-4.055-1.03-7.096-3.068-9.125c-2.045-2.027-5.132-3.042-9.257-3.042H23.311c-4.085,0-7.161,1.015-9.218,3.042
			c-2.069,2.029-3.097,5.07-3.097,9.125v46.072c0,4.058,1.028,7.099,3.097,9.129C16.15-0.956,19.225,0.059,23.311,0.059z"/>
		<path d="M23.872-35.098c0-0.838,0.279-1.537,0.841-2.102c0.565-0.563,1.277-0.846,2.147-0.846h17.051l7.151,0.484l-8.12-7.003
			l-1.88-1.833c-0.286-0.289-0.502-0.618-0.631-0.991c-0.128-0.37-0.189-0.766-0.189-1.183c0-0.806,0.278-1.464,0.84-1.979
			c0.565-0.517,1.266-0.774,2.107-0.774c0.87,0,1.574,0.289,2.128,0.871L58.738-37.32c0.672,0.709,1.018,1.448,1.018,2.222
			c0,0.87-0.345,1.609-1.018,2.221L45.317-19.838c-0.256,0.292-0.605,0.513-1.02,0.677c-0.415,0.16-0.79,0.24-1.108,0.24
			c-0.869,0-1.582-0.264-2.126-0.797c-0.542-0.53-0.821-1.215-0.821-2.054c0-0.45,0.061-0.851,0.189-1.204
			c0.129-0.354,0.345-0.661,0.631-0.918l1.88-1.641l8.167-7.1l-7.199,0.58H26.861c-0.87,0-1.583-0.282-2.147-0.845
			C24.151-33.465,23.872-34.196,23.872-35.098z M65.503-17.424c-0.84,0-1.544-0.273-2.107-0.819
			c-0.564-0.548-0.841-1.258-0.841-2.126v-29.556c0-0.87,0.276-1.576,0.841-2.125c0.563-0.545,1.267-0.82,2.107-0.82
			c0.86,0,1.583,0.274,2.145,0.82c0.564,0.549,0.84,1.256,0.84,2.125v29.556c0,0.868-0.275,1.578-0.84,2.126
			C67.086-17.697,66.363-17.424,65.503-17.424z"/>
	</g>
	<g id="Ultralight-S" transform="matrix(1 0 0 1 515.649 696)">
		<path fill="#8E8E8E" d="M20.474-3.101h45.029c3.141,0,5.519-0.825,7.134-2.471c1.617-1.648,2.424-4.011,2.424-7.087v-45.079
			c0-3.076-0.807-5.43-2.424-7.062c-1.615-1.632-3.993-2.448-7.134-2.448H20.474c-3.141,0-5.518,0.809-7.134,2.423
			c-1.614,1.619-2.423,3.979-2.423,7.087v45.079c0,3.138,0.809,5.516,2.423,7.134C14.956-3.91,17.333-3.101,20.474-3.101z"/>
		<path d="M24.179-35.174c0-0.312,0.093-0.562,0.28-0.747c0.185-0.187,0.437-0.279,0.746-0.279h20.698l6.854,0.139l-6.901-6.897
			l-4.755-4.662c-0.155-0.124-0.271-0.267-0.349-0.42c-0.077-0.156-0.116-0.326-0.116-0.513c0-0.344,0.102-0.607,0.303-0.793
			c0.201-0.187,0.442-0.28,0.724-0.28c0.34,0,0.635,0.14,0.883,0.419l13.146,13.286c0.217,0.186,0.326,0.436,0.326,0.747
			c0,0.311-0.108,0.558-0.326,0.745l-12.96,13.1c-0.155,0.157-0.318,0.296-0.488,0.42c-0.17,0.124-0.382,0.187-0.63,0.187
			s-0.473-0.093-0.674-0.279c-0.202-0.189-0.303-0.453-0.303-0.794c0-0.185,0.04-0.356,0.116-0.512
			c0.079-0.154,0.194-0.296,0.349-0.42l4.895-4.802l6.761-6.758l-6.854,0.14H25.205c-0.309,0-0.561-0.093-0.746-0.281
			C24.272-34.616,24.179-34.863,24.179-35.174z M60.772-20.583c-0.279,0-0.512-0.094-0.698-0.279
			c-0.186-0.186-0.279-0.419-0.279-0.701v-27.225c0-0.278,0.093-0.512,0.279-0.698c0.187-0.187,0.419-0.279,0.698-0.279
			c0.313,0,0.561,0.092,0.747,0.279s0.279,0.42,0.279,0.698v27.225c0,0.282-0.094,0.515-0.279,0.701S61.085-20.583,60.772-20.583z"
			/>
	</g>
</g>
</svg>
